<svg width="32" height="25" viewBox="0 0 32 25" fill="none" xmlns="http://www.w3.org/2000/svg">
<path fill-rule="evenodd" clip-rule="evenodd" d="M0 12.2003C0 9.80244 1.93779 7.85715 4.32998 7.85715H20.527V8.68162H4.32998C2.39422 8.68162 0.823524 10.2562 0.823524 12.2003C0.823524 14.1444 2.39422 15.7189 4.32998 15.7189H20.527V16.5434H4.32998C1.93779 16.5434 0 14.5981 0 12.2003Z" fill="currentColor"/>
<path fill-rule="evenodd" clip-rule="evenodd" d="M19.5657 7.47538e-06L27.7781 0C30.1404 -4.13599e-07 32 2.15588 32 4.45876C32 6.79347 30.1099 8.68628 27.7782 8.68628L8.98947 8.68628C8.62765 9.79966 8.43179 10.9836 8.43179 12.205C8.43179 13.4273 8.62801 14.6111 8.99047 15.7236L27.7781 15.7236C30.1099 15.7236 32 17.6164 32 19.9511C32 22.2579 30.1368 24.3809 27.7781 24.3809L19.5657 24.381C12.9525 24.381 7.60827 18.8084 7.60827 12.205C7.60826 5.60281 12.9512 8.63348e-06 19.5657 7.47538e-06ZM9.29468 16.5481C10.9795 20.6247 14.9487 23.5565 19.5657 23.5565L27.7781 23.5565C29.628 23.5565 31.1765 21.8586 31.1765 19.9511C31.1765 18.0716 29.6549 16.5481 27.7781 16.5481H9.29468ZM9.2928 7.8618L27.7782 7.8618C29.6549 7.8618 31.1765 6.33829 31.1765 4.45876C31.1765 2.54739 29.6244 0.824476 27.7781 0.824477L19.5657 0.824484C14.9478 0.824485 10.9768 3.77427 9.2928 7.8618Z" fill="currentColor"/>
</svg>
