<svg width="183" height="115" viewBox="0 0 183 115" fill="none" xmlns="http://www.w3.org/2000/svg">
<g clip-path="url(#clip0_10748_2153)">
<rect width="182.503" height="114.323" rx="8.26429" fill="white" style="fill:white;fill-opacity:1;"/>
<rect x="8.26416" y="63.3594" width="89.7915" height="19.2833" rx="4.13214" fill="white" fill-opacity="0.1" style="fill:white;fill-opacity:0.1;"/>
<path d="M18.3852 61.4066C17.8857 61.4066 17.4302 61.3222 17.0188 61.1532C16.6148 60.9769 16.2659 60.7235 15.972 60.3929C15.6855 60.055 15.4615 59.6399 15.2999 59.1477C15.1456 58.6482 15.0685 58.0752 15.0685 57.4288C15.0685 56.7823 15.1456 56.213 15.2999 55.7208C15.4615 55.2213 15.6855 54.8062 15.972 54.4757C16.2659 54.1377 16.6148 53.8843 17.0188 53.7153C17.4302 53.539 17.8857 53.4509 18.3852 53.4509C18.8847 53.4509 19.3365 53.539 19.7405 53.7153C20.1519 53.8843 20.5008 54.1377 20.7873 54.4757C21.0812 54.8062 21.3052 55.2213 21.4595 55.7208C21.6211 56.213 21.7019 56.7823 21.7019 57.4288C21.7019 58.0752 21.6211 58.6482 21.4595 59.1477C21.3052 59.6399 21.0812 60.055 20.7873 60.3929C20.5008 60.7235 20.1519 60.9769 19.7405 61.1532C19.3365 61.3222 18.8847 61.4066 18.3852 61.4066ZM18.3852 60.2937C18.679 60.2937 18.9472 60.2423 19.1896 60.1395C19.4393 60.0366 19.6487 59.8897 19.8177 59.6987C19.994 59.5003 20.1299 59.2616 20.2254 58.9825C20.3209 58.7033 20.3686 58.3874 20.3686 58.0348V56.8227C20.3686 56.4701 20.3209 56.1542 20.2254 55.8751C20.1299 55.5959 19.994 55.3609 19.8177 55.1699C19.6487 54.9715 19.4393 54.8209 19.1896 54.7181C18.9472 54.6152 18.679 54.5638 18.3852 54.5638C18.084 54.5638 17.8122 54.6152 17.5698 54.7181C17.3274 54.8209 17.118 54.9715 16.9417 55.1699C16.7727 55.3609 16.6405 55.5959 16.545 55.8751C16.4495 56.1542 16.4018 56.4701 16.4018 56.8227V58.0348C16.4018 58.3874 16.4495 58.7033 16.545 58.9825C16.6405 59.2616 16.7727 59.5003 16.9417 59.6987C17.118 59.8897 17.3274 60.0366 17.5698 60.1395C17.8122 60.2423 18.084 60.2937 18.3852 60.2937ZM23.1665 61.2744V55.5445H24.3676V56.4921H24.4227C24.5476 56.1836 24.7349 55.9265 24.9847 55.7208C25.2418 55.5151 25.5907 55.4123 26.0315 55.4123C26.6191 55.4123 27.0746 55.6069 27.3978 55.9963C27.7284 56.3783 27.8937 56.9256 27.8937 57.6381V61.2744H26.6926V57.7924C26.6926 56.8962 26.3326 56.4481 25.6127 56.4481C25.4585 56.4481 25.3042 56.4701 25.1499 56.5142C25.003 56.5509 24.8708 56.6097 24.7533 56.6905C24.6357 56.7713 24.5402 56.8741 24.4668 56.999C24.4006 57.1239 24.3676 57.2708 24.3676 57.4398V61.2744H23.1665ZM29.5584 53.1203H30.7595V56.4921H30.8146C30.9395 56.1469 31.1415 55.8824 31.4206 55.6988C31.7071 55.5078 32.0414 55.4123 32.4234 55.4123C33.1506 55.4123 33.7126 55.6767 34.1093 56.2056C34.506 56.7272 34.7043 57.4618 34.7043 58.4095C34.7043 59.3571 34.506 60.0954 34.1093 60.6243C33.7126 61.1459 33.1506 61.4066 32.4234 61.4066C32.0414 61.4066 31.7071 61.3111 31.4206 61.1201C31.1415 60.9292 30.9395 60.6647 30.8146 60.3268H30.7595V61.2744H29.5584V53.1203ZM32.0597 60.3709C32.4785 60.3709 32.8127 60.2386 33.0625 59.9742C33.3122 59.7024 33.4371 59.3461 33.4371 58.9053V57.9136C33.4371 57.4728 33.3122 57.1202 33.0625 56.8558C32.8127 56.584 32.4785 56.4481 32.0597 56.4481C31.6924 56.4481 31.3839 56.5399 31.1341 56.7235C30.8844 56.8998 30.7595 57.1349 30.7595 57.4288V59.3902C30.7595 59.684 30.8844 59.9227 31.1341 60.1064C31.3839 60.2827 31.6924 60.3709 32.0597 60.3709ZM38.3273 61.4066C37.9307 61.4066 37.567 61.3369 37.2365 61.1973C36.9132 61.0577 36.6378 60.8594 36.41 60.6023C36.1823 60.3378 36.006 60.0219 35.8811 59.6546C35.7562 59.28 35.6938 58.8649 35.6938 58.4095C35.6938 57.954 35.7562 57.5426 35.8811 57.1753C36.006 56.8007 36.1823 56.4848 36.41 56.2277C36.6378 55.9632 36.9132 55.7612 37.2365 55.6216C37.567 55.4821 37.9307 55.4123 38.3273 55.4123C38.724 55.4123 39.084 55.4821 39.4072 55.6216C39.7378 55.7612 40.0169 55.9632 40.2447 56.2277C40.4724 56.4848 40.6487 56.8007 40.7736 57.1753C40.8985 57.5426 40.9609 57.954 40.9609 58.4095C40.9609 58.8649 40.8985 59.28 40.7736 59.6546C40.6487 60.0219 40.4724 60.3378 40.2447 60.6023C40.0169 60.8594 39.7378 61.0577 39.4072 61.1973C39.084 61.3369 38.724 61.4066 38.3273 61.4066ZM38.3273 60.4149C38.7387 60.4149 39.0693 60.29 39.3191 60.0403C39.5688 59.7832 39.6937 59.4012 39.6937 58.8943V57.9246C39.6937 57.4177 39.5688 57.0394 39.3191 56.7897C39.0693 56.5325 38.7387 56.404 38.3273 56.404C37.916 56.404 37.5854 56.5325 37.3356 56.7897C37.0859 57.0394 36.961 57.4177 36.961 57.9246V58.8943C36.961 59.4012 37.0859 59.7832 37.3356 60.0403C37.5854 60.29 37.916 60.4149 38.3273 60.4149ZM46.4975 61.2744C46.1816 61.2744 45.9392 61.1863 45.7702 61.01C45.6012 60.8263 45.4984 60.5949 45.4617 60.3158H45.4066C45.2964 60.6757 45.0944 60.9475 44.8005 61.1312C44.5067 61.3148 44.1504 61.4066 43.7317 61.4066C43.1366 61.4066 42.6775 61.2524 42.3543 60.9438C42.0384 60.6353 41.8805 60.2203 41.8805 59.6987C41.8805 59.1257 42.0862 58.696 42.4975 58.4095C42.9163 58.123 43.526 57.9797 44.3267 57.9797H45.3625V57.4949C45.3625 57.1423 45.267 56.8705 45.076 56.6795C44.885 56.4885 44.5875 56.393 44.1835 56.393C43.8455 56.393 43.5701 56.4664 43.357 56.6134C43.144 56.7603 42.964 56.9476 42.8171 57.1753L42.1009 56.5252C42.2919 56.202 42.56 55.9375 42.9052 55.7318C43.2505 55.5188 43.7023 55.4123 44.2606 55.4123C45.0025 55.4123 45.5719 55.5849 45.9685 55.9302C46.3652 56.2754 46.5636 56.7713 46.5636 57.4177V60.2937H47.1696V61.2744H46.4975ZM44.0733 60.4921C44.4479 60.4921 44.7564 60.4113 44.9989 60.2496C45.2413 60.0807 45.3625 59.8566 45.3625 59.5775V58.7511H44.3487C43.5186 58.7511 43.1036 59.0082 43.1036 59.5224V59.7207C43.1036 59.9778 43.1881 60.1725 43.357 60.3047C43.5333 60.4296 43.7721 60.4921 44.0733 60.4921ZM48.3468 61.2744V55.5445H49.5478V56.6464H49.6029C49.6837 56.3526 49.8527 56.0955 50.1098 55.8751C50.3669 55.6547 50.7232 55.5445 51.1787 55.5445H51.4982V56.7015H51.0244C50.5469 56.7015 50.1796 56.7786 49.9225 56.9329C49.6727 57.0872 49.5478 57.3149 49.5478 57.6161V61.2744H48.3468ZM56.1144 60.3268H56.0593C55.9344 60.6647 55.7288 60.9292 55.4423 61.1201C55.1631 61.3111 54.8325 61.4066 54.4505 61.4066C53.7233 61.4066 53.1613 61.1459 52.7646 60.6243C52.3679 60.0954 52.1696 59.3571 52.1696 58.4095C52.1696 57.4618 52.3679 56.7272 52.7646 56.2056C53.1613 55.6767 53.7233 55.4123 54.4505 55.4123C54.8325 55.4123 55.1631 55.5078 55.4423 55.6988C55.7288 55.8824 55.9344 56.1469 56.0593 56.4921H56.1144V53.1203H57.3155V61.2744H56.1144V60.3268ZM54.8142 60.3709C55.1815 60.3709 55.49 60.2827 55.7398 60.1064C55.9895 59.9227 56.1144 59.684 56.1144 59.3902V57.4288C56.1144 57.1349 55.9895 56.8998 55.7398 56.7235C55.49 56.5399 55.1815 56.4481 54.8142 56.4481C54.3955 56.4481 54.0612 56.584 53.8114 56.8558C53.5617 57.1202 53.4368 57.4728 53.4368 57.9136V58.9053C53.4368 59.3461 53.5617 59.7024 53.8114 59.9742C54.0612 60.2386 54.3955 60.3709 54.8142 60.3709ZM59.6383 54.5197C59.3885 54.5197 59.2049 54.461 59.0873 54.3434C58.9771 54.2259 58.922 54.0753 58.922 53.8916V53.7043C58.922 53.5207 58.9771 53.3701 59.0873 53.2525C59.2049 53.135 59.3885 53.0762 59.6383 53.0762C59.888 53.0762 60.068 53.135 60.1782 53.2525C60.2884 53.3701 60.3435 53.5207 60.3435 53.7043V53.8916C60.3435 54.0753 60.2884 54.2259 60.1782 54.3434C60.068 54.461 59.888 54.5197 59.6383 54.5197ZM59.0322 55.5445H60.2333V61.2744H59.0322V55.5445ZM61.9484 61.2744V55.5445H63.1495V56.4921H63.2046C63.3295 56.1836 63.5168 55.9265 63.7666 55.7208C64.0237 55.5151 64.3726 55.4123 64.8134 55.4123C65.401 55.4123 65.8565 55.6069 66.1797 55.9963C66.5103 56.3783 66.6756 56.9256 66.6756 57.6381V61.2744H65.4745V57.7924C65.4745 56.8962 65.1146 56.4481 64.3946 56.4481C64.2404 56.4481 64.0861 56.4701 63.9318 56.5142C63.7849 56.5509 63.6527 56.6097 63.5352 56.6905C63.4176 56.7713 63.3221 56.8741 63.2487 56.999C63.1825 57.1239 63.1495 57.2708 63.1495 57.4398V61.2744H61.9484ZM73.365 61.8143C73.365 62.4094 73.1373 62.8575 72.6818 63.1587C72.2264 63.4599 71.4844 63.6105 70.456 63.6105C69.9858 63.6105 69.5855 63.5774 69.2549 63.5113C68.9317 63.4525 68.6635 63.3644 68.4505 63.2468C68.2448 63.1293 68.0942 62.986 67.9987 62.8171C67.9032 62.6481 67.8555 62.4535 67.8555 62.2331C67.8555 61.9172 67.94 61.6711 68.1089 61.4948C68.2852 61.3185 68.5276 61.1973 68.8362 61.1312V61.01C68.4028 60.8704 68.1861 60.5765 68.1861 60.1284C68.1861 59.8346 68.2852 59.6105 68.4836 59.4563C68.6819 59.2947 68.9207 59.1808 69.1998 59.1147V59.0706C68.8619 58.909 68.6011 58.6849 68.4175 58.3984C68.2411 58.1046 68.153 57.763 68.153 57.3737C68.153 56.786 68.3477 56.3122 68.737 55.9522C69.1337 55.5923 69.6993 55.4123 70.4339 55.4123C70.838 55.4123 71.1832 55.471 71.4697 55.5886V55.4343C71.4697 55.1772 71.5285 54.9789 71.646 54.8393C71.7709 54.6924 71.9619 54.6189 72.219 54.6189H73.1006V55.5886H71.9325V55.82C72.1896 55.9889 72.388 56.2093 72.5276 56.4811C72.6671 56.7456 72.7369 57.0431 72.7369 57.3737C72.7369 57.954 72.5386 58.4242 72.1419 58.7841C71.7452 59.1367 71.1796 59.313 70.445 59.313C70.1658 59.313 69.916 59.2836 69.6957 59.2249C69.5487 59.2763 69.4202 59.3498 69.31 59.4453C69.1998 59.5334 69.1447 59.6509 69.1447 59.7979C69.1447 59.9521 69.2145 60.0623 69.3541 60.1284C69.4936 60.1945 69.692 60.2276 69.9491 60.2276H71.3595C72.0648 60.2276 72.5753 60.3709 72.8912 60.6573C73.2071 60.9365 73.365 61.3222 73.365 61.8143ZM72.2411 61.9466C72.2411 61.7482 72.1639 61.5903 72.0097 61.4728C71.8627 61.3552 71.5909 61.2965 71.1943 61.2965H69.2549C68.9904 61.4507 68.8582 61.6711 68.8582 61.9576C68.8582 62.1927 68.95 62.38 69.1337 62.5196C69.3247 62.6665 69.6442 62.7399 70.0924 62.7399H70.8416C71.7746 62.7399 72.2411 62.4755 72.2411 61.9466ZM70.445 58.4425C70.7976 58.4425 71.0694 58.3654 71.2604 58.2111C71.4587 58.0495 71.5579 57.8034 71.5579 57.4728V57.2525C71.5579 56.9219 71.4587 56.6795 71.2604 56.5252C71.0694 56.3636 70.7976 56.2828 70.445 56.2828C70.0924 56.2828 69.8169 56.3636 69.6185 56.5252C69.4275 56.6795 69.332 56.9219 69.332 57.2525V57.4728C69.332 57.8034 69.4275 58.0495 69.6185 58.2111C69.8169 58.3654 70.0924 58.4425 70.445 58.4425Z" fill="#191919" style="fill:#191919;fill:color(display-p3 0.0999 0.0999 0.0999);fill-opacity:1;"/>
<path d="M17.399 76.0369V81.6235H16.6469V76.0369H14.6594V75.3744H19.3865V76.0369H17.399ZM20.3469 74.9983H21.0631V77.7558H21.0989C21.2123 77.4932 21.3705 77.2843 21.5734 77.1291C21.7824 76.974 22.0599 76.8964 22.4061 76.8964C22.8836 76.8964 23.2596 77.0515 23.5342 77.3619C23.8147 77.6663 23.9549 78.099 23.9549 78.6601V81.6235H23.2387V78.7854C23.2387 77.9558 22.8895 77.541 22.1912 77.541C22.048 77.541 21.9077 77.5589 21.7704 77.5947C21.6391 77.6305 21.5197 77.6842 21.4123 77.7558C21.3049 77.8275 21.2183 77.92 21.1527 78.0334C21.093 78.1408 21.0631 78.2692 21.0631 78.4184V81.6235H20.3469V74.9983ZM27.1723 81.731C26.8559 81.731 26.5694 81.6743 26.3128 81.5609C26.0621 81.4475 25.8443 81.2863 25.6592 81.0774C25.4802 80.8625 25.3399 80.6089 25.2384 80.3164C25.1429 80.018 25.0952 79.6837 25.0952 79.3137C25.0952 78.9496 25.1429 78.6183 25.2384 78.3199C25.3399 78.0215 25.4802 77.7678 25.6592 77.5589C25.8443 77.344 26.0621 77.1799 26.3128 77.0665C26.5694 76.9531 26.8559 76.8964 27.1723 76.8964C27.4826 76.8964 27.7602 76.9531 28.0049 77.0665C28.2496 77.1799 28.4585 77.338 28.6316 77.541C28.8047 77.7379 28.936 77.9737 29.0255 78.2483C29.121 78.5228 29.1688 78.8242 29.1688 79.1525V79.4927H25.8472V79.7076C25.8472 79.9046 25.8771 80.0896 25.9368 80.2627C26.0024 80.4298 26.092 80.576 26.2054 80.7014C26.3247 80.8267 26.468 80.9252 26.6351 80.9968C26.8082 81.0685 27.0022 81.1043 27.217 81.1043C27.5095 81.1043 27.7632 81.0356 27.978 80.8983C28.1989 80.7611 28.369 80.5641 28.4884 80.3074L28.9987 80.6745C28.8495 80.9909 28.6167 81.2475 28.3004 81.4445C27.984 81.6355 27.608 81.731 27.1723 81.731ZM27.1723 77.4962C26.9753 77.4962 26.7963 77.532 26.6351 77.6036C26.4739 77.6693 26.3337 77.7648 26.2143 77.8901C26.1009 78.0155 26.0114 78.1647 25.9457 78.3378C25.8801 78.5049 25.8472 78.6899 25.8472 78.8929V78.9555H28.3988V78.8571C28.3988 78.4452 28.2854 78.117 28.0586 77.8722C27.8378 77.6216 27.5423 77.4962 27.1723 77.4962ZM36.3594 82.1339C36.3594 82.6113 36.1714 82.9605 35.7954 83.1814C35.4253 83.4082 34.8673 83.5216 34.1212 83.5216C33.399 83.5216 32.8797 83.4231 32.5634 83.2261C32.247 83.0292 32.0889 82.7486 32.0889 82.3845C32.0889 82.1339 32.1545 81.9369 32.2858 81.7936C32.4171 81.6564 32.5962 81.5549 32.823 81.4892V81.3908C32.5484 81.2594 32.4112 81.0446 32.4112 80.7461C32.4112 80.5134 32.4858 80.3373 32.635 80.2179C32.7842 80.0926 32.9752 80.0001 33.208 79.9404V79.9046C32.9334 79.7733 32.7186 79.5852 32.5634 79.3405C32.4142 79.0958 32.3395 78.8123 32.3395 78.49C32.3395 78.2572 32.3813 78.0423 32.4649 77.8454C32.5484 77.6484 32.6648 77.4813 32.8141 77.344C32.9692 77.2008 33.1513 77.0903 33.3602 77.0127C33.5751 76.9352 33.8138 76.8964 34.0764 76.8964C34.4047 76.8964 34.6972 76.956 34.9538 77.0754V76.9948C34.9538 76.8158 34.9956 76.6696 35.0792 76.5561C35.1627 76.4368 35.3 76.3771 35.491 76.3771H36.1804V77.0038H35.303V77.2992C35.4701 77.4425 35.5984 77.6156 35.688 77.8185C35.7835 78.0155 35.8312 78.2393 35.8312 78.49C35.8312 78.7228 35.7894 78.9376 35.7059 79.1346C35.6223 79.3316 35.5029 79.5017 35.3477 79.6449C35.1985 79.7822 35.0165 79.8896 34.8016 79.9672C34.5867 80.0448 34.348 80.0836 34.0854 80.0836C33.9362 80.0836 33.7869 80.0687 33.6377 80.0389C33.4825 80.0806 33.3423 80.1433 33.2169 80.2269C33.0916 80.3045 33.0289 80.4149 33.0289 80.5581C33.0289 80.6954 33.0946 80.7879 33.2259 80.8357C33.3572 80.8834 33.5273 80.9073 33.7362 80.9073H34.721C35.294 80.9073 35.7089 81.0177 35.9655 81.2386C36.2281 81.4534 36.3594 81.7519 36.3594 82.1339ZM35.688 82.1876C35.688 82.0025 35.6163 81.8533 35.4731 81.7399C35.3358 81.6325 35.0881 81.5788 34.73 81.5788H33.1901C32.9036 81.7101 32.7603 81.919 32.7603 82.2055C32.7603 82.4084 32.8349 82.5815 32.9842 82.7248C33.1393 82.868 33.399 82.9396 33.7631 82.9396H34.4256C34.8255 82.9396 35.1359 82.877 35.3567 82.7516C35.5775 82.6263 35.688 82.4383 35.688 82.1876ZM34.0854 79.5106C34.3898 79.5106 34.6315 79.439 34.8106 79.2958C34.9896 79.1465 35.0792 78.9197 35.0792 78.6153V78.3646C35.0792 78.0602 34.9896 77.8364 34.8106 77.6932C34.6315 77.544 34.3898 77.4694 34.0854 77.4694C33.781 77.4694 33.5392 77.544 33.3602 77.6932C33.1811 77.8364 33.0916 78.0602 33.0916 78.3646V78.6153C33.0916 78.9197 33.1811 79.1465 33.3602 79.2958C33.5392 79.439 33.781 79.5106 34.0854 79.5106ZM38.8883 81.731C38.5779 81.731 38.2944 81.6743 38.0378 81.5609C37.7811 81.4475 37.5603 81.2863 37.3752 81.0774C37.1962 80.8625 37.0559 80.6089 36.9545 80.3164C36.853 80.018 36.8023 79.6837 36.8023 79.3137C36.8023 78.9496 36.853 78.6183 36.9545 78.3199C37.0559 78.0215 37.1962 77.7678 37.3752 77.5589C37.5603 77.344 37.7811 77.1799 38.0378 77.0665C38.2944 76.9531 38.5779 76.8964 38.8883 76.8964C39.1987 76.8964 39.4792 76.9531 39.7299 77.0665C39.9865 77.1799 40.2074 77.344 40.3924 77.5589C40.5774 77.7678 40.7207 78.0215 40.8221 78.3199C40.9236 78.6183 40.9743 78.9496 40.9743 79.3137C40.9743 79.6837 40.9236 80.018 40.8221 80.3164C40.7207 80.6089 40.5774 80.8625 40.3924 81.0774C40.2074 81.2863 39.9865 81.4475 39.7299 81.5609C39.4792 81.6743 39.1987 81.731 38.8883 81.731ZM38.8883 81.0953C39.2763 81.0953 39.5926 80.9759 39.8373 80.7372C40.082 80.4984 40.2044 80.1344 40.2044 79.6449V78.9824C40.2044 78.493 40.082 78.1289 39.8373 77.8901C39.5926 77.6514 39.2763 77.532 38.8883 77.532C38.5003 77.532 38.184 77.6514 37.9393 77.8901C37.6946 78.1289 37.5722 78.493 37.5722 78.9824V79.6449C37.5722 80.1344 37.6946 80.4984 37.9393 80.7372C38.184 80.9759 38.5003 81.0953 38.8883 81.0953ZM45.5097 81.6235C45.2411 81.6235 45.0471 81.5519 44.9277 81.4087C44.8143 81.2654 44.7427 81.0864 44.7128 80.8715H44.6681C44.5666 81.158 44.3995 81.3729 44.1667 81.5161C43.9339 81.6593 43.6564 81.731 43.3341 81.731C42.8447 81.731 42.4627 81.6056 42.1881 81.3549C41.9195 81.1043 41.7852 80.764 41.7852 80.3343C41.7852 79.8986 41.9434 79.5643 42.2597 79.3316C42.582 79.0988 43.0804 78.9824 43.7549 78.9824H44.6681V78.5258C44.6681 78.1975 44.5786 77.9468 44.3995 77.7738C44.2204 77.6007 43.9459 77.5141 43.5758 77.5141C43.2953 77.5141 43.0595 77.5768 42.8685 77.7021C42.6835 77.8275 42.5283 77.9946 42.403 78.2035L41.9732 77.8006C42.0986 77.5499 42.2985 77.338 42.5731 77.165C42.8476 76.9859 43.1938 76.8964 43.6116 76.8964C44.1727 76.8964 44.6084 77.0336 44.9188 77.3082C45.2291 77.5828 45.3843 77.9648 45.3843 78.4542V80.9968H45.9125V81.6235H45.5097ZM43.4505 81.1222C43.6295 81.1222 43.7937 81.1013 43.9429 81.0595C44.0921 81.0177 44.2204 80.958 44.3279 80.8804C44.4353 80.8028 44.5189 80.7133 44.5786 80.6118C44.6382 80.5104 44.6681 80.4 44.6681 80.2806V79.5196H43.7191C43.3072 79.5196 43.0058 79.5793 42.8148 79.6986C42.6298 79.818 42.5373 79.9911 42.5373 80.2179V80.4059C42.5373 80.6327 42.6178 80.8088 42.779 80.9342C42.9461 81.0595 43.1699 81.1222 43.4505 81.1222ZM47.6958 81.6235C47.4451 81.6235 47.2541 81.5549 47.1228 81.4176C46.9975 81.2744 46.9348 81.0953 46.9348 80.8804V74.9983H47.651V80.9968H48.3315V81.6235H47.6958ZM53.2358 81.731C52.9254 81.731 52.6419 81.6743 52.3853 81.5609C52.1286 81.4475 51.9078 81.2863 51.7228 81.0774C51.5437 80.8625 51.4034 80.6089 51.302 80.3164C51.2005 80.018 51.1498 79.6837 51.1498 79.3137C51.1498 78.9496 51.2005 78.6183 51.302 78.3199C51.4034 78.0215 51.5437 77.7678 51.7228 77.5589C51.9078 77.344 52.1286 77.1799 52.3853 77.0665C52.6419 76.9531 52.9254 76.8964 53.2358 76.8964C53.5462 76.8964 53.8267 76.9531 54.0774 77.0665C54.334 77.1799 54.5549 77.344 54.7399 77.5589C54.9249 77.7678 55.0682 78.0215 55.1696 78.3199C55.2711 78.6183 55.3218 78.9496 55.3218 79.3137C55.3218 79.6837 55.2711 80.018 55.1696 80.3164C55.0682 80.6089 54.9249 80.8625 54.7399 81.0774C54.5549 81.2863 54.334 81.4475 54.0774 81.5609C53.8267 81.6743 53.5462 81.731 53.2358 81.731ZM53.2358 81.0953C53.6238 81.0953 53.9401 80.9759 54.1848 80.7372C54.4295 80.4984 54.5519 80.1344 54.5519 79.6449V78.9824C54.5519 78.493 54.4295 78.1289 54.1848 77.8901C53.9401 77.6514 53.6238 77.532 53.2358 77.532C52.8478 77.532 52.5315 77.6514 52.2868 77.8901C52.0421 78.1289 51.9197 78.493 51.9197 78.9824V79.6449C51.9197 80.1344 52.0421 80.4984 52.2868 80.7372C52.5315 80.9759 52.8478 81.0953 53.2358 81.0953ZM56.698 77.6305H55.946V77.0038H56.698V76.0727C56.698 75.7504 56.7816 75.4907 56.9487 75.2938C57.1158 75.0968 57.3695 74.9983 57.7097 74.9983H58.408V75.625H57.4143V77.0038H58.408V77.6305H57.4143V81.6235H56.698V77.6305ZM62.4865 81.6235C62.2359 81.6235 62.0449 81.5549 61.9136 81.4176C61.7882 81.2744 61.7255 81.0893 61.7255 80.8625V77.6305H60.9645V77.0038H61.3943C61.5495 77.0038 61.6539 76.974 61.7076 76.9143C61.7673 76.8486 61.7972 76.7382 61.7972 76.583V75.7235H62.4418V77.0038H63.4535V77.6305H62.4418V80.9968H63.3818V81.6235H62.4865ZM64.6047 74.9983H65.3209V77.7558H65.3567C65.4701 77.4932 65.6283 77.2843 65.8313 77.1291C66.0402 76.974 66.3177 76.8964 66.6639 76.8964C67.1414 76.8964 67.5174 77.0515 67.792 77.3619C68.0725 77.6663 68.2127 78.099 68.2127 78.6601V81.6235H67.4965V78.7854C67.4965 77.9558 67.1473 77.541 66.449 77.541C66.3058 77.541 66.1655 77.5589 66.0282 77.5947C65.8969 77.6305 65.7775 77.6842 65.6701 77.7558C65.5627 77.8275 65.4761 77.92 65.4105 78.0334C65.3508 78.1408 65.3209 78.2692 65.3209 78.4184V81.6235H64.6047V74.9983ZM71.4301 81.731C71.1137 81.731 70.8272 81.6743 70.5706 81.5609C70.3199 81.4475 70.1021 81.2863 69.917 81.0774C69.738 80.8625 69.5977 80.6089 69.4962 80.3164C69.4007 80.018 69.353 79.6837 69.353 79.3137C69.353 78.9496 69.4007 78.6183 69.4962 78.3199C69.5977 78.0215 69.738 77.7678 69.917 77.5589C70.1021 77.344 70.3199 77.1799 70.5706 77.0665C70.8272 76.9531 71.1137 76.8964 71.4301 76.8964C71.7404 76.8964 72.018 76.9531 72.2627 77.0665C72.5074 77.1799 72.7163 77.338 72.8894 77.541C73.0625 77.7379 73.1938 77.9737 73.2833 78.2483C73.3788 78.5228 73.4266 78.8242 73.4266 79.1525V79.4927H70.105V79.7076C70.105 79.9046 70.1349 80.0896 70.1946 80.2627C70.2602 80.4298 70.3498 80.576 70.4632 80.7014C70.5825 80.8267 70.7258 80.9252 70.8929 80.9968C71.066 81.0685 71.26 81.1043 71.4748 81.1043C71.7673 81.1043 72.021 81.0356 72.2358 80.8983C72.4567 80.7611 72.6268 80.5641 72.7462 80.3074L73.2565 80.6745C73.1073 80.9909 72.8745 81.2475 72.5582 81.4445C72.2418 81.6355 71.8658 81.731 71.4301 81.731ZM71.4301 77.4962C71.2331 77.4962 71.0541 77.532 70.8929 77.6036C70.7317 77.6693 70.5915 77.7648 70.4721 77.8901C70.3587 78.0155 70.2692 78.1647 70.2035 78.3378C70.1379 78.5049 70.105 78.6899 70.105 78.8929V78.9555H72.6566V78.8571C72.6566 78.4452 72.5432 78.117 72.3164 77.8722C72.0956 77.6216 71.8001 77.4962 71.4301 77.4962ZM75.9946 81.731C75.5648 81.731 75.2037 81.6504 74.9112 81.4892C74.6248 81.3221 74.3771 81.1013 74.1682 80.8267L74.6785 80.4149C74.8575 80.6417 75.0575 80.8178 75.2783 80.9431C75.4992 81.0625 75.7558 81.1222 76.0483 81.1222C76.3527 81.1222 76.5884 81.0565 76.7556 80.9252C76.9287 80.7939 77.0152 80.6089 77.0152 80.3701C77.0152 80.1911 76.9555 80.0389 76.8361 79.9135C76.7227 79.7822 76.5138 79.6927 76.2094 79.6449L75.8424 79.5912C75.6275 79.5614 75.4305 79.5166 75.2515 79.4569C75.0724 79.3913 74.9142 79.3077 74.777 79.2062C74.6456 79.0988 74.5412 78.9675 74.4636 78.8123C74.392 78.6571 74.3562 78.4721 74.3562 78.2572C74.3562 78.0304 74.3979 77.8334 74.4815 77.6663C74.5651 77.4932 74.6785 77.35 74.8217 77.2366C74.9709 77.1232 75.147 77.0396 75.3499 76.9859C75.5529 76.9262 75.7707 76.8964 76.0035 76.8964C76.3795 76.8964 76.6929 76.962 76.9436 77.0933C77.2002 77.2246 77.4241 77.4067 77.615 77.6395L77.1405 78.0692C77.0391 77.926 76.8899 77.7976 76.6929 77.6842C76.4959 77.5649 76.2482 77.5052 75.9498 77.5052C75.6514 77.5052 75.4246 77.5708 75.2694 77.7021C75.1202 77.8275 75.0455 78.0006 75.0455 78.2214C75.0455 78.4482 75.1202 78.6123 75.2694 78.7138C75.4246 78.8153 75.6454 78.8899 75.9319 78.9376L76.29 78.9914C76.8033 79.069 77.1674 79.2182 77.3823 79.439C77.5971 79.6539 77.7046 79.9374 77.7046 80.2895C77.7046 80.7372 77.5524 81.0893 77.248 81.346C76.9436 81.6026 76.5258 81.731 75.9946 81.731ZM80.7066 81.731C80.3902 81.731 80.1037 81.6743 79.8471 81.5609C79.5964 81.4475 79.3785 81.2863 79.1935 81.0774C79.0144 80.8625 78.8742 80.6089 78.7727 80.3164C78.6772 80.018 78.6295 79.6837 78.6295 79.3137C78.6295 78.9496 78.6772 78.6183 78.7727 78.3199C78.8742 78.0215 79.0144 77.7678 79.1935 77.5589C79.3785 77.344 79.5964 77.1799 79.8471 77.0665C80.1037 76.9531 80.3902 76.8964 80.7066 76.8964C81.0169 76.8964 81.2945 76.9531 81.5392 77.0665C81.7839 77.1799 81.9928 77.338 82.1659 77.541C82.339 77.7379 82.4703 77.9737 82.5598 78.2483C82.6553 78.5228 82.7031 78.8242 82.7031 79.1525V79.4927H79.3815V79.7076C79.3815 79.9046 79.4114 80.0896 79.471 80.2627C79.5367 80.4298 79.6262 80.576 79.7396 80.7014C79.859 80.8267 80.0023 80.9252 80.1694 80.9968C80.3425 81.0685 80.5365 81.1043 80.7513 81.1043C81.0438 81.1043 81.2975 81.0356 81.5123 80.8983C81.7332 80.7611 81.9033 80.5641 82.0226 80.3074L82.533 80.6745C82.3837 80.9909 82.151 81.2475 81.8346 81.4445C81.5183 81.6355 81.1423 81.731 80.7066 81.731ZM80.7066 77.4962C80.5096 77.4962 80.3305 77.532 80.1694 77.6036C80.0082 77.6693 79.868 77.7648 79.7486 77.8901C79.6352 78.0155 79.5457 78.1647 79.48 78.3378C79.4143 78.5049 79.3815 78.6899 79.3815 78.8929V78.9555H81.9331V78.8571C81.9331 78.4452 81.8197 78.117 81.5929 77.8722C81.3721 77.6216 81.0766 77.4962 80.7066 77.4962ZM89.8937 82.1339C89.8937 82.6113 89.7057 82.9605 89.3297 83.1814C88.9596 83.4082 88.4016 83.5216 87.6555 83.5216C86.9333 83.5216 86.414 83.4231 86.0977 83.2261C85.7813 83.0292 85.6231 82.7486 85.6231 82.3845C85.6231 82.1339 85.6888 81.9369 85.8201 81.7936C85.9514 81.6564 86.1305 81.5549 86.3573 81.4892V81.3908C86.0827 81.2594 85.9455 81.0446 85.9455 80.7461C85.9455 80.5134 86.0201 80.3373 86.1693 80.2179C86.3185 80.0926 86.5095 80.0001 86.7423 79.9404V79.9046C86.4677 79.7733 86.2528 79.5852 86.0977 79.3405C85.9484 79.0958 85.8738 78.8123 85.8738 78.49C85.8738 78.2572 85.9156 78.0423 85.9992 77.8454C86.0827 77.6484 86.1991 77.4813 86.3483 77.344C86.5035 77.2008 86.6856 77.0903 86.8945 77.0127C87.1093 76.9352 87.3481 76.8964 87.6107 76.8964C87.939 76.8964 88.2314 76.956 88.4881 77.0754V76.9948C88.4881 76.8158 88.5299 76.6696 88.6134 76.5561C88.697 76.4368 88.8343 76.3771 89.0253 76.3771H89.7147V77.0038H88.8373V77.2992C89.0044 77.4425 89.1327 77.6156 89.2222 77.8185C89.3177 78.0155 89.3655 78.2393 89.3655 78.49C89.3655 78.7228 89.3237 78.9376 89.2401 79.1346C89.1566 79.3316 89.0372 79.5017 88.882 79.6449C88.7328 79.7822 88.5508 79.8896 88.3359 79.9672C88.121 80.0448 87.8823 80.0836 87.6197 80.0836C87.4704 80.0836 87.3212 80.0687 87.172 80.0389C87.0168 80.0806 86.8766 80.1433 86.7512 80.2269C86.6259 80.3045 86.5632 80.4149 86.5632 80.5581C86.5632 80.6954 86.6289 80.7879 86.7602 80.8357C86.8915 80.8834 87.0616 80.9073 87.2705 80.9073H88.2553C88.8283 80.9073 89.2431 81.0177 89.4998 81.2386C89.7624 81.4534 89.8937 81.7519 89.8937 82.1339ZM89.2222 82.1876C89.2222 82.0025 89.1506 81.8533 89.0074 81.7399C88.8701 81.6325 88.6224 81.5788 88.2643 81.5788H86.7244C86.4379 81.7101 86.2946 81.919 86.2946 82.2055C86.2946 82.4084 86.3692 82.5815 86.5184 82.7248C86.6736 82.868 86.9333 82.9396 87.2974 82.9396H87.9599C88.3598 82.9396 88.6701 82.877 88.891 82.7516C89.1118 82.6263 89.2222 82.4383 89.2222 82.1876ZM87.6197 79.5106C87.9241 79.5106 88.1658 79.439 88.3449 79.2958C88.5239 79.1465 88.6134 78.9197 88.6134 78.6153V78.3646C88.6134 78.0602 88.5239 77.8364 88.3449 77.6932C88.1658 77.544 87.9241 77.4694 87.6197 77.4694C87.3153 77.4694 87.0735 77.544 86.8945 77.6932C86.7154 77.8364 86.6259 78.0602 86.6259 78.3646V78.6153C86.6259 78.9197 86.7154 79.1465 86.8945 79.2958C87.0735 79.439 87.3153 79.5106 87.6197 79.5106ZM93.5413 80.8715H93.5055C93.4577 80.9789 93.398 81.0864 93.3264 81.1938C93.2608 81.2953 93.1772 81.3878 93.0757 81.4713C92.9743 81.5489 92.8519 81.6116 92.7087 81.6593C92.5654 81.7071 92.3983 81.731 92.2073 81.731C91.7298 81.731 91.3508 81.5788 91.0703 81.2744C90.7897 80.964 90.6495 80.5283 90.6495 79.9672V77.0038H91.3657V79.8419C91.3657 80.6715 91.7179 81.0864 92.4222 81.0864C92.5654 81.0864 92.7027 81.0685 92.834 81.0326C92.9713 80.9968 93.0907 80.9431 93.1921 80.8715C93.2996 80.7999 93.3831 80.7103 93.4428 80.6029C93.5085 80.4895 93.5413 80.3552 93.5413 80.2V77.0038H94.2575V81.6235H93.5413V80.8715ZM96.1409 75.9205C95.9857 75.9205 95.8723 75.8847 95.8007 75.8131C95.735 75.7355 95.7022 75.637 95.7022 75.5176V75.4012C95.7022 75.2818 95.735 75.1863 95.8007 75.1147C95.8723 75.0371 95.9857 74.9983 96.1409 74.9983C96.2961 74.9983 96.4065 75.0371 96.4721 75.1147C96.5438 75.1863 96.5796 75.2818 96.5796 75.4012V75.5176C96.5796 75.637 96.5438 75.7355 96.4721 75.8131C96.4065 75.8847 96.2961 75.9205 96.1409 75.9205ZM95.7827 77.0038H96.499V81.6235H95.7827V77.0038ZM100.975 80.8715H100.94C100.659 81.4445 100.209 81.731 99.5878 81.731C99.3013 81.731 99.0416 81.6743 98.8089 81.5609C98.5761 81.4475 98.3761 81.2863 98.209 81.0774C98.0478 80.8685 97.9225 80.6148 97.833 80.3164C97.7494 80.018 97.7076 79.6837 97.7076 79.3137C97.7076 78.9436 97.7494 78.6094 97.833 78.3109C97.9225 78.0125 98.0478 77.7588 98.209 77.5499C98.3761 77.341 98.5761 77.1799 98.8089 77.0665C99.0416 76.9531 99.3013 76.8964 99.5878 76.8964C99.9101 76.8964 100.185 76.968 100.411 77.1112C100.644 77.2485 100.82 77.4634 100.94 77.7558H100.975V74.9983H101.692V81.6235H100.975V80.8715ZM99.7847 81.0864C99.9459 81.0864 100.098 81.0655 100.241 81.0237C100.391 80.9819 100.519 80.9222 100.626 80.8446C100.734 80.7611 100.817 80.6626 100.877 80.5492C100.943 80.4298 100.975 80.2955 100.975 80.1463V78.4273C100.975 78.302 100.943 78.1856 100.877 78.0782C100.817 77.9648 100.734 77.8693 100.626 77.7917C100.519 77.7141 100.391 77.6544 100.241 77.6126C100.098 77.5649 99.9459 77.541 99.7847 77.541C99.3789 77.541 99.0595 77.6693 98.8268 77.926C98.594 78.1766 98.4776 78.5079 98.4776 78.9197V79.7076C98.4776 80.1194 98.594 80.4537 98.8268 80.7103C99.0595 80.961 99.3789 81.0864 99.7847 81.0864ZM104.951 81.731C104.635 81.731 104.348 81.6743 104.092 81.5609C103.841 81.4475 103.623 81.2863 103.438 81.0774C103.259 80.8625 103.119 80.6089 103.017 80.3164C102.922 80.018 102.874 79.6837 102.874 79.3137C102.874 78.9496 102.922 78.6183 103.017 78.3199C103.119 78.0215 103.259 77.7678 103.438 77.5589C103.623 77.344 103.841 77.1799 104.092 77.0665C104.348 76.9531 104.635 76.8964 104.951 76.8964C105.262 76.8964 105.539 76.9531 105.784 77.0665C106.029 77.1799 106.238 77.338 106.411 77.541C106.584 77.7379 106.715 77.9737 106.805 78.2483C106.9 78.5228 106.948 78.8242 106.948 79.1525V79.4927H103.626V79.7076C103.626 79.9046 103.656 80.0896 103.716 80.2627C103.781 80.4298 103.871 80.576 103.984 80.7014C104.104 80.8267 104.247 80.9252 104.414 80.9968C104.587 81.0685 104.781 81.1043 104.996 81.1043C105.289 81.1043 105.542 81.0356 105.757 80.8983C105.978 80.7611 106.148 80.5641 106.267 80.3074L106.778 80.6745C106.628 80.9909 106.396 81.2475 106.079 81.4445C105.763 81.6355 105.387 81.731 104.951 81.731ZM104.951 77.4962C104.754 77.4962 104.575 77.532 104.414 77.6036C104.253 77.6693 104.113 77.7648 103.993 77.8901C103.88 78.0155 103.79 78.1647 103.725 78.3378C103.659 78.5049 103.626 78.6899 103.626 78.8929V78.9555H106.178V78.8571C106.178 78.4452 106.064 78.117 105.838 77.8722C105.617 77.6216 105.321 77.4962 104.951 77.4962ZM108.889 81.6235C108.638 81.6235 108.447 81.5549 108.316 81.4176C108.191 81.2744 108.128 81.0953 108.128 80.8804V74.9983H108.844V80.9968H109.525V81.6235H108.889ZM110.926 75.9205C110.77 75.9205 110.657 75.8847 110.585 75.8131C110.52 75.7355 110.487 75.637 110.487 75.5176V75.4012C110.487 75.2818 110.52 75.1863 110.585 75.1147C110.657 75.0371 110.77 74.9983 110.926 74.9983C111.081 74.9983 111.191 75.0371 111.257 75.1147C111.328 75.1863 111.364 75.2818 111.364 75.4012V75.5176C111.364 75.637 111.328 75.7355 111.257 75.8131C111.191 75.8847 111.081 75.9205 110.926 75.9205ZM110.567 77.0038H111.284V81.6235H110.567V77.0038ZM112.806 81.6235V77.0038H113.522V77.7558H113.558C113.671 77.4932 113.829 77.2843 114.032 77.1291C114.241 76.974 114.519 76.8964 114.865 76.8964C115.342 76.8964 115.718 77.0515 115.993 77.3619C116.273 77.6663 116.414 78.099 116.414 78.6601V81.6235H115.697V78.7854C115.697 77.9558 115.348 77.541 114.65 77.541C114.507 77.541 114.366 77.5589 114.229 77.5947C114.098 77.6305 113.978 77.6842 113.871 77.7558C113.764 77.8275 113.677 77.92 113.611 78.0334C113.552 78.1408 113.522 78.2692 113.522 78.4184V81.6235H112.806ZM119.631 81.731C119.315 81.731 119.028 81.6743 118.772 81.5609C118.521 81.4475 118.303 81.2863 118.118 81.0774C117.939 80.8625 117.799 80.6089 117.697 80.3164C117.602 80.018 117.554 79.6837 117.554 79.3137C117.554 78.9496 117.602 78.6183 117.697 78.3199C117.799 78.0215 117.939 77.7678 118.118 77.5589C118.303 77.344 118.521 77.1799 118.772 77.0665C119.028 76.9531 119.315 76.8964 119.631 76.8964C119.941 76.8964 120.219 76.9531 120.464 77.0665C120.708 77.1799 120.917 77.338 121.09 77.541C121.263 77.7379 121.395 77.9737 121.484 78.2483C121.58 78.5228 121.628 78.8242 121.628 79.1525V79.4927H118.306V79.7076C118.306 79.9046 118.336 80.0896 118.396 80.2627C118.461 80.4298 118.551 80.576 118.664 80.7014C118.783 80.8267 118.927 80.9252 119.094 80.9968C119.267 81.0685 119.461 81.1043 119.676 81.1043C119.968 81.1043 120.222 81.0356 120.437 80.8983C120.658 80.7611 120.828 80.5641 120.947 80.3074L121.457 80.6745C121.308 80.9909 121.075 81.2475 120.759 81.4445C120.443 81.6355 120.067 81.731 119.631 81.731ZM119.631 77.4962C119.434 77.4962 119.255 77.532 119.094 77.6036C118.933 77.6693 118.792 77.7648 118.673 77.8901C118.56 78.0155 118.47 78.1647 118.404 78.3378C118.339 78.5049 118.306 78.6899 118.306 78.8929V78.9555H120.858V78.8571C120.858 78.4452 120.744 78.117 120.517 77.8722C120.297 77.6216 120.001 77.4962 119.631 77.4962ZM124.196 81.731C123.766 81.731 123.405 81.6504 123.112 81.4892C122.826 81.3221 122.578 81.1013 122.369 80.8267L122.879 80.4149C123.058 80.6417 123.258 80.8178 123.479 80.9431C123.7 81.0625 123.957 81.1222 124.249 81.1222C124.554 81.1222 124.789 81.0565 124.957 80.9252C125.13 80.7939 125.216 80.6089 125.216 80.3701C125.216 80.1911 125.156 80.0389 125.037 79.9135C124.924 79.7822 124.715 79.6927 124.41 79.6449L124.043 79.5912C123.828 79.5614 123.631 79.5166 123.452 79.4569C123.273 79.3913 123.115 79.3077 122.978 79.2062C122.847 79.0988 122.742 78.9675 122.665 78.8123C122.593 78.6571 122.557 78.4721 122.557 78.2572C122.557 78.0304 122.599 77.8334 122.682 77.6663C122.766 77.4932 122.879 77.35 123.023 77.2366C123.172 77.1232 123.348 77.0396 123.551 76.9859C123.754 76.9262 123.972 76.8964 124.204 76.8964C124.581 76.8964 124.894 76.962 125.145 77.0933C125.401 77.2246 125.625 77.4067 125.816 77.6395L125.342 78.0692C125.24 77.926 125.091 77.7976 124.894 77.6842C124.697 77.5649 124.449 77.5052 124.151 77.5052C123.852 77.5052 123.626 77.5708 123.47 77.7021C123.321 77.8275 123.247 78.0006 123.247 78.2214C123.247 78.4482 123.321 78.6123 123.47 78.7138C123.626 78.8153 123.846 78.8899 124.133 78.9376L124.491 78.9914C125.004 79.069 125.368 79.2182 125.583 79.439C125.798 79.6539 125.906 79.9374 125.906 80.2895C125.906 80.7372 125.753 81.0893 125.449 81.346C125.145 81.6026 124.727 81.731 124.196 81.731ZM129.645 75.9205C129.489 75.9205 129.376 75.8847 129.304 75.8131C129.239 75.7355 129.206 75.637 129.206 75.5176V75.4012C129.206 75.2818 129.239 75.1863 129.304 75.1147C129.376 75.0371 129.489 74.9983 129.645 74.9983C129.8 74.9983 129.91 75.0371 129.976 75.1147C130.047 75.1863 130.083 75.2818 130.083 75.4012V75.5176C130.083 75.637 130.047 75.7355 129.976 75.8131C129.91 75.8847 129.8 75.9205 129.645 75.9205ZM129.286 77.0038H130.003V81.6235H129.286V77.0038ZM132.912 81.731C132.483 81.731 132.122 81.6504 131.829 81.4892C131.543 81.3221 131.295 81.1013 131.086 80.8267L131.596 80.4149C131.775 80.6417 131.975 80.8178 132.196 80.9431C132.417 81.0625 132.674 81.1222 132.966 81.1222C133.271 81.1222 133.506 81.0565 133.673 80.9252C133.847 80.7939 133.933 80.6089 133.933 80.3701C133.933 80.1911 133.873 80.0389 133.754 79.9135C133.641 79.7822 133.432 79.6927 133.127 79.6449L132.76 79.5912C132.545 79.5614 132.348 79.5166 132.169 79.4569C131.99 79.3913 131.832 79.3077 131.695 79.2062C131.564 79.0988 131.459 78.9675 131.381 78.8123C131.31 78.6571 131.274 78.4721 131.274 78.2572C131.274 78.0304 131.316 77.8334 131.399 77.6663C131.483 77.4932 131.596 77.35 131.74 77.2366C131.889 77.1232 132.065 77.0396 132.268 76.9859C132.471 76.9262 132.689 76.8964 132.921 76.8964C133.297 76.8964 133.611 76.962 133.861 77.0933C134.118 77.2246 134.342 77.4067 134.533 77.6395L134.058 78.0692C133.957 77.926 133.808 77.7976 133.611 77.6842C133.414 77.5649 133.166 77.5052 132.868 77.5052C132.569 77.5052 132.342 77.5708 132.187 77.7021C132.038 77.8275 131.963 78.0006 131.963 78.2214C131.963 78.4482 132.038 78.6123 132.187 78.7138C132.342 78.8153 132.563 78.8899 132.85 78.9376L133.208 78.9914C133.721 79.069 134.085 79.2182 134.3 79.439C134.515 79.6539 134.622 79.9374 134.622 80.2895C134.622 80.7372 134.47 81.0893 134.166 81.346C133.861 81.6026 133.444 81.731 132.912 81.731ZM139.024 81.6235C138.773 81.6235 138.582 81.5549 138.451 81.4176C138.326 81.2744 138.263 81.0893 138.263 80.8625V77.6305H137.502V77.0038H137.932C138.087 77.0038 138.191 76.974 138.245 76.9143C138.305 76.8486 138.335 76.7382 138.335 76.583V75.7235H138.979V77.0038H139.991V77.6305H138.979V80.9968H139.919V81.6235H139.024ZM142.853 81.731C142.543 81.731 142.259 81.6743 142.003 81.5609C141.746 81.4475 141.525 81.2863 141.34 81.0774C141.161 80.8625 141.021 80.6089 140.919 80.3164C140.818 80.018 140.767 79.6837 140.767 79.3137C140.767 78.9496 140.818 78.6183 140.919 78.3199C141.021 78.0215 141.161 77.7678 141.34 77.5589C141.525 77.344 141.746 77.1799 142.003 77.0665C142.259 76.9531 142.543 76.8964 142.853 76.8964C143.163 76.8964 143.444 76.9531 143.695 77.0665C143.951 77.1799 144.172 77.344 144.357 77.5589C144.542 77.7678 144.685 78.0215 144.787 78.3199C144.888 78.6183 144.939 78.9496 144.939 79.3137C144.939 79.6837 144.888 80.018 144.787 80.3164C144.685 80.6089 144.542 80.8625 144.357 81.0774C144.172 81.2863 143.951 81.4475 143.695 81.5609C143.444 81.6743 143.163 81.731 142.853 81.731ZM142.853 81.0953C143.241 81.0953 143.557 80.9759 143.802 80.7372C144.047 80.4984 144.169 80.1344 144.169 79.6449V78.9824C144.169 78.493 144.047 78.1289 143.802 77.8901C143.557 77.6514 143.241 77.532 142.853 77.532C142.465 77.532 142.149 77.6514 141.904 77.8901C141.659 78.1289 141.537 78.493 141.537 78.9824V79.6449C141.537 80.1344 141.659 80.4984 141.904 80.7372C142.149 80.9759 142.465 81.0953 142.853 81.0953ZM15.2234 95.6235V91.0038H15.9396V91.7558H15.9755C16.0292 91.6365 16.0889 91.5261 16.1545 91.4246C16.2261 91.3172 16.3097 91.2246 16.4052 91.147C16.5067 91.0695 16.6231 91.0098 16.7544 90.968C16.8857 90.9202 17.0409 90.8964 17.2199 90.8964C17.5243 90.8964 17.8048 90.971 18.0615 91.1202C18.3182 91.2634 18.5091 91.5022 18.6345 91.8364H18.6524C18.736 91.5857 18.8911 91.3679 19.118 91.1829C19.3507 90.9919 19.6641 90.8964 20.058 90.8964C20.5295 90.8964 20.8966 91.0515 21.1592 91.3619C21.4278 91.6663 21.5621 92.099 21.5621 92.6601V95.6235H20.8459V92.7854C20.8459 92.3736 20.7653 92.0632 20.6041 91.8543C20.443 91.6454 20.1863 91.541 19.8342 91.541C19.6909 91.541 19.5537 91.5589 19.4224 91.5947C19.297 91.6305 19.1836 91.6842 19.0821 91.7558C18.9807 91.8275 18.9001 91.92 18.8404 92.0334C18.7807 92.1408 18.7509 92.2692 18.7509 92.4184V95.6235H18.0346V92.7854C18.0346 92.3736 17.9541 92.0632 17.7929 91.8543C17.6318 91.6454 17.3811 91.541 17.0409 91.541C16.8976 91.541 16.7603 91.5589 16.629 91.5947C16.4977 91.6305 16.3813 91.6842 16.2799 91.7558C16.1784 91.8275 16.0948 91.92 16.0292 92.0334C15.9695 92.1408 15.9396 92.2692 15.9396 92.4184V95.6235H15.2234ZM26.3971 95.6235C26.1286 95.6235 25.9346 95.5519 25.8152 95.4087C25.7018 95.2654 25.6302 95.0864 25.6003 94.8715H25.5556C25.4541 95.158 25.287 95.3729 25.0542 95.5161C24.8214 95.6593 24.5439 95.731 24.2216 95.731C23.7321 95.731 23.3501 95.6056 23.0756 95.3549C22.807 95.1043 22.6727 94.764 22.6727 94.3343C22.6727 93.8986 22.8309 93.5643 23.1472 93.3316C23.4695 93.0988 23.9679 92.9824 24.6424 92.9824H25.5556V92.5258C25.5556 92.1975 25.466 91.9468 25.287 91.7738C25.1079 91.6007 24.8334 91.5141 24.4633 91.5141C24.1828 91.5141 23.947 91.5768 23.756 91.7021C23.571 91.8275 23.4158 91.9946 23.2905 92.2035L22.8607 91.8006C22.9861 91.5499 23.186 91.338 23.4606 91.165C23.7351 90.9859 24.0813 90.8964 24.4991 90.8964C25.0602 90.8964 25.4959 91.0336 25.8062 91.3082C26.1166 91.5828 26.2718 91.9648 26.2718 92.4542V94.9968H26.8V95.6235H26.3971ZM24.338 95.1222C24.517 95.1222 24.6812 95.1013 24.8304 95.0595C24.9796 95.0177 25.1079 94.958 25.2154 94.8804C25.3228 94.8028 25.4063 94.7133 25.466 94.6118C25.5257 94.5104 25.5556 94.4 25.5556 94.2806V93.5196H24.6065C24.1947 93.5196 23.8933 93.5793 23.7023 93.6986C23.5173 93.818 23.4248 93.9911 23.4248 94.2179V94.4059C23.4248 94.6327 23.5053 94.8088 23.6665 94.9342C23.8336 95.0595 24.0574 95.1222 24.338 95.1222ZM27.8223 88.9983H28.5385V93.1973H28.5743L29.2816 92.4094L30.5888 91.0038H31.4572L29.7472 92.8302L31.6273 95.6235H30.7589L29.2279 93.2689L28.5385 93.9762V95.6235H27.8223V88.9983ZM34.1318 95.731C33.8155 95.731 33.529 95.6743 33.2723 95.5609C33.0217 95.4475 32.8038 95.2863 32.6188 95.0774C32.4397 94.8625 32.2994 94.6089 32.198 94.3164C32.1025 94.018 32.0547 93.6837 32.0547 93.3137C32.0547 92.9496 32.1025 92.6183 32.198 92.3199C32.2994 92.0215 32.4397 91.7678 32.6188 91.5589C32.8038 91.344 33.0217 91.1799 33.2723 91.0665C33.529 90.9531 33.8155 90.8964 34.1318 90.8964C34.4422 90.8964 34.7197 90.9531 34.9644 91.0665C35.2092 91.1799 35.4181 91.338 35.5912 91.541C35.7642 91.7379 35.8956 91.9737 35.9851 92.2483C36.0806 92.5228 36.1283 92.8242 36.1283 93.1525V93.4927H32.8068V93.7076C32.8068 93.9046 32.8366 94.0896 32.8963 94.2627C32.962 94.4298 33.0515 94.576 33.1649 94.7014C33.2843 94.8267 33.4275 94.9252 33.5946 94.9968C33.7677 95.0685 33.9617 95.1043 34.1766 95.1043C34.4691 95.1043 34.7227 95.0356 34.9376 94.8983C35.1584 94.7611 35.3285 94.5641 35.4479 94.3074L35.9582 94.6745C35.809 94.9909 35.5762 95.2475 35.2599 95.4445C34.9436 95.6355 34.5675 95.731 34.1318 95.731ZM34.1318 91.4962C33.9349 91.4962 33.7558 91.532 33.5946 91.6036C33.4335 91.6693 33.2932 91.7648 33.1739 91.8901C33.0604 92.0155 32.9709 92.1647 32.9053 92.3378C32.8396 92.5049 32.8068 92.6899 32.8068 92.8929V92.9555H35.3584V92.8571C35.3584 92.4452 35.245 92.117 35.0182 91.8722C34.7973 91.6216 34.5019 91.4962 34.1318 91.4962ZM40.2033 89.3744V93.242C40.2033 93.8389 40.3138 94.2925 40.5346 94.6029C40.7554 94.9073 41.1434 95.0595 41.6985 95.0595C42.2536 95.0595 42.6415 94.9073 42.8624 94.6029C43.0832 94.2925 43.1936 93.8389 43.1936 93.242V89.3744H43.9457V93.063C43.9457 93.5166 43.9039 93.9105 43.8203 94.2448C43.7428 94.579 43.6144 94.8566 43.4354 95.0774C43.2563 95.2982 43.0205 95.4624 42.7281 95.5698C42.4416 95.6773 42.0894 95.731 41.6716 95.731C41.2538 95.731 40.9017 95.6773 40.6152 95.5698C40.3347 95.4624 40.1078 95.2982 39.9348 95.0774C39.7617 94.8566 39.6363 94.579 39.5587 94.2448C39.4871 93.9105 39.4513 93.5166 39.4513 93.063V89.3744H40.2033ZM45.2684 95.6235V94.9968H46.1457V90.0011H45.2684V89.3744H47.7752V90.0011H46.8978V94.9968H47.7752V95.6235H45.2684ZM52.2133 95.6235C51.9627 95.6235 51.7717 95.5549 51.6404 95.4176C51.515 95.2744 51.4523 95.0893 51.4523 94.8625V91.6305H50.6913V91.0038H51.1211C51.2763 91.0038 51.3807 90.974 51.4344 90.9143C51.4941 90.8486 51.524 90.7382 51.524 90.583V89.7235H52.1686V91.0038H53.1803V91.6305H52.1686V94.9968H53.1086V95.6235H52.2133ZM56.0334 95.731C55.7171 95.731 55.4306 95.6743 55.1739 95.5609C54.9232 95.4475 54.7054 95.2863 54.5203 95.0774C54.3413 94.8625 54.201 94.6089 54.0996 94.3164C54.0041 94.018 53.9563 93.6837 53.9563 93.3137C53.9563 92.9496 54.0041 92.6183 54.0996 92.3199C54.201 92.0215 54.3413 91.7678 54.5203 91.5589C54.7054 91.344 54.9232 91.1799 55.1739 91.0665C55.4306 90.9531 55.7171 90.8964 56.0334 90.8964C56.3438 90.8964 56.6213 90.9531 56.866 91.0665C57.1107 91.1799 57.3196 91.338 57.4927 91.541C57.6658 91.7379 57.7971 91.9737 57.8867 92.2483C57.9822 92.5228 58.0299 92.8242 58.0299 93.1525V93.4927H54.7084V93.7076C54.7084 93.9046 54.7382 94.0896 54.7979 94.2627C54.8635 94.4298 54.9531 94.576 55.0665 94.7014C55.1859 94.8267 55.3291 94.9252 55.4962 94.9968C55.6693 95.0685 55.8633 95.1043 56.0782 95.1043C56.3706 95.1043 56.6243 95.0356 56.8392 94.8983C57.06 94.7611 57.2301 94.5641 57.3495 94.3074L57.8598 94.6745C57.7106 94.9909 57.4778 95.2475 57.1615 95.4445C56.8451 95.6355 56.4691 95.731 56.0334 95.731ZM56.0334 91.4962C55.8364 91.4962 55.6574 91.532 55.4962 91.6036C55.3351 91.6693 55.1948 91.7648 55.0754 91.8901C54.962 92.0155 54.8725 92.1647 54.8068 92.3378C54.7412 92.5049 54.7084 92.6899 54.7084 92.8929V92.9555H57.26V92.8571C57.26 92.4452 57.1466 92.117 56.9197 91.8722C56.6989 91.6216 56.4035 91.4962 56.0334 91.4962ZM58.5323 95.6235L60.2423 93.2958L58.6039 91.0038H59.4455L60.6183 92.7228H60.6452L61.8628 91.0038H62.6596L61.0301 93.242L62.6954 95.6235H61.8538L60.6541 93.815H60.6273L59.3291 95.6235H58.5323ZM64.6636 95.6235C64.4129 95.6235 64.2219 95.5549 64.0906 95.4176C63.9653 95.2744 63.9026 95.0893 63.9026 94.8625V91.6305H63.1416V91.0038H63.5713C63.7265 91.0038 63.831 90.974 63.8847 90.9143C63.9444 90.8486 63.9742 90.7382 63.9742 90.583V89.7235H64.6188V91.0038H65.6305V91.6305H64.6188V94.9968H65.5589V95.6235H64.6636ZM67.2383 95.731C67.0473 95.731 66.9071 95.6832 66.8175 95.5877C66.734 95.4922 66.6922 95.3669 66.6922 95.2117V95.0953C66.6922 94.9401 66.734 94.8148 66.8175 94.7193C66.9071 94.6238 67.0473 94.576 67.2383 94.576C67.4293 94.576 67.5666 94.6238 67.6502 94.7193C67.7397 94.8148 67.7845 94.9401 67.7845 95.0953V95.2117C67.7845 95.3669 67.7397 95.4922 67.6502 95.5877C67.5666 95.6832 67.4293 95.731 67.2383 95.731ZM69.6777 95.731C69.4867 95.731 69.3464 95.6832 69.2569 95.5877C69.1733 95.4922 69.1315 95.3669 69.1315 95.2117V95.0953C69.1315 94.9401 69.1733 94.8148 69.2569 94.7193C69.3464 94.6238 69.4867 94.576 69.6777 94.576C69.8687 94.576 70.0059 94.6238 70.0895 94.7193C70.179 94.8148 70.2238 94.9401 70.2238 95.0953V95.2117C70.2238 95.3669 70.179 95.4922 70.0895 95.5877C70.0059 95.6832 69.8687 95.731 69.6777 95.731ZM72.117 95.731C71.926 95.731 71.7858 95.6832 71.6962 95.5877C71.6127 95.4922 71.5709 95.3669 71.5709 95.2117V95.0953C71.5709 94.9401 71.6127 94.8148 71.6962 94.7193C71.7858 94.6238 71.926 94.576 72.117 94.576C72.308 94.576 72.4453 94.6238 72.5288 94.7193C72.6184 94.8148 72.6631 94.9401 72.6631 95.0953V95.2117C72.6631 95.3669 72.6184 95.4922 72.5288 95.5877C72.4453 95.6832 72.308 95.731 72.117 95.731Z" fill="#727272" style="fill:#727272;fill:color(display-p3 0.4471 0.4471 0.4471);fill-opacity:1;"/>
<circle opacity="0.7" cx="29.2693" cy="26.5144" r="14.8069" fill="#EBE3F5" style="fill:#EBE3F5;fill:color(display-p3 0.9216 0.8902 0.9608);fill-opacity:1;"/>
<rect x="176.305" y="-1.37744" width="6.19822" height="122.587" fill="#E6DCF4" style="fill:#E6DCF4;fill:color(display-p3 0.9039 0.8641 0.9559);fill-opacity:1;"/>
<path d="M30.9107 25.5363H26.9647M28.28 28.167H26.9647M32.2261 22.9056H26.9647M34.8568 22.774V29.6139C34.8568 30.7189 34.8568 31.2714 34.6418 31.6934C34.4526 32.0647 34.1508 32.3665 33.7795 32.5557C33.3575 32.7707 32.805 32.7707 31.7 32.7707H27.4908C26.3858 32.7707 25.8333 32.7707 25.4113 32.5557C25.04 32.3665 24.7382 32.0647 24.549 31.6934C24.334 31.2714 24.334 30.7189 24.334 29.6139V22.774C24.334 21.669 24.334 21.1165 24.549 20.6945C24.7382 20.3232 25.04 20.0214 25.4113 19.8322C25.8333 19.6172 26.3858 19.6172 27.4908 19.6172H31.7C32.805 19.6172 33.3575 19.6172 33.7795 19.8322C34.1508 20.0214 34.4526 20.3232 34.6418 20.6945C34.8568 21.1165 34.8568 21.669 34.8568 22.774Z" stroke="#694794" style="stroke:#694794;stroke:color(display-p3 0.4118 0.2784 0.5804);stroke-opacity:1;" stroke-width="0.657676" stroke-linecap="round" stroke-linejoin="round"/>
</g>
<defs>
<clipPath id="clip0_10748_2153">
<rect width="182.503" height="114.323" rx="8.26429" fill="white" style="fill:white;fill-opacity:1;"/>
</clipPath>
</defs>
</svg>
