<svg width="278" height="174" viewBox="0 0 278 174" fill="none" xmlns="http://www.w3.org/2000/svg">
<g clip-path="url(#clip0_6_232)">
<rect y="0.0393066" width="277.497" height="173.828" rx="12.5659" fill="white"/>
<rect x="12.5659" y="96.3777" width="136.529" height="29.3204" rx="6.28295" fill="white" fill-opacity="0.1"/>
<path d="M27.8208 93.6828C26.2906 93.6828 25.0899 93.169 24.2186 92.1414C23.3474 91.1026 22.9118 89.6003 22.9118 87.6344C22.9118 86.6515 23.0235 85.7858 23.2469 85.0375C23.4702 84.2891 23.7942 83.658 24.2186 83.1442C24.6431 82.6304 25.1569 82.245 25.76 81.9881C26.3744 81.7201 27.0613 81.586 27.8208 81.586C28.8373 81.586 29.6862 81.8094 30.3675 82.2562C31.0601 82.703 31.6018 83.362 31.9927 84.2332L30.401 85.1045C30.2 84.546 29.8872 84.1048 29.4628 83.7809C29.0495 83.4458 28.5022 83.2782 27.8208 83.2782C26.9161 83.2782 26.2068 83.5854 25.693 84.1997C25.1792 84.8141 24.9223 85.663 24.9223 86.7464V88.5224C24.9223 89.6059 25.1792 90.4548 25.693 91.0691C26.2068 91.6834 26.9161 91.9906 27.8208 91.9906C28.5245 91.9906 29.0942 91.8119 29.5298 91.4544C29.9766 91.0858 30.3061 90.6167 30.5183 90.0471L32.043 90.9686C31.652 91.8175 31.1047 92.4821 30.401 92.9624C29.6974 93.4426 28.8373 93.6828 27.8208 93.6828ZM40.2994 93.4817C39.8191 93.4817 39.4505 93.3477 39.1936 93.0796C38.9367 92.8004 38.7804 92.4485 38.7245 92.0241H38.6407C38.4732 92.5714 38.166 92.9847 37.7192 93.2639C37.2725 93.5432 36.7307 93.6828 36.094 93.6828C35.1893 93.6828 34.4912 93.4482 33.9997 92.9791C33.5194 92.51 33.2793 91.8789 33.2793 91.0858C33.2793 90.2146 33.592 89.5612 34.2175 89.1256C34.8542 88.6899 35.7813 88.4721 36.9988 88.4721H38.5737V87.7349C38.5737 87.1988 38.4285 86.7855 38.1381 86.4951C37.8477 86.2047 37.3953 86.0595 36.781 86.0595C36.2672 86.0595 35.8483 86.1712 35.5244 86.3946C35.2005 86.618 34.9268 86.9028 34.7034 87.2491L33.6144 86.2605C33.9048 85.7691 34.3125 85.367 34.8375 85.0542C35.3624 84.7303 36.0494 84.5683 36.8983 84.5683C38.0264 84.5683 38.8921 84.8308 39.4952 85.3558C40.0984 85.8808 40.4 86.6347 40.4 87.6177V91.9906H41.3215V93.4817H40.2994ZM36.6134 92.2922C37.1831 92.2922 37.6522 92.1693 38.0208 91.9236C38.3894 91.6667 38.5737 91.326 38.5737 90.9015V89.645H37.0323C35.7701 89.645 35.139 90.0359 35.139 90.8178V91.1194C35.139 91.5103 35.2675 91.8063 35.5244 92.0073C35.7925 92.1972 36.1555 92.2922 36.6134 92.2922ZM43.1113 93.4817V84.7694H44.9376V86.2103H45.0213C45.2112 85.7411 45.496 85.3502 45.8758 85.0375C46.2668 84.7247 46.7973 84.5683 47.4675 84.5683C48.3611 84.5683 49.0536 84.8643 49.5451 85.4563C50.0477 86.0371 50.299 86.8693 50.299 87.9527V93.4817H48.4728V88.1873C48.4728 86.8246 47.9255 86.1433 46.8308 86.1433C46.5963 86.1433 46.3617 86.1768 46.1271 86.2438C45.9037 86.2996 45.7027 86.389 45.524 86.5119C45.3453 86.6347 45.2001 86.7911 45.0884 86.981C44.9878 87.1709 44.9376 87.3943 44.9376 87.6512V93.4817H43.1113ZM56.1979 93.6828C55.5724 93.6828 55.0139 93.5767 54.5225 93.3645C54.031 93.1522 53.6177 92.8507 53.2826 92.4597C52.9475 92.0576 52.6906 91.5773 52.5119 91.0188C52.3332 90.4492 52.2438 89.8181 52.2438 89.1256C52.2438 88.433 52.3332 87.8075 52.5119 87.2491C52.6906 86.6794 52.9475 86.1991 53.2826 85.8082C53.6177 85.4061 54.031 85.0989 54.5225 84.8867C55.0139 84.6744 55.5724 84.5683 56.1979 84.5683C57.0692 84.5683 57.784 84.7638 58.3425 85.1547C58.901 85.5457 59.3087 86.0651 59.5656 86.7129L58.0577 87.4166C57.9348 87.0145 57.717 86.6962 57.4042 86.4616C57.1027 86.2159 56.7006 86.093 56.1979 86.093C55.5277 86.093 55.0195 86.3052 54.6733 86.7297C54.3382 87.1429 54.1706 87.6847 54.1706 88.3549V89.913C54.1706 90.5832 54.3382 91.1305 54.6733 91.555C55.0195 91.9682 55.5277 92.1749 56.1979 92.1749C56.7341 92.1749 57.1585 92.0464 57.4713 91.7895C57.7952 91.5215 58.0521 91.1696 58.242 90.734L59.6326 91.4712C59.3422 92.1861 58.9066 92.7334 58.3257 93.1131C57.7449 93.4929 57.0356 93.6828 56.1979 93.6828ZM64.6909 93.6828C64.0654 93.6828 63.5069 93.5767 63.0154 93.3645C62.524 93.1522 62.1051 92.8507 61.7589 92.4597C61.4126 92.0576 61.1445 91.5773 60.9546 91.0188C60.7759 90.4492 60.6866 89.8181 60.6866 89.1256C60.6866 88.433 60.7759 87.8075 60.9546 87.2491C61.1445 86.6794 61.4126 86.1991 61.7589 85.8082C62.1051 85.4061 62.524 85.0989 63.0154 84.8867C63.5069 84.6744 64.0654 84.5683 64.6909 84.5683C65.3276 84.5683 65.8861 84.68 66.3664 84.9034C66.8578 85.1268 67.2655 85.4396 67.5894 85.8417C67.9134 86.2326 68.1535 86.6906 68.3099 87.2155C68.4774 87.7405 68.5612 88.3046 68.5612 88.9078V89.5947H62.5798V89.8795C62.5798 90.5497 62.7753 91.1026 63.1662 91.5382C63.5683 91.9627 64.138 92.1749 64.8752 92.1749C65.4113 92.1749 65.8637 92.0576 66.2323 91.823C66.6009 91.5885 66.9137 91.2701 67.1706 90.868L68.2429 91.9236C67.9189 92.4597 67.4498 92.8897 66.8355 93.2137C66.2211 93.5264 65.5063 93.6828 64.6909 93.6828ZM64.6909 85.9925C64.3781 85.9925 64.0877 86.0483 63.8197 86.16C63.5628 86.2717 63.3394 86.4281 63.1495 86.6291C62.9708 86.8302 62.8311 87.0703 62.7306 87.3496C62.6301 87.6288 62.5798 87.936 62.5798 88.2711V88.3884H66.6344V88.2208C66.6344 87.5506 66.4613 87.0145 66.115 86.6124C65.7688 86.1991 65.2941 85.9925 64.6909 85.9925ZM72.4426 93.4817C71.8171 93.4817 71.348 93.3254 71.0352 93.0126C70.7337 92.6887 70.5829 92.2419 70.5829 91.6723V81.0834H72.4091V91.9906H73.6154V93.4817H72.4426ZM82.9558 93.6828C81.9729 93.6828 81.1352 93.5041 80.4426 93.1467C79.7613 92.7892 79.1749 92.3089 78.6834 91.7058L79.9903 90.4827C80.4036 90.9853 80.8559 91.3651 81.3474 91.622C81.85 91.8789 82.4197 92.0073 83.0564 92.0073C83.8047 92.0073 84.3688 91.8398 84.7486 91.5047C85.1283 91.1696 85.3182 90.7172 85.3182 90.1476C85.3182 89.6896 85.1842 89.3266 84.9161 89.0585C84.648 88.7905 84.1733 88.5894 83.492 88.4554L82.4532 88.2711C81.3139 88.0589 80.4594 87.6847 79.8897 87.1485C79.3201 86.6124 79.0353 85.8752 79.0353 84.9369C79.0353 84.4231 79.1302 83.9596 79.3201 83.5463C79.5211 83.1219 79.7948 82.77 80.1411 82.4908C80.4985 82.2004 80.9285 81.977 81.4312 81.8206C81.9338 81.6642 82.4979 81.586 83.1234 81.586C84.0058 81.586 84.7709 81.7424 85.4187 82.0552C86.0666 82.3567 86.6195 82.7979 87.0774 83.3788L85.7538 84.5516C85.4523 84.1606 85.0837 83.8479 84.648 83.6133C84.2124 83.3788 83.6707 83.2615 83.0228 83.2615C82.3527 83.2615 81.8333 83.3955 81.4647 83.6636C81.0961 83.9317 80.9118 84.3226 80.9118 84.8364C80.9118 85.3279 81.0626 85.6965 81.3641 85.9422C81.6657 86.1768 82.1349 86.3555 82.7715 86.4783L83.8103 86.6962C84.9831 86.9196 85.8376 87.2993 86.3737 87.8355C86.9211 88.3716 87.1947 89.1088 87.1947 90.0471C87.1947 90.5944 87.0998 91.0914 86.9099 91.5382C86.72 91.985 86.4408 92.3704 86.0722 92.6943C85.7147 93.007 85.2735 93.2528 84.7486 93.4315C84.2236 93.599 83.626 93.6828 82.9558 93.6828ZM94.6112 92.0409H94.5442C94.466 92.2531 94.3599 92.4597 94.2259 92.6608C94.103 92.8618 93.941 93.0405 93.74 93.1969C93.5501 93.3421 93.3155 93.4594 93.0363 93.5488C92.7682 93.6381 92.4555 93.6828 92.098 93.6828C91.1933 93.6828 90.4896 93.3924 89.987 92.8116C89.4955 92.2307 89.2498 91.3986 89.2498 90.3151V84.7694H91.076V90.0806C91.076 91.4321 91.6345 92.1079 92.7515 92.1079C92.986 92.1079 93.215 92.0799 93.4384 92.0241C93.6618 91.9571 93.8573 91.8621 94.0248 91.7393C94.2035 91.6164 94.3431 91.46 94.4437 91.2701C94.5554 91.0803 94.6112 90.8569 94.6112 90.6V84.7694H96.4375V93.4817H94.6112V92.0409ZM99.0525 81.0834H100.879V86.2103H100.962C101.152 85.6853 101.46 85.2832 101.884 85.0039C102.32 84.7135 102.828 84.5683 103.409 84.5683C104.514 84.5683 105.369 84.9704 105.972 85.7747C106.575 86.5677 106.877 87.6847 106.877 89.1256C106.877 90.5665 106.575 91.689 105.972 92.4932C105.369 93.2863 104.514 93.6828 103.409 93.6828C102.828 93.6828 102.32 93.5376 101.884 93.2472C101.46 92.9568 101.152 92.5547 100.962 92.0409H100.879V93.4817H99.0525V81.0834ZM102.856 92.1079C103.492 92.1079 104.001 91.9068 104.38 91.5047C104.76 91.0914 104.95 90.5497 104.95 89.8795V88.3716C104.95 87.7014 104.76 87.1653 104.38 86.7632C104.001 86.3499 103.492 86.1433 102.856 86.1433C102.297 86.1433 101.828 86.2829 101.448 86.5621C101.069 86.8302 100.879 87.1876 100.879 87.6344V90.6167C100.879 91.0635 101.069 91.4265 101.448 91.7058C101.828 91.9738 102.297 92.1079 102.856 92.1079ZM111.732 93.6828C110.906 93.6828 110.213 93.5376 109.655 93.2472C109.096 92.9568 108.61 92.5547 108.197 92.0409L109.37 90.9686C109.694 91.3595 110.051 91.6667 110.442 91.8901C110.844 92.1023 111.308 92.2084 111.833 92.2084C112.369 92.2084 112.765 92.1079 113.022 91.9068C113.29 91.6946 113.424 91.4042 113.424 91.0356C113.424 90.7563 113.33 90.5218 113.14 90.3319C112.961 90.1308 112.643 90.0024 112.185 89.9465L111.38 89.846C110.487 89.7343 109.783 89.4774 109.269 89.0753C108.767 88.662 108.515 88.0533 108.515 87.2491C108.515 86.8246 108.594 86.4504 108.75 86.1265C108.906 85.7914 109.124 85.5122 109.403 85.2888C109.694 85.0542 110.034 84.8755 110.425 84.7526C110.828 84.6298 111.269 84.5683 111.749 84.5683C112.531 84.5683 113.168 84.6912 113.659 84.9369C114.162 85.1827 114.608 85.5233 114.999 85.959L113.877 87.0312C113.653 86.7632 113.357 86.5342 112.989 86.3443C112.631 86.1433 112.218 86.0427 111.749 86.0427C111.246 86.0427 110.872 86.1433 110.626 86.3443C110.392 86.5454 110.275 86.8079 110.275 87.1318C110.275 87.4669 110.381 87.7182 110.593 87.8857C110.805 88.0533 111.146 88.1761 111.615 88.2543L112.419 88.3549C113.38 88.5001 114.078 88.7849 114.514 89.2093C114.96 89.6226 115.184 90.1811 115.184 90.8848C115.184 91.3092 115.1 91.6946 114.932 92.0409C114.776 92.3759 114.547 92.6664 114.245 92.9121C113.944 93.1578 113.581 93.3477 113.156 93.4817C112.732 93.6158 112.257 93.6828 111.732 93.6828ZM120.615 93.6828C119.989 93.6828 119.431 93.5767 118.939 93.3645C118.448 93.1522 118.034 92.8507 117.699 92.4597C117.364 92.0576 117.107 91.5773 116.929 91.0188C116.75 90.4492 116.66 89.8181 116.66 89.1256C116.66 88.433 116.75 87.8075 116.929 87.2491C117.107 86.6794 117.364 86.1991 117.699 85.8082C118.034 85.4061 118.448 85.0989 118.939 84.8867C119.431 84.6744 119.989 84.5683 120.615 84.5683C121.486 84.5683 122.201 84.7638 122.759 85.1547C123.318 85.5457 123.725 86.0651 123.982 86.7129L122.474 87.4166C122.351 87.0145 122.134 86.6962 121.821 86.4616C121.519 86.2159 121.117 86.093 120.615 86.093C119.944 86.093 119.436 86.3052 119.09 86.7297C118.755 87.1429 118.587 87.6847 118.587 88.3549V89.913C118.587 90.5832 118.755 91.1305 119.09 91.555C119.436 91.9682 119.944 92.1749 120.615 92.1749C121.151 92.1749 121.575 92.0464 121.888 91.7895C122.212 91.5215 122.469 91.1696 122.659 90.734L124.049 91.4712C123.759 92.1861 123.323 92.7334 122.742 93.1131C122.162 93.4929 121.452 93.6828 120.615 93.6828ZM125.788 93.4817V84.7694H127.614V86.4448H127.698C127.821 85.9981 128.078 85.6071 128.468 85.272C128.859 84.9369 129.401 84.7694 130.094 84.7694H130.58V86.5286H129.859C129.133 86.5286 128.575 86.6459 128.184 86.8805C127.804 87.115 127.614 87.4613 127.614 87.9192V93.4817H125.788ZM133.123 83.2112C132.743 83.2112 132.464 83.1219 132.285 82.9431C132.118 82.7644 132.034 82.5354 132.034 82.2562V81.9714C132.034 81.6921 132.118 81.4632 132.285 81.2844C132.464 81.1057 132.743 81.0164 133.123 81.0164C133.503 81.0164 133.777 81.1057 133.944 81.2844C134.112 81.4632 134.195 81.6921 134.195 81.9714V82.2562C134.195 82.5354 134.112 82.7644 133.944 82.9431C133.777 83.1219 133.503 83.2112 133.123 83.2112ZM132.202 84.7694H134.028V93.4817H132.202V84.7694ZM136.636 84.7694H138.462V86.2103H138.546C138.736 85.6853 139.043 85.2832 139.467 85.0039C139.903 84.7135 140.411 84.5683 140.992 84.5683C142.098 84.5683 142.952 84.9704 143.555 85.7747C144.158 86.5677 144.46 87.6847 144.46 89.1256C144.46 90.5665 144.158 91.689 143.555 92.4932C142.952 93.2863 142.098 93.6828 140.992 93.6828C140.411 93.6828 139.903 93.5376 139.467 93.2472C139.043 92.9568 138.736 92.5547 138.546 92.0409H138.462V96.8326H136.636V84.7694ZM140.439 92.1079C141.076 92.1079 141.584 91.9068 141.964 91.5047C142.343 91.0914 142.533 90.5497 142.533 89.8795V88.3716C142.533 87.7014 142.343 87.1653 141.964 86.7632C141.584 86.3499 141.076 86.1433 140.439 86.1433C139.88 86.1433 139.411 86.2829 139.032 86.5621C138.652 86.8302 138.462 87.1876 138.462 87.6344V90.6167C138.462 91.0635 138.652 91.4265 139.032 91.7058C139.411 91.9738 139.88 92.1079 140.439 92.1079ZM148.865 93.4817C148.229 93.4817 147.748 93.3198 147.425 92.9959C147.101 92.6608 146.939 92.1916 146.939 91.5885V86.2605H145.582V84.7694H146.319C146.62 84.7694 146.827 84.7024 146.939 84.5683C147.062 84.4343 147.123 84.2165 147.123 83.9149V82.3902H148.765V84.7694H150.591V86.2605H148.765V91.9906H150.457V93.4817H148.865ZM153.494 83.2112C153.114 83.2112 152.835 83.1219 152.656 82.9431C152.488 82.7644 152.405 82.5354 152.405 82.2562V81.9714C152.405 81.6921 152.488 81.4632 152.656 81.2844C152.835 81.1057 153.114 81.0164 153.494 81.0164C153.873 81.0164 154.147 81.1057 154.315 81.2844C154.482 81.4632 154.566 81.6921 154.566 81.9714V82.2562C154.566 82.5354 154.482 82.7644 154.315 82.9431C154.147 83.1219 153.873 83.2112 153.494 83.2112ZM152.572 84.7694H154.398V93.4817H152.572V84.7694ZM160.424 93.6828C159.821 93.6828 159.268 93.5767 158.765 93.3645C158.274 93.1522 157.855 92.8507 157.509 92.4597C157.163 92.0576 156.894 91.5773 156.705 91.0188C156.515 90.4492 156.42 89.8181 156.42 89.1256C156.42 88.433 156.515 87.8075 156.705 87.2491C156.894 86.6794 157.163 86.1991 157.509 85.8082C157.855 85.4061 158.274 85.0989 158.765 84.8867C159.268 84.6744 159.821 84.5683 160.424 84.5683C161.027 84.5683 161.575 84.6744 162.066 84.8867C162.569 85.0989 162.993 85.4061 163.339 85.8082C163.686 86.1991 163.954 86.6794 164.144 87.2491C164.333 87.8075 164.428 88.433 164.428 89.1256C164.428 89.8181 164.333 90.4492 164.144 91.0188C163.954 91.5773 163.686 92.0576 163.339 92.4597C162.993 92.8507 162.569 93.1522 162.066 93.3645C161.575 93.5767 161.027 93.6828 160.424 93.6828ZM160.424 92.1749C161.05 92.1749 161.552 91.985 161.932 91.6052C162.312 91.2143 162.502 90.6335 162.502 89.8628V88.3884C162.502 87.6177 162.312 87.0424 161.932 86.6626C161.552 86.2717 161.05 86.0762 160.424 86.0762C159.799 86.0762 159.296 86.2717 158.916 86.6626C158.536 87.0424 158.347 87.6177 158.347 88.3884V89.8628C158.347 90.6335 158.536 91.2143 158.916 91.6052C159.296 91.985 159.799 92.1749 160.424 92.1749ZM166.463 93.4817V84.7694H168.29V86.2103H168.373C168.563 85.7411 168.848 85.3502 169.228 85.0375C169.619 84.7247 170.149 84.5683 170.819 84.5683C171.713 84.5683 172.406 84.8643 172.897 85.4563C173.4 86.0371 173.651 86.8693 173.651 87.9527V93.4817H171.825V88.1873C171.825 86.8246 171.277 86.1433 170.183 86.1433C169.948 86.1433 169.714 86.1768 169.479 86.2438C169.256 86.2996 169.055 86.389 168.876 86.5119C168.697 86.6347 168.552 86.7911 168.44 86.981C168.34 87.1709 168.29 87.3943 168.29 87.6512V93.4817H166.463Z" fill="#191919"/>
<path d="M26.4553 116.449V124.944H25.3119V116.449H22.2898V115.442H29.4774V116.449H26.4553ZM30.9377 114.87H32.0267V119.063H32.0812C32.2536 118.663 32.4941 118.346 32.8026 118.11C33.1203 117.874 33.5423 117.756 34.0687 117.756C34.7947 117.756 35.3664 117.992 35.7839 118.464C36.2105 118.927 36.4237 119.585 36.4237 120.438V124.944H35.3347V120.628C35.3347 119.367 34.8038 118.736 33.742 118.736C33.5241 118.736 33.3109 118.763 33.1021 118.818C32.9025 118.872 32.721 118.954 32.5576 119.063C32.3943 119.172 32.2627 119.312 32.1628 119.485C32.0721 119.648 32.0267 119.843 32.0267 120.07V124.944H30.9377V114.87ZM41.3157 125.107C40.8347 125.107 40.3991 125.021 40.0088 124.848C39.6277 124.676 39.2964 124.431 39.0151 124.113C38.7428 123.786 38.5296 123.401 38.3753 122.956C38.2301 122.502 38.1575 121.994 38.1575 121.431C38.1575 120.878 38.2301 120.374 38.3753 119.92C38.5296 119.467 38.7428 119.081 39.0151 118.763C39.2964 118.437 39.6277 118.187 40.0088 118.015C40.3991 117.842 40.8347 117.756 41.3157 117.756C41.7876 117.756 42.2096 117.842 42.5817 118.015C42.9538 118.187 43.2714 118.427 43.5346 118.736C43.7978 119.036 43.9975 119.394 44.1336 119.811C44.2788 120.229 44.3514 120.687 44.3514 121.186V121.704H39.301V122.03C39.301 122.33 39.3463 122.611 39.4371 122.874C39.5369 123.129 39.6731 123.351 39.8455 123.541C40.027 123.732 40.2448 123.882 40.4989 123.991C40.7621 124.1 41.0571 124.154 41.3838 124.154C41.8285 124.154 42.2142 124.05 42.5409 123.841C42.8767 123.632 43.1353 123.333 43.3168 122.942L44.0928 123.501C43.8659 123.982 43.5119 124.372 43.0309 124.671C42.55 124.962 41.9782 125.107 41.3157 125.107ZM41.3157 118.668C41.0162 118.668 40.744 118.722 40.4989 118.831C40.2539 118.931 40.0406 119.076 39.8591 119.267C39.6867 119.458 39.5505 119.684 39.4507 119.948C39.3509 120.202 39.301 120.483 39.301 120.792V120.887H43.1807V120.737C43.1807 120.111 43.0083 119.612 42.6634 119.24C42.3276 118.859 41.8784 118.668 41.3157 118.668ZM55.2848 125.72C55.2848 126.446 54.999 126.976 54.4272 127.312C53.8645 127.657 53.016 127.83 51.8816 127.83C50.7834 127.83 49.9939 127.68 49.5129 127.38C49.0319 127.081 48.7914 126.654 48.7914 126.101C48.7914 125.72 48.8912 125.42 49.0909 125.202C49.2905 124.994 49.5628 124.839 49.9077 124.739V124.59C49.4902 124.39 49.2815 124.063 49.2815 123.61C49.2815 123.256 49.3949 122.988 49.6218 122.806C49.8487 122.616 50.1391 122.475 50.493 122.384V122.33C50.0756 122.13 49.7489 121.844 49.5129 121.472C49.286 121.1 49.1726 120.669 49.1726 120.179C49.1726 119.825 49.2361 119.498 49.3631 119.199C49.4902 118.899 49.6672 118.645 49.8941 118.437C50.13 118.219 50.4068 118.051 50.7245 117.933C51.0512 117.815 51.4142 117.756 51.8135 117.756C52.3126 117.756 52.7573 117.847 53.1476 118.028V117.906C53.1476 117.633 53.2111 117.411 53.3382 117.239C53.4652 117.057 53.6739 116.966 53.9644 116.966H55.0126V117.919H53.6785V118.368C53.9326 118.586 54.1277 118.849 54.2638 119.158C54.4091 119.458 54.4817 119.798 54.4817 120.179C54.4817 120.533 54.4181 120.86 54.2911 121.159C54.164 121.459 53.9825 121.717 53.7466 121.935C53.5197 122.144 53.2429 122.307 52.9162 122.425C52.5894 122.543 52.2264 122.602 51.8271 122.602C51.6002 122.602 51.3733 122.579 51.1465 122.534C50.9105 122.598 50.6972 122.693 50.5066 122.82C50.3161 122.938 50.2208 123.106 50.2208 123.324C50.2208 123.532 50.3206 123.673 50.5203 123.746C50.7199 123.818 50.9786 123.855 51.2962 123.855H52.7936C53.6649 123.855 54.2956 124.022 54.6859 124.358C55.0852 124.685 55.2848 125.139 55.2848 125.72ZM54.2638 125.801C54.2638 125.52 54.1549 125.293 53.9371 125.121C53.7284 124.957 53.3518 124.876 52.8073 124.876H50.4658C50.0302 125.075 49.8124 125.393 49.8124 125.828C49.8124 126.137 49.9258 126.4 50.1527 126.618C50.3887 126.836 50.7834 126.945 51.337 126.945H52.3444C52.9525 126.945 53.4244 126.849 53.7602 126.659C54.096 126.468 54.2638 126.182 54.2638 125.801ZM51.8271 121.731C52.29 121.731 52.6575 121.622 52.9298 121.404C53.202 121.177 53.3382 120.832 53.3382 120.37V119.988C53.3382 119.526 53.202 119.185 52.9298 118.967C52.6575 118.741 52.29 118.627 51.8271 118.627C51.3643 118.627 50.9967 118.741 50.7245 118.967C50.4522 119.185 50.3161 119.526 50.3161 119.988V120.37C50.3161 120.832 50.4522 121.177 50.7245 121.404C50.9967 121.622 51.3643 121.731 51.8271 121.731ZM59.13 125.107C58.6581 125.107 58.227 125.021 57.8367 124.848C57.4465 124.676 57.1107 124.431 56.8294 124.113C56.5571 123.786 56.3438 123.401 56.1896 122.956C56.0353 122.502 55.9581 121.994 55.9581 121.431C55.9581 120.878 56.0353 120.374 56.1896 119.92C56.3438 119.467 56.5571 119.081 56.8294 118.763C57.1107 118.437 57.4465 118.187 57.8367 118.015C58.227 117.842 58.6581 117.756 59.13 117.756C59.6019 117.756 60.0284 117.842 60.4096 118.015C60.7999 118.187 61.1356 118.437 61.417 118.763C61.6983 119.081 61.9161 119.467 62.0704 119.92C62.2247 120.374 62.3018 120.878 62.3018 121.431C62.3018 121.994 62.2247 122.502 62.0704 122.956C61.9161 123.401 61.6983 123.786 61.417 124.113C61.1356 124.431 60.7999 124.676 60.4096 124.848C60.0284 125.021 59.6019 125.107 59.13 125.107ZM59.13 124.14C59.7199 124.14 60.2009 123.959 60.573 123.596C60.9451 123.233 61.1311 122.679 61.1311 121.935V120.928C61.1311 120.184 60.9451 119.63 60.573 119.267C60.2009 118.904 59.7199 118.722 59.13 118.722C58.5401 118.722 58.0591 118.904 57.687 119.267C57.3149 119.63 57.1289 120.184 57.1289 120.928V121.935C57.1289 122.679 57.3149 123.233 57.687 123.596C58.0591 123.959 58.5401 124.14 59.13 124.14ZM69.1978 124.944C68.7894 124.944 68.4945 124.835 68.3129 124.617C68.1405 124.399 68.0316 124.127 67.9862 123.8H67.9182C67.7639 124.236 67.5098 124.562 67.1558 124.78C66.8019 124.998 66.3799 125.107 65.8898 125.107C65.1456 125.107 64.5648 124.916 64.1474 124.535C63.739 124.154 63.5348 123.637 63.5348 122.983C63.5348 122.321 63.7753 121.813 64.2563 121.459C64.7463 121.105 65.5041 120.928 66.5296 120.928H67.9182V120.233C67.9182 119.734 67.782 119.353 67.5098 119.09C67.2375 118.827 66.8201 118.695 66.2574 118.695C65.8308 118.695 65.4724 118.79 65.1819 118.981C64.9006 119.172 64.6646 119.426 64.4741 119.743L63.8206 119.131C64.0112 118.75 64.3152 118.427 64.7327 118.164C65.1502 117.892 65.6766 117.756 66.3118 117.756C67.1649 117.756 67.8274 117.965 68.2993 118.382C68.7713 118.8 69.0072 119.38 69.0072 120.125V123.991H69.8104V124.944H69.1978ZM66.0668 124.181C66.3391 124.181 66.5886 124.15 66.8155 124.086C67.0424 124.022 67.2375 123.932 67.4009 123.814C67.5642 123.696 67.6913 123.56 67.782 123.405C67.8728 123.251 67.9182 123.083 67.9182 122.902V121.745H66.4752C65.849 121.745 65.3907 121.835 65.1003 122.017C64.8189 122.198 64.6783 122.461 64.6783 122.806V123.092C64.6783 123.437 64.8008 123.705 65.0458 123.895C65.2999 124.086 65.6403 124.181 66.0668 124.181ZM72.5218 124.944C72.1407 124.944 71.8503 124.839 71.6506 124.63C71.46 124.413 71.3647 124.14 71.3647 123.814V114.87H72.4538V123.991H73.4884V124.944H72.5218ZM80.9454 125.107C80.4735 125.107 80.0424 125.021 79.6522 124.848C79.262 124.676 78.9262 124.431 78.6448 124.113C78.3726 123.786 78.1593 123.401 78.005 122.956C77.8507 122.502 77.7736 121.994 77.7736 121.431C77.7736 120.878 77.8507 120.374 78.005 119.92C78.1593 119.467 78.3726 119.081 78.6448 118.763C78.9262 118.437 79.262 118.187 79.6522 118.015C80.0424 117.842 80.4735 117.756 80.9454 117.756C81.4174 117.756 81.8439 117.842 82.2251 118.015C82.6153 118.187 82.9511 118.437 83.2324 118.763C83.5138 119.081 83.7316 119.467 83.8859 119.92C84.0401 120.374 84.1173 120.878 84.1173 121.431C84.1173 121.994 84.0401 122.502 83.8859 122.956C83.7316 123.401 83.5138 123.786 83.2324 124.113C82.9511 124.431 82.6153 124.676 82.2251 124.848C81.8439 125.021 81.4174 125.107 80.9454 125.107ZM80.9454 124.14C81.5353 124.14 82.0163 123.959 82.3884 123.596C82.7605 123.233 82.9466 122.679 82.9466 121.935V120.928C82.9466 120.184 82.7605 119.63 82.3884 119.267C82.0163 118.904 81.5353 118.722 80.9454 118.722C80.3555 118.722 79.8745 118.904 79.5025 119.267C79.1304 119.63 78.9443 120.184 78.9443 120.928V121.935C78.9443 122.679 79.1304 123.233 79.5025 123.596C79.8745 123.959 80.3555 124.14 80.9454 124.14ZM86.2098 118.872H85.0663V117.919H86.2098V116.503C86.2098 116.013 86.3368 115.619 86.5909 115.319C86.845 115.02 87.2307 114.87 87.748 114.87H88.8099V115.823H87.2988V117.919H88.8099V118.872H87.2988V124.944H86.2098V118.872ZM95.0112 124.944C94.6301 124.944 94.3397 124.839 94.14 124.63C93.9494 124.413 93.8541 124.131 93.8541 123.786V118.872H92.697V117.919H93.3504C93.5864 117.919 93.7452 117.874 93.8269 117.783C93.9177 117.683 93.963 117.515 93.963 117.279V115.973H94.9432V117.919H96.4814V118.872H94.9432V123.991H96.3725V124.944H95.0112ZM98.2319 114.87H99.3209V119.063H99.3754C99.5478 118.663 99.7883 118.346 100.097 118.11C100.415 117.874 100.837 117.756 101.363 117.756C102.089 117.756 102.661 117.992 103.078 118.464C103.505 118.927 103.718 119.585 103.718 120.438V124.944H102.629V120.628C102.629 119.367 102.098 118.736 101.036 118.736C100.818 118.736 100.605 118.763 100.396 118.818C100.197 118.872 100.015 118.954 99.8519 119.063C99.6885 119.172 99.5569 119.312 99.4571 119.485C99.3663 119.648 99.3209 119.843 99.3209 120.07V124.944H98.2319V114.87ZM108.61 125.107C108.129 125.107 107.693 125.021 107.303 124.848C106.922 124.676 106.591 124.431 106.309 124.113C106.037 123.786 105.824 123.401 105.67 122.956C105.524 122.502 105.452 121.994 105.452 121.431C105.452 120.878 105.524 120.374 105.67 119.92C105.824 119.467 106.037 119.081 106.309 118.763C106.591 118.437 106.922 118.187 107.303 118.015C107.693 117.842 108.129 117.756 108.61 117.756C109.082 117.756 109.504 117.842 109.876 118.015C110.248 118.187 110.566 118.427 110.829 118.736C111.092 119.036 111.292 119.394 111.428 119.811C111.573 120.229 111.646 120.687 111.646 121.186V121.704H106.595V122.03C106.595 122.33 106.641 122.611 106.731 122.874C106.831 123.129 106.967 123.351 107.14 123.541C107.321 123.732 107.539 123.882 107.793 123.991C108.056 124.1 108.351 124.154 108.678 124.154C109.123 124.154 109.508 124.05 109.835 123.841C110.171 123.632 110.43 123.333 110.611 122.942L111.387 123.501C111.16 123.982 110.806 124.372 110.325 124.671C109.844 124.962 109.272 125.107 108.61 125.107ZM108.61 118.668C108.31 118.668 108.038 118.722 107.793 118.831C107.548 118.931 107.335 119.076 107.153 119.267C106.981 119.458 106.845 119.684 106.745 119.948C106.645 120.202 106.595 120.483 106.595 120.792V120.887H110.475V120.737C110.475 120.111 110.302 119.612 109.958 119.24C109.622 118.859 109.173 118.668 108.61 118.668ZM115.55 125.107C114.897 125.107 114.348 124.984 113.903 124.739C113.467 124.485 113.091 124.15 112.773 123.732L113.549 123.106C113.821 123.451 114.125 123.718 114.461 123.909C114.797 124.091 115.187 124.181 115.632 124.181C116.095 124.181 116.453 124.081 116.707 123.882C116.971 123.682 117.102 123.401 117.102 123.038C117.102 122.766 117.011 122.534 116.83 122.344C116.657 122.144 116.34 122.008 115.877 121.935L115.319 121.853C114.992 121.808 114.693 121.74 114.42 121.649C114.148 121.549 113.908 121.422 113.699 121.268C113.499 121.105 113.34 120.905 113.222 120.669C113.114 120.433 113.059 120.152 113.059 119.825C113.059 119.48 113.123 119.181 113.25 118.927C113.377 118.663 113.549 118.446 113.767 118.273C113.994 118.101 114.262 117.974 114.57 117.892C114.879 117.801 115.21 117.756 115.564 117.756C116.136 117.756 116.612 117.856 116.993 118.055C117.383 118.255 117.724 118.532 118.014 118.886L117.293 119.539C117.138 119.321 116.912 119.126 116.612 118.954C116.313 118.772 115.936 118.682 115.482 118.682C115.028 118.682 114.684 118.781 114.448 118.981C114.221 119.172 114.107 119.435 114.107 119.771C114.107 120.115 114.221 120.365 114.448 120.519C114.684 120.674 115.019 120.787 115.455 120.86L115.999 120.941C116.78 121.059 117.334 121.286 117.66 121.622C117.987 121.949 118.15 122.38 118.15 122.915C118.15 123.596 117.919 124.131 117.456 124.522C116.993 124.912 116.358 125.107 115.55 125.107ZM122.715 125.107C122.234 125.107 121.798 125.021 121.408 124.848C121.027 124.676 120.696 124.431 120.414 124.113C120.142 123.786 119.929 123.401 119.774 122.956C119.629 122.502 119.557 121.994 119.557 121.431C119.557 120.878 119.629 120.374 119.774 119.92C119.929 119.467 120.142 119.081 120.414 118.763C120.696 118.437 121.027 118.187 121.408 118.015C121.798 117.842 122.234 117.756 122.715 117.756C123.187 117.756 123.609 117.842 123.981 118.015C124.353 118.187 124.671 118.427 124.934 118.736C125.197 119.036 125.397 119.394 125.533 119.811C125.678 120.229 125.751 120.687 125.751 121.186V121.704H120.7V122.03C120.7 122.33 120.746 122.611 120.836 122.874C120.936 123.129 121.072 123.351 121.245 123.541C121.426 123.732 121.644 123.882 121.898 123.991C122.161 124.1 122.456 124.154 122.783 124.154C123.228 124.154 123.613 124.05 123.94 123.841C124.276 123.632 124.534 123.333 124.716 122.942L125.492 123.501C125.265 123.982 124.911 124.372 124.43 124.671C123.949 124.962 123.377 125.107 122.715 125.107ZM122.715 118.668C122.415 118.668 122.143 118.722 121.898 118.831C121.653 118.931 121.44 119.076 121.258 119.267C121.086 119.458 120.95 119.684 120.85 119.948C120.75 120.202 120.7 120.483 120.7 120.792V120.887H124.58V120.737C124.58 120.111 124.407 119.612 124.063 119.24C123.727 118.859 123.278 118.668 122.715 118.668ZM136.684 125.72C136.684 126.446 136.398 126.976 135.826 127.312C135.264 127.657 134.415 127.83 133.281 127.83C132.183 127.83 131.393 127.68 130.912 127.38C130.431 127.081 130.191 126.654 130.191 126.101C130.191 125.72 130.29 125.42 130.49 125.202C130.69 124.994 130.962 124.839 131.307 124.739V124.59C130.889 124.39 130.681 124.063 130.681 123.61C130.681 123.256 130.794 122.988 131.021 122.806C131.248 122.616 131.538 122.475 131.892 122.384V122.33C131.475 122.13 131.148 121.844 130.912 121.472C130.685 121.1 130.572 120.669 130.572 120.179C130.572 119.825 130.635 119.498 130.762 119.199C130.889 118.899 131.066 118.645 131.293 118.437C131.529 118.219 131.806 118.051 132.124 117.933C132.45 117.815 132.813 117.756 133.213 117.756C133.712 117.756 134.157 117.847 134.547 118.028V117.906C134.547 117.633 134.61 117.411 134.737 117.239C134.864 117.057 135.073 116.966 135.364 116.966H136.412V117.919H135.078V118.368C135.332 118.586 135.527 118.849 135.663 119.158C135.808 119.458 135.881 119.798 135.881 120.179C135.881 120.533 135.817 120.86 135.69 121.159C135.563 121.459 135.382 121.717 135.146 121.935C134.919 122.144 134.642 122.307 134.315 122.425C133.989 122.543 133.626 122.602 133.226 122.602C132.999 122.602 132.773 122.579 132.546 122.534C132.31 122.598 132.096 122.693 131.906 122.82C131.715 122.938 131.62 123.106 131.62 123.324C131.62 123.532 131.72 123.673 131.919 123.746C132.119 123.818 132.378 123.855 132.695 123.855H134.193C135.064 123.855 135.695 124.022 136.085 124.358C136.484 124.685 136.684 125.139 136.684 125.72ZM135.663 125.801C135.663 125.52 135.554 125.293 135.336 125.121C135.128 124.957 134.751 124.876 134.206 124.876H131.865C131.429 125.075 131.212 125.393 131.212 125.828C131.212 126.137 131.325 126.4 131.552 126.618C131.788 126.836 132.183 126.945 132.736 126.945H133.744C134.352 126.945 134.824 126.849 135.159 126.659C135.495 126.468 135.663 126.182 135.663 125.801ZM133.226 121.731C133.689 121.731 134.057 121.622 134.329 121.404C134.601 121.177 134.737 120.832 134.737 120.37V119.988C134.737 119.526 134.601 119.185 134.329 118.967C134.057 118.741 133.689 118.627 133.226 118.627C132.763 118.627 132.396 118.741 132.124 118.967C131.851 119.185 131.715 119.526 131.715 119.988V120.37C131.715 120.832 131.851 121.177 132.124 121.404C132.396 121.622 132.763 121.731 133.226 121.731ZM142.23 123.8H142.176C142.103 123.963 142.012 124.127 141.903 124.29C141.804 124.444 141.677 124.585 141.522 124.712C141.368 124.83 141.182 124.925 140.964 124.998C140.746 125.071 140.492 125.107 140.202 125.107C139.476 125.107 138.899 124.876 138.473 124.413C138.046 123.941 137.833 123.278 137.833 122.425V117.919H138.922V122.235C138.922 123.496 139.458 124.127 140.529 124.127C140.746 124.127 140.955 124.1 141.155 124.045C141.363 123.991 141.545 123.909 141.699 123.8C141.863 123.691 141.99 123.555 142.08 123.392C142.18 123.219 142.23 123.015 142.23 122.779V117.919H143.319V124.944H142.23V123.8ZM146.183 116.272C145.947 116.272 145.774 116.218 145.666 116.109C145.566 115.991 145.516 115.841 145.516 115.659V115.483C145.516 115.301 145.566 115.156 145.666 115.047C145.774 114.929 145.947 114.87 146.183 114.87C146.419 114.87 146.587 114.929 146.687 115.047C146.795 115.156 146.85 115.301 146.85 115.483V115.659C146.85 115.841 146.795 115.991 146.687 116.109C146.587 116.218 146.419 116.272 146.183 116.272ZM145.638 117.919H146.727V124.944H145.638V117.919ZM153.534 123.8H153.479C153.053 124.671 152.368 125.107 151.424 125.107C150.988 125.107 150.593 125.021 150.24 124.848C149.886 124.676 149.582 124.431 149.327 124.113C149.082 123.796 148.892 123.41 148.756 122.956C148.629 122.502 148.565 121.994 148.565 121.431C148.565 120.869 148.629 120.361 148.756 119.907C148.892 119.453 149.082 119.067 149.327 118.75C149.582 118.432 149.886 118.187 150.24 118.015C150.593 117.842 150.988 117.756 151.424 117.756C151.914 117.756 152.331 117.865 152.676 118.083C153.03 118.291 153.298 118.618 153.479 119.063H153.534V114.87H154.623V124.944H153.534V123.8ZM151.723 124.127C151.968 124.127 152.2 124.095 152.418 124.032C152.644 123.968 152.84 123.877 153.003 123.759C153.166 123.632 153.293 123.482 153.384 123.31C153.484 123.129 153.534 122.924 153.534 122.697V120.084C153.534 119.893 153.484 119.716 153.384 119.553C153.293 119.38 153.166 119.235 153.003 119.117C152.84 118.999 152.644 118.908 152.418 118.845C152.2 118.772 151.968 118.736 151.723 118.736C151.106 118.736 150.621 118.931 150.267 119.321C149.913 119.703 149.736 120.206 149.736 120.832V122.03C149.736 122.657 149.913 123.165 150.267 123.555C150.621 123.936 151.106 124.127 151.723 124.127ZM159.579 125.107C159.098 125.107 158.663 125.021 158.272 124.848C157.891 124.676 157.56 124.431 157.279 124.113C157.006 123.786 156.793 123.401 156.639 122.956C156.494 122.502 156.421 121.994 156.421 121.431C156.421 120.878 156.494 120.374 156.639 119.92C156.793 119.467 157.006 119.081 157.279 118.763C157.56 118.437 157.891 118.187 158.272 118.015C158.663 117.842 159.098 117.756 159.579 117.756C160.051 117.756 160.473 117.842 160.845 118.015C161.217 118.187 161.535 118.427 161.798 118.736C162.061 119.036 162.261 119.394 162.397 119.811C162.542 120.229 162.615 120.687 162.615 121.186V121.704H157.564V122.03C157.564 122.33 157.61 122.611 157.701 122.874C157.8 123.129 157.936 123.351 158.109 123.541C158.29 123.732 158.508 123.882 158.762 123.991C159.026 124.1 159.32 124.154 159.647 124.154C160.092 124.154 160.478 124.05 160.804 123.841C161.14 123.632 161.399 123.333 161.58 122.942L162.356 123.501C162.129 123.982 161.775 124.372 161.294 124.671C160.813 124.962 160.242 125.107 159.579 125.107ZM159.579 118.668C159.28 118.668 159.007 118.722 158.762 118.831C158.517 118.931 158.304 119.076 158.123 119.267C157.95 119.458 157.814 119.684 157.714 119.948C157.614 120.202 157.564 120.483 157.564 120.792V120.887H161.444V120.737C161.444 120.111 161.272 119.612 160.927 119.24C160.591 118.859 160.142 118.668 159.579 118.668ZM165.567 124.944C165.185 124.944 164.895 124.839 164.695 124.63C164.505 124.413 164.409 124.14 164.409 123.814V114.87H165.498V123.991H166.533V124.944H165.567ZM168.663 116.272C168.427 116.272 168.255 116.218 168.146 116.109C168.046 115.991 167.996 115.841 167.996 115.659V115.483C167.996 115.301 168.046 115.156 168.146 115.047C168.255 114.929 168.427 114.87 168.663 114.87C168.899 114.87 169.067 114.929 169.167 115.047C169.276 115.156 169.33 115.301 169.33 115.483V115.659C169.33 115.841 169.276 115.991 169.167 116.109C169.067 116.218 168.899 116.272 168.663 116.272ZM168.118 117.919H169.208V124.944H168.118V117.919ZM171.522 124.944V117.919H172.611V119.063H172.665C172.838 118.663 173.078 118.346 173.387 118.11C173.704 117.874 174.126 117.756 174.653 117.756C175.379 117.756 175.951 117.992 176.368 118.464C176.795 118.927 177.008 119.585 177.008 120.438V124.944H175.919V120.628C175.919 119.367 175.388 118.736 174.326 118.736C174.108 118.736 173.895 118.763 173.686 118.818C173.487 118.872 173.305 118.954 173.142 119.063C172.978 119.172 172.847 119.312 172.747 119.485C172.656 119.648 172.611 119.843 172.611 120.07V124.944H171.522ZM181.9 125.107C181.419 125.107 180.983 125.021 180.593 124.848C180.212 124.676 179.881 124.431 179.599 124.113C179.327 123.786 179.114 123.401 178.959 122.956C178.814 122.502 178.742 121.994 178.742 121.431C178.742 120.878 178.814 120.374 178.959 119.92C179.114 119.467 179.327 119.081 179.599 118.763C179.881 118.437 180.212 118.187 180.593 118.015C180.983 117.842 181.419 117.756 181.9 117.756C182.372 117.756 182.794 117.842 183.166 118.015C183.538 118.187 183.856 118.427 184.119 118.736C184.382 119.036 184.582 119.394 184.718 119.811C184.863 120.229 184.935 120.687 184.935 121.186V121.704H179.885V122.03C179.885 122.33 179.93 122.611 180.021 122.874C180.121 123.129 180.257 123.351 180.43 123.541C180.611 123.732 180.829 123.882 181.083 123.991C181.346 124.1 181.641 124.154 181.968 124.154C182.413 124.154 182.798 124.05 183.125 123.841C183.461 123.632 183.719 123.333 183.901 122.942L184.677 123.501C184.45 123.982 184.096 124.372 183.615 124.671C183.134 124.962 182.562 125.107 181.9 125.107ZM181.9 118.668C181.6 118.668 181.328 118.722 181.083 118.831C180.838 118.931 180.625 119.076 180.443 119.267C180.271 119.458 180.135 119.684 180.035 119.948C179.935 120.202 179.885 120.483 179.885 120.792V120.887H183.765V120.737C183.765 120.111 183.592 119.612 183.247 119.24C182.912 118.859 182.462 118.668 181.9 118.668ZM188.84 125.107C188.187 125.107 187.638 124.984 187.193 124.739C186.757 124.485 186.381 124.15 186.063 123.732L186.839 123.106C187.111 123.451 187.415 123.718 187.751 123.909C188.087 124.091 188.477 124.181 188.922 124.181C189.385 124.181 189.743 124.081 189.997 123.882C190.26 123.682 190.392 123.401 190.392 123.038C190.392 122.766 190.301 122.534 190.12 122.344C189.947 122.144 189.63 122.008 189.167 121.935L188.609 121.853C188.282 121.808 187.982 121.74 187.71 121.649C187.438 121.549 187.197 121.422 186.989 121.268C186.789 121.105 186.63 120.905 186.512 120.669C186.403 120.433 186.349 120.152 186.349 119.825C186.349 119.48 186.412 119.181 186.539 118.927C186.667 118.663 186.839 118.446 187.057 118.273C187.284 118.101 187.551 117.974 187.86 117.892C188.169 117.801 188.5 117.756 188.854 117.756C189.425 117.756 189.902 117.856 190.283 118.055C190.673 118.255 191.014 118.532 191.304 118.886L190.583 119.539C190.428 119.321 190.201 119.126 189.902 118.954C189.602 118.772 189.226 118.682 188.772 118.682C188.318 118.682 187.973 118.781 187.737 118.981C187.511 119.172 187.397 119.435 187.397 119.771C187.397 120.115 187.511 120.365 187.737 120.519C187.973 120.674 188.309 120.787 188.745 120.86L189.289 120.941C190.07 121.059 190.623 121.286 190.95 121.622C191.277 121.949 191.44 122.38 191.44 122.915C191.44 123.596 191.209 124.131 190.746 124.522C190.283 124.912 189.648 125.107 188.84 125.107ZM197.125 116.272C196.889 116.272 196.717 116.218 196.608 116.109C196.508 115.991 196.458 115.841 196.458 115.659V115.483C196.458 115.301 196.508 115.156 196.608 115.047C196.717 114.929 196.889 114.87 197.125 114.87C197.361 114.87 197.529 114.929 197.629 115.047C197.738 115.156 197.792 115.301 197.792 115.483V115.659C197.792 115.841 197.738 115.991 197.629 116.109C197.529 116.218 197.361 116.272 197.125 116.272ZM196.581 117.919H197.67V124.944H196.581V117.919ZM202.094 125.107C201.441 125.107 200.892 124.984 200.447 124.739C200.011 124.485 199.635 124.15 199.317 123.732L200.093 123.106C200.365 123.451 200.669 123.718 201.005 123.909C201.341 124.091 201.731 124.181 202.176 124.181C202.639 124.181 202.997 124.081 203.251 123.882C203.515 123.682 203.646 123.401 203.646 123.038C203.646 122.766 203.555 122.534 203.374 122.344C203.201 122.144 202.884 122.008 202.421 121.935L201.863 121.853C201.536 121.808 201.237 121.74 200.964 121.649C200.692 121.549 200.452 121.422 200.243 121.268C200.043 121.105 199.884 120.905 199.766 120.669C199.657 120.433 199.603 120.152 199.603 119.825C199.603 119.48 199.667 119.181 199.794 118.927C199.921 118.663 200.093 118.446 200.311 118.273C200.538 118.101 200.806 117.974 201.114 117.892C201.423 117.801 201.754 117.756 202.108 117.756C202.68 117.756 203.156 117.856 203.537 118.055C203.927 118.255 204.268 118.532 204.558 118.886L203.837 119.539C203.682 119.321 203.456 119.126 203.156 118.954C202.857 118.772 202.48 118.682 202.026 118.682C201.572 118.682 201.228 118.781 200.992 118.981C200.765 119.172 200.651 119.435 200.651 119.771C200.651 120.115 200.765 120.365 200.992 120.519C201.228 120.674 201.563 120.787 201.999 120.86L202.543 120.941C203.324 121.059 203.878 121.286 204.204 121.622C204.531 121.949 204.694 122.38 204.694 122.915C204.694 123.596 204.463 124.131 204 124.522C203.537 124.912 202.902 125.107 202.094 125.107ZM211.387 124.944C211.006 124.944 210.715 124.839 210.516 124.63C210.325 124.413 210.23 124.131 210.23 123.786V118.872H209.073V117.919H209.726C209.962 117.919 210.121 117.874 210.203 117.783C210.293 117.683 210.339 117.515 210.339 117.279V115.973H211.319V117.919H212.857V118.872H211.319V123.991H212.748V124.944H211.387ZM217.209 125.107C216.737 125.107 216.306 125.021 215.916 124.848C215.525 124.676 215.19 124.431 214.908 124.113C214.636 123.786 214.423 123.401 214.269 122.956C214.114 122.502 214.037 121.994 214.037 121.431C214.037 120.878 214.114 120.374 214.269 119.92C214.423 119.467 214.636 119.081 214.908 118.763C215.19 118.437 215.525 118.187 215.916 118.015C216.306 117.842 216.737 117.756 217.209 117.756C217.681 117.756 218.107 117.842 218.489 118.015C218.879 118.187 219.215 118.437 219.496 118.763C219.777 119.081 219.995 119.467 220.149 119.92C220.304 120.374 220.381 120.878 220.381 121.431C220.381 121.994 220.304 122.502 220.149 122.956C219.995 123.401 219.777 123.786 219.496 124.113C219.215 124.431 218.879 124.676 218.489 124.848C218.107 125.021 217.681 125.107 217.209 125.107ZM217.209 124.14C217.799 124.14 218.28 123.959 218.652 123.596C219.024 123.233 219.21 122.679 219.21 121.935V120.928C219.21 120.184 219.024 119.63 218.652 119.267C218.28 118.904 217.799 118.722 217.209 118.722C216.619 118.722 216.138 118.904 215.766 119.267C215.394 119.63 215.208 120.184 215.208 120.928V121.935C215.208 122.679 215.394 123.233 215.766 123.596C216.138 123.959 216.619 124.14 217.209 124.14ZM23.1474 145.944V138.919H24.2364V140.063H24.2909C24.3726 139.881 24.4633 139.713 24.5631 139.559C24.672 139.396 24.7991 139.255 24.9443 139.137C25.0986 139.019 25.2755 138.928 25.4752 138.865C25.6749 138.792 25.9108 138.756 26.1831 138.756C26.6459 138.756 27.0725 138.869 27.4627 139.096C27.853 139.314 28.1434 139.677 28.334 140.185H28.3612C28.4882 139.804 28.7242 139.473 29.0691 139.192C29.423 138.901 29.8995 138.756 30.4984 138.756C31.2154 138.756 31.7735 138.992 32.1728 139.464C32.5812 139.927 32.7854 140.585 32.7854 141.438V145.944H31.6964V141.628C31.6964 141.002 31.5739 140.53 31.3288 140.212C31.0838 139.895 30.6935 139.736 30.1581 139.736C29.9403 139.736 29.7316 139.763 29.5319 139.818C29.3413 139.872 29.1689 139.954 29.0146 140.063C28.8603 140.172 28.7378 140.312 28.6471 140.485C28.5563 140.648 28.5109 140.843 28.5109 141.07V145.944H27.4219V141.628C27.4219 141.002 27.2994 140.53 27.0543 140.212C26.8093 139.895 26.4281 139.736 25.9108 139.736C25.693 139.736 25.4843 139.763 25.2846 139.818C25.085 139.872 24.908 139.954 24.7537 140.063C24.5994 140.172 24.4724 140.312 24.3726 140.485C24.2818 140.648 24.2364 140.843 24.2364 141.07V145.944H23.1474ZM40.1371 145.944C39.7287 145.944 39.4338 145.835 39.2523 145.617C39.0798 145.399 38.9709 145.127 38.9255 144.8H38.8575C38.7032 145.236 38.4491 145.562 38.0952 145.78C37.7412 145.998 37.3192 146.107 36.8291 146.107C36.085 146.107 35.5041 145.916 35.0867 145.535C34.6783 145.154 34.4741 144.637 34.4741 143.983C34.4741 143.321 34.7146 142.813 35.1956 142.459C35.6856 142.105 36.4434 141.928 37.469 141.928H38.8575V141.233C38.8575 140.734 38.7214 140.353 38.4491 140.09C38.1768 139.827 37.7594 139.695 37.1967 139.695C36.7701 139.695 36.4117 139.79 36.1213 139.981C35.8399 140.172 35.604 140.426 35.4134 140.743L34.76 140.131C34.9505 139.75 35.2546 139.427 35.672 139.164C36.0895 138.892 36.6159 138.756 37.2511 138.756C38.1042 138.756 38.7667 138.965 39.2386 139.382C39.7106 139.8 39.9465 140.38 39.9465 141.125V144.991H40.7497V145.944H40.1371ZM37.0061 145.181C37.2784 145.181 37.5279 145.15 37.7548 145.086C37.9817 145.022 38.1768 144.932 38.3402 144.814C38.5035 144.696 38.6306 144.56 38.7214 144.405C38.8121 144.251 38.8575 144.083 38.8575 143.902V142.745H37.4145C36.7883 142.745 36.33 142.835 36.0396 143.017C35.7582 143.198 35.6176 143.461 35.6176 143.806V144.092C35.6176 144.437 35.7401 144.705 35.9851 144.895C36.2392 145.086 36.5796 145.181 37.0061 145.181ZM42.304 135.87H43.3931V142.254H43.4475L44.523 141.057L46.5105 138.919H47.8309L45.2308 141.696L48.0896 145.944H46.7691L44.4413 142.363L43.3931 143.439V145.944H42.304V135.87ZM51.8977 146.107C51.4167 146.107 50.9811 146.021 50.5909 145.848C50.2097 145.676 49.8785 145.431 49.5971 145.113C49.3249 144.786 49.1116 144.401 48.9573 143.956C48.8121 143.502 48.7395 142.994 48.7395 142.431C48.7395 141.878 48.8121 141.374 48.9573 140.92C49.1116 140.467 49.3249 140.081 49.5971 139.763C49.8785 139.437 50.2097 139.187 50.5909 139.015C50.9811 138.842 51.4167 138.756 51.8977 138.756C52.3696 138.756 52.7917 138.842 53.1637 139.015C53.5358 139.187 53.8535 139.427 54.1167 139.736C54.3798 140.036 54.5795 140.394 54.7156 140.811C54.8608 141.229 54.9334 141.687 54.9334 142.186V142.704H49.883V143.03C49.883 143.33 49.9284 143.611 50.0191 143.874C50.119 144.129 50.2551 144.351 50.4275 144.541C50.609 144.732 50.8268 144.882 51.0809 144.991C51.3441 145.1 51.6391 145.154 51.9658 145.154C52.4105 145.154 52.7962 145.05 53.1229 144.841C53.4587 144.632 53.7173 144.333 53.8988 143.942L54.6748 144.501C54.4479 144.982 54.094 145.372 53.613 145.671C53.132 145.962 52.5602 146.107 51.8977 146.107ZM51.8977 139.668C51.5982 139.668 51.326 139.722 51.0809 139.831C50.8359 139.931 50.6226 140.076 50.4411 140.267C50.2687 140.458 50.1326 140.684 50.0327 140.948C49.9329 141.202 49.883 141.483 49.883 141.792V141.887H53.7627V141.737C53.7627 141.111 53.5903 140.612 53.2454 140.24C52.9096 139.859 52.4604 139.668 51.8977 139.668ZM61.1295 136.442V142.323C61.1295 143.23 61.2974 143.92 61.6332 144.392C61.969 144.855 62.5589 145.086 63.4029 145.086C64.2469 145.086 64.8368 144.855 65.1726 144.392C65.5084 143.92 65.6763 143.23 65.6763 142.323V136.442H66.8198V142.05C66.8198 142.74 66.7562 143.339 66.6292 143.847C66.5112 144.355 66.3161 144.777 66.0438 145.113C65.7716 145.449 65.4131 145.699 64.9684 145.862C64.5328 146.025 63.9973 146.107 63.3621 146.107C62.7268 146.107 62.1913 146.025 61.7557 145.862C61.3292 145.699 60.9843 145.449 60.7211 145.113C60.4579 144.777 60.2673 144.355 60.1494 143.847C60.0405 143.339 59.986 142.74 59.986 142.05V136.442H61.1295ZM68.8309 145.944V144.991H70.165V137.395H68.8309V136.442H72.6425V137.395H71.3085V144.991H72.6425V145.944H68.8309ZM79.3908 145.944C79.0096 145.944 78.7192 145.839 78.5196 145.63C78.329 145.413 78.2337 145.131 78.2337 144.786V139.872H77.0766V138.919H77.73C77.966 138.919 78.1248 138.874 78.2065 138.783C78.2972 138.683 78.3426 138.515 78.3426 138.279V136.973H79.3227V138.919H80.861V139.872H79.3227V144.991H80.7521V145.944H79.3908ZM85.1992 146.107C84.7182 146.107 84.2826 146.021 83.8924 145.848C83.5112 145.676 83.1799 145.431 82.8986 145.113C82.6263 144.786 82.4131 144.401 82.2588 143.956C82.1136 143.502 82.041 142.994 82.041 142.431C82.041 141.878 82.1136 141.374 82.2588 140.92C82.4131 140.467 82.6263 140.081 82.8986 139.763C83.1799 139.437 83.5112 139.187 83.8924 139.015C84.2826 138.842 84.7182 138.756 85.1992 138.756C85.6711 138.756 86.0931 138.842 86.4652 139.015C86.8373 139.187 87.1549 139.427 87.4181 139.736C87.6813 140.036 87.881 140.394 88.0171 140.811C88.1623 141.229 88.2349 141.687 88.2349 142.186V142.704H83.1845V143.03C83.1845 143.33 83.2298 143.611 83.3206 143.874C83.4204 144.129 83.5566 144.351 83.729 144.541C83.9105 144.732 84.1283 144.882 84.3824 144.991C84.6456 145.1 84.9406 145.154 85.2673 145.154C85.712 145.154 86.0977 145.05 86.4244 144.841C86.7602 144.632 87.0188 144.333 87.2003 143.942L87.9763 144.501C87.7494 144.982 87.3954 145.372 86.9145 145.671C86.4335 145.962 85.8617 146.107 85.1992 146.107ZM85.1992 139.668C84.8997 139.668 84.6275 139.722 84.3824 139.831C84.1374 139.931 83.9241 140.076 83.7426 140.267C83.5702 140.458 83.434 140.684 83.3342 140.948C83.2344 141.202 83.1845 141.483 83.1845 141.792V141.887H87.0642V141.737C87.0642 141.111 86.8918 140.612 86.5469 140.24C86.2111 139.859 85.7619 139.668 85.1992 139.668ZM88.9987 145.944L91.5988 142.404L89.1076 138.919H90.3873L92.1706 141.533H92.2114L94.0628 138.919H95.2744L92.7968 142.323L95.3288 145.944H94.0492L92.225 143.194H92.1842L90.2103 145.944H88.9987ZM98.3214 145.944C97.9403 145.944 97.6499 145.839 97.4502 145.63C97.2596 145.413 97.1643 145.131 97.1643 144.786V139.872H96.0072V138.919H96.6607C96.8966 138.919 97.0554 138.874 97.1371 138.783C97.2279 138.683 97.2732 138.515 97.2732 138.279V136.973H98.2534V138.919H99.7917V139.872H98.2534V144.991H99.6828V145.944H98.3214ZM102.236 146.107C101.946 146.107 101.733 146.034 101.597 145.889C101.47 145.744 101.406 145.553 101.406 145.317V145.14C101.406 144.904 101.47 144.714 101.597 144.569C101.733 144.423 101.946 144.351 102.236 144.351C102.527 144.351 102.736 144.423 102.863 144.569C102.999 144.714 103.067 144.904 103.067 145.14V145.317C103.067 145.553 102.999 145.744 102.863 145.889C102.736 146.034 102.527 146.107 102.236 146.107ZM105.945 146.107C105.655 146.107 105.442 146.034 105.306 145.889C105.179 145.744 105.115 145.553 105.115 145.317V145.14C105.115 144.904 105.179 144.714 105.306 144.569C105.442 144.423 105.655 144.351 105.945 144.351C106.236 144.351 106.445 144.423 106.572 144.569C106.708 144.714 106.776 144.904 106.776 145.14V145.317C106.776 145.553 106.708 145.744 106.572 145.889C106.445 146.034 106.236 146.107 105.945 146.107ZM109.654 146.107C109.364 146.107 109.151 146.034 109.015 145.889C108.888 145.744 108.824 145.553 108.824 145.317V145.14C108.824 144.904 108.888 144.714 109.015 144.569C109.151 144.423 109.364 144.351 109.654 144.351C109.945 144.351 110.154 144.423 110.281 144.569C110.417 144.714 110.485 144.904 110.485 145.14V145.317C110.485 145.553 110.417 145.744 110.281 145.889C110.154 146.034 109.945 146.107 109.654 146.107Z" fill="#727272"/>
<circle opacity="0.7" cx="44.5042" cy="40.3548" r="22.5139" fill="#EBE3F5"/>
<rect x="268.072" y="-2.05516" width="9.42442" height="186.394" fill="#E6DCF4"/>
<path d="M47 38.8674H41M43 42.8674H41M49 34.8674H41M53 34.6674V45.0674C53 46.7476 53 47.5877 52.673 48.2294C52.3854 48.7939 51.9265 49.2528 51.362 49.5405C50.7202 49.8674 49.8802 49.8674 48.2 49.8674H41.8C40.1198 49.8674 39.2798 49.8674 38.638 49.5405C38.0735 49.2528 37.6146 48.7939 37.327 48.2294C37 47.5877 37 46.7476 37 45.0674V34.6674C37 32.9873 37 32.1472 37.327 31.5055C37.6146 30.941 38.0735 30.482 38.638 30.1944C39.2798 29.8674 40.1198 29.8674 41.8 29.8674H48.2C49.8802 29.8674 50.7202 29.8674 51.362 30.1944C51.9265 30.482 52.3854 30.941 52.673 31.5055C53 32.1472 53 32.9873 53 34.6674Z" stroke="#694794" stroke-linecap="round" stroke-linejoin="round"/>
</g>
<defs>
<clipPath id="clip0_6_232">
<rect y="0.0393066" width="277.497" height="173.828" rx="12.5659" fill="white"/>
</clipPath>
</defs>
</svg>
