<svg width="278" height="174" viewBox="0 0 278 174" fill="none" xmlns="http://www.w3.org/2000/svg">
<g clip-path="url(#clip0_6_225)">
<rect y="0.0393066" width="277.497" height="173.828" rx="12.5659" fill="white"/>
<rect x="12.5659" y="96.3777" width="136.529" height="29.3204" rx="6.28295" fill="white" fill-opacity="0.1"/>
<path d="M27.9548 93.6828C27.1953 93.6828 26.5028 93.5543 25.8773 93.2974C25.263 93.0294 24.7324 92.644 24.2856 92.1414C23.85 91.6276 23.5093 90.9965 23.2636 90.2481C23.029 89.4886 22.9117 88.6173 22.9117 87.6344C22.9117 86.6515 23.029 85.7858 23.2636 85.0375C23.5093 84.2779 23.85 83.6468 24.2856 83.1442C24.7324 82.6304 25.263 82.245 25.8773 81.9881C26.5028 81.7201 27.1953 81.586 27.9548 81.586C28.7144 81.586 29.4013 81.7201 30.0157 81.9881C30.6412 82.245 31.1717 82.6304 31.6073 83.1442C32.0541 83.6468 32.3948 84.2779 32.6294 85.0375C32.8751 85.7858 32.998 86.6515 32.998 87.6344C32.998 88.6173 32.8751 89.4886 32.6294 90.2481C32.3948 90.9965 32.0541 91.6276 31.6073 92.1414C31.1717 92.644 30.6412 93.0294 30.0157 93.2974C29.4013 93.5543 28.7144 93.6828 27.9548 93.6828ZM27.9548 91.9906C28.4016 91.9906 28.8093 91.9124 29.1779 91.756C29.5577 91.5997 29.876 91.3763 30.1329 91.0858C30.401 90.7843 30.6077 90.4212 30.7529 89.9968C30.8981 89.5724 30.9707 89.0921 30.9707 88.5559V86.7129C30.9707 86.1768 30.8981 85.6965 30.7529 85.272C30.6077 84.8476 30.401 84.4901 30.1329 84.1997C29.876 83.8981 29.5577 83.6692 29.1779 83.5128C28.8093 83.3564 28.4016 83.2782 27.9548 83.2782C27.4969 83.2782 27.0836 83.3564 26.715 83.5128C26.3464 83.6692 26.0281 83.8981 25.76 84.1997C25.5031 84.4901 25.302 84.8476 25.1568 85.272C25.0116 85.6965 24.939 86.1768 24.939 86.7129V88.5559C24.939 89.0921 25.0116 89.5724 25.1568 89.9968C25.302 90.4212 25.5031 90.7843 25.76 91.0858C26.0281 91.3763 26.3464 91.5997 26.715 91.756C27.0836 91.9124 27.4969 91.9906 27.9548 91.9906ZM35.2249 93.4817V84.7694H37.0511V86.2103H37.1349C37.3248 85.7411 37.6096 85.3502 37.9894 85.0375C38.3803 84.7247 38.9109 84.5683 39.5811 84.5683C40.4746 84.5683 41.1672 84.8643 41.6586 85.4563C42.1613 86.0371 42.4126 86.8693 42.4126 87.9527V93.4817H40.5863V88.1873C40.5863 86.8246 40.039 86.1433 38.9444 86.1433C38.7098 86.1433 38.4753 86.1768 38.2407 86.2438C38.0173 86.2996 37.8162 86.389 37.6375 86.5119C37.4588 86.6347 37.3136 86.7911 37.2019 86.981C37.1014 87.1709 37.0511 87.3943 37.0511 87.6512V93.4817H35.2249ZM44.9438 81.0834H46.7701V86.2103H46.8538C47.0437 85.6853 47.3509 85.2832 47.7753 85.0039C48.2109 84.7135 48.7192 84.5683 49.3 84.5683C50.4058 84.5683 51.2603 84.9704 51.8634 85.7747C52.4666 86.5677 52.7682 87.6847 52.7682 89.1256C52.7682 90.5665 52.4666 91.689 51.8634 92.4932C51.2603 93.2863 50.4058 93.6828 49.3 93.6828C48.7192 93.6828 48.2109 93.5376 47.7753 93.2472C47.3509 92.9568 47.0437 92.5547 46.8538 92.0409H46.7701V93.4817H44.9438V81.0834ZM48.7471 92.1079C49.3838 92.1079 49.892 91.9068 50.2718 91.5047C50.6515 91.0914 50.8414 90.5497 50.8414 89.8795V88.3716C50.8414 87.7014 50.6515 87.1653 50.2718 86.7632C49.892 86.3499 49.3838 86.1433 48.7471 86.1433C48.1886 86.1433 47.7195 86.2829 47.3397 86.5621C46.9599 86.8302 46.7701 87.1876 46.7701 87.6344V90.6167C46.7701 91.0635 46.9599 91.4265 47.3397 91.7058C47.7195 91.9738 48.1886 92.1079 48.7471 92.1079ZM58.277 93.6828C57.6739 93.6828 57.121 93.5767 56.6183 93.3645C56.1269 93.1522 55.708 92.8507 55.3617 92.4597C55.0155 92.0576 54.7474 91.5773 54.5575 91.0188C54.3676 90.4492 54.2727 89.8181 54.2727 89.1256C54.2727 88.433 54.3676 87.8075 54.5575 87.2491C54.7474 86.6794 55.0155 86.1991 55.3617 85.8082C55.708 85.4061 56.1269 85.0989 56.6183 84.8867C57.121 84.6744 57.6739 84.5683 58.277 84.5683C58.8802 84.5683 59.4275 84.6744 59.919 84.8867C60.4216 85.0989 60.846 85.4061 61.1923 85.8082C61.5386 86.1991 61.8066 86.6794 61.9965 87.2491C62.1864 87.8075 62.2814 88.433 62.2814 89.1256C62.2814 89.8181 62.1864 90.4492 61.9965 91.0188C61.8066 91.5773 61.5386 92.0576 61.1923 92.4597C60.846 92.8507 60.4216 93.1522 59.919 93.3645C59.4275 93.5767 58.8802 93.6828 58.277 93.6828ZM58.277 92.1749C58.9025 92.1749 59.4052 91.985 59.7849 91.6052C60.1647 91.2143 60.3546 90.6335 60.3546 89.8628V88.3884C60.3546 87.6177 60.1647 87.0424 59.7849 86.6626C59.4052 86.2717 58.9025 86.0762 58.277 86.0762C57.6515 86.0762 57.1489 86.2717 56.7691 86.6626C56.3893 87.0424 56.1995 87.6177 56.1995 88.3884V89.8628C56.1995 90.6335 56.3893 91.2143 56.7691 91.6052C57.1489 91.985 57.6515 92.1749 58.277 92.1749ZM70.6997 93.4817C70.2194 93.4817 69.8508 93.3477 69.5939 93.0796C69.337 92.8004 69.1806 92.4485 69.1248 92.0241H69.041C68.8735 92.5714 68.5663 92.9847 68.1195 93.2639C67.6727 93.5432 67.131 93.6828 66.4943 93.6828C65.5896 93.6828 64.8915 93.4482 64.4 92.9791C63.9197 92.51 63.6796 91.8789 63.6796 91.0858C63.6796 90.2146 63.9923 89.5612 64.6178 89.1256C65.2545 88.6899 66.1816 88.4721 67.3991 88.4721H68.974V87.7349C68.974 87.1988 68.8288 86.7855 68.5384 86.4951C68.248 86.2047 67.7956 86.0595 67.1813 86.0595C66.6675 86.0595 66.2486 86.1712 65.9247 86.3946C65.6008 86.618 65.3271 86.9028 65.1037 87.2491L64.0147 86.2605C64.3051 85.7691 64.7128 85.367 65.2377 85.0542C65.7627 84.7303 66.4497 84.5683 67.2986 84.5683C68.4267 84.5683 69.2923 84.8308 69.8955 85.3558C70.4987 85.8808 70.8003 86.6347 70.8003 87.6177V91.9906H71.7218V93.4817H70.6997ZM67.0137 92.2922C67.5834 92.2922 68.0525 92.1693 68.4211 91.9236C68.7897 91.6667 68.974 91.326 68.974 90.9015V89.645H67.4326C66.1704 89.645 65.5393 90.0359 65.5393 90.8178V91.1194C65.5393 91.5103 65.6678 91.8063 65.9247 92.0073C66.1928 92.1972 66.5558 92.2922 67.0137 92.2922ZM73.5116 93.4817V84.7694H75.3378V86.4448H75.4216C75.5445 85.9981 75.8014 85.6071 76.1923 85.272C76.5833 84.9369 77.125 84.7694 77.8175 84.7694H78.3034V86.5286H77.583C76.8569 86.5286 76.2984 86.6459 75.9075 86.8805C75.5277 87.115 75.3378 87.4613 75.3378 87.9192V93.4817H73.5116ZM85.3224 92.0409H85.2386C85.0487 92.5547 84.736 92.9568 84.3003 93.2472C83.8759 93.5376 83.3733 93.6828 82.7924 93.6828C81.6866 93.6828 80.8322 93.2863 80.229 92.4932C79.6258 91.689 79.3242 90.5665 79.3242 89.1256C79.3242 87.6847 79.6258 86.5677 80.229 85.7747C80.8322 84.9704 81.6866 84.5683 82.7924 84.5683C83.3733 84.5683 83.8759 84.7135 84.3003 85.0039C84.736 85.2832 85.0487 85.6853 85.2386 86.2103H85.3224V81.0834H87.1486V93.4817H85.3224V92.0409ZM83.3453 92.1079C83.9038 92.1079 84.3729 91.9738 84.7527 91.7058C85.1325 91.4265 85.3224 91.0635 85.3224 90.6167V87.6344C85.3224 87.1876 85.1325 86.8302 84.7527 86.5621C84.3729 86.2829 83.9038 86.1433 83.3453 86.1433C82.7087 86.1433 82.2004 86.3499 81.8207 86.7632C81.4409 87.1653 81.251 87.7014 81.251 88.3716V89.8795C81.251 90.5497 81.4409 91.0914 81.8207 91.5047C82.2004 91.9068 82.7087 92.1079 83.3453 92.1079ZM90.6804 83.2112C90.3006 83.2112 90.0214 83.1219 89.8427 82.9431C89.6751 82.7644 89.5914 82.5354 89.5914 82.2562V81.9714C89.5914 81.6921 89.6751 81.4632 89.8427 81.2844C90.0214 81.1057 90.3006 81.0164 90.6804 81.0164C91.0602 81.0164 91.3338 81.1057 91.5014 81.2844C91.6689 81.4632 91.7527 81.6921 91.7527 81.9714V82.2562C91.7527 82.5354 91.6689 82.7644 91.5014 82.9431C91.3338 83.1219 91.0602 83.2112 90.6804 83.2112ZM89.7589 84.7694H91.5852V93.4817H89.7589V84.7694ZM94.193 93.4817V84.7694H96.0192V86.2103H96.103C96.2929 85.7411 96.5777 85.3502 96.9575 85.0375C97.3484 84.7247 97.879 84.5683 98.5492 84.5683C99.4427 84.5683 100.135 84.8643 100.627 85.4563C101.129 86.0371 101.381 86.8693 101.381 87.9527V93.4817H99.5544V88.1873C99.5544 86.8246 99.0071 86.1433 97.9125 86.1433C97.6779 86.1433 97.4434 86.1768 97.2088 86.2438C96.9854 86.2996 96.7843 86.389 96.6056 86.5119C96.4269 86.6347 96.2817 86.7911 96.17 86.981C96.0695 87.1709 96.0192 87.3943 96.0192 87.6512V93.4817H94.193ZM111.552 94.3027C111.552 95.2075 111.206 95.8888 110.513 96.3468C109.821 96.8047 108.693 97.0337 107.129 97.0337C106.414 97.0337 105.805 96.9834 105.303 96.8829C104.811 96.7936 104.403 96.6595 104.079 96.4808C103.767 96.3021 103.538 96.0843 103.393 95.8274C103.247 95.5705 103.175 95.2745 103.175 94.9394C103.175 94.4591 103.303 94.0849 103.56 93.8168C103.828 93.5488 104.197 93.3645 104.666 93.2639V93.0796C104.007 92.8674 103.677 92.4206 103.677 91.7393C103.677 91.2925 103.828 90.9518 104.13 90.7172C104.431 90.4715 104.794 90.2984 105.219 90.1979V90.1308C104.705 89.8851 104.308 89.5444 104.029 89.1088C103.761 88.662 103.627 88.1426 103.627 87.5506C103.627 86.6571 103.923 85.9366 104.515 85.3893C105.118 84.842 105.978 84.5683 107.095 84.5683C107.71 84.5683 108.235 84.6577 108.67 84.8364V84.6018C108.67 84.2109 108.76 83.9093 108.938 83.6971C109.128 83.4737 109.419 83.362 109.81 83.362H111.15V84.8364H109.374V85.1882C109.765 85.4452 110.066 85.7802 110.279 86.1935C110.491 86.5956 110.597 87.048 110.597 87.5506C110.597 88.433 110.295 89.1479 109.692 89.6952C109.089 90.2314 108.229 90.4994 107.112 90.4994C106.688 90.4994 106.308 90.4548 105.973 90.3654C105.749 90.4436 105.554 90.5553 105.386 90.7005C105.219 90.8345 105.135 91.0132 105.135 91.2366C105.135 91.4712 105.241 91.6387 105.453 91.7393C105.666 91.8398 105.967 91.8901 106.358 91.8901H108.503C109.575 91.8901 110.351 92.1079 110.832 92.5435C111.312 92.9679 111.552 93.5543 111.552 94.3027ZM109.843 94.5038C109.843 94.2022 109.726 93.962 109.491 93.7833C109.268 93.6046 108.855 93.5153 108.251 93.5153H105.303C104.9 93.7498 104.699 94.0849 104.699 94.5205C104.699 94.878 104.839 95.1628 105.118 95.375C105.409 95.5984 105.895 95.7101 106.576 95.7101H107.715C109.134 95.7101 109.843 95.308 109.843 94.5038ZM107.112 89.1758C107.648 89.1758 108.061 89.0585 108.352 88.824C108.653 88.5782 108.804 88.2041 108.804 87.7014V87.3663C108.804 86.8637 108.653 86.4951 108.352 86.2605C108.061 86.0148 107.648 85.8919 107.112 85.8919C106.576 85.8919 106.157 86.0148 105.855 86.2605C105.565 86.4951 105.42 86.8637 105.42 87.3663V87.7014C105.42 88.2041 105.565 88.5782 105.855 88.824C106.157 89.0585 106.576 89.1758 107.112 89.1758Z" fill="#191919"/>
<path d="M26.4553 116.449V124.944H25.3118V116.449H22.2897V115.442H29.4774V116.449H26.4553ZM30.9376 114.87H32.0267V119.063H32.0811C32.2536 118.663 32.4941 118.346 32.8026 118.11C33.1203 117.874 33.5423 117.756 34.0686 117.756C34.7947 117.756 35.3664 117.992 35.7839 118.464C36.2104 118.927 36.4237 119.585 36.4237 120.438V124.944H35.3346V120.628C35.3346 119.367 34.8037 118.736 33.7419 118.736C33.5241 118.736 33.3108 118.763 33.1021 118.818C32.9024 118.872 32.7209 118.954 32.5576 119.063C32.3942 119.172 32.2626 119.312 32.1628 119.485C32.0721 119.648 32.0267 119.843 32.0267 120.07V124.944H30.9376V114.87ZM41.3157 125.107C40.8347 125.107 40.3991 125.021 40.0088 124.848C39.6277 124.676 39.2964 124.431 39.0151 124.113C38.7428 123.786 38.5295 123.401 38.3753 122.956C38.23 122.502 38.1574 121.994 38.1574 121.431C38.1574 120.878 38.23 120.374 38.3753 119.92C38.5295 119.467 38.7428 119.081 39.0151 118.763C39.2964 118.437 39.6277 118.187 40.0088 118.015C40.3991 117.842 40.8347 117.756 41.3157 117.756C41.7876 117.756 42.2096 117.842 42.5817 118.015C42.9538 118.187 43.2714 118.427 43.5346 118.736C43.7978 119.036 43.9974 119.394 44.1336 119.811C44.2788 120.229 44.3514 120.687 44.3514 121.186V121.704H39.3009V122.03C39.3009 122.33 39.3463 122.611 39.4371 122.874C39.5369 123.129 39.673 123.351 39.8455 123.541C40.027 123.732 40.2448 123.882 40.4989 123.991C40.7621 124.1 41.057 124.154 41.3837 124.154C41.8284 124.154 42.2141 124.05 42.5408 123.841C42.8766 123.632 43.1353 123.333 43.3168 122.942L44.0927 123.501C43.8659 123.982 43.5119 124.372 43.0309 124.671C42.5499 124.962 41.9782 125.107 41.3157 125.107ZM41.3157 118.668C41.0162 118.668 40.7439 118.722 40.4989 118.831C40.2539 118.931 40.0406 119.076 39.8591 119.267C39.6866 119.458 39.5505 119.684 39.4507 119.948C39.3509 120.202 39.3009 120.483 39.3009 120.792V120.887H43.1807V120.737C43.1807 120.111 43.0082 119.612 42.6634 119.24C42.3276 118.859 41.8783 118.668 41.3157 118.668ZM55.2848 125.72C55.2848 126.446 54.9989 126.976 54.4272 127.312C53.8645 127.657 53.016 127.83 51.8815 127.83C50.7834 127.83 49.9939 127.68 49.5129 127.38C49.0319 127.081 48.7914 126.654 48.7914 126.101C48.7914 125.72 48.8912 125.42 49.0909 125.202C49.2905 124.994 49.5628 124.839 49.9076 124.739V124.59C49.4902 124.39 49.2814 124.063 49.2814 123.61C49.2814 123.256 49.3949 122.988 49.6218 122.806C49.8486 122.616 50.1391 122.475 50.493 122.384V122.33C50.0755 122.13 49.7488 121.844 49.5129 121.472C49.286 121.1 49.1725 120.669 49.1725 120.179C49.1725 119.825 49.2361 119.498 49.3631 119.199C49.4902 118.899 49.6671 118.645 49.894 118.437C50.13 118.219 50.4068 118.051 50.7244 117.933C51.0511 117.815 51.4142 117.756 51.8135 117.756C52.3126 117.756 52.7573 117.847 53.1475 118.028V117.906C53.1475 117.633 53.2111 117.411 53.3381 117.239C53.4652 117.057 53.6739 116.966 53.9643 116.966H55.0125V117.919H53.6785V118.368C53.9326 118.586 54.1277 118.849 54.2638 119.158C54.409 119.458 54.4816 119.798 54.4816 120.179C54.4816 120.533 54.4181 120.86 54.291 121.159C54.164 121.459 53.9825 121.717 53.7465 121.935C53.5196 122.144 53.2428 122.307 52.9161 122.425C52.5894 122.543 52.2264 122.602 51.8271 122.602C51.6002 122.602 51.3733 122.579 51.1464 122.534C50.9105 122.598 50.6972 122.693 50.5066 122.82C50.316 122.938 50.2207 123.106 50.2207 123.324C50.2207 123.532 50.3206 123.673 50.5202 123.746C50.7199 123.818 50.9785 123.855 51.2962 123.855H52.7936C53.6648 123.855 54.2956 124.022 54.6858 124.358C55.0851 124.685 55.2848 125.139 55.2848 125.72ZM54.2638 125.801C54.2638 125.52 54.1549 125.293 53.9371 125.121C53.7284 124.957 53.3517 124.876 52.8072 124.876H50.4658C50.0302 125.075 49.8123 125.393 49.8123 125.828C49.8123 126.137 49.9258 126.4 50.1527 126.618C50.3886 126.836 50.7834 126.945 51.337 126.945H52.3444C52.9524 126.945 53.4243 126.849 53.7601 126.659C54.0959 126.468 54.2638 126.182 54.2638 125.801ZM51.8271 121.731C52.2899 121.731 52.6575 121.622 52.9297 121.404C53.202 121.177 53.3381 120.832 53.3381 120.37V119.988C53.3381 119.526 53.202 119.185 52.9297 118.967C52.6575 118.741 52.2899 118.627 51.8271 118.627C51.3642 118.627 50.9967 118.741 50.7244 118.967C50.4522 119.185 50.316 119.526 50.316 119.988V120.37C50.316 120.832 50.4522 121.177 50.7244 121.404C50.9967 121.622 51.3642 121.731 51.8271 121.731ZM59.13 125.107C58.658 125.107 58.227 125.021 57.8367 124.848C57.4465 124.676 57.1107 124.431 56.8293 124.113C56.5571 123.786 56.3438 123.401 56.1895 122.956C56.0353 122.502 55.9581 121.994 55.9581 121.431C55.9581 120.878 56.0353 120.374 56.1895 119.92C56.3438 119.467 56.5571 119.081 56.8293 118.763C57.1107 118.437 57.4465 118.187 57.8367 118.015C58.227 117.842 58.658 117.756 59.13 117.756C59.6019 117.756 60.0284 117.842 60.4096 118.015C60.7998 118.187 61.1356 118.437 61.4169 118.763C61.6983 119.081 61.9161 119.467 62.0704 119.92C62.2247 120.374 62.3018 120.878 62.3018 121.431C62.3018 121.994 62.2247 122.502 62.0704 122.956C61.9161 123.401 61.6983 123.786 61.4169 124.113C61.1356 124.431 60.7998 124.676 60.4096 124.848C60.0284 125.021 59.6019 125.107 59.13 125.107ZM59.13 124.14C59.7199 124.14 60.2008 123.959 60.5729 123.596C60.945 123.233 61.1311 122.679 61.1311 121.935V120.928C61.1311 120.184 60.945 119.63 60.5729 119.267C60.2008 118.904 59.7199 118.722 59.13 118.722C58.5401 118.722 58.0591 118.904 57.687 119.267C57.3149 119.63 57.1288 120.184 57.1288 120.928V121.935C57.1288 122.679 57.3149 123.233 57.687 123.596C58.0591 123.959 58.5401 124.14 59.13 124.14ZM69.1978 124.944C68.7894 124.944 68.4944 124.835 68.3129 124.617C68.1405 124.399 68.0316 124.127 67.9862 123.8H67.9181C67.7639 124.236 67.5097 124.562 67.1558 124.78C66.8019 124.998 66.3799 125.107 65.8898 125.107C65.1456 125.107 64.5648 124.916 64.1473 124.535C63.7389 124.154 63.5347 123.637 63.5347 122.983C63.5347 122.321 63.7752 121.813 64.2562 121.459C64.7463 121.105 65.5041 120.928 66.5296 120.928H67.9181V120.233C67.9181 119.734 67.782 119.353 67.5097 119.09C67.2375 118.827 66.82 118.695 66.2573 118.695C65.8308 118.695 65.4723 118.79 65.1819 118.981C64.9006 119.172 64.6646 119.426 64.474 119.743L63.8206 119.131C64.0112 118.75 64.3152 118.427 64.7327 118.164C65.1502 117.892 65.6765 117.756 66.3118 117.756C67.1649 117.756 67.8274 117.965 68.2993 118.382C68.7712 118.8 69.0072 119.38 69.0072 120.125V123.991H69.8104V124.944H69.1978ZM66.0668 124.181C66.339 124.181 66.5886 124.15 66.8155 124.086C67.0424 124.022 67.2375 123.932 67.4008 123.814C67.5642 123.696 67.6913 123.56 67.782 123.405C67.8728 123.251 67.9181 123.083 67.9181 122.902V121.745H66.4752C65.849 121.745 65.3906 121.835 65.1002 122.017C64.8189 122.198 64.6782 122.461 64.6782 122.806V123.092C64.6782 123.437 64.8007 123.705 65.0458 123.895C65.2999 124.086 65.6402 124.181 66.0668 124.181ZM72.5218 124.944C72.1406 124.944 71.8502 124.839 71.6506 124.63C71.46 124.413 71.3647 124.14 71.3647 123.814V114.87H72.4537V123.991H73.4883V124.944H72.5218ZM80.9454 125.107C80.4735 125.107 80.0424 125.021 79.6522 124.848C79.2619 124.676 78.9261 124.431 78.6448 124.113C78.3725 123.786 78.1593 123.401 78.005 122.956C77.8507 122.502 77.7736 121.994 77.7736 121.431C77.7736 120.878 77.8507 120.374 78.005 119.92C78.1593 119.467 78.3725 119.081 78.6448 118.763C78.9261 118.437 79.2619 118.187 79.6522 118.015C80.0424 117.842 80.4735 117.756 80.9454 117.756C81.4173 117.756 81.8439 117.842 82.225 118.015C82.6153 118.187 82.9511 118.437 83.2324 118.763C83.5137 119.081 83.7316 119.467 83.8858 119.92C84.0401 120.374 84.1173 120.878 84.1173 121.431C84.1173 121.994 84.0401 122.502 83.8858 122.956C83.7316 123.401 83.5137 123.786 83.2324 124.113C82.9511 124.431 82.6153 124.676 82.225 124.848C81.8439 125.021 81.4173 125.107 80.9454 125.107ZM80.9454 124.14C81.5353 124.14 82.0163 123.959 82.3884 123.596C82.7605 123.233 82.9465 122.679 82.9465 121.935V120.928C82.9465 120.184 82.7605 119.63 82.3884 119.267C82.0163 118.904 81.5353 118.722 80.9454 118.722C80.3555 118.722 79.8745 118.904 79.5024 119.267C79.1303 119.63 78.9443 120.184 78.9443 120.928V121.935C78.9443 122.679 79.1303 123.233 79.5024 123.596C79.8745 123.959 80.3555 124.14 80.9454 124.14ZM86.2097 118.872H85.0662V117.919H86.2097V116.503C86.2097 116.013 86.3368 115.619 86.5909 115.319C86.845 115.02 87.2307 114.87 87.748 114.87H88.8098V115.823H87.2988V117.919H88.8098V118.872H87.2988V124.944H86.2097V118.872ZM95.0112 124.944C94.63 124.944 94.3396 124.839 94.14 124.63C93.9494 124.413 93.8541 124.131 93.8541 123.786V118.872H92.697V117.919H93.3504C93.5864 117.919 93.7452 117.874 93.8269 117.783C93.9176 117.683 93.963 117.515 93.963 117.279V115.973H94.9431V117.919H96.4814V118.872H94.9431V123.991H96.3725V124.944H95.0112ZM98.2319 114.87H99.3209V119.063H99.3754C99.5478 118.663 99.7883 118.346 100.097 118.11C100.414 117.874 100.837 117.756 101.363 117.756C102.089 117.756 102.661 117.992 103.078 118.464C103.505 118.927 103.718 119.585 103.718 120.438V124.944H102.629V120.628C102.629 119.367 102.098 118.736 101.036 118.736C100.818 118.736 100.605 118.763 100.396 118.818C100.197 118.872 100.015 118.954 99.8518 119.063C99.6885 119.172 99.5569 119.312 99.457 119.485C99.3663 119.648 99.3209 119.843 99.3209 120.07V124.944H98.2319V114.87ZM108.61 125.107C108.129 125.107 107.693 125.021 107.303 124.848C106.922 124.676 106.591 124.431 106.309 124.113C106.037 123.786 105.824 123.401 105.669 122.956C105.524 122.502 105.452 121.994 105.452 121.431C105.452 120.878 105.524 120.374 105.669 119.92C105.824 119.467 106.037 119.081 106.309 118.763C106.591 118.437 106.922 118.187 107.303 118.015C107.693 117.842 108.129 117.756 108.61 117.756C109.082 117.756 109.504 117.842 109.876 118.015C110.248 118.187 110.566 118.427 110.829 118.736C111.092 119.036 111.292 119.394 111.428 119.811C111.573 120.229 111.646 120.687 111.646 121.186V121.704H106.595V122.03C106.595 122.33 106.641 122.611 106.731 122.874C106.831 123.129 106.967 123.351 107.14 123.541C107.321 123.732 107.539 123.882 107.793 123.991C108.056 124.1 108.351 124.154 108.678 124.154C109.123 124.154 109.508 124.05 109.835 123.841C110.171 123.632 110.43 123.333 110.611 122.942L111.387 123.501C111.16 123.982 110.806 124.372 110.325 124.671C109.844 124.962 109.272 125.107 108.61 125.107ZM108.61 118.668C108.31 118.668 108.038 118.722 107.793 118.831C107.548 118.931 107.335 119.076 107.153 119.267C106.981 119.458 106.845 119.684 106.745 119.948C106.645 120.202 106.595 120.483 106.595 120.792V120.887H110.475V120.737C110.475 120.111 110.302 119.612 109.958 119.24C109.622 118.859 109.173 118.668 108.61 118.668ZM115.55 125.107C114.897 125.107 114.348 124.984 113.903 124.739C113.467 124.485 113.091 124.15 112.773 123.732L113.549 123.106C113.821 123.451 114.125 123.718 114.461 123.909C114.797 124.091 115.187 124.181 115.632 124.181C116.095 124.181 116.453 124.081 116.707 123.882C116.971 123.682 117.102 123.401 117.102 123.038C117.102 122.766 117.011 122.534 116.83 122.344C116.657 122.144 116.34 122.008 115.877 121.935L115.319 121.853C114.992 121.808 114.693 121.74 114.42 121.649C114.148 121.549 113.908 121.422 113.699 121.268C113.499 121.105 113.34 120.905 113.222 120.669C113.113 120.433 113.059 120.152 113.059 119.825C113.059 119.48 113.123 119.181 113.25 118.927C113.377 118.663 113.549 118.446 113.767 118.273C113.994 118.101 114.262 117.974 114.57 117.892C114.879 117.801 115.21 117.756 115.564 117.756C116.136 117.756 116.612 117.856 116.993 118.055C117.383 118.255 117.724 118.532 118.014 118.886L117.293 119.539C117.138 119.321 116.912 119.126 116.612 118.954C116.313 118.772 115.936 118.682 115.482 118.682C115.028 118.682 114.684 118.781 114.448 118.981C114.221 119.172 114.107 119.435 114.107 119.771C114.107 120.115 114.221 120.365 114.448 120.519C114.684 120.674 115.019 120.787 115.455 120.86L115.999 120.941C116.78 121.059 117.334 121.286 117.66 121.622C117.987 121.949 118.15 122.38 118.15 122.915C118.15 123.596 117.919 124.131 117.456 124.522C116.993 124.912 116.358 125.107 115.55 125.107ZM122.715 125.107C122.234 125.107 121.798 125.021 121.408 124.848C121.027 124.676 120.696 124.431 120.414 124.113C120.142 123.786 119.929 123.401 119.774 122.956C119.629 122.502 119.557 121.994 119.557 121.431C119.557 120.878 119.629 120.374 119.774 119.92C119.929 119.467 120.142 119.081 120.414 118.763C120.696 118.437 121.027 118.187 121.408 118.015C121.798 117.842 122.234 117.756 122.715 117.756C123.187 117.756 123.609 117.842 123.981 118.015C124.353 118.187 124.671 118.427 124.934 118.736C125.197 119.036 125.397 119.394 125.533 119.811C125.678 120.229 125.751 120.687 125.751 121.186V121.704H120.7V122.03C120.7 122.33 120.745 122.611 120.836 122.874C120.936 123.129 121.072 123.351 121.245 123.541C121.426 123.732 121.644 123.882 121.898 123.991C122.161 124.1 122.456 124.154 122.783 124.154C123.228 124.154 123.613 124.05 123.94 123.841C124.276 123.632 124.534 123.333 124.716 122.942L125.492 123.501C125.265 123.982 124.911 124.372 124.43 124.671C123.949 124.962 123.377 125.107 122.715 125.107ZM122.715 118.668C122.415 118.668 122.143 118.722 121.898 118.831C121.653 118.931 121.44 119.076 121.258 119.267C121.086 119.458 120.95 119.684 120.85 119.948C120.75 120.202 120.7 120.483 120.7 120.792V120.887H124.58V120.737C124.58 120.111 124.407 119.612 124.063 119.24C123.727 118.859 123.278 118.668 122.715 118.668ZM136.684 125.72C136.684 126.446 136.398 126.976 135.826 127.312C135.264 127.657 134.415 127.83 133.281 127.83C132.183 127.83 131.393 127.68 130.912 127.38C130.431 127.081 130.191 126.654 130.191 126.101C130.191 125.72 130.29 125.42 130.49 125.202C130.69 124.994 130.962 124.839 131.307 124.739V124.59C130.889 124.39 130.681 124.063 130.681 123.61C130.681 123.256 130.794 122.988 131.021 122.806C131.248 122.616 131.538 122.475 131.892 122.384V122.33C131.475 122.13 131.148 121.844 130.912 121.472C130.685 121.1 130.572 120.669 130.572 120.179C130.572 119.825 130.635 119.498 130.762 119.199C130.889 118.899 131.066 118.645 131.293 118.437C131.529 118.219 131.806 118.051 132.124 117.933C132.45 117.815 132.813 117.756 133.213 117.756C133.712 117.756 134.156 117.847 134.547 118.028V117.906C134.547 117.633 134.61 117.411 134.737 117.239C134.864 117.057 135.073 116.966 135.364 116.966H136.412V117.919H135.078V118.368C135.332 118.586 135.527 118.849 135.663 119.158C135.808 119.458 135.881 119.798 135.881 120.179C135.881 120.533 135.817 120.86 135.69 121.159C135.563 121.459 135.382 121.717 135.146 121.935C134.919 122.144 134.642 122.307 134.315 122.425C133.989 122.543 133.626 122.602 133.226 122.602C132.999 122.602 132.772 122.579 132.546 122.534C132.31 122.598 132.096 122.693 131.906 122.82C131.715 122.938 131.62 123.106 131.62 123.324C131.62 123.532 131.72 123.673 131.919 123.746C132.119 123.818 132.378 123.855 132.695 123.855H134.193C135.064 123.855 135.695 124.022 136.085 124.358C136.484 124.685 136.684 125.139 136.684 125.72ZM135.663 125.801C135.663 125.52 135.554 125.293 135.336 125.121C135.128 124.957 134.751 124.876 134.206 124.876H131.865C131.429 125.075 131.212 125.393 131.212 125.828C131.212 126.137 131.325 126.4 131.552 126.618C131.788 126.836 132.183 126.945 132.736 126.945H133.744C134.352 126.945 134.824 126.849 135.159 126.659C135.495 126.468 135.663 126.182 135.663 125.801ZM133.226 121.731C133.689 121.731 134.057 121.622 134.329 121.404C134.601 121.177 134.737 120.832 134.737 120.37V119.988C134.737 119.526 134.601 119.185 134.329 118.967C134.057 118.741 133.689 118.627 133.226 118.627C132.763 118.627 132.396 118.741 132.124 118.967C131.851 119.185 131.715 119.526 131.715 119.988V120.37C131.715 120.832 131.851 121.177 132.124 121.404C132.396 121.622 132.763 121.731 133.226 121.731ZM142.23 123.8H142.176C142.103 123.963 142.012 124.127 141.903 124.29C141.804 124.444 141.677 124.585 141.522 124.712C141.368 124.83 141.182 124.925 140.964 124.998C140.746 125.071 140.492 125.107 140.202 125.107C139.476 125.107 138.899 124.876 138.473 124.413C138.046 123.941 137.833 123.278 137.833 122.425V117.919H138.922V122.235C138.922 123.496 139.458 124.127 140.528 124.127C140.746 124.127 140.955 124.1 141.155 124.045C141.363 123.991 141.545 123.909 141.699 123.8C141.863 123.691 141.99 123.555 142.08 123.392C142.18 123.219 142.23 123.015 142.23 122.779V117.919H143.319V124.944H142.23V123.8ZM146.183 116.272C145.947 116.272 145.774 116.218 145.666 116.109C145.566 115.991 145.516 115.841 145.516 115.659V115.483C145.516 115.301 145.566 115.156 145.666 115.047C145.774 114.929 145.947 114.87 146.183 114.87C146.419 114.87 146.587 114.929 146.686 115.047C146.795 115.156 146.85 115.301 146.85 115.483V115.659C146.85 115.841 146.795 115.991 146.686 116.109C146.587 116.218 146.419 116.272 146.183 116.272ZM145.638 117.919H146.727V124.944H145.638V117.919ZM153.534 123.8H153.479C153.053 124.671 152.368 125.107 151.424 125.107C150.988 125.107 150.593 125.021 150.239 124.848C149.886 124.676 149.582 124.431 149.327 124.113C149.082 123.796 148.892 123.41 148.756 122.956C148.629 122.502 148.565 121.994 148.565 121.431C148.565 120.869 148.629 120.361 148.756 119.907C148.892 119.453 149.082 119.067 149.327 118.75C149.582 118.432 149.886 118.187 150.239 118.015C150.593 117.842 150.988 117.756 151.424 117.756C151.914 117.756 152.331 117.865 152.676 118.083C153.03 118.291 153.298 118.618 153.479 119.063H153.534V114.87H154.623V124.944H153.534V123.8ZM151.723 124.127C151.968 124.127 152.2 124.095 152.418 124.032C152.644 123.968 152.84 123.877 153.003 123.759C153.166 123.632 153.293 123.482 153.384 123.31C153.484 123.129 153.534 122.924 153.534 122.697V120.084C153.534 119.893 153.484 119.716 153.384 119.553C153.293 119.38 153.166 119.235 153.003 119.117C152.84 118.999 152.644 118.908 152.418 118.845C152.2 118.772 151.968 118.736 151.723 118.736C151.106 118.736 150.621 118.931 150.267 119.321C149.913 119.703 149.736 120.206 149.736 120.832V122.03C149.736 122.657 149.913 123.165 150.267 123.555C150.621 123.936 151.106 124.127 151.723 124.127ZM159.579 125.107C159.098 125.107 158.662 125.021 158.272 124.848C157.891 124.676 157.56 124.431 157.279 124.113C157.006 123.786 156.793 123.401 156.639 122.956C156.493 122.502 156.421 121.994 156.421 121.431C156.421 120.878 156.493 120.374 156.639 119.92C156.793 119.467 157.006 119.081 157.279 118.763C157.56 118.437 157.891 118.187 158.272 118.015C158.662 117.842 159.098 117.756 159.579 117.756C160.051 117.756 160.473 117.842 160.845 118.015C161.217 118.187 161.535 118.427 161.798 118.736C162.061 119.036 162.261 119.394 162.397 119.811C162.542 120.229 162.615 120.687 162.615 121.186V121.704H157.564V122.03C157.564 122.33 157.61 122.611 157.701 122.874C157.8 123.129 157.936 123.351 158.109 123.541C158.29 123.732 158.508 123.882 158.762 123.991C159.026 124.1 159.32 124.154 159.647 124.154C160.092 124.154 160.478 124.05 160.804 123.841C161.14 123.632 161.399 123.333 161.58 122.942L162.356 123.501C162.129 123.982 161.775 124.372 161.294 124.671C160.813 124.962 160.242 125.107 159.579 125.107ZM159.579 118.668C159.28 118.668 159.007 118.722 158.762 118.831C158.517 118.931 158.304 119.076 158.123 119.267C157.95 119.458 157.814 119.684 157.714 119.948C157.614 120.202 157.564 120.483 157.564 120.792V120.887H161.444V120.737C161.444 120.111 161.272 119.612 160.927 119.24C160.591 118.859 160.142 118.668 159.579 118.668ZM165.567 124.944C165.185 124.944 164.895 124.839 164.695 124.63C164.505 124.413 164.409 124.14 164.409 123.814V114.87H165.498V123.991H166.533V124.944H165.567ZM168.663 116.272C168.427 116.272 168.255 116.218 168.146 116.109C168.046 115.991 167.996 115.841 167.996 115.659V115.483C167.996 115.301 168.046 115.156 168.146 115.047C168.255 114.929 168.427 114.87 168.663 114.87C168.899 114.87 169.067 114.929 169.167 115.047C169.276 115.156 169.33 115.301 169.33 115.483V115.659C169.33 115.841 169.276 115.991 169.167 116.109C169.067 116.218 168.899 116.272 168.663 116.272ZM168.118 117.919H169.207V124.944H168.118V117.919ZM171.522 124.944V117.919H172.611V119.063H172.665C172.838 118.663 173.078 118.346 173.387 118.11C173.704 117.874 174.126 117.756 174.653 117.756C175.379 117.756 175.95 117.992 176.368 118.464C176.794 118.927 177.008 119.585 177.008 120.438V124.944H175.919V120.628C175.919 119.367 175.388 118.736 174.326 118.736C174.108 118.736 173.895 118.763 173.686 118.818C173.487 118.872 173.305 118.954 173.142 119.063C172.978 119.172 172.847 119.312 172.747 119.485C172.656 119.648 172.611 119.843 172.611 120.07V124.944H171.522ZM181.9 125.107C181.419 125.107 180.983 125.021 180.593 124.848C180.212 124.676 179.88 124.431 179.599 124.113C179.327 123.786 179.114 123.401 178.959 122.956C178.814 122.502 178.742 121.994 178.742 121.431C178.742 120.878 178.814 120.374 178.959 119.92C179.114 119.467 179.327 119.081 179.599 118.763C179.88 118.437 180.212 118.187 180.593 118.015C180.983 117.842 181.419 117.756 181.9 117.756C182.372 117.756 182.794 117.842 183.166 118.015C183.538 118.187 183.855 118.427 184.119 118.736C184.382 119.036 184.582 119.394 184.718 119.811C184.863 120.229 184.935 120.687 184.935 121.186V121.704H179.885V122.03C179.885 122.33 179.93 122.611 180.021 122.874C180.121 123.129 180.257 123.351 180.43 123.541C180.611 123.732 180.829 123.882 181.083 123.991C181.346 124.1 181.641 124.154 181.968 124.154C182.413 124.154 182.798 124.05 183.125 123.841C183.461 123.632 183.719 123.333 183.901 122.942L184.677 123.501C184.45 123.982 184.096 124.372 183.615 124.671C183.134 124.962 182.562 125.107 181.9 125.107ZM181.9 118.668C181.6 118.668 181.328 118.722 181.083 118.831C180.838 118.931 180.625 119.076 180.443 119.267C180.271 119.458 180.135 119.684 180.035 119.948C179.935 120.202 179.885 120.483 179.885 120.792V120.887H183.765V120.737C183.765 120.111 183.592 119.612 183.247 119.24C182.912 118.859 182.462 118.668 181.9 118.668ZM188.84 125.107C188.187 125.107 187.638 124.984 187.193 124.739C186.757 124.485 186.381 124.15 186.063 123.732L186.839 123.106C187.111 123.451 187.415 123.718 187.751 123.909C188.087 124.091 188.477 124.181 188.922 124.181C189.385 124.181 189.743 124.081 189.997 123.882C190.26 123.682 190.392 123.401 190.392 123.038C190.392 122.766 190.301 122.534 190.12 122.344C189.947 122.144 189.63 122.008 189.167 121.935L188.609 121.853C188.282 121.808 187.982 121.74 187.71 121.649C187.438 121.549 187.197 121.422 186.989 121.268C186.789 121.105 186.63 120.905 186.512 120.669C186.403 120.433 186.349 120.152 186.349 119.825C186.349 119.48 186.412 119.181 186.539 118.927C186.667 118.663 186.839 118.446 187.057 118.273C187.284 118.101 187.551 117.974 187.86 117.892C188.168 117.801 188.5 117.756 188.854 117.756C189.425 117.756 189.902 117.856 190.283 118.055C190.673 118.255 191.014 118.532 191.304 118.886L190.583 119.539C190.428 119.321 190.201 119.126 189.902 118.954C189.602 118.772 189.226 118.682 188.772 118.682C188.318 118.682 187.973 118.781 187.737 118.981C187.511 119.172 187.397 119.435 187.397 119.771C187.397 120.115 187.511 120.365 187.737 120.519C187.973 120.674 188.309 120.787 188.745 120.86L189.289 120.941C190.07 121.059 190.623 121.286 190.95 121.622C191.277 121.949 191.44 122.38 191.44 122.915C191.44 123.596 191.209 124.131 190.746 124.522C190.283 124.912 189.648 125.107 188.84 125.107ZM197.125 116.272C196.889 116.272 196.717 116.218 196.608 116.109C196.508 115.991 196.458 115.841 196.458 115.659V115.483C196.458 115.301 196.508 115.156 196.608 115.047C196.717 114.929 196.889 114.87 197.125 114.87C197.361 114.87 197.529 114.929 197.629 115.047C197.738 115.156 197.792 115.301 197.792 115.483V115.659C197.792 115.841 197.738 115.991 197.629 116.109C197.529 116.218 197.361 116.272 197.125 116.272ZM196.581 117.919H197.67V124.944H196.581V117.919ZM202.094 125.107C201.441 125.107 200.892 124.984 200.447 124.739C200.011 124.485 199.635 124.15 199.317 123.732L200.093 123.106C200.365 123.451 200.669 123.718 201.005 123.909C201.341 124.091 201.731 124.181 202.176 124.181C202.639 124.181 202.997 124.081 203.251 123.882C203.514 123.682 203.646 123.401 203.646 123.038C203.646 122.766 203.555 122.534 203.374 122.344C203.201 122.144 202.884 122.008 202.421 121.935L201.863 121.853C201.536 121.808 201.237 121.74 200.964 121.649C200.692 121.549 200.452 121.422 200.243 121.268C200.043 121.105 199.884 120.905 199.766 120.669C199.657 120.433 199.603 120.152 199.603 119.825C199.603 119.48 199.667 119.181 199.794 118.927C199.921 118.663 200.093 118.446 200.311 118.273C200.538 118.101 200.805 117.974 201.114 117.892C201.423 117.801 201.754 117.756 202.108 117.756C202.68 117.756 203.156 117.856 203.537 118.055C203.927 118.255 204.268 118.532 204.558 118.886L203.837 119.539C203.682 119.321 203.455 119.126 203.156 118.954C202.857 118.772 202.48 118.682 202.026 118.682C201.572 118.682 201.227 118.781 200.992 118.981C200.765 119.172 200.651 119.435 200.651 119.771C200.651 120.115 200.765 120.365 200.992 120.519C201.227 120.674 201.563 120.787 201.999 120.86L202.543 120.941C203.324 121.059 203.878 121.286 204.204 121.622C204.531 121.949 204.694 122.38 204.694 122.915C204.694 123.596 204.463 124.131 204 124.522C203.537 124.912 202.902 125.107 202.094 125.107ZM211.387 124.944C211.006 124.944 210.715 124.839 210.516 124.63C210.325 124.413 210.23 124.131 210.23 123.786V118.872H209.073V117.919H209.726C209.962 117.919 210.121 117.874 210.203 117.783C210.293 117.683 210.339 117.515 210.339 117.279V115.973H211.319V117.919H212.857V118.872H211.319V123.991H212.748V124.944H211.387ZM217.209 125.107C216.737 125.107 216.306 125.021 215.916 124.848C215.525 124.676 215.19 124.431 214.908 124.113C214.636 123.786 214.423 123.401 214.269 122.956C214.114 122.502 214.037 121.994 214.037 121.431C214.037 120.878 214.114 120.374 214.269 119.92C214.423 119.467 214.636 119.081 214.908 118.763C215.19 118.437 215.525 118.187 215.916 118.015C216.306 117.842 216.737 117.756 217.209 117.756C217.681 117.756 218.107 117.842 218.489 118.015C218.879 118.187 219.215 118.437 219.496 118.763C219.777 119.081 219.995 119.467 220.149 119.92C220.304 120.374 220.381 120.878 220.381 121.431C220.381 121.994 220.304 122.502 220.149 122.956C219.995 123.401 219.777 123.786 219.496 124.113C219.215 124.431 218.879 124.676 218.489 124.848C218.107 125.021 217.681 125.107 217.209 125.107ZM217.209 124.14C217.799 124.14 218.28 123.959 218.652 123.596C219.024 123.233 219.21 122.679 219.21 121.935V120.928C219.21 120.184 219.024 119.63 218.652 119.267C218.28 118.904 217.799 118.722 217.209 118.722C216.619 118.722 216.138 118.904 215.766 119.267C215.394 119.63 215.208 120.184 215.208 120.928V121.935C215.208 122.679 215.394 123.233 215.766 123.596C216.138 123.959 216.619 124.14 217.209 124.14ZM23.1473 145.944V138.919H24.2364V140.063H24.2908C24.3725 139.881 24.4633 139.713 24.5631 139.559C24.672 139.396 24.7991 139.255 24.9443 139.137C25.0985 139.019 25.2755 138.928 25.4752 138.865C25.6748 138.792 25.9108 138.756 26.1831 138.756C26.6459 138.756 27.0724 138.869 27.4627 139.096C27.8529 139.314 28.1433 139.677 28.3339 140.185H28.3611C28.4882 139.804 28.7242 139.473 29.069 139.192C29.423 138.901 29.8994 138.756 30.4984 138.756C31.2154 138.756 31.7735 138.992 32.1728 139.464C32.5812 139.927 32.7854 140.585 32.7854 141.438V145.944H31.6963V141.628C31.6963 141.002 31.5738 140.53 31.3288 140.212C31.0838 139.895 30.6935 139.736 30.1581 139.736C29.9403 139.736 29.7315 139.763 29.5319 139.818C29.3413 139.872 29.1689 139.954 29.0146 140.063C28.8603 140.172 28.7378 140.312 28.647 140.485C28.5563 140.648 28.5109 140.843 28.5109 141.07V145.944H27.4218V141.628C27.4218 141.002 27.2993 140.53 27.0543 140.212C26.8093 139.895 26.4281 139.736 25.9108 139.736C25.693 139.736 25.4843 139.763 25.2846 139.818C25.0849 139.872 24.908 139.954 24.7537 140.063C24.5994 140.172 24.4723 140.312 24.3725 140.485C24.2818 140.648 24.2364 140.843 24.2364 141.07V145.944H23.1473ZM40.1371 145.944C39.7287 145.944 39.4337 145.835 39.2522 145.617C39.0798 145.399 38.9709 145.127 38.9255 144.8H38.8575C38.7032 145.236 38.4491 145.562 38.0951 145.78C37.7412 145.998 37.3192 146.107 36.8291 146.107C36.0849 146.107 35.5041 145.916 35.0866 145.535C34.6782 145.154 34.474 144.637 34.474 143.983C34.474 143.321 34.7145 142.813 35.1955 142.459C35.6856 142.105 36.4434 141.928 37.4689 141.928H38.8575V141.233C38.8575 140.734 38.7213 140.353 38.4491 140.09C38.1768 139.827 37.7593 139.695 37.1967 139.695C36.7701 139.695 36.4116 139.79 36.1212 139.981C35.8399 140.172 35.6039 140.426 35.4133 140.743L34.7599 140.131C34.9505 139.75 35.2545 139.427 35.672 139.164C36.0895 138.892 36.6158 138.756 37.2511 138.756C38.1042 138.756 38.7667 138.965 39.2386 139.382C39.7105 139.8 39.9465 140.38 39.9465 141.125V144.991H40.7497V145.944H40.1371ZM37.0061 145.181C37.2783 145.181 37.5279 145.15 37.7548 145.086C37.9817 145.022 38.1768 144.932 38.3402 144.814C38.5035 144.696 38.6306 144.56 38.7213 144.405C38.8121 144.251 38.8575 144.083 38.8575 143.902V142.745H37.4145C36.7883 142.745 36.33 142.835 36.0395 143.017C35.7582 143.198 35.6175 143.461 35.6175 143.806V144.092C35.6175 144.437 35.7401 144.705 35.9851 144.895C36.2392 145.086 36.5795 145.181 37.0061 145.181ZM42.304 135.87H43.393V142.254H43.4475L44.5229 141.057L46.5104 138.919H47.8309L45.2308 141.696L48.0896 145.944H46.7691L44.4413 142.363L43.393 143.439V145.944H42.304V135.87ZM51.8977 146.107C51.4167 146.107 50.9811 146.021 50.5908 145.848C50.2097 145.676 49.8784 145.431 49.5971 145.113C49.3248 144.786 49.1116 144.401 48.9573 143.956C48.8121 143.502 48.7395 142.994 48.7395 142.431C48.7395 141.878 48.8121 141.374 48.9573 140.92C49.1116 140.467 49.3248 140.081 49.5971 139.763C49.8784 139.437 50.2097 139.187 50.5908 139.015C50.9811 138.842 51.4167 138.756 51.8977 138.756C52.3696 138.756 52.7916 138.842 53.1637 139.015C53.5358 139.187 53.8534 139.427 54.1166 139.736C54.3798 140.036 54.5795 140.394 54.7156 140.811C54.8608 141.229 54.9334 141.687 54.9334 142.186V142.704H49.883V143.03C49.883 143.33 49.9283 143.611 50.0191 143.874C50.1189 144.129 50.2551 144.351 50.4275 144.541C50.609 144.732 50.8268 144.882 51.0809 144.991C51.3441 145.1 51.6391 145.154 51.9658 145.154C52.4105 145.154 52.7962 145.05 53.1229 144.841C53.4587 144.632 53.7173 144.333 53.8988 143.942L54.6748 144.501C54.4479 144.982 54.0939 145.372 53.6129 145.671C53.1319 145.962 52.5602 146.107 51.8977 146.107ZM51.8977 139.668C51.5982 139.668 51.326 139.722 51.0809 139.831C50.8359 139.931 50.6226 140.076 50.4411 140.267C50.2687 140.458 50.1325 140.684 50.0327 140.948C49.9329 141.202 49.883 141.483 49.883 141.792V141.887H53.7627V141.737C53.7627 141.111 53.5903 140.612 53.2454 140.24C52.9096 139.859 52.4604 139.668 51.8977 139.668ZM61.1295 136.442V142.323C61.1295 143.23 61.2974 143.92 61.6332 144.392C61.969 144.855 62.5588 145.086 63.4029 145.086C64.2469 145.086 64.8368 144.855 65.1726 144.392C65.5083 143.92 65.6762 143.23 65.6762 142.323V136.442H66.8197V142.05C66.8197 142.74 66.7562 143.339 66.6292 143.847C66.5112 144.355 66.3161 144.777 66.0438 145.113C65.7715 145.449 65.4131 145.699 64.9684 145.862C64.5327 146.025 63.9973 146.107 63.362 146.107C62.7267 146.107 62.1913 146.025 61.7557 145.862C61.3291 145.699 60.9843 145.449 60.7211 145.113C60.4579 144.777 60.2673 144.355 60.1493 143.847C60.0404 143.339 59.986 142.74 59.986 142.05V136.442H61.1295ZM68.8309 145.944V144.991H70.1649V137.395H68.8309V136.442H72.6425V137.395H71.3084V144.991H72.6425V145.944H68.8309ZM79.3908 145.944C79.0096 145.944 78.7192 145.839 78.5195 145.63C78.3289 145.413 78.2336 145.131 78.2336 144.786V139.872H77.0765V138.919H77.73C77.9659 138.919 78.1247 138.874 78.2064 138.783C78.2972 138.683 78.3426 138.515 78.3426 138.279V136.973H79.3227V138.919H80.861V139.872H79.3227V144.991H80.7521V145.944H79.3908ZM85.1992 146.107C84.7182 146.107 84.2826 146.021 83.8923 145.848C83.5112 145.676 83.1799 145.431 82.8986 145.113C82.6263 144.786 82.413 144.401 82.2588 143.956C82.1135 143.502 82.0409 142.994 82.0409 142.431C82.0409 141.878 82.1135 141.374 82.2588 140.92C82.413 140.467 82.6263 140.081 82.8986 139.763C83.1799 139.437 83.5112 139.187 83.8923 139.015C84.2826 138.842 84.7182 138.756 85.1992 138.756C85.6711 138.756 86.0931 138.842 86.4652 139.015C86.8373 139.187 87.1549 139.427 87.4181 139.736C87.6813 140.036 87.8809 140.394 88.0171 140.811C88.1623 141.229 88.2349 141.687 88.2349 142.186V142.704H83.1844V143.03C83.1844 143.33 83.2298 143.611 83.3206 143.874C83.4204 144.129 83.5565 144.351 83.729 144.541C83.9105 144.732 84.1283 144.882 84.3824 144.991C84.6456 145.1 84.9405 145.154 85.2672 145.154C85.7119 145.154 86.0976 145.05 86.4243 144.841C86.7601 144.632 87.0188 144.333 87.2003 143.942L87.9762 144.501C87.7494 144.982 87.3954 145.372 86.9144 145.671C86.4334 145.962 85.8617 146.107 85.1992 146.107ZM85.1992 139.668C84.8997 139.668 84.6274 139.722 84.3824 139.831C84.1374 139.931 83.9241 140.076 83.7426 140.267C83.5701 140.458 83.434 140.684 83.3342 140.948C83.2344 141.202 83.1844 141.483 83.1844 141.792V141.887H87.0642V141.737C87.0642 141.111 86.8917 140.612 86.5469 140.24C86.2111 139.859 85.7618 139.668 85.1992 139.668ZM88.9987 145.944L91.5988 142.404L89.1076 138.919H90.3872L92.1705 141.533H92.2114L94.0628 138.919H95.2743L92.7967 142.323L95.3288 145.944H94.0491L92.225 143.194H92.1842L90.2103 145.944H88.9987ZM98.3214 145.944C97.9403 145.944 97.6498 145.839 97.4502 145.63C97.2596 145.413 97.1643 145.131 97.1643 144.786V139.872H96.0072V138.919H96.6606C96.8966 138.919 97.0554 138.874 97.1371 138.783C97.2278 138.683 97.2732 138.515 97.2732 138.279V136.973H98.2534V138.919H99.7916V139.872H98.2534V144.991H99.6827V145.944H98.3214ZM102.236 146.107C101.946 146.107 101.733 146.034 101.597 145.889C101.469 145.744 101.406 145.553 101.406 145.317V145.14C101.406 144.904 101.469 144.714 101.597 144.569C101.733 144.423 101.946 144.351 102.236 144.351C102.527 144.351 102.735 144.423 102.863 144.569C102.999 144.714 103.067 144.904 103.067 145.14V145.317C103.067 145.553 102.999 145.744 102.863 145.889C102.735 146.034 102.527 146.107 102.236 146.107ZM105.945 146.107C105.655 146.107 105.442 146.034 105.306 145.889C105.179 145.744 105.115 145.553 105.115 145.317V145.14C105.115 144.904 105.179 144.714 105.306 144.569C105.442 144.423 105.655 144.351 105.945 144.351C106.236 144.351 106.445 144.423 106.572 144.569C106.708 144.714 106.776 144.904 106.776 145.14V145.317C106.776 145.553 106.708 145.744 106.572 145.889C106.445 146.034 106.236 146.107 105.945 146.107ZM109.654 146.107C109.364 146.107 109.151 146.034 109.015 145.889C108.888 145.744 108.824 145.553 108.824 145.317V145.14C108.824 144.904 108.888 144.714 109.015 144.569C109.151 144.423 109.364 144.351 109.654 144.351C109.945 144.351 110.154 144.423 110.281 144.569C110.417 144.714 110.485 144.904 110.485 145.14V145.317C110.485 145.553 110.417 145.744 110.281 145.889C110.154 146.034 109.945 146.107 109.654 146.107Z" fill="#727272"/>
<circle opacity="0.7" cx="44.5041" cy="40.3548" r="22.5139" fill="#EBE3F5"/>
<rect x="268.072" y="-2.05516" width="9.42442" height="186.394" fill="#E6DCF4"/>
<path d="M47 38.8674H41M43 42.8674H41M49 34.8674H41M53 34.6674V45.0674C53 46.7476 53 47.5877 52.673 48.2294C52.3854 48.7939 51.9265 49.2528 51.362 49.5405C50.7202 49.8674 49.8802 49.8674 48.2 49.8674H41.8C40.1198 49.8674 39.2798 49.8674 38.638 49.5405C38.0735 49.2528 37.6146 48.7939 37.327 48.2294C37 47.5877 37 46.7476 37 45.0674V34.6674C37 32.9873 37 32.1472 37.327 31.5055C37.6146 30.941 38.0735 30.482 38.638 30.1944C39.2798 29.8674 40.1198 29.8674 41.8 29.8674H48.2C49.8802 29.8674 50.7202 29.8674 51.362 30.1944C51.9265 30.482 52.3854 30.941 52.673 31.5055C53 32.1472 53 32.9873 53 34.6674Z" stroke="#694794" stroke-linecap="round" stroke-linejoin="round"/>
</g>
<defs>
<clipPath id="clip0_6_225">
<rect y="0.0393066" width="277.497" height="173.828" rx="12.5659" fill="white"/>
</clipPath>
</defs>
</svg>
