<svg width="231" height="154" viewBox="0 0 231 154" fill="none" xmlns="http://www.w3.org/2000/svg">
<rect width="231" height="154" rx="7.97757" fill="white" style="fill:white;fill-opacity:1;"/>
<path opacity="0.5" d="M20.3986 129.94C20.3986 129.254 20.5103 128.72 20.7337 128.337C20.957 127.95 21.3479 127.756 21.9064 127.756C22.4608 127.756 22.8497 127.95 23.0731 128.337C23.2965 128.72 23.4081 129.254 23.4081 129.94C23.4081 130.638 23.2965 131.181 23.0731 131.568C22.8497 131.954 22.4608 132.148 21.9064 132.148C21.3479 132.148 20.957 131.954 20.7337 131.568C20.5103 131.181 20.3986 130.638 20.3986 129.94ZM22.8697 129.94C22.8697 129.593 22.8457 129.3 22.7979 129.061C22.754 128.817 22.6603 128.622 22.5167 128.474C22.377 128.327 22.1736 128.253 21.9064 128.253C21.6351 128.253 21.4277 128.327 21.2841 128.474C21.1445 128.622 21.0508 128.817 21.0029 129.061C20.959 129.3 20.9371 129.593 20.9371 129.94C20.9371 130.299 20.959 130.6 21.0029 130.844C21.0508 131.087 21.1445 131.282 21.2841 131.43C21.4277 131.578 21.6351 131.651 21.9064 131.651C22.1736 131.651 22.377 131.578 22.5167 131.43C22.6603 131.282 22.754 131.087 22.7979 130.844C22.8457 130.6 22.8697 130.299 22.8697 129.94Z" fill="#070A22" style="fill:#070A22;fill:color(display-p3 0.0262 0.0393 0.1338);fill-opacity:1;"/>
<path opacity="0.5" d="M16.2803 103.864H14.1802V105.228C14.272 105.1 14.4076 104.996 14.5871 104.917C14.7666 104.833 14.96 104.791 15.1674 104.791C15.4985 104.791 15.7677 104.861 15.9752 105C16.1826 105.136 16.3302 105.314 16.4179 105.533C16.5097 105.748 16.5555 105.978 16.5555 106.221C16.5555 106.508 16.5017 106.765 16.394 106.993C16.2863 107.22 16.1208 107.4 15.8974 107.531C15.678 107.663 15.4048 107.729 15.0777 107.729C14.6589 107.729 14.3198 107.621 14.0605 107.406C13.8013 107.19 13.6437 106.903 13.5879 106.544H14.1204C14.1722 106.771 14.2819 106.949 14.4495 107.077C14.617 107.204 14.8284 107.268 15.0837 107.268C15.3988 107.268 15.6361 107.174 15.7957 106.987C15.9552 106.795 16.035 106.544 16.035 106.233C16.035 105.922 15.9552 105.683 15.7957 105.515C15.6361 105.343 15.4008 105.258 15.0897 105.258C14.8782 105.258 14.6928 105.31 14.5332 105.413C14.3777 105.513 14.264 105.651 14.1922 105.826H13.6776V103.385H16.2803V103.864ZM17.309 105.509C17.309 104.823 17.4207 104.288 17.6441 103.906C17.8674 103.519 18.2583 103.325 18.8168 103.325C19.3712 103.325 19.7601 103.519 19.9835 103.906C20.2068 104.288 20.3185 104.823 20.3185 105.509C20.3185 106.207 20.2068 106.75 19.9835 107.136C19.7601 107.523 19.3712 107.717 18.8168 107.717C18.2583 107.717 17.8674 107.523 17.6441 107.136C17.4207 106.75 17.309 106.207 17.309 105.509ZM19.78 105.509C19.78 105.162 19.7561 104.869 19.7082 104.629C19.6644 104.386 19.5706 104.191 19.427 104.043C19.2874 103.896 19.084 103.822 18.8168 103.822C18.5455 103.822 18.3381 103.896 18.1945 104.043C18.0549 104.191 17.9612 104.386 17.9133 104.629C17.8694 104.869 17.8475 105.162 17.8475 105.509C17.8475 105.868 17.8694 106.169 17.9133 106.412C17.9612 106.656 18.0549 106.851 18.1945 106.999C18.3381 107.146 18.5455 107.22 18.8168 107.22C19.084 107.22 19.2874 107.146 19.427 106.999C19.5706 106.851 19.6644 106.656 19.7082 106.412C19.7561 106.169 19.78 105.868 19.78 105.509ZM23.0165 107.717L21.7301 106.269V107.717H21.1857V103.289H21.7301V105.892L22.9926 104.438H23.7525L22.2088 106.071L23.7584 107.717H23.0165Z" fill="#070A22" style="fill:#070A22;fill:color(display-p3 0.0262 0.0393 0.1338);fill-opacity:1;"/>
<path opacity="0.5" d="M11.4379 79.4564V78.9598H12.5628V83.2856H12.0123V79.4564H11.4379ZM13.5279 81.0779C13.5279 80.3918 13.6396 79.8573 13.863 79.4744C14.0864 79.0874 14.4773 78.894 15.0357 78.894C15.5901 78.894 15.979 79.0874 16.2024 79.4744C16.4258 79.8573 16.5375 80.3918 16.5375 81.0779C16.5375 81.7759 16.4258 82.3184 16.2024 82.7053C15.979 83.0922 15.5901 83.2856 15.0357 83.2856C14.4773 83.2856 14.0864 83.0922 13.863 82.7053C13.6396 82.3184 13.5279 81.7759 13.5279 81.0779ZM15.999 81.0779C15.999 80.7308 15.975 80.4377 15.9272 80.1983C15.8833 79.955 15.7896 79.7596 15.646 79.612C15.5064 79.4644 15.3029 79.3906 15.0357 79.3906C14.7644 79.3906 14.557 79.4644 14.4134 79.612C14.2738 79.7596 14.1801 79.955 14.1322 80.1983C14.0883 80.4377 14.0664 80.7308 14.0664 81.0779C14.0664 81.4368 14.0883 81.738 14.1322 81.9813C14.1801 82.2246 14.2738 82.4201 14.4134 82.5677C14.557 82.7152 14.7644 82.789 15.0357 82.789C15.3029 82.789 15.5064 82.7152 15.646 82.5677C15.7896 82.4201 15.8833 82.2246 15.9272 81.9813C15.975 81.738 15.999 81.4368 15.999 81.0779ZM17.3149 81.0779C17.3149 80.3918 17.4265 79.8573 17.6499 79.4744C17.8733 79.0874 18.2642 78.894 18.8226 78.894C19.3771 78.894 19.766 79.0874 19.9893 79.4744C20.2127 79.8573 20.3244 80.3918 20.3244 81.0779C20.3244 81.7759 20.2127 82.3184 19.9893 82.7053C19.766 83.0922 19.3771 83.2856 18.8226 83.2856C18.2642 83.2856 17.8733 83.0922 17.6499 82.7053C17.4265 82.3184 17.3149 81.7759 17.3149 81.0779ZM19.7859 81.0779C19.7859 80.7308 19.762 80.4377 19.7141 80.1983C19.6702 79.955 19.5765 79.7596 19.4329 79.612C19.2933 79.4644 19.0899 79.3906 18.8226 79.3906C18.5514 79.3906 18.344 79.4644 18.2004 79.612C18.0608 79.7596 17.967 79.955 17.9192 80.1983C17.8753 80.4377 17.8533 80.7308 17.8533 81.0779C17.8533 81.4368 17.8753 81.738 17.9192 81.9813C17.967 82.2246 18.0608 82.4201 18.2004 82.5677C18.344 82.7152 18.5514 82.789 18.8226 82.789C19.0899 82.789 19.2933 82.7152 19.4329 82.5677C19.5765 82.4201 19.6702 82.2246 19.7141 81.9813C19.762 81.738 19.7859 81.4368 19.7859 81.0779ZM23.0224 83.2856L21.736 81.8377V83.2856H21.1915V78.8581H21.736V81.4608L22.9985 80.0069H23.7583L22.2147 81.6403L23.7643 83.2856H23.0224Z" fill="#070A22" style="fill:#070A22;fill:color(display-p3 0.0262 0.0393 0.1338);fill-opacity:1;"/>
<path opacity="0.5" d="M11.4379 57.0194V56.5228H12.5628V60.8486H12.0123V57.0194H11.4379ZM16.2862 56.9955H14.1861V58.3596C14.2778 58.232 14.4134 58.1283 14.5929 58.0485C14.7724 57.9647 14.9659 57.9229 15.1733 57.9229C15.5044 57.9229 15.7736 57.9927 15.981 58.1323C16.1884 58.2679 16.336 58.4454 16.4238 58.6648C16.5155 58.8802 16.5614 59.1095 16.5614 59.3528C16.5614 59.64 16.5075 59.8973 16.3998 60.1247C16.2921 60.352 16.1266 60.5315 15.9032 60.6632C15.6839 60.7948 15.4106 60.8606 15.0835 60.8606C14.6647 60.8606 14.3257 60.7529 14.0664 60.5375C13.8071 60.3221 13.6496 60.0349 13.5937 59.6759H14.1262C14.1781 59.9033 14.2878 60.0808 14.4553 60.2084C14.6228 60.3361 14.8342 60.3999 15.0895 60.3999C15.4046 60.3999 15.642 60.3062 15.8015 60.1187C15.9611 59.9272 16.0409 59.6759 16.0409 59.3648C16.0409 59.0537 15.9611 58.8144 15.8015 58.6468C15.642 58.4753 15.4066 58.3895 15.0955 58.3895C14.8841 58.3895 14.6986 58.4414 14.5391 58.5451C14.3835 58.6448 14.2698 58.7824 14.198 58.9579H13.6835V56.5168H16.2862V56.9955ZM17.3149 58.6408C17.3149 57.9548 17.4265 57.4203 17.6499 57.0373C17.8733 56.6504 18.2642 56.457 18.8226 56.457C19.3771 56.457 19.766 56.6504 19.9893 57.0373C20.2127 57.4203 20.3244 57.9548 20.3244 58.6408C20.3244 59.3389 20.2127 59.8814 19.9893 60.2683C19.766 60.6552 19.3771 60.8486 18.8226 60.8486C18.2642 60.8486 17.8733 60.6552 17.6499 60.2683C17.4265 59.8814 17.3149 59.3389 17.3149 58.6408ZM19.7859 58.6408C19.7859 58.2938 19.762 58.0006 19.7141 57.7613C19.6702 57.518 19.5765 57.3225 19.4329 57.175C19.2933 57.0274 19.0899 56.9536 18.8226 56.9536C18.5514 56.9536 18.344 57.0274 18.2004 57.175C18.0608 57.3225 17.967 57.518 17.9192 57.7613C17.8753 58.0006 17.8533 58.2938 17.8533 58.6408C17.8533 58.9998 17.8753 59.301 17.9192 59.5443C17.967 59.7876 18.0608 59.9831 18.2004 60.1307C18.344 60.2782 18.5514 60.352 18.8226 60.352C19.0899 60.352 19.2933 60.2782 19.4329 60.1307C19.5765 59.9831 19.6702 59.7876 19.7141 59.5443C19.762 59.301 19.7859 58.9998 19.7859 58.6408ZM23.0224 60.8486L21.736 59.4007V60.8486H21.1915V56.4211H21.736V59.0238L22.9985 57.5699H23.7583L22.2147 59.2033L23.7643 60.8486H23.0224Z" fill="#070A22" style="fill:#070A22;fill:color(display-p3 0.0262 0.0393 0.1338);fill-opacity:1;"/>
<path opacity="0.5" d="M10.4946 37.9748C11.0012 37.568 11.3981 37.2349 11.6853 36.9757C11.9724 36.7124 12.2138 36.4392 12.4092 36.156C12.6087 35.8688 12.7084 35.5876 12.7084 35.3123C12.7084 35.0531 12.6446 34.8496 12.5169 34.7021C12.3933 34.5505 12.1918 34.4747 11.9126 34.4747C11.6414 34.4747 11.43 34.5604 11.2784 34.732C11.1308 34.8995 11.051 35.1249 11.0391 35.4081H10.5126C10.5285 34.9613 10.6641 34.6163 10.9194 34.373C11.1747 34.1297 11.5038 34.008 11.9066 34.008C12.3175 34.008 12.6426 34.1217 12.8819 34.349C13.1252 34.5764 13.2469 34.8895 13.2469 35.2884C13.2469 35.6195 13.1471 35.9426 12.9477 36.2577C12.7523 36.5688 12.5289 36.844 12.2776 37.0834C12.0263 37.3187 11.7052 37.5939 11.3143 37.909H13.3725V38.3638H10.4946V37.9748ZM14.0318 36.2038C14.0318 35.5178 14.1435 34.9833 14.3669 34.6003C14.5903 34.2134 14.9812 34.02 15.5396 34.02C16.094 34.02 16.4829 34.2134 16.7063 34.6003C16.9297 34.9833 17.0414 35.5178 17.0414 36.2038C17.0414 36.9019 16.9297 37.4443 16.7063 37.8313C16.4829 38.2182 16.094 38.4116 15.5396 38.4116C14.9812 38.4116 14.5903 38.2182 14.3669 37.8313C14.1435 37.4443 14.0318 36.9019 14.0318 36.2038ZM16.5029 36.2038C16.5029 35.8568 16.4789 35.5636 16.4311 35.3243C16.3872 35.081 16.2935 34.8855 16.1499 34.7379C16.0103 34.5904 15.8068 34.5166 15.5396 34.5166C15.2684 34.5166 15.0609 34.5904 14.9173 34.7379C14.7777 34.8855 14.684 35.081 14.6361 35.3243C14.5923 35.5636 14.5703 35.8568 14.5703 36.2038C14.5703 36.5628 14.5923 36.864 14.6361 37.1073C14.684 37.3506 14.7777 37.5461 14.9173 37.6936C15.0609 37.8412 15.2684 37.915 15.5396 37.915C15.8068 37.915 16.0103 37.8412 16.1499 37.6936C16.2935 37.5461 16.3872 37.3506 16.4311 37.1073C16.4789 36.864 16.5029 36.5628 16.5029 36.2038ZM17.8188 36.2038C17.8188 35.5178 17.9304 34.9833 18.1538 34.6003C18.3772 34.2134 18.7681 34.02 19.3265 34.02C19.881 34.02 20.2699 34.2134 20.4932 34.6003C20.7166 34.9833 20.8283 35.5178 20.8283 36.2038C20.8283 36.9019 20.7166 37.4443 20.4932 37.8313C20.2699 38.2182 19.881 38.4116 19.3265 38.4116C18.7681 38.4116 18.3772 38.2182 18.1538 37.8313C17.9304 37.4443 17.8188 36.9019 17.8188 36.2038ZM20.2898 36.2038C20.2898 35.8568 20.2659 35.5636 20.218 35.3243C20.1741 35.081 20.0804 34.8855 19.9368 34.7379C19.7972 34.5904 19.5938 34.5166 19.3265 34.5166C19.0553 34.5166 18.8479 34.5904 18.7043 34.7379C18.5647 34.8855 18.4709 35.081 18.4231 35.3243C18.3792 35.5636 18.3572 35.8568 18.3572 36.2038C18.3572 36.5628 18.3792 36.864 18.4231 37.1073C18.4709 37.3506 18.5647 37.5461 18.7043 37.6936C18.8479 37.8412 19.0553 37.915 19.3265 37.915C19.5938 37.915 19.7972 37.8412 19.9368 37.6936C20.0804 37.5461 20.1741 37.3506 20.218 37.1073C20.2659 36.864 20.2898 36.5628 20.2898 36.2038ZM23.5263 38.4116L22.2399 36.9637V38.4116H21.6954V33.9841H22.2399V36.5868L23.5024 35.1328H24.2622L22.7186 36.7662L24.2682 38.4116H23.5263Z" fill="#070A22" style="fill:#070A22;fill:color(display-p3 0.0262 0.0393 0.1338);fill-opacity:1;"/>
<path opacity="0.5" d="M10.4946 16.0364C11.0012 15.6295 11.3981 15.2965 11.6853 15.0372C11.9724 14.7739 12.2138 14.5007 12.4092 14.2175C12.6087 13.9303 12.7084 13.6491 12.7084 13.3739C12.7084 13.1146 12.6446 12.9112 12.5169 12.7636C12.3933 12.612 12.1918 12.5362 11.9126 12.5362C11.6414 12.5362 11.43 12.622 11.2784 12.7935C11.1308 12.961 11.051 13.1864 11.0391 13.4696H10.5126C10.5285 13.0228 10.6641 12.6778 10.9194 12.4345C11.1747 12.1912 11.5038 12.0695 11.9066 12.0695C12.3175 12.0695 12.6426 12.1832 12.8819 12.4106C13.1252 12.6379 13.2469 12.951 13.2469 13.3499C13.2469 13.681 13.1471 14.0041 12.9477 14.3192C12.7523 14.6303 12.5289 14.9056 12.2776 15.1449C12.0263 15.3802 11.7052 15.6554 11.3143 15.9706H13.3725V16.4253H10.4946V16.0364ZM16.7901 12.62H14.69V13.9841C14.7817 13.8565 14.9173 13.7528 15.0968 13.673C15.2763 13.5893 15.4698 13.5474 15.6772 13.5474C16.0083 13.5474 16.2775 13.6172 16.4849 13.7568C16.6923 13.8924 16.8399 14.0699 16.9277 14.2893C17.0194 14.5047 17.0653 14.734 17.0653 14.9774C17.0653 15.2645 17.0115 15.5218 16.9038 15.7492C16.7961 15.9765 16.6305 16.156 16.4071 16.2877C16.1878 16.4193 15.9145 16.4851 15.5875 16.4851C15.1686 16.4851 14.8296 16.3774 14.5703 16.162C14.311 15.9466 14.1535 15.6594 14.0976 15.3004H14.6301C14.682 15.5278 14.7917 15.7053 14.9592 15.8329C15.1267 15.9606 15.3382 16.0244 15.5934 16.0244C15.9086 16.0244 16.1459 15.9307 16.3054 15.7432C16.465 15.5517 16.5448 15.3004 16.5448 14.9893C16.5448 14.6782 16.465 14.4389 16.3054 14.2713C16.1459 14.0998 15.9105 14.0141 15.5994 14.0141C15.388 14.0141 15.2025 14.0659 15.043 14.1696C14.8874 14.2693 14.7737 14.407 14.7019 14.5825H14.1874V12.1413H16.7901V12.62ZM17.8188 14.2654C17.8188 13.5793 17.9304 13.0448 18.1538 12.6619C18.3772 12.2749 18.7681 12.0815 19.3265 12.0815C19.881 12.0815 20.2699 12.2749 20.4932 12.6619C20.7166 13.0448 20.8283 13.5793 20.8283 14.2654C20.8283 14.9634 20.7166 15.5059 20.4932 15.8928C20.2699 16.2797 19.881 16.4731 19.3265 16.4731C18.7681 16.4731 18.3772 16.2797 18.1538 15.8928C17.9304 15.5059 17.8188 14.9634 17.8188 14.2654ZM20.2898 14.2654C20.2898 13.9183 20.2659 13.6252 20.218 13.3858C20.1741 13.1425 20.0804 12.9471 19.9368 12.7995C19.7972 12.6519 19.5938 12.5781 19.3265 12.5781C19.0553 12.5781 18.8479 12.6519 18.7043 12.7995C18.5647 12.9471 18.4709 13.1425 18.4231 13.3858C18.3792 13.6252 18.3572 13.9183 18.3572 14.2654C18.3572 14.6243 18.3792 14.9255 18.4231 15.1688C18.4709 15.4121 18.5647 15.6076 18.7043 15.7552C18.8479 15.9027 19.0553 15.9765 19.3265 15.9765C19.5938 15.9765 19.7972 15.9027 19.9368 15.7552C20.0804 15.6076 20.1741 15.4121 20.218 15.1688C20.2659 14.9255 20.2898 14.6243 20.2898 14.2654ZM23.5263 16.4731L22.2399 15.0252V16.4731H21.6954V12.0456H22.2399V14.6483L23.5024 13.1944H24.2622L22.7186 14.8278L24.2682 16.4731H23.5263Z" fill="#070A22" style="fill:#070A22;fill:color(display-p3 0.0262 0.0393 0.1338);fill-opacity:1;"/>
<line opacity="0.3" x1="31.3501" y1="104.801" x2="209.55" y2="104.801" stroke="#070A22" style="stroke:#070A22;stroke:color(display-p3 0.0262 0.0393 0.1338);stroke-opacity:1;" stroke-width="0.498598" stroke-dasharray="2.49 4.99"/>
<line opacity="0.3" x1="31.8999" y1="80.6008" x2="210.1" y2="80.6008" stroke="#070A22" style="stroke:#070A22;stroke:color(display-p3 0.0262 0.0393 0.1338);stroke-opacity:1;" stroke-width="0.498598" stroke-dasharray="2.49 4.99"/>
<line opacity="0.3" x1="31.8999" y1="57.5007" x2="210.1" y2="57.5007" stroke="#070A22" style="stroke:#070A22;stroke:color(display-p3 0.0262 0.0393 0.1338);stroke-opacity:1;" stroke-width="0.498598" stroke-dasharray="2.49 4.99"/>
<line opacity="0.3" x1="32.4502" y1="35.5007" x2="210.65" y2="35.5007" stroke="#070A22" style="stroke:#070A22;stroke:color(display-p3 0.0262 0.0393 0.1338);stroke-opacity:1;" stroke-width="0.498598" stroke-dasharray="2.49 4.99"/>
<line opacity="0.3" x1="32.4502" y1="12.9509" x2="210.65" y2="12.9509" stroke="#070A22" style="stroke:#070A22;stroke:color(display-p3 0.0262 0.0393 0.1338);stroke-opacity:1;" stroke-width="0.498598" stroke-dasharray="2.49 4.99"/>
<path d="M37.8591 142.661C37.5839 142.661 37.3366 142.613 37.1172 142.517C36.9018 142.417 36.7323 142.282 36.6086 142.11C36.485 141.935 36.4212 141.733 36.4172 141.506H36.9975C37.0175 141.701 37.0973 141.867 37.2369 142.002C37.3805 142.134 37.5879 142.2 37.8591 142.2C38.1184 142.2 38.3218 142.136 38.4694 142.008C38.621 141.877 38.6968 141.709 38.6968 141.506C38.6968 141.346 38.6529 141.217 38.5651 141.117C38.4774 141.017 38.3677 140.941 38.2361 140.89C38.1044 140.838 37.9269 140.782 37.7036 140.722C37.4283 140.65 37.2069 140.578 37.0394 140.507C36.8759 140.435 36.7343 140.323 36.6146 140.172C36.4989 140.016 36.4411 139.809 36.4411 139.549C36.4411 139.322 36.4989 139.12 36.6146 138.945C36.7303 138.769 36.8918 138.634 37.0993 138.538C37.3107 138.442 37.552 138.395 37.8232 138.395C38.2141 138.395 38.5332 138.492 38.7805 138.688C39.0318 138.883 39.1734 139.142 39.2053 139.466H38.607C38.5871 139.306 38.5033 139.166 38.3557 139.047C38.2081 138.923 38.0127 138.861 37.7694 138.861C37.542 138.861 37.3565 138.921 37.2129 139.041C37.0693 139.156 36.9975 139.32 36.9975 139.531C36.9975 139.683 37.0394 139.807 37.1232 139.902C37.2109 139.998 37.3166 140.072 37.4403 140.124C37.5679 140.172 37.7454 140.227 37.9728 140.291C38.248 140.367 38.4694 140.443 38.6369 140.519C38.8045 140.59 38.9481 140.704 39.0677 140.86C39.1874 141.011 39.2472 141.219 39.2472 141.482C39.2472 141.685 39.1934 141.877 39.0857 142.056C38.978 142.236 38.8184 142.381 38.607 142.493C38.3956 142.605 38.1463 142.661 37.8591 142.661ZM43.0699 140.854C43.0699 140.957 43.064 141.067 43.052 141.183H40.4314C40.4513 141.506 40.561 141.759 40.7604 141.943C40.9639 142.122 41.2092 142.212 41.4964 142.212C41.7317 142.212 41.9272 142.158 42.0827 142.05C42.2423 141.939 42.354 141.791 42.4178 141.607H43.0041C42.9164 141.923 42.7409 142.18 42.4776 142.379C42.2144 142.575 41.8873 142.673 41.4964 142.673C41.1852 142.673 40.906 142.603 40.6587 142.463C40.4154 142.323 40.2239 142.126 40.0843 141.871C39.9447 141.611 39.8749 141.312 39.8749 140.973C39.8749 140.634 39.9427 140.337 40.0784 140.082C40.214 139.827 40.4034 139.631 40.6468 139.495C40.8941 139.356 41.1773 139.286 41.4964 139.286C41.8075 139.286 42.0827 139.354 42.3221 139.489C42.5614 139.625 42.7449 139.813 42.8725 140.052C43.0041 140.287 43.0699 140.554 43.0699 140.854ZM42.5075 140.74C42.5075 140.533 42.4617 140.355 42.3699 140.207C42.2782 140.056 42.1525 139.942 41.993 139.866C41.8374 139.787 41.6639 139.747 41.4724 139.747C41.1972 139.747 40.9619 139.834 40.7664 140.01C40.575 140.185 40.4653 140.429 40.4373 140.74H42.5075ZM44.363 139.944C44.4707 139.757 44.6303 139.601 44.8417 139.477C45.0571 139.35 45.3064 139.286 45.5896 139.286C45.8807 139.286 46.144 139.356 46.3793 139.495C46.6187 139.635 46.8061 139.832 46.9418 140.088C47.0774 140.339 47.1452 140.632 47.1452 140.967C47.1452 141.298 47.0774 141.594 46.9418 141.853C46.8061 142.112 46.6187 142.314 46.3793 142.457C46.144 142.601 45.8807 142.673 45.5896 142.673C45.3104 142.673 45.063 142.611 44.8477 142.487C44.6362 142.359 44.4747 142.202 44.363 142.014V144.174H43.8185V139.34H44.363V139.944ZM46.5888 140.967C46.5888 140.72 46.5389 140.505 46.4392 140.321C46.3395 140.138 46.2038 139.998 46.0323 139.902C45.8648 139.807 45.6793 139.759 45.4759 139.759C45.2764 139.759 45.091 139.809 44.9195 139.908C44.7519 140.004 44.6163 140.146 44.5126 140.333C44.4129 140.517 44.363 140.73 44.363 140.973C44.363 141.221 44.4129 141.438 44.5126 141.625C44.6163 141.809 44.7519 141.951 44.9195 142.05C45.091 142.146 45.2764 142.194 45.4759 142.194C45.6793 142.194 45.8648 142.146 46.0323 142.05C46.2038 141.951 46.3395 141.809 46.4392 141.625C46.5389 141.438 46.5888 141.219 46.5888 140.967ZM49.3613 142.182C49.8678 141.775 50.2647 141.442 50.5519 141.183C50.8391 140.919 51.0804 140.646 51.2759 140.363C51.4753 140.076 51.575 139.795 51.575 139.519C51.575 139.26 51.5112 139.057 51.3836 138.909C51.2599 138.758 51.0585 138.682 50.7793 138.682C50.508 138.682 50.2966 138.767 50.1451 138.939C49.9975 139.107 49.9177 139.332 49.9057 139.615H49.3792C49.3952 139.168 49.5308 138.823 49.7861 138.58C50.0413 138.337 50.3704 138.215 50.7733 138.215C51.1841 138.215 51.5092 138.329 51.7485 138.556C51.9919 138.783 52.1135 139.097 52.1135 139.495C52.1135 139.827 52.0138 140.15 51.8144 140.465C51.6189 140.776 51.3955 141.051 51.1442 141.29C50.893 141.526 50.5719 141.801 50.181 142.116H52.2392V142.571H49.3613V142.182ZM52.8865 139.382C52.9144 139.015 53.056 138.728 53.3113 138.52C53.5666 138.313 53.8977 138.209 54.3045 138.209C54.5758 138.209 54.8091 138.259 55.0046 138.359C55.204 138.454 55.3536 138.586 55.4533 138.754C55.557 138.921 55.6089 139.111 55.6089 139.322C55.6089 139.569 55.5371 139.783 55.3935 139.962C55.2539 140.142 55.0704 140.257 54.843 140.309V140.339C55.1023 140.403 55.3077 140.529 55.4593 140.716C55.6109 140.903 55.6866 141.149 55.6866 141.452C55.6866 141.679 55.6348 141.885 55.5311 142.068C55.4274 142.248 55.2718 142.389 55.0644 142.493C54.857 142.597 54.6077 142.649 54.3165 142.649C53.8937 142.649 53.5467 142.539 53.2754 142.319C53.0042 142.096 52.8526 141.781 52.8207 141.374H53.3472C53.3751 141.613 53.4729 141.809 53.6404 141.961C53.8079 142.112 54.0313 142.188 54.3105 142.188C54.5897 142.188 54.8011 142.116 54.9447 141.972C55.0923 141.825 55.1661 141.635 55.1661 141.404C55.1661 141.105 55.0664 140.89 54.8669 140.758C54.6675 140.626 54.3664 140.56 53.9635 140.56H53.8259V140.106H53.9695C54.3364 140.102 54.6137 140.042 54.8011 139.926C54.9886 139.807 55.0823 139.623 55.0823 139.376C55.0823 139.164 55.0125 138.995 54.8729 138.867C54.7373 138.74 54.5419 138.676 54.2866 138.676C54.0393 138.676 53.8398 138.74 53.6883 138.867C53.5367 138.995 53.4469 139.166 53.419 139.382H52.8865Z" fill="#070A22" style="fill:#070A22;fill:color(display-p3 0.0262 0.0393 0.1338);fill-opacity:1;"/>
<path d="M68.6539 142.661C68.3787 142.661 68.1314 142.613 67.912 142.517C67.6966 142.417 67.5271 142.282 67.4034 142.11C67.2797 141.935 67.2159 141.733 67.2119 141.506H67.7923C67.8123 141.701 67.892 141.867 68.0316 142.002C68.1752 142.134 68.3826 142.2 68.6539 142.2C68.9132 142.2 69.1166 142.136 69.2642 142.008C69.4157 141.877 69.4915 141.709 69.4915 141.506C69.4915 141.346 69.4477 141.217 69.3599 141.117C69.2721 141.017 69.1625 140.941 69.0308 140.89C68.8992 140.838 68.7217 140.782 68.4983 140.722C68.2231 140.65 68.0017 140.578 67.8342 140.507C67.6706 140.435 67.529 140.323 67.4094 140.172C67.2937 140.016 67.2359 139.809 67.2359 139.549C67.2359 139.322 67.2937 139.12 67.4094 138.945C67.5251 138.769 67.6866 138.634 67.894 138.538C68.1054 138.442 68.3467 138.395 68.618 138.395C69.0089 138.395 69.328 138.492 69.5753 138.688C69.8266 138.883 69.9682 139.142 70.0001 139.466H69.4018C69.3818 139.306 69.2981 139.166 69.1505 139.047C69.0029 138.923 68.8075 138.861 68.5641 138.861C68.3368 138.861 68.1513 138.921 68.0077 139.041C67.8641 139.156 67.7923 139.32 67.7923 139.531C67.7923 139.683 67.8342 139.807 67.918 139.902C68.0057 139.998 68.1114 140.072 68.2351 140.124C68.3627 140.172 68.5402 140.227 68.7676 140.291C69.0428 140.367 69.2642 140.443 69.4317 140.519C69.5992 140.59 69.7428 140.704 69.8625 140.86C69.9821 141.011 70.042 141.219 70.042 141.482C70.042 141.685 69.9881 141.877 69.8804 142.056C69.7727 142.236 69.6132 142.381 69.4018 142.493C69.1904 142.605 68.9411 142.661 68.6539 142.661ZM73.8647 140.854C73.8647 140.957 73.8587 141.067 73.8468 141.183H71.2261C71.2461 141.506 71.3558 141.759 71.5552 141.943C71.7586 142.122 72.0039 142.212 72.2911 142.212C72.5265 142.212 72.7219 142.158 72.8775 142.05C73.037 141.939 73.1487 141.791 73.2126 141.607H73.7989C73.7111 141.923 73.5356 142.18 73.2724 142.379C73.0091 142.575 72.682 142.673 72.2911 142.673C71.98 142.673 71.7008 142.603 71.4535 142.463C71.2102 142.323 71.0187 142.126 70.8791 141.871C70.7395 141.611 70.6697 141.312 70.6697 140.973C70.6697 140.634 70.7375 140.337 70.8731 140.082C71.0087 139.827 71.1982 139.631 71.4415 139.495C71.6888 139.356 71.972 139.286 72.2911 139.286C72.6023 139.286 72.8775 139.354 73.1168 139.489C73.3561 139.625 73.5396 139.813 73.6673 140.052C73.7989 140.287 73.8647 140.554 73.8647 140.854ZM73.3023 140.74C73.3023 140.533 73.2564 140.355 73.1647 140.207C73.0729 140.056 72.9473 139.942 72.7877 139.866C72.6322 139.787 72.4587 139.747 72.2672 139.747C71.992 139.747 71.7566 139.834 71.5612 140.01C71.3697 140.185 71.26 140.429 71.2321 140.74H73.3023ZM75.1578 139.944C75.2655 139.757 75.425 139.601 75.6364 139.477C75.8518 139.35 76.1011 139.286 76.3843 139.286C76.6755 139.286 76.9388 139.356 77.1741 139.495C77.4134 139.635 77.6009 139.832 77.7365 140.088C77.8722 140.339 77.94 140.632 77.94 140.967C77.94 141.298 77.8722 141.594 77.7365 141.853C77.6009 142.112 77.4134 142.314 77.1741 142.457C76.9388 142.601 76.6755 142.673 76.3843 142.673C76.1051 142.673 75.8578 142.611 75.6424 142.487C75.431 142.359 75.2695 142.202 75.1578 142.014V144.174H74.6133V139.34H75.1578V139.944ZM77.3835 140.967C77.3835 140.72 77.3337 140.505 77.2339 140.321C77.1342 140.138 76.9986 139.998 76.8271 139.902C76.6596 139.807 76.4741 139.759 76.2707 139.759C76.0712 139.759 75.8857 139.809 75.7142 139.908C75.5467 140.004 75.4111 140.146 75.3074 140.333C75.2076 140.517 75.1578 140.73 75.1578 140.973C75.1578 141.221 75.2076 141.438 75.3074 141.625C75.4111 141.809 75.5467 141.951 75.7142 142.05C75.8857 142.146 76.0712 142.194 76.2707 142.194C76.4741 142.194 76.6596 142.146 76.8271 142.05C76.9986 141.951 77.1342 141.809 77.2339 141.625C77.3337 141.438 77.3835 141.219 77.3835 140.967ZM80.156 142.182C80.6626 141.775 81.0595 141.442 81.3467 141.183C81.6339 140.919 81.8752 140.646 82.0706 140.363C82.2701 140.076 82.3698 139.795 82.3698 139.519C82.3698 139.26 82.306 139.057 82.1783 138.909C82.0547 138.758 81.8533 138.682 81.574 138.682C81.3028 138.682 81.0914 138.767 80.9398 138.939C80.7922 139.107 80.7125 139.332 80.7005 139.615H80.174C80.1899 139.168 80.3256 138.823 80.5808 138.58C80.8361 138.337 81.1652 138.215 81.5681 138.215C81.9789 138.215 82.304 138.329 82.5433 138.556C82.7866 138.783 82.9083 139.097 82.9083 139.495C82.9083 139.827 82.8086 140.15 82.6091 140.465C82.4137 140.776 82.1903 141.051 81.939 141.29C81.6877 141.526 81.3666 141.801 80.9757 142.116H83.0339V142.571H80.156V142.182ZM83.5616 141.655V141.243L85.6617 138.335H86.3139V141.183H86.9122V141.655H86.3139V142.619H85.7754V141.655H83.5616ZM85.7993 138.903L84.1899 141.183H85.7993V138.903Z" fill="#070A22" style="fill:#070A22;fill:color(display-p3 0.0262 0.0393 0.1338);fill-opacity:1;"/>
<path d="M99.0714 142.661C98.7961 142.661 98.5488 142.613 98.3294 142.517C98.114 142.417 97.9445 142.282 97.8209 142.11C97.6972 141.935 97.6334 141.733 97.6294 141.506H98.2098C98.2297 141.701 98.3095 141.867 98.4491 142.002C98.5927 142.134 98.8001 142.2 99.0714 142.2C99.3306 142.2 99.5341 142.136 99.6816 142.008C99.8332 141.877 99.909 141.709 99.909 141.506C99.909 141.346 99.8651 141.217 99.7774 141.117C99.6896 141.017 99.5799 140.941 99.4483 140.89C99.3167 140.838 99.1392 140.782 98.9158 140.722C98.6406 140.65 98.4192 140.578 98.2517 140.507C98.0881 140.435 97.9465 140.323 97.8269 140.172C97.7112 140.016 97.6533 139.809 97.6533 139.549C97.6533 139.322 97.7112 139.12 97.8269 138.945C97.9425 138.769 98.1041 138.634 98.3115 138.538C98.5229 138.442 98.7642 138.395 99.0355 138.395C99.4264 138.395 99.7455 138.492 99.9928 138.688C100.244 138.883 100.386 139.142 100.418 139.466H99.8193C99.7993 139.306 99.7155 139.166 99.568 139.047C99.4204 138.923 99.2249 138.861 98.9816 138.861C98.7542 138.861 98.5688 138.921 98.4252 139.041C98.2816 139.156 98.2098 139.32 98.2098 139.531C98.2098 139.683 98.2517 139.807 98.3354 139.902C98.4232 139.998 98.5289 140.072 98.6525 140.124C98.7802 140.172 98.9577 140.227 99.185 140.291C99.4603 140.367 99.6816 140.443 99.8492 140.519C100.017 140.59 100.16 140.704 100.28 140.86C100.4 141.011 100.459 141.219 100.459 141.482C100.459 141.685 100.406 141.877 100.298 142.056C100.19 142.236 100.031 142.381 99.8193 142.493C99.6078 142.605 99.3585 142.661 99.0714 142.661ZM104.282 140.854C104.282 140.957 104.276 141.067 104.264 141.183H101.644C101.664 141.506 101.773 141.759 101.973 141.943C102.176 142.122 102.421 142.212 102.709 142.212C102.944 142.212 103.139 142.158 103.295 142.05C103.455 141.939 103.566 141.791 103.63 141.607H104.216C104.129 141.923 103.953 142.18 103.69 142.379C103.427 142.575 103.1 142.673 102.709 142.673C102.397 142.673 102.118 142.603 101.871 142.463C101.628 142.323 101.436 142.126 101.297 141.871C101.157 141.611 101.087 141.312 101.087 140.973C101.087 140.634 101.155 140.337 101.291 140.082C101.426 139.827 101.616 139.631 101.859 139.495C102.106 139.356 102.39 139.286 102.709 139.286C103.02 139.286 103.295 139.354 103.534 139.489C103.774 139.625 103.957 139.813 104.085 140.052C104.216 140.287 104.282 140.554 104.282 140.854ZM103.72 140.74C103.72 140.533 103.674 140.355 103.582 140.207C103.49 140.056 103.365 139.942 103.205 139.866C103.05 139.787 102.876 139.747 102.685 139.747C102.409 139.747 102.174 139.834 101.979 140.01C101.787 140.185 101.678 140.429 101.65 140.74H103.72ZM105.575 139.944C105.683 139.757 105.843 139.601 106.054 139.477C106.269 139.35 106.519 139.286 106.802 139.286C107.093 139.286 107.356 139.356 107.592 139.495C107.831 139.635 108.018 139.832 108.154 140.088C108.29 140.339 108.357 140.632 108.357 140.967C108.357 141.298 108.29 141.594 108.154 141.853C108.018 142.112 107.831 142.314 107.592 142.457C107.356 142.601 107.093 142.673 106.802 142.673C106.523 142.673 106.275 142.611 106.06 142.487C105.848 142.359 105.687 142.202 105.575 142.014V144.174H105.031V139.34H105.575V139.944ZM107.801 140.967C107.801 140.72 107.751 140.505 107.651 140.321C107.552 140.138 107.416 139.998 107.245 139.902C107.077 139.807 106.892 139.759 106.688 139.759C106.489 139.759 106.303 139.809 106.132 139.908C105.964 140.004 105.829 140.146 105.725 140.333C105.625 140.517 105.575 140.73 105.575 140.973C105.575 141.221 105.625 141.438 105.725 141.625C105.829 141.809 105.964 141.951 106.132 142.05C106.303 142.146 106.489 142.194 106.688 142.194C106.892 142.194 107.077 142.146 107.245 142.05C107.416 141.951 107.552 141.809 107.651 141.625C107.751 141.438 107.801 141.219 107.801 140.967ZM110.574 142.182C111.08 141.775 111.477 141.442 111.764 141.183C112.051 140.919 112.293 140.646 112.488 140.363C112.688 140.076 112.787 139.795 112.787 139.519C112.787 139.26 112.723 139.057 112.596 138.909C112.472 138.758 112.271 138.682 111.992 138.682C111.72 138.682 111.509 138.767 111.357 138.939C111.21 139.107 111.13 139.332 111.118 139.615H110.591C110.607 139.168 110.743 138.823 110.998 138.58C111.254 138.337 111.583 138.215 111.986 138.215C112.396 138.215 112.721 138.329 112.961 138.556C113.204 138.783 113.326 139.097 113.326 139.495C113.326 139.827 113.226 140.15 113.027 140.465C112.831 140.776 112.608 141.051 112.356 141.29C112.105 141.526 111.784 141.801 111.393 142.116H113.451V142.571H110.574V142.182ZM116.869 138.765H114.769V140.13C114.861 140.002 114.996 139.898 115.176 139.819C115.355 139.735 115.549 139.693 115.756 139.693C116.087 139.693 116.356 139.763 116.564 139.902C116.771 140.038 116.919 140.215 117.007 140.435C117.098 140.65 117.144 140.88 117.144 141.123C117.144 141.41 117.09 141.667 116.983 141.895C116.875 142.122 116.709 142.302 116.486 142.433C116.267 142.565 115.993 142.631 115.666 142.631C115.248 142.631 114.908 142.523 114.649 142.308C114.39 142.092 114.232 141.805 114.177 141.446H114.709C114.761 141.673 114.871 141.851 115.038 141.978C115.206 142.106 115.417 142.17 115.672 142.17C115.987 142.17 116.225 142.076 116.384 141.889C116.544 141.697 116.624 141.446 116.624 141.135C116.624 140.824 116.544 140.584 116.384 140.417C116.225 140.245 115.989 140.16 115.678 140.16C115.467 140.16 115.281 140.211 115.122 140.315C114.966 140.415 114.853 140.552 114.781 140.728H114.266V138.287H116.869V138.765Z" fill="#070A22" style="fill:#070A22;fill:color(display-p3 0.0262 0.0393 0.1338);fill-opacity:1;"/>
<path d="M129.465 142.661C129.19 142.661 128.943 142.613 128.724 142.517C128.508 142.417 128.339 142.282 128.215 142.11C128.091 141.935 128.028 141.733 128.024 141.506H128.604C128.624 141.701 128.704 141.867 128.843 142.002C128.987 142.134 129.194 142.2 129.465 142.2C129.725 142.2 129.928 142.136 130.076 142.008C130.227 141.877 130.303 141.709 130.303 141.506C130.303 141.346 130.259 141.217 130.171 141.117C130.084 141.017 129.974 140.941 129.842 140.89C129.711 140.838 129.533 140.782 129.31 140.722C129.035 140.65 128.813 140.578 128.646 140.507C128.482 140.435 128.341 140.323 128.221 140.172C128.105 140.016 128.047 139.809 128.047 139.549C128.047 139.322 128.105 139.12 128.221 138.945C128.337 138.769 128.498 138.634 128.706 138.538C128.917 138.442 129.158 138.395 129.43 138.395C129.82 138.395 130.14 138.492 130.387 138.688C130.638 138.883 130.78 139.142 130.812 139.466H130.213C130.193 139.306 130.11 139.166 129.962 139.047C129.814 138.923 129.619 138.861 129.376 138.861C129.148 138.861 128.963 138.921 128.819 139.041C128.676 139.156 128.604 139.32 128.604 139.531C128.604 139.683 128.646 139.807 128.73 139.902C128.817 139.998 128.923 140.072 129.047 140.124C129.174 140.172 129.352 140.227 129.579 140.291C129.854 140.367 130.076 140.443 130.243 140.519C130.411 140.59 130.554 140.704 130.674 140.86C130.794 141.011 130.854 141.219 130.854 141.482C130.854 141.685 130.8 141.877 130.692 142.056C130.584 142.236 130.425 142.381 130.213 142.493C130.002 142.605 129.753 142.661 129.465 142.661ZM134.676 140.854C134.676 140.957 134.67 141.067 134.658 141.183H132.038C132.058 141.506 132.167 141.759 132.367 141.943C132.57 142.122 132.816 142.212 133.103 142.212C133.338 142.212 133.534 142.158 133.689 142.05C133.849 141.939 133.96 141.791 134.024 141.607H134.61C134.523 141.923 134.347 142.18 134.084 142.379C133.821 142.575 133.494 142.673 133.103 142.673C132.792 142.673 132.512 142.603 132.265 142.463C132.022 142.323 131.83 142.126 131.691 141.871C131.551 141.611 131.481 141.312 131.481 140.973C131.481 140.634 131.549 140.337 131.685 140.082C131.82 139.827 132.01 139.631 132.253 139.495C132.5 139.356 132.784 139.286 133.103 139.286C133.414 139.286 133.689 139.354 133.928 139.489C134.168 139.625 134.351 139.813 134.479 140.052C134.61 140.287 134.676 140.554 134.676 140.854ZM134.114 140.74C134.114 140.533 134.068 140.355 133.976 140.207C133.885 140.056 133.759 139.942 133.599 139.866C133.444 139.787 133.27 139.747 133.079 139.747C132.804 139.747 132.568 139.834 132.373 140.01C132.181 140.185 132.072 140.429 132.044 140.74H134.114ZM135.969 139.944C136.077 139.757 136.237 139.601 136.448 139.477C136.663 139.35 136.913 139.286 137.196 139.286C137.487 139.286 137.75 139.356 137.986 139.495C138.225 139.635 138.412 139.832 138.548 140.088C138.684 140.339 138.752 140.632 138.752 140.967C138.752 141.298 138.684 141.594 138.548 141.853C138.412 142.112 138.225 142.314 137.986 142.457C137.75 142.601 137.487 142.673 137.196 142.673C136.917 142.673 136.669 142.611 136.454 142.487C136.243 142.359 136.081 142.202 135.969 142.014V144.174H135.425V139.34H135.969V139.944ZM138.195 140.967C138.195 140.72 138.145 140.505 138.046 140.321C137.946 140.138 137.81 139.998 137.639 139.902C137.471 139.807 137.286 139.759 137.082 139.759C136.883 139.759 136.697 139.809 136.526 139.908C136.358 140.004 136.223 140.146 136.119 140.333C136.019 140.517 135.969 140.73 135.969 140.973C135.969 141.221 136.019 141.438 136.119 141.625C136.223 141.809 136.358 141.951 136.526 142.05C136.697 142.146 136.883 142.194 137.082 142.194C137.286 142.194 137.471 142.146 137.639 142.05C137.81 141.951 137.946 141.809 138.046 141.625C138.145 141.438 138.195 141.219 138.195 140.967ZM140.968 142.182C141.474 141.775 141.871 141.442 142.158 141.183C142.445 140.919 142.687 140.646 142.882 140.363C143.082 140.076 143.181 139.795 143.181 139.519C143.181 139.26 143.118 139.057 142.99 138.909C142.866 138.758 142.665 138.682 142.386 138.682C142.114 138.682 141.903 138.767 141.751 138.939C141.604 139.107 141.524 139.332 141.512 139.615H140.986C141.002 139.168 141.137 138.823 141.392 138.58C141.648 138.337 141.977 138.215 142.38 138.215C142.79 138.215 143.116 138.329 143.355 138.556C143.598 138.783 143.72 139.097 143.72 139.495C143.72 139.827 143.62 140.15 143.421 140.465C143.225 140.776 143.002 141.051 142.751 141.29C142.499 141.526 142.178 141.801 141.787 142.116H143.846V142.571H140.968V142.182ZM146.916 139.322C146.828 138.879 146.555 138.658 146.096 138.658C145.741 138.658 145.476 138.795 145.301 139.071C145.125 139.342 145.039 139.791 145.043 140.417C145.135 140.209 145.287 140.048 145.498 139.932C145.713 139.813 145.953 139.753 146.216 139.753C146.627 139.753 146.954 139.88 147.197 140.136C147.445 140.391 147.568 140.744 147.568 141.195C147.568 141.466 147.514 141.709 147.407 141.925C147.303 142.14 147.143 142.312 146.928 142.439C146.717 142.567 146.459 142.631 146.156 142.631C145.745 142.631 145.424 142.539 145.193 142.355C144.962 142.172 144.8 141.919 144.708 141.596C144.617 141.272 144.571 140.874 144.571 140.399C144.571 138.935 145.081 138.203 146.102 138.203C146.493 138.203 146.8 138.309 147.024 138.52C147.247 138.732 147.379 138.999 147.419 139.322H146.916ZM146.102 140.213C145.931 140.213 145.769 140.249 145.618 140.321C145.466 140.389 145.342 140.495 145.247 140.638C145.155 140.778 145.109 140.949 145.109 141.153C145.109 141.456 145.197 141.703 145.372 141.895C145.548 142.082 145.799 142.176 146.126 142.176C146.405 142.176 146.627 142.09 146.79 141.919C146.958 141.743 147.042 141.508 147.042 141.213C147.042 140.901 146.962 140.658 146.802 140.483C146.643 140.303 146.409 140.213 146.102 140.213Z" fill="#070A22" style="fill:#070A22;fill:color(display-p3 0.0262 0.0393 0.1338);fill-opacity:1;"/>
<path d="M159.147 142.661C158.872 142.661 158.625 142.613 158.405 142.517C158.19 142.417 158.02 142.282 157.897 142.11C157.773 141.935 157.709 141.733 157.705 141.506H158.286C158.306 141.701 158.385 141.867 158.525 142.002C158.669 142.134 158.876 142.2 159.147 142.2C159.407 142.2 159.61 142.136 159.758 142.008C159.909 141.877 159.985 141.709 159.985 141.506C159.985 141.346 159.941 141.217 159.853 141.117C159.766 141.017 159.656 140.941 159.524 140.89C159.393 140.838 159.215 140.782 158.992 140.722C158.717 140.65 158.495 140.578 158.328 140.507C158.164 140.435 158.022 140.323 157.903 140.172C157.787 140.016 157.729 139.809 157.729 139.549C157.729 139.322 157.787 139.12 157.903 138.945C158.019 138.769 158.18 138.634 158.387 138.538C158.599 138.442 158.84 138.395 159.111 138.395C159.502 138.395 159.821 138.492 160.069 138.688C160.32 138.883 160.462 139.142 160.494 139.466H159.895C159.875 139.306 159.792 139.166 159.644 139.047C159.496 138.923 159.301 138.861 159.058 138.861C158.83 138.861 158.645 138.921 158.501 139.041C158.358 139.156 158.286 139.32 158.286 139.531C158.286 139.683 158.328 139.807 158.411 139.902C158.499 139.998 158.605 140.072 158.729 140.124C158.856 140.172 159.034 140.227 159.261 140.291C159.536 140.367 159.758 140.443 159.925 140.519C160.093 140.59 160.236 140.704 160.356 140.86C160.476 141.011 160.535 141.219 160.535 141.482C160.535 141.685 160.482 141.877 160.374 142.056C160.266 142.236 160.107 142.381 159.895 142.493C159.684 142.605 159.435 142.661 159.147 142.661ZM164.358 140.854C164.358 140.957 164.352 141.067 164.34 141.183H161.72C161.74 141.506 161.849 141.759 162.049 141.943C162.252 142.122 162.497 142.212 162.785 142.212C163.02 142.212 163.215 142.158 163.371 142.05C163.53 141.939 163.642 141.791 163.706 141.607H164.292C164.205 141.923 164.029 142.18 163.766 142.379C163.503 142.575 163.175 142.673 162.785 142.673C162.473 142.673 162.194 142.603 161.947 142.463C161.704 142.323 161.512 142.126 161.373 141.871C161.233 141.611 161.163 141.312 161.163 140.973C161.163 140.634 161.231 140.337 161.367 140.082C161.502 139.827 161.692 139.631 161.935 139.495C162.182 139.356 162.465 139.286 162.785 139.286C163.096 139.286 163.371 139.354 163.61 139.489C163.85 139.625 164.033 139.813 164.161 140.052C164.292 140.287 164.358 140.554 164.358 140.854ZM163.796 140.74C163.796 140.533 163.75 140.355 163.658 140.207C163.566 140.056 163.441 139.942 163.281 139.866C163.126 139.787 162.952 139.747 162.761 139.747C162.485 139.747 162.25 139.834 162.055 140.01C161.863 140.185 161.753 140.429 161.726 140.74H163.796ZM165.651 139.944C165.759 139.757 165.918 139.601 166.13 139.477C166.345 139.35 166.595 139.286 166.878 139.286C167.169 139.286 167.432 139.356 167.668 139.495C167.907 139.635 168.094 139.832 168.23 140.088C168.366 140.339 168.433 140.632 168.433 140.967C168.433 141.298 168.366 141.594 168.23 141.853C168.094 142.112 167.907 142.314 167.668 142.457C167.432 142.601 167.169 142.673 166.878 142.673C166.599 142.673 166.351 142.611 166.136 142.487C165.924 142.359 165.763 142.202 165.651 142.014V144.174H165.107V139.34H165.651V139.944ZM167.877 140.967C167.877 140.72 167.827 140.505 167.727 140.321C167.628 140.138 167.492 139.998 167.321 139.902C167.153 139.807 166.968 139.759 166.764 139.759C166.565 139.759 166.379 139.809 166.208 139.908C166.04 140.004 165.905 140.146 165.801 140.333C165.701 140.517 165.651 140.73 165.651 140.973C165.651 141.221 165.701 141.438 165.801 141.625C165.905 141.809 166.04 141.951 166.208 142.05C166.379 142.146 166.565 142.194 166.764 142.194C166.968 142.194 167.153 142.146 167.321 142.05C167.492 141.951 167.628 141.809 167.727 141.625C167.827 141.438 167.877 141.219 167.877 140.967ZM170.649 142.182C171.156 141.775 171.553 141.442 171.84 141.183C172.127 140.919 172.369 140.646 172.564 140.363C172.764 140.076 172.863 139.795 172.863 139.519C172.863 139.26 172.799 139.057 172.672 138.909C172.548 138.758 172.347 138.682 172.067 138.682C171.796 138.682 171.585 138.767 171.433 138.939C171.286 139.107 171.206 139.332 171.194 139.615H170.667C170.683 139.168 170.819 138.823 171.074 138.58C171.33 138.337 171.659 138.215 172.062 138.215C172.472 138.215 172.797 138.329 173.037 138.556C173.28 138.783 173.402 139.097 173.402 139.495C173.402 139.827 173.302 140.15 173.103 140.465C172.907 140.776 172.684 141.051 172.432 141.29C172.181 141.526 171.86 141.801 171.469 142.116H173.527V142.571H170.649V142.182ZM176.849 138.718L175.186 142.619H174.635L176.323 138.771H174.013V138.305H176.849V138.718Z" fill="#070A22" style="fill:#070A22;fill:color(display-p3 0.0262 0.0393 0.1338);fill-opacity:1;"/>
<path d="M190.416 142.661C190.141 142.661 189.894 142.613 189.674 142.517C189.459 142.417 189.29 142.282 189.166 142.11C189.042 141.935 188.978 141.733 188.974 141.506H189.555C189.575 141.701 189.654 141.867 189.794 142.002C189.938 142.134 190.145 142.2 190.416 142.2C190.676 142.2 190.879 142.136 191.027 142.008C191.178 141.877 191.254 141.709 191.254 141.506C191.254 141.346 191.21 141.217 191.122 141.117C191.035 141.017 190.925 140.941 190.793 140.89C190.662 140.838 190.484 140.782 190.261 140.722C189.986 140.65 189.764 140.578 189.597 140.507C189.433 140.435 189.292 140.323 189.172 140.172C189.056 140.016 188.998 139.809 188.998 139.549C188.998 139.322 189.056 139.12 189.172 138.945C189.288 138.769 189.449 138.634 189.656 138.538C189.868 138.442 190.109 138.395 190.38 138.395C190.771 138.395 191.09 138.492 191.338 138.688C191.589 138.883 191.731 139.142 191.763 139.466H191.164C191.144 139.306 191.061 139.166 190.913 139.047C190.765 138.923 190.57 138.861 190.327 138.861C190.099 138.861 189.914 138.921 189.77 139.041C189.627 139.156 189.555 139.32 189.555 139.531C189.555 139.683 189.597 139.807 189.68 139.902C189.768 139.998 189.874 140.072 189.998 140.124C190.125 140.172 190.303 140.227 190.53 140.291C190.805 140.367 191.027 140.443 191.194 140.519C191.362 140.59 191.505 140.704 191.625 140.86C191.745 141.011 191.804 141.219 191.804 141.482C191.804 141.685 191.751 141.877 191.643 142.056C191.535 142.236 191.376 142.381 191.164 142.493C190.953 142.605 190.704 142.661 190.416 142.661ZM193.18 138.891V140.285H194.7V140.734H193.18V142.17H194.879V142.619H192.636V138.442H194.879V138.891H193.18ZM198.521 139.669C198.521 140.016 198.402 140.305 198.162 140.537C197.927 140.764 197.566 140.878 197.079 140.878H196.278V142.619H195.733V138.448H197.079C197.55 138.448 197.907 138.562 198.15 138.789C198.398 139.017 198.521 139.31 198.521 139.669ZM197.079 140.429C197.382 140.429 197.606 140.363 197.749 140.231C197.893 140.1 197.965 139.912 197.965 139.669C197.965 139.154 197.67 138.897 197.079 138.897H196.278V140.429H197.079ZM200.697 142.182C201.204 141.775 201.601 141.442 201.888 141.183C202.175 140.919 202.416 140.646 202.612 140.363C202.811 140.076 202.911 139.795 202.911 139.519C202.911 139.26 202.847 139.057 202.72 138.909C202.596 138.758 202.395 138.682 202.115 138.682C201.844 138.682 201.633 138.767 201.481 138.939C201.334 139.107 201.254 139.332 201.242 139.615H200.715C200.731 139.168 200.867 138.823 201.122 138.58C201.377 138.337 201.706 138.215 202.109 138.215C202.52 138.215 202.845 138.329 203.085 138.556C203.328 138.783 203.45 139.097 203.45 139.495C203.45 139.827 203.35 140.15 203.15 140.465C202.955 140.776 202.732 141.051 202.48 141.29C202.229 141.526 201.908 141.801 201.517 142.116H203.575V142.571H200.697V142.182ZM205.024 140.369C204.801 140.281 204.629 140.154 204.51 139.986C204.39 139.819 204.33 139.615 204.33 139.376C204.33 139.16 204.384 138.967 204.492 138.795C204.6 138.62 204.759 138.482 204.97 138.383C205.186 138.279 205.445 138.227 205.748 138.227C206.051 138.227 206.309 138.279 206.52 138.383C206.736 138.482 206.897 138.62 207.005 138.795C207.116 138.967 207.172 139.16 207.172 139.376C207.172 139.607 207.11 139.811 206.987 139.986C206.863 140.158 206.694 140.285 206.478 140.369C206.726 140.445 206.921 140.578 207.065 140.77C207.212 140.957 207.286 141.185 207.286 141.452C207.286 141.711 207.222 141.939 207.094 142.134C206.967 142.325 206.785 142.475 206.55 142.583C206.319 142.686 206.051 142.738 205.748 142.738C205.445 142.738 205.178 142.686 204.947 142.583C204.719 142.475 204.542 142.325 204.414 142.134C204.286 141.939 204.223 141.711 204.223 141.452C204.223 141.185 204.294 140.955 204.438 140.764C204.582 140.572 204.777 140.441 205.024 140.369ZM206.646 139.442C206.646 139.198 206.566 139.011 206.406 138.879C206.247 138.748 206.027 138.682 205.748 138.682C205.473 138.682 205.256 138.748 205.096 138.879C204.937 139.011 204.857 139.2 204.857 139.448C204.857 139.671 204.939 139.85 205.102 139.986C205.27 140.122 205.485 140.189 205.748 140.189C206.016 140.189 206.231 140.122 206.394 139.986C206.562 139.846 206.646 139.665 206.646 139.442ZM205.748 140.608C205.453 140.608 205.212 140.678 205.024 140.818C204.837 140.953 204.743 141.159 204.743 141.434C204.743 141.689 204.833 141.895 205.012 142.05C205.196 142.206 205.441 142.284 205.748 142.284C206.055 142.284 206.299 142.206 206.478 142.05C206.658 141.895 206.747 141.689 206.747 141.434C206.747 141.167 206.656 140.963 206.472 140.824C206.289 140.68 206.047 140.608 205.748 140.608Z" fill="#070A22" style="fill:#070A22;fill:color(display-p3 0.0262 0.0393 0.1338);fill-opacity:1;"/>
<line opacity="0.2" x1="31.3501" y1="129.001" x2="214.5" y2="129.001" stroke="#070A22" style="stroke:#070A22;stroke:color(display-p3 0.0262 0.0393 0.1338);stroke-opacity:1;" stroke-width="0.498598"/>
<path opacity="0.7" d="M39.5537 29.4173C39.5537 26.1128 42.2325 23.4341 45.5369 23.4341C48.8413 23.4341 51.5201 26.1128 51.5201 29.4173L51.5201 123.652C51.5201 126.957 48.8413 129.635 45.5369 129.635C42.2325 129.635 39.5537 126.957 39.5537 123.652L39.5537 29.4173Z" fill="url(#paint0_linear_10748_2115)" style=""/>
<path opacity="0.7" d="M69.9683 72.7952C69.9683 69.4908 72.647 66.812 75.9514 66.812C79.2559 66.812 81.9346 69.4908 81.9346 72.7952L81.9346 123.652C81.9346 126.957 79.2559 129.635 75.9514 129.635C72.647 129.635 69.9683 126.957 69.9683 123.652L69.9683 72.7952Z" fill="url(#paint1_linear_10748_2115)" style=""/>
<path opacity="0.7" d="M100.383 33.9046C100.383 30.6001 103.062 27.9214 106.366 27.9214C109.67 27.9214 112.349 30.6001 112.349 33.9046L112.349 123.652C112.349 126.957 109.67 129.635 106.366 129.635C103.062 129.635 100.383 126.957 100.383 123.652L100.383 33.9046Z" fill="url(#paint2_linear_10748_2115)" style=""/>
<path opacity="0.7" d="M130.797 94.7337C130.797 91.4293 133.476 88.7505 136.781 88.7505C140.085 88.7505 142.764 91.4292 142.764 94.7337L142.764 123.652C142.764 126.957 140.085 129.636 136.781 129.636C133.476 129.636 130.797 126.957 130.797 123.652L130.797 94.7337Z" fill="url(#paint3_linear_10748_2115)" style=""/>
<path opacity="0.7" d="M161.211 19.4451C161.211 16.1407 163.89 13.4619 167.195 13.4619C170.499 13.4619 173.178 16.1407 173.178 19.4451L173.178 123.652C173.178 126.957 170.499 129.635 167.195 129.635C163.89 129.635 161.211 126.957 161.211 123.652L161.211 19.4451Z" fill="url(#paint4_linear_10748_2115)" style=""/>
<path opacity="0.7" d="M191.626 45.8709C191.626 42.5665 194.305 39.8877 197.609 39.8877C200.914 39.8877 203.592 42.5665 203.592 45.8709L203.592 123.652C203.592 126.957 200.914 129.635 197.609 129.635C194.305 129.635 191.626 126.957 191.626 123.652L191.626 45.8709Z" fill="url(#paint5_linear_10748_2115)" style=""/>
<defs>
<linearGradient id="paint0_linear_10748_2115" x1="42.389" y1="36.1483" x2="42.389" y2="111.686" gradientUnits="userSpaceOnUse">
<stop stop-color="#B2DBE6" stop-opacity="0.5" style="stop-color:#B2DBE6;stop-color:color(display-p3 0.6980 0.8588 0.9020);stop-opacity:0.5;"/>
<stop offset="1" stop-color="#B2DBE6" style="stop-color:#B2DBE6;stop-color:color(display-p3 0.6985 0.8585 0.9015);stop-opacity:1;"/>
</linearGradient>
<linearGradient id="paint1_linear_10748_2115" x1="72.8035" y1="74.3331" x2="72.8035" y2="119.017" gradientUnits="userSpaceOnUse">
<stop stop-color="#B2DBE6" stop-opacity="0.5" style="stop-color:#B2DBE6;stop-color:color(display-p3 0.6980 0.8588 0.9020);stop-opacity:0.5;"/>
<stop offset="1" stop-color="#B2DBE6" style="stop-color:#B2DBE6;stop-color:color(display-p3 0.6985 0.8585 0.9015);stop-opacity:1;"/>
</linearGradient>
<linearGradient id="paint2_linear_10748_2115" x1="103.218" y1="40.0984" x2="103.218" y2="112.444" gradientUnits="userSpaceOnUse">
<stop stop-color="#B2DBE6" stop-opacity="0.5" style="stop-color:#B2DBE6;stop-color:color(display-p3 0.6980 0.8588 0.9020);stop-opacity:0.5;"/>
<stop offset="1" stop-color="#B2DBE6" style="stop-color:#B2DBE6;stop-color:color(display-p3 0.6985 0.8585 0.9015);stop-opacity:1;"/>
</linearGradient>
<linearGradient id="paint3_linear_10748_2115" x1="133.633" y1="93.6452" x2="133.633" y2="122.725" gradientUnits="userSpaceOnUse">
<stop stop-color="#B2DBE6" stop-opacity="0.5" style="stop-color:#B2DBE6;stop-color:color(display-p3 0.6980 0.8588 0.9020);stop-opacity:0.5;"/>
<stop offset="1" stop-color="#B2DBE6" style="stop-color:#B2DBE6;stop-color:color(display-p3 0.6985 0.8585 0.9015);stop-opacity:1;"/>
</linearGradient>
<linearGradient id="paint4_linear_10748_2115" x1="164.047" y1="27.37" x2="164.047" y2="110" gradientUnits="userSpaceOnUse">
<stop stop-color="#B2DBE6" stop-opacity="0.5" style="stop-color:#B2DBE6;stop-color:color(display-p3 0.6980 0.8588 0.9020);stop-opacity:0.5;"/>
<stop offset="1" stop-color="#B2DBE6" style="stop-color:#B2DBE6;stop-color:color(display-p3 0.6985 0.8585 0.9015);stop-opacity:1;"/>
</linearGradient>
<linearGradient id="paint5_linear_10748_2115" x1="194.461" y1="50.6321" x2="194.461" y2="114.467" gradientUnits="userSpaceOnUse">
<stop stop-color="#B2DBE6" stop-opacity="0.5" style="stop-color:#B2DBE6;stop-color:color(display-p3 0.6980 0.8588 0.9020);stop-opacity:0.5;"/>
<stop offset="1" stop-color="#B2DBE6" style="stop-color:#B2DBE6;stop-color:color(display-p3 0.6985 0.8585 0.9015);stop-opacity:1;"/>
</linearGradient>
</defs>
</svg>
