<svg width="37" height="37" viewBox="0 0 37 37" fill="none" xmlns="http://www.w3.org/2000/svg">
<circle opacity="0.9" cx="18.0547" cy="18.0547" r="18.0547" fill="#F0F0F5" style="fill:#F0F0F5;fill:color(display-p3 0.9400 0.9400 0.9600);fill-opacity:1;"/>
<path d="M12 24.8333C12 23.0844 13.4178 21.6666 15.1667 21.6666H18.3333V24.8333C18.3333 26.5822 16.9156 28 15.1667 28C13.4178 28 12 26.5822 12 24.8333Z" fill="#24CB71" style="fill:#24CB71;fill:color(display-p3 0.1412 0.7961 0.4431);fill-opacity:1;"/>
<path d="M18.3335 9V15.3333H21.5002C23.249 15.3333 24.6668 13.9156 24.6668 12.1667C24.6668 10.4178 23.249 9 21.5002 9H18.3335Z" fill="#FF7237" style="fill:#FF7237;fill:color(display-p3 1.0000 0.4471 0.2157);fill-opacity:1;"/>
<path d="M21.4738 21.6667C23.2227 21.6667 24.6405 20.2489 24.6405 18.5C24.6405 16.7511 23.2227 15.3334 21.4738 15.3334C19.7249 15.3334 18.3071 16.7511 18.3071 18.5C18.3071 20.2489 19.7249 21.6667 21.4738 21.6667Z" fill="#00B6FF" style="fill:#00B6FF;fill:color(display-p3 0.0000 0.7137 1.0000);fill-opacity:1;"/>
<path d="M12 12.1667C12 13.9156 13.4178 15.3333 15.1667 15.3333H18.3333V9H15.1667C13.4178 9 12 10.4178 12 12.1667Z" fill="#FF3737" style="fill:#FF3737;fill:color(display-p3 1.0000 0.2157 0.2157);fill-opacity:1;"/>
<path d="M12 18.5C12 20.2489 13.4178 21.6667 15.1667 21.6667H18.3333V15.3334H15.1667C13.4178 15.3334 12 16.7512 12 18.5Z" fill="#874FFF" style="fill:#874FFF;fill:color(display-p3 0.5294 0.3098 1.0000);fill-opacity:1;"/>
</svg>
