<svg width="113" height="113" viewBox="0 0 113 113" fill="none" xmlns="http://www.w3.org/2000/svg">
<circle cx="56.4434" cy="56.4434" r="56.4434" fill="#E6FAEB"/>
<path d="M41.478 68.4227V54.5388C41.478 53.0129 41.7781 51.5482 42.3296 50.1871M71.4102 60.9396V58.8904M48.1296 43.6822C50.5077 42.2936 53.3675 41.4838 56.4441 41.4838C63.2671 41.4838 69.0237 45.4666 70.8252 50.9124" stroke="black" stroke-width="1.26771" stroke-linecap="round" stroke-linejoin="round"/>
<path d="M50.4575 71.4159V64.9012M62.4304 71.4159V56.0096C62.4304 52.9465 59.7502 50.4634 56.4439 50.4634C53.1377 50.4634 50.4575 52.9465 50.4575 56.0096V58.3866" stroke="black" stroke-width="1.26771" stroke-linecap="round" stroke-linejoin="round"/>
<path d="M62.4305 85.7832C60.4962 86.1758 58.4942 86.382 56.4441 86.382C39.913 86.382 26.512 72.9809 26.512 56.4498C26.512 39.9188 39.913 26.5177 56.4441 26.5177C72.9752 26.5177 86.3762 39.9188 86.3762 56.4498C86.3762 57.21 86.3479 57.9635 86.2922 58.7094" stroke="black" stroke-width="1.26771" stroke-linecap="round" stroke-linejoin="round"/>
<path d="M83.8816 75.9057H84.58C85.5719 75.9057 86.376 76.7098 86.376 77.7016V84.586C86.376 85.5779 85.5719 86.3819 84.58 86.3819H73.2058C72.214 86.3819 71.4099 85.5779 71.4099 84.586V77.7016C71.4099 76.7098 72.214 75.9057 73.2058 75.9057H73.9043M83.8816 75.9057V70.6676C83.8816 68.9215 82.8839 65.4294 78.8929 65.4294C74.902 65.4294 73.9043 68.9215 73.9043 70.6676V75.9057M83.8816 75.9057H73.9043" stroke="black" stroke-width="1.26771" stroke-linecap="round" stroke-linejoin="round"/>
</svg>
