<svg width="214" height="430" viewBox="0 0 214 430" fill="none" xmlns="http://www.w3.org/2000/svg">
<rect x="320.991" y="215.239" width="106.782" height="106.782" rx="53.3908" transform="rotate(180 320.991 215.239)" stroke="#B3D9E5" style="stroke:#B3D9E5;stroke:color(display-p3 0.7020 0.8510 0.8980);stroke-opacity:1;" stroke-width="1.35167"/>
<rect x="212.857" y="215.239" width="106.782" height="106.782" rx="53.3908" transform="rotate(180 212.857 215.239)" stroke="#B3D9E5" style="stroke:#B3D9E5;stroke:color(display-p3 0.7020 0.8510 0.8980);stroke-opacity:1;" stroke-width="1.35167"/>
<rect x="320.991" y="108.458" width="106.782" height="106.782" rx="53.3908" transform="rotate(180 320.991 108.458)" stroke="#B3D9E5" style="stroke:#B3D9E5;stroke:color(display-p3 0.7020 0.8510 0.8980);stroke-opacity:1;" stroke-width="1.35167"/>
<rect x="212.857" y="108.458" width="106.782" height="106.782" rx="53.3908" transform="rotate(180 212.857 108.458)" stroke="#B3D9E5" style="stroke:#B3D9E5;stroke:color(display-p3 0.7020 0.8510 0.8980);stroke-opacity:1;" stroke-width="1.35167"/>
<circle cx="267.6" cy="268.63" r="53.3908" transform="rotate(180 267.6 268.63)" stroke="#B3D9E5" style="stroke:#B3D9E5;stroke:color(display-p3 0.7020 0.8510 0.8980);stroke-opacity:1;" stroke-width="1.35167"/>
<path d="M268.444 322.021H593.014C681.661 322.021 753.524 250.158 753.524 161.51V161.51C753.524 72.8627 681.661 0.999698 593.014 0.999698H105.4" stroke="#B3D9E5" style="stroke:#B3D9E5;stroke:color(display-p3 0.7020 0.8510 0.8980);stroke-opacity:1;" stroke-width="1.35167"/>
<rect x="213.324" y="214.991" width="212.648" height="106.648" rx="53.3242" transform="rotate(180 213.324 214.991)" stroke="#B3D9E5" style="stroke:#B3D9E5;stroke:color(display-p3 0.7020 0.8510 0.8980);stroke-opacity:1;" stroke-width="1.35167"/>
</svg>
