<svg width="36" height="36" viewBox="0 0 36 36" fill="none" xmlns="http://www.w3.org/2000/svg">
<circle cx="18" cy="18" r="18" fill="#474644"/>
<path d="M19.9042 16.0028H9.51359C8.12537 16.0028 7 17.1235 7 18.5059C7 19.8883 8.12537 21.0089 9.51359 21.0089H19.9042M12.3135 16.0061C13.3392 13.1243 16.0744 11 19.2874 11L24.5558 11C25.9057 11 27 12.2349 27 13.5767C27 14.9184 25.9057 16.0061 24.5558 16.0061L12.3135 16.0061ZM12.3135 16.0061C12.0333 16.7933 11.8807 17.6369 11.8807 18.5092C11.8807 19.3823 12.0336 20.2259 12.3142 21.0123M12.3142 21.0123C13.3406 23.8881 16.0752 26 19.2874 26L24.5558 26C25.9057 26 27 24.7835 27 23.4417C27 22.1 25.9057 21.0123 24.5558 21.0123H12.3142Z" stroke="#F7F7F3" stroke-width="1.13208" stroke-linejoin="round"/>
</svg>
