<svg width="75" height="75" viewBox="0 0 75 75" fill="none" xmlns="http://www.w3.org/2000/svg">
<path d="M8.27879 54.101C7.62879 55.161 6.89879 56.391 6.27879 57.371C6.01203 57.8218 5.93277 58.3593 6.05805 58.8679C6.18334 59.3765 6.50316 59.8157 6.94879 60.091L19.9488 68.091C20.1747 68.2305 20.4261 68.3236 20.6884 68.3649C20.9506 68.4062 21.2185 68.3949 21.4763 68.3316C21.7341 68.2683 21.9768 68.1543 22.1901 67.9962C22.4034 67.8382 22.5832 67.6392 22.7188 67.411C23.2388 66.541 23.9088 65.411 24.6388 64.201C29.7888 55.701 34.9688 56.741 44.3088 61.201L57.1988 67.331C57.4404 67.446 57.7027 67.5114 57.97 67.5232C58.2374 67.535 58.5044 67.493 58.7552 67.3998C59.0061 67.3065 59.2357 67.1639 59.4304 66.9803C59.6251 66.7967 59.781 66.5759 59.8888 66.331L66.0788 52.331C66.289 51.8504 66.302 51.3065 66.1149 50.8164C65.9279 50.3263 65.5558 49.9293 65.0788 49.711C62.3588 48.431 56.9488 45.881 52.0788 43.531C34.5588 35.021 19.6688 35.571 8.27879 54.101Z" fill="url(#paint0_linear_22_133)"/>
<path d="M66.5688 22.3312C67.2188 21.2712 67.9488 20.0412 68.5688 19.0612C68.8356 18.6104 68.9149 18.0729 68.7896 17.5643C68.6643 17.0557 68.3445 16.6165 67.8988 16.3412L54.8988 8.34117C54.6712 8.18789 54.4145 8.08307 54.1447 8.03325C53.8749 7.98342 53.5977 7.98966 53.3303 8.05156C53.063 8.11347 52.8113 8.22972 52.5908 8.39309C52.3704 8.55646 52.1859 8.76345 52.0488 9.00117C51.5288 9.87117 50.8588 11.0012 50.1288 12.2112C44.9788 20.7112 39.7988 19.6712 30.4588 15.2112L17.6088 9.11117C17.3672 8.99616 17.1049 8.93081 16.8376 8.919C16.5702 8.90718 16.3032 8.94914 16.0524 9.04239C15.8015 9.13564 15.572 9.27828 15.3773 9.46187C15.1825 9.64545 15.0267 9.86625 14.9188 10.1112L8.72882 24.1112C8.51862 24.5918 8.50564 25.1357 8.6927 25.6258C8.87975 26.1159 9.25185 26.5129 9.72882 26.7312C12.4488 28.0112 17.8588 30.5612 22.7288 32.9112C40.2888 41.4112 55.1788 40.8412 66.5688 22.3312Z" fill="url(#paint1_linear_22_133)"/>
<defs>
<linearGradient id="paint0_linear_22_133" x1="65.7288" y1="72.221" x2="26.3988" y2="49.621" gradientUnits="userSpaceOnUse">
<stop offset="0.18" stop-color="#0052CC"/>
<stop offset="1" stop-color="#2684FF"/>
</linearGradient>
<linearGradient id="paint1_linear_22_133" x1="9.11882" y1="4.20117" x2="48.4588" y2="26.8112" gradientUnits="userSpaceOnUse">
<stop offset="0.18" stop-color="#0052CC"/>
<stop offset="1" stop-color="#2684FF"/>
</linearGradient>
</defs>
</svg>
