<?xml version="1.0" encoding="utf-8"?>
<!-- Generator: Adobe Illustrator 25.0.1, SVG Export Plug-In . SVG Version: 6.00 Build 0)  -->
<svg version="1.0"
	 id="Layer_1" inkscape:version="0.92.3 (2405546, 2018-03-11)" sodipodi:docname="Google_Docs_2020.svg" xmlns:cc="http://creativecommons.org/ns#" xmlns:dc="http://purl.org/dc/elements/1.1/" xmlns:inkscape="http://www.inkscape.org/namespaces/inkscape" xmlns:rdf="http://www.w3.org/1999/02/22-rdf-syntax-ns#" xmlns:sodipodi="http://sodipodi.sourceforge.net/DTD/sodipodi-0.dtd" xmlns:svg="http://www.w3.org/2000/svg"
	 xmlns="http://www.w3.org/2000/svg" xmlns:xlink="http://www.w3.org/1999/xlink" x="0px" y="0px" viewBox="0 0 596 438.8"
	 style="enable-background:new 0 0 596 438.8;" xml:space="preserve">
<style type="text/css">
	.st0{fill:#00832D;}
	.st1{fill:#FFBA00;}
	.st2{fill:#0066DA;}
	.st3{fill:#00AC47;}
	.st4{fill:#2684FC;}
	.st5{fill:#EA4335;}
</style>
<sodipodi:namedview  bordercolor="#666666" borderopacity="1" gridtolerance="10" guidetolerance="10" id="namedview7" inkscape:current-layer="Layer_1" inkscape:cx="-60.154526" inkscape:cy="113.6103" inkscape:pageopacity="0" inkscape:pageshadow="2" inkscape:window-height="705" inkscape:window-maximized="1" inkscape:window-width="1366" inkscape:window-x="-8" inkscape:window-y="-8" inkscape:zoom="0.353" objecttolerance="10" pagecolor="#ffffff" showgrid="false">
	</sodipodi:namedview>
<g id="g22" transform="scale(11.905878)">
	<path id="path8" inkscape:connector-curvature="0" class="st0" d="M21.7,25.8h-7.3v5.3c0,1.1,0.9,2,2,2h5.3V25.8z"/>
	<path id="path10" inkscape:connector-curvature="0" class="st1" d="M21.7,3.8h-5.3c-1.1,0-2,0.9-2,2v20h7.3V11.1h6.7V3.8H21.7z"/>
	<path id="path12" inkscape:connector-curvature="0" class="st2" d="M35.7,25.8h-7.3v7.3h5.3c1.1,0,2-0.9,2-2V25.8z"/>
	<path id="path14" inkscape:connector-curvature="0" class="st3" d="M28.4,25.8h-6.7v7.3h6.7V25.8z"/>
	<path id="path16" inkscape:connector-curvature="0" class="st4" d="M28.4,11.1v14.7h7.3V11.1H28.4z"/>
	<path id="path18" inkscape:connector-curvature="0" class="st5" d="M28.4,3.8v7.3h7.3L28.4,3.8z"/>
</g>
</svg>
