<svg width="182" height="44" viewBox="0 0 182 44" fill="none" xmlns="http://www.w3.org/2000/svg">
    <path
        d="M36.9059 29.025H7.99406C4.13135 29.025 1 25.8871 1 22.0164C1 18.1457 4.13135 15.0078 7.99406 15.0078H36.9059"
        stroke="#F7F7F3" stroke-width="1.49252" stroke-linejoin="round" />
    <path
        d="M15.7843 15.0172L49.8485 15.0172C53.6046 15.0172 56.6496 11.9716 56.6496 8.21474C56.6495 4.45784 53.6046 0.999993 49.8485 0.999994L35.1893 1.00001C23.8071 1.00001 14.58 10.6413 14.58 22.0258C14.58 33.4103 23.8071 43 35.1893 43L49.8485 43C53.6046 43 56.6495 39.5937 56.6495 35.8368C56.6495 32.0799 53.6046 29.0344 49.8485 29.0344L15.7864 29.0344"
        stroke="#F7F7F3" stroke-width="1.49252" stroke-linejoin="round" />
    <path
        d="M68.6719 21.7394C68.6719 28.2599 72.8299 33.3944 79.6654 33.3944C85.1149 33.3944 89.0524 30.0869 90.1549 25.2044H88.5484C87.5719 29.3309 84.1069 31.9769 79.6654 31.9769C74.0899 31.9769 70.2784 27.7874 70.2784 21.7394C70.2784 15.6914 74.0899 11.5019 79.6654 11.5019C84.1069 11.5019 87.5719 14.1479 88.5484 18.2744H90.1549C89.0524 13.3919 85.1149 10.0844 79.6654 10.0844C72.8299 10.0844 68.6719 15.2189 68.6719 21.7394Z"
        fill="#F7F7F3" />
    <path
        d="M95.4225 9.29688H93.942V32.9219H95.4225V23.4089C95.4225 19.8179 97.848 17.9909 100.715 17.9909C103.896 17.9909 105.408 19.9124 105.408 23.1254V32.9219H106.889V22.6844C106.889 19.2509 104.81 16.6679 100.841 16.6679C97.5645 16.6679 95.895 18.5894 95.4225 19.5029V9.29688Z"
        fill="#F7F7F3" />
    <path
        d="M118.818 33.2999C123.795 33.2999 126.819 29.2994 126.819 24.9839C126.819 20.6684 123.795 16.6679 118.818 16.6679C113.841 16.6679 110.817 20.6684 110.817 24.9839C110.817 29.2994 113.841 33.2999 118.818 33.2999ZM112.329 24.9839C112.329 21.1409 114.849 18.0224 118.818 18.0224C122.787 18.0224 125.307 21.1409 125.307 24.9839C125.307 28.8269 122.787 31.9454 118.818 31.9454C114.849 31.9454 112.329 28.8269 112.329 24.9839Z"
        fill="#F7F7F3" />
    <path
        d="M138.195 16.9199C138.195 16.9199 137.817 16.8884 137.66 16.8884C134.667 16.8884 132.966 18.4949 132.368 19.6604V17.0459H130.919V32.9219H132.399V23.5349C132.399 20.0699 134.667 18.3059 137.439 18.3059C137.849 18.3059 138.195 18.3374 138.195 18.3374V16.9199Z"
        fill="#F7F7F3" />
    <path
        d="M153.072 20.3219C151.938 18.1169 149.828 16.6679 146.709 16.6679C141.732 16.6679 139.149 20.6684 139.149 24.9839C139.149 29.2994 141.732 33.2999 146.709 33.2999C149.828 33.2999 151.938 31.8824 153.072 29.6459V32.9219H154.553V9.29688H153.072V20.3219ZM153.135 24.9839C153.135 28.8269 150.93 31.9454 146.961 31.9454C142.992 31.9454 140.661 28.8269 140.661 24.9839C140.661 21.1409 142.992 18.0224 146.961 18.0224C150.93 18.0224 153.135 21.1409 153.135 24.9839Z"
        fill="#F7F7F3" />
    <path
        d="M160.654 12.4784C161.347 12.4784 161.882 11.9744 161.882 11.2814C161.882 10.5569 161.347 10.0529 160.654 10.0529C159.929 10.0529 159.425 10.5569 159.425 11.2814C159.425 11.9744 159.929 12.4784 160.654 12.4784ZM159.898 32.9219H161.378V17.0459H159.898V32.9219Z"
        fill="#F7F7F3" />
    <path
        d="M173.514 33.2999C178.491 33.2999 181.515 29.2994 181.515 24.9839C181.515 20.6684 178.491 16.6679 173.514 16.6679C168.537 16.6679 165.513 20.6684 165.513 24.9839C165.513 29.2994 168.537 33.2999 173.514 33.2999ZM167.025 24.9839C167.025 21.1409 169.545 18.0224 173.514 18.0224C177.483 18.0224 180.003 21.1409 180.003 24.9839C180.003 28.8269 177.483 31.9454 173.514 31.9454C169.545 31.9454 167.025 28.8269 167.025 24.9839Z"
        fill="#F7F7F3" />
</svg>