<svg width="346" height="177" viewBox="0 0 346 177" fill="none" xmlns="http://www.w3.org/2000/svg">
<rect width="345.6" height="177" rx="12" fill="#FBFBFC"/>
<circle cx="28" cy="69" r="12" fill="#EFEFF0"/>
<path d="M52.5 65C52.5 56.4396 59.4396 49.5 68 49.5H203C211.56 49.5 218.5 56.4396 218.5 65C218.5 73.5604 211.56 80.5 203 80.5H52.5V65Z" fill="white"/>
<path d="M52.5 65C52.5 56.4396 59.4396 49.5 68 49.5H203C211.56 49.5 218.5 56.4396 218.5 65C218.5 73.5604 211.56 80.5 203 80.5H52.5V65Z" stroke="#EFEFF0"/>
<path d="M126.5 112C126.5 103.44 133.44 96.5 142 96.5H277C285.56 96.5 292.5 103.44 292.5 112V127.5H142C133.44 127.5 126.5 120.56 126.5 112Z" fill="white"/>
<path d="M126.5 112C126.5 103.44 133.44 96.5 142 96.5H277C285.56 96.5 292.5 103.44 292.5 112V127.5H142C133.44 127.5 126.5 120.56 126.5 112Z" stroke="#EFEFF0"/>
<circle cx="317" cy="116" r="12" fill="#EFEFF0"/>
</svg>
