<svg width="37" height="37" viewBox="0 0 37 37" fill="none" xmlns="http://www.w3.org/2000/svg">
<circle opacity="0.9" cx="18.7573" cy="18.5952" r="18.0547" fill="#F0F0F5" style="fill:#F0F0F5;fill:color(display-p3 0.9400 0.9400 0.9600);fill-opacity:1;"/>
<g clip-path="url(#clip0_4833_6063)">
<path d="M19.1488 22.2213C21.399 22.2213 23.2231 20.3971 23.2231 18.1469C23.2231 15.8967 21.399 14.0726 19.1488 14.0726C16.8986 14.0726 15.0745 15.8967 15.0745 18.1469C15.0745 20.3971 16.8986 22.2213 19.1488 22.2213Z" fill="white" style="fill:white;fill-opacity:1;"/>
<path d="M19.1488 14.0744H26.2047C25.4897 12.8355 24.4611 11.8068 23.2225 11.0916C21.9838 10.3764 20.5786 9.9999 19.1483 10C17.718 10.0001 16.3129 10.3768 15.0743 11.0922C13.8357 11.8076 12.8073 12.8364 12.0925 14.0753L15.6204 20.1859L15.6236 20.1851C15.2647 19.5662 15.0753 18.8636 15.0745 18.1482C15.0737 17.4328 15.2615 16.7299 15.619 16.1102C15.9765 15.4905 16.491 14.9761 17.1107 14.6186C17.7305 14.2612 18.4334 14.0735 19.1488 14.0744Z" fill="url(#paint0_linear_4833_6063)" style=""/>
<path d="M19.1489 21.3743C20.9303 21.3743 22.3744 19.9301 22.3744 18.1487C22.3744 16.3673 20.9303 14.9232 19.1489 14.9232C17.3675 14.9232 15.9233 16.3673 15.9233 18.1487C15.9233 19.9301 17.3675 21.3743 19.1489 21.3743Z" fill="#1A73E8" style="fill:#1A73E8;fill:color(display-p3 0.1020 0.4510 0.9098);fill-opacity:1;"/>
<path d="M22.6771 20.1868L19.1492 26.2973C20.5795 26.2975 21.9847 25.9212 23.2234 25.206C24.4621 24.4909 25.4907 23.4623 26.2058 22.2235C26.9209 20.9848 27.2972 19.5796 27.2969 18.1492C27.2967 16.7189 26.9198 15.3139 26.2043 14.0754H19.1486L19.1477 14.0785C19.8631 14.0772 20.5662 14.2644 21.1862 14.6214C21.8061 14.9784 22.321 15.4925 22.6789 16.112C23.0368 16.7314 23.2251 17.4342 23.2248 18.1496C23.2245 18.865 23.0355 19.5677 22.6771 20.1868Z" fill="url(#paint1_linear_4833_6063)" style=""/>
<path d="M15.6207 20.1869L12.0928 14.0764C11.3774 15.315 11.0008 16.7201 11.0007 18.1505C11.0007 19.5808 11.3772 20.9859 12.0925 22.2246C12.8077 23.4632 13.8365 24.4917 15.0753 25.2067C16.3141 25.9216 17.7194 26.2978 19.1497 26.2974L22.6776 20.1869L22.6753 20.1846C22.3188 20.8048 21.8051 21.3201 21.1859 21.6785C20.5668 22.0369 19.8641 22.2257 19.1487 22.226C18.4333 22.2262 17.7305 22.0378 17.1111 21.6799C16.4917 21.3219 15.9776 20.8069 15.6207 20.1869Z" fill="url(#paint2_linear_4833_6063)" style=""/>
</g>
<defs>
<linearGradient id="paint0_linear_4833_6063" x1="12.0925" y1="15.0929" x2="26.2047" y2="15.0929" gradientUnits="userSpaceOnUse">
<stop stop-color="#D93025" style="stop-color:#D93025;stop-color:color(display-p3 0.8510 0.1882 0.1451);stop-opacity:1;"/>
<stop offset="1" stop-color="#EA4335" style="stop-color:#EA4335;stop-color:color(display-p3 0.9176 0.2627 0.2078);stop-opacity:1;"/>
</linearGradient>
<linearGradient id="paint1_linear_4833_6063" x1="18.0359" y1="26.1884" x2="25.092" y2="13.9669" gradientUnits="userSpaceOnUse">
<stop stop-color="#FCC934" style="stop-color:#FCC934;stop-color:color(display-p3 0.9882 0.7882 0.2039);stop-opacity:1;"/>
<stop offset="1" stop-color="#FBBC04" style="stop-color:#FBBC04;stop-color:color(display-p3 0.9843 0.7373 0.0157);stop-opacity:1;"/>
</linearGradient>
<linearGradient id="paint2_linear_4833_6063" x1="20.031" y1="25.7886" x2="12.9749" y2="13.5671" gradientUnits="userSpaceOnUse">
<stop stop-color="#1E8E3E" style="stop-color:#1E8E3E;stop-color:color(display-p3 0.1176 0.5569 0.2431);stop-opacity:1;"/>
<stop offset="1" stop-color="#34A853" style="stop-color:#34A853;stop-color:color(display-p3 0.2039 0.6588 0.3255);stop-opacity:1;"/>
</linearGradient>
<clipPath id="clip0_4833_6063">
<rect width="16.2974" height="16.2974" fill="white" style="fill:white;fill-opacity:1;" transform="translate(11 10)"/>
</clipPath>
</defs>
</svg>
