<svg width="954" height="346" viewBox="0 0 954 346" fill="none" xmlns="http://www.w3.org/2000/svg">
<g clip-path="url(#clip0_4008_226)">
<rect width="954" height="346" rx="31" fill="#E0F0F5" style="fill:#E0F0F5;fill:color(display-p3 0.8784 0.9412 0.9608);fill-opacity:1;"/>
<g clip-path="url(#clip1_4008_226)">
<rect x="0.467885" y="-0.467885" width="73.9258" height="73.9258" rx="36.9629" transform="matrix(1 0 0 -1 -74.538 344.246)" stroke="#8DC6D8" style="stroke:#8DC6D8;stroke:color(display-p3 0.5529 0.7765 0.8471);stroke-opacity:1;" stroke-width="0.935769"/>
<rect x="0.467885" y="-0.467885" width="73.9258" height="73.9258" rx="36.9629" transform="matrix(1 0 0 -1 0.321411 344.246)" stroke="#8DC6D8" style="stroke:#8DC6D8;stroke:color(display-p3 0.5529 0.7765 0.8471);stroke-opacity:1;" stroke-width="0.935769"/>
<rect x="0.467885" y="-0.467885" width="73.9258" height="73.9258" rx="36.9629" transform="matrix(1 0 0 -1 -74.5377 270.314)" stroke="#8DC6D8" style="stroke:#8DC6D8;stroke:color(display-p3 0.5529 0.7765 0.8471);stroke-opacity:1;" stroke-width="0.935769"/>
<rect x="0.467885" y="-0.467885" width="73.9258" height="73.9258" rx="36.9629" transform="matrix(1 0 0 -1 0.322266 270.314)" stroke="#8DC6D8" style="stroke:#8DC6D8;stroke:color(display-p3 0.5529 0.7765 0.8471);stroke-opacity:1;" stroke-width="0.935769"/>
<circle cx="37.4308" cy="37.4308" r="36.9629" transform="matrix(1 0 0 -1 -74.541 419.107)" stroke="#8DC6D8" style="stroke:#8DC6D8;stroke:color(display-p3 0.5529 0.7765 0.8471);stroke-opacity:1;" stroke-width="0.935769"/>
<path d="M-37.6943 418.638H-262.397C-323.768 418.638 -373.519 368.887 -373.519 307.515V307.515C-373.519 246.144 -323.768 196.393 -262.397 196.393H75.1822" stroke="#8DC6D8" style="stroke:#8DC6D8;stroke:color(display-p3 0.5529 0.7765 0.8471);stroke-opacity:1;" stroke-width="0.935769"/>
<rect x="0.467885" y="-0.467885" width="147.218" height="73.8335" rx="36.9167" transform="matrix(1 0 0 -1 -0.00189209 344.078)" stroke="#8DC6D8" style="stroke:#8DC6D8;stroke:color(display-p3 0.5529 0.7765 0.8471);stroke-opacity:1;" stroke-width="0.935769"/>
</g>
<rect x="0.402969" y="-0.402969" width="90.1106" height="90.1106" rx="45.0553" transform="matrix(1 8.74228e-08 8.74228e-08 -1 431.084 123.111)" stroke="#51A1E1" style="stroke:#51A1E1;stroke:color(display-p3 0.3169 0.6315 0.8831);stroke-opacity:1;" stroke-width="0.805938"/>
<circle cx="477.256" cy="78.2564" r="40.2562" fill="#F0F7FA" style="fill:#F0F7FA;fill:color(display-p3 0.9404 0.9702 0.9796);fill-opacity:1;"/>
<path d="M489 72.6639C489 72.1963 488.876 71.737 488.642 71.3321C488.408 70.9272 488.072 70.591 487.667 70.3572L478.333 65.0239C477.928 64.7898 477.468 64.6666 477 64.6666C476.532 64.6666 476.072 64.7898 475.667 65.0239L466.333 70.3572C465.928 70.591 465.592 70.9272 465.358 71.3321C465.124 71.737 465 72.1963 465 72.6639V83.3306C465 83.7982 465.124 84.2575 465.358 84.6623C465.592 85.0672 465.928 85.4034 466.333 85.6372L475.667 90.9706C476.072 91.2046 476.532 91.3278 477 91.3278C477.468 91.3278 477.928 91.2046 478.333 90.9706L487.667 85.6372C488.072 85.4034 488.408 85.0672 488.642 84.6623C488.876 84.2575 489 83.7982 489 83.3306V72.6639Z" stroke="#020817" style="stroke:#020817;stroke:color(display-p3 0.0078 0.0314 0.0902);stroke-opacity:1;" stroke-width="1.2" stroke-linecap="round" stroke-linejoin="round"/>
<path d="M465.399 71.3339L476.999 78.0005L488.599 71.3339" stroke="#020817" style="stroke:#020817;stroke:color(display-p3 0.0078 0.0314 0.0902);stroke-opacity:1;" stroke-width="1.2" stroke-linecap="round" stroke-linejoin="round"/>
<path d="M477 91.3333V78" stroke="#020817" style="stroke:#020817;stroke:color(display-p3 0.0078 0.0314 0.0902);stroke-opacity:1;" stroke-width="1.2" stroke-linecap="round" stroke-linejoin="round"/>
<mask id="mask0_4008_226" style="mask-type:alpha" maskUnits="userSpaceOnUse" x="624" y="-50" width="330" height="183">
<rect width="329.715" height="183" rx="16.7062" transform="matrix(1 -8.74228e-08 -8.74228e-08 -1 624.25 133)" fill="#CEF5D9" style="fill:#CEF5D9;fill:color(display-p3 0.8078 0.9608 0.8510);fill-opacity:1;"/>
</mask>
<g mask="url(#mask0_4008_226)">
<g opacity="0.7">
<rect x="834.017" y="-88.3714" width="88.1936" height="88.1936" rx="44.0968" stroke="#51A1E1" style="stroke:#51A1E1;stroke:color(display-p3 0.3169 0.6315 0.8831);stroke-opacity:1;" stroke-width="0.788793"/>
<rect x="922.999" y="-88.3714" width="88.1936" height="88.1936" rx="44.0968" stroke="#51A1E1" style="stroke:#51A1E1;stroke:color(display-p3 0.3169 0.6315 0.8831);stroke-opacity:1;" stroke-width="0.788793"/>
<rect x="834.017" y="-0.500745" width="88.1936" height="88.1936" rx="44.0968" stroke="#51A1E1" style="stroke:#51A1E1;stroke:color(display-p3 0.3169 0.6315 0.8831);stroke-opacity:1;" stroke-width="0.788793"/>
<rect x="922.999" y="-0.500745" width="88.1936" height="88.1936" rx="44.0968" stroke="#51A1E1" style="stroke:#51A1E1;stroke:color(display-p3 0.3169 0.6315 0.8831);stroke-opacity:1;" stroke-width="0.788793"/>
<rect x="759.296" y="0.45273" width="341.058" height="86.4116" rx="43.2058" stroke="#51A1E1" style="stroke:#51A1E1;stroke:color(display-p3 0.3169 0.6315 0.8831);stroke-opacity:1;" stroke-width="0.772404"/>
<path d="M1203.32 -154.674L936.237 -154.674C863.289 -154.674 804.153 -95.5385 804.153 -22.591V-22.591C804.153 50.3566 863.289 109.492 936.237 109.492L1337.49 109.492" stroke="#51A1E1" style="stroke:#51A1E1;stroke:color(display-p3 0.3169 0.6315 0.8831);stroke-opacity:1;" stroke-width="0.788793"/>
</g>
</g>
</g>
<defs>
<clipPath id="clip0_4008_226">
<rect width="954" height="346" rx="31" fill="white" style="fill:white;fill-opacity:1;"/>
</clipPath>
<clipPath id="clip1_4008_226">
<rect width="153" height="150.923" fill="white" style="fill:white;fill-opacity:1;" transform="matrix(-1 0 0 1 153 196.398)"/>
</clipPath>
</defs>
</svg>
