<svg width="725" height="476" viewBox="0 0 725 476" fill="none" xmlns="http://www.w3.org/2000/svg">
<rect x="98.5" y="8.5" width="534" height="343.137" rx="20.5" fill="white" stroke="black"/>
<path d="M99 29C99 17.9543 107.954 9 119 9H612C623.046 9 632 17.9543 632 29V38.9086H99V29Z" fill="#F7F7F2"/>
<path d="M99 38.9082H632" stroke="black"/>
<rect x="143.5" y="77.5" width="444" height="32" rx="9.5" fill="#F7F7F2" stroke="black"/>
<rect x="1" y="254" width="723" height="103" rx="51.5" fill="white"/>
<rect x="1" y="254" width="723" height="103" rx="51.5" stroke="#694794" stroke-width="1.60722"/>
<path d="M55.6711 297.528V314.5H53.6139V297.528H55.6711ZM44.4077 297.528V314.5H42.3505V297.528H44.4077ZM54.5654 304.934V306.863H43.4306V304.934H54.5654ZM66.0232 314.757C64.806 314.757 63.7174 314.491 62.7573 313.96C61.8144 313.429 61.0773 312.666 60.5458 311.671C60.0144 310.66 59.7486 309.46 59.7486 308.071C59.7486 306.683 60.0144 305.491 60.5458 304.497C61.0773 303.485 61.8059 302.714 62.7316 302.182C63.6574 301.651 64.7117 301.385 65.8946 301.385C67.0947 301.385 68.1147 301.642 68.9548 302.157C69.8119 302.671 70.4634 303.374 70.9091 304.265C71.3549 305.14 71.5777 306.125 71.5777 307.223C71.5777 307.514 71.5692 307.78 71.552 308.02C71.5349 308.26 71.5092 308.474 71.4749 308.663H61.0858V306.837H70.5748L69.5205 307.043C69.5205 305.808 69.1776 304.857 68.4919 304.188C67.8233 303.519 66.9404 303.185 65.8432 303.185C65.0032 303.185 64.2745 303.382 63.6574 303.777C63.0573 304.154 62.5859 304.711 62.243 305.448C61.9173 306.168 61.7544 307.043 61.7544 308.071C61.7544 309.083 61.9259 309.957 62.2687 310.694C62.6116 311.431 63.0916 311.997 63.7088 312.391C64.3431 312.768 65.0974 312.957 65.9718 312.957C66.9147 312.957 67.6776 312.777 68.2604 312.417C68.8605 312.057 69.3405 311.568 69.7005 310.951L71.3206 311.903C70.9949 312.486 70.5748 312.991 70.0605 313.42C69.5634 313.849 68.9719 314.183 68.2862 314.423C67.6176 314.646 66.8632 314.757 66.0232 314.757ZM77.4447 295.728V311.234C77.4447 311.886 77.5647 312.34 77.8047 312.597C78.0447 312.837 78.4304 312.957 78.9619 312.957C79.3048 312.957 79.5876 312.931 79.8105 312.88C80.0334 312.828 80.3334 312.734 80.7105 312.597L80.3762 314.397C80.1019 314.517 79.8019 314.603 79.4762 314.654C79.1505 314.723 78.8162 314.757 78.4733 314.757C77.4275 314.757 76.6475 314.474 76.1332 313.909C75.636 313.343 75.3874 312.477 75.3874 311.311V295.728H77.4447ZM83.3506 319.9V301.642H85.1507L85.3307 304.78L85.0478 304.42C85.2707 303.82 85.605 303.297 86.0507 302.851C86.4965 302.388 87.0365 302.028 87.6708 301.771C88.3051 301.514 88.9909 301.385 89.728 301.385C90.7738 301.385 91.7338 301.651 92.6082 302.182C93.4996 302.714 94.2111 303.477 94.7425 304.471C95.274 305.465 95.5397 306.665 95.5397 308.071C95.5397 309.46 95.2654 310.66 94.7168 311.671C94.1854 312.666 93.4739 313.429 92.5824 313.96C91.691 314.491 90.7138 314.757 89.6509 314.757C88.588 314.757 87.6536 314.5 86.8479 313.986C86.0593 313.454 85.4935 312.786 85.1507 311.98L85.4078 311.594V319.9H83.3506ZM89.4452 312.957C90.7138 312.957 91.6995 312.511 92.4024 311.62C93.1225 310.728 93.4825 309.545 93.4825 308.071C93.4825 306.597 93.131 305.414 92.4282 304.522C91.7424 303.631 90.7738 303.185 89.5223 303.185C88.6994 303.185 87.9794 303.391 87.3622 303.802C86.745 304.197 86.265 304.762 85.9221 305.5C85.5793 306.22 85.4078 307.077 85.4078 308.071C85.4078 309.048 85.5707 309.906 85.8964 310.643C86.2393 311.38 86.7107 311.954 87.3108 312.366C87.9279 312.76 88.6394 312.957 89.4452 312.957ZM112.892 314.757C112.069 314.757 111.289 314.603 110.552 314.294C109.832 313.986 109.24 313.489 108.777 312.803C108.332 312.1 108.109 311.191 108.109 310.077V301.642H110.166V309.537C110.166 310.84 110.449 311.74 111.015 312.237C111.58 312.717 112.378 312.957 113.406 312.957C113.886 312.957 114.358 312.88 114.82 312.726C115.283 312.554 115.695 312.297 116.055 311.954C116.432 311.594 116.723 311.14 116.929 310.591C117.152 310.043 117.263 309.391 117.263 308.637V301.642H119.321V314.5H117.521L117.392 312.546C116.946 313.317 116.338 313.883 115.566 314.243C114.812 314.586 113.92 314.757 112.892 314.757ZM128.737 314.757C127.486 314.757 126.329 314.491 125.266 313.96C124.22 313.429 123.414 312.674 122.849 311.697L124.597 310.437C124.974 311.226 125.523 311.843 126.243 312.288C126.98 312.734 127.863 312.957 128.892 312.957C129.8 312.957 130.512 312.786 131.026 312.443C131.54 312.083 131.798 311.62 131.798 311.054C131.798 310.694 131.678 310.368 131.437 310.077C131.215 309.768 130.777 309.545 130.126 309.408L127.04 308.765C125.789 308.508 124.889 308.08 124.34 307.48C123.809 306.88 123.543 306.134 123.543 305.242C123.543 304.54 123.74 303.897 124.134 303.314C124.546 302.731 125.12 302.268 125.857 301.925C126.612 301.565 127.494 301.385 128.506 301.385C129.775 301.385 130.846 301.634 131.72 302.131C132.595 302.628 133.246 303.331 133.675 304.24L131.952 305.371C131.66 304.617 131.189 304.068 130.537 303.725C129.886 303.365 129.209 303.185 128.506 303.185C127.889 303.185 127.357 303.271 126.912 303.442C126.483 303.614 126.149 303.854 125.909 304.162C125.686 304.454 125.574 304.788 125.574 305.165C125.574 305.542 125.703 305.894 125.96 306.22C126.217 306.528 126.697 306.751 127.4 306.888L130.615 307.557C131.815 307.797 132.655 308.191 133.135 308.74C133.615 309.288 133.855 309.957 133.855 310.746C133.855 311.551 133.64 312.263 133.212 312.88C132.783 313.48 132.183 313.943 131.412 314.269C130.64 314.594 129.749 314.757 128.737 314.757ZM143.044 314.757C141.827 314.757 140.738 314.491 139.778 313.96C138.835 313.429 138.098 312.666 137.567 311.671C137.035 310.66 136.769 309.46 136.769 308.071C136.769 306.683 137.035 305.491 137.567 304.497C138.098 303.485 138.827 302.714 139.752 302.182C140.678 301.651 141.733 301.385 142.915 301.385C144.115 301.385 145.136 301.642 145.976 302.157C146.833 302.671 147.484 303.374 147.93 304.265C148.376 305.14 148.599 306.125 148.599 307.223C148.599 307.514 148.59 307.78 148.573 308.02C148.556 308.26 148.53 308.474 148.496 308.663H138.107V306.837H147.596L146.541 307.043C146.541 305.808 146.198 304.857 145.513 304.188C144.844 303.519 143.961 303.185 142.864 303.185C142.024 303.185 141.295 303.382 140.678 303.777C140.078 304.154 139.607 304.711 139.264 305.448C138.938 306.168 138.775 307.043 138.775 308.071C138.775 309.083 138.947 309.957 139.29 310.694C139.632 311.431 140.112 311.997 140.73 312.391C141.364 312.768 142.118 312.957 142.993 312.957C143.935 312.957 144.698 312.777 145.281 312.417C145.881 312.057 146.361 311.568 146.721 310.951L148.341 311.903C148.016 312.486 147.596 312.991 147.081 313.42C146.584 313.849 145.993 314.183 145.307 314.423C144.638 314.646 143.884 314.757 143.044 314.757ZM152.511 314.5V301.642H154.183L154.465 303.751C154.826 302.962 155.348 302.371 156.034 301.977C156.737 301.582 157.586 301.385 158.58 301.385C158.803 301.385 159.043 301.402 159.3 301.437C159.574 301.471 159.806 301.539 159.994 301.642L159.634 303.519C159.446 303.451 159.24 303.399 159.017 303.365C158.794 303.331 158.477 303.314 158.066 303.314C157.534 303.314 156.994 303.468 156.446 303.777C155.914 304.085 155.468 304.557 155.108 305.191C154.748 305.808 154.568 306.597 154.568 307.557V314.5H152.511ZM167.085 314.757C165.833 314.757 164.676 314.491 163.613 313.96C162.567 313.429 161.761 312.674 161.196 311.697L162.944 310.437C163.322 311.226 163.87 311.843 164.59 312.288C165.327 312.734 166.21 312.957 167.239 312.957C168.147 312.957 168.859 312.786 169.373 312.443C169.888 312.083 170.145 311.62 170.145 311.054C170.145 310.694 170.025 310.368 169.785 310.077C169.562 309.768 169.125 309.545 168.473 309.408L165.387 308.765C164.136 308.508 163.236 308.08 162.687 307.48C162.156 306.88 161.89 306.134 161.89 305.242C161.89 304.54 162.087 303.897 162.481 303.314C162.893 302.731 163.467 302.268 164.204 301.925C164.959 301.565 165.842 301.385 166.853 301.385C168.122 301.385 169.193 301.634 170.068 302.131C170.942 302.628 171.593 303.331 172.022 304.24L170.299 305.371C170.008 304.617 169.536 304.068 168.885 303.725C168.233 303.365 167.556 303.185 166.853 303.185C166.236 303.185 165.704 303.271 165.259 303.442C164.83 303.614 164.496 303.854 164.256 304.162C164.033 304.454 163.922 304.788 163.922 305.165C163.922 305.542 164.05 305.894 164.307 306.22C164.564 306.528 165.044 306.751 165.747 306.888L168.962 307.557C170.162 307.797 171.002 308.191 171.482 308.74C171.962 309.288 172.202 309.957 172.202 310.746C172.202 311.551 171.988 312.263 171.559 312.88C171.13 313.48 170.53 313.943 169.759 314.269C168.987 314.594 168.096 314.757 167.085 314.757ZM189.41 314.757C188.158 314.757 187.001 314.491 185.938 313.96C184.892 313.429 184.087 312.674 183.521 311.697L185.27 310.437C185.647 311.226 186.195 311.843 186.915 312.288C187.653 312.734 188.535 312.957 189.564 312.957C190.473 312.957 191.184 312.786 191.698 312.443C192.213 312.083 192.47 311.62 192.47 311.054C192.47 310.694 192.35 310.368 192.11 310.077C191.887 309.768 191.45 309.545 190.798 309.408L187.713 308.765C186.461 308.508 185.561 308.08 185.012 307.48C184.481 306.88 184.215 306.134 184.215 305.242C184.215 304.54 184.412 303.897 184.807 303.314C185.218 302.731 185.792 302.268 186.53 301.925C187.284 301.565 188.167 301.385 189.178 301.385C190.447 301.385 191.518 301.634 192.393 302.131C193.267 302.628 193.919 303.331 194.347 304.24L192.624 305.371C192.333 304.617 191.861 304.068 191.21 303.725C190.558 303.365 189.881 303.185 189.178 303.185C188.561 303.185 188.03 303.271 187.584 303.442C187.155 303.614 186.821 303.854 186.581 304.162C186.358 304.454 186.247 304.788 186.247 305.165C186.247 305.542 186.375 305.894 186.633 306.22C186.89 306.528 187.37 306.751 188.073 306.888L191.287 307.557C192.487 307.797 193.327 308.191 193.807 308.74C194.287 309.288 194.527 309.957 194.527 310.746C194.527 311.551 194.313 312.263 193.884 312.88C193.456 313.48 192.856 313.943 192.084 314.269C191.313 314.594 190.421 314.757 189.41 314.757ZM203.716 314.757C202.499 314.757 201.411 314.491 200.451 313.96C199.508 313.429 198.77 312.666 198.239 311.671C197.708 310.66 197.442 309.46 197.442 308.071C197.442 306.683 197.708 305.491 198.239 304.497C198.77 303.485 199.499 302.714 200.425 302.182C201.351 301.651 202.405 301.385 203.588 301.385C204.788 301.385 205.808 301.642 206.648 302.157C207.505 302.671 208.157 303.374 208.602 304.265C209.048 305.14 209.271 306.125 209.271 307.223C209.271 307.514 209.262 307.78 209.245 308.02C209.228 308.26 209.202 308.474 209.168 308.663H198.779V306.837H208.268L207.214 307.043C207.214 305.808 206.871 304.857 206.185 304.188C205.516 303.519 204.634 303.185 203.536 303.185C202.696 303.185 201.968 303.382 201.351 303.777C200.751 304.154 200.279 304.711 199.936 305.448C199.611 306.168 199.448 307.043 199.448 308.071C199.448 309.083 199.619 309.957 199.962 310.694C200.305 311.431 200.785 311.997 201.402 312.391C202.036 312.768 202.791 312.957 203.665 312.957C204.608 312.957 205.371 312.777 205.954 312.417C206.554 312.057 207.034 311.568 207.394 310.951L209.014 311.903C208.688 312.486 208.268 312.991 207.754 313.42C207.257 313.849 206.665 314.183 205.979 314.423C205.311 314.646 204.556 314.757 203.716 314.757ZM215.841 297.991V310.951C215.841 311.586 216.021 312.057 216.381 312.366C216.741 312.674 217.204 312.828 217.77 312.828C218.267 312.828 218.696 312.743 219.056 312.571C219.416 312.4 219.741 312.168 220.033 311.877L220.753 313.6C220.359 313.96 219.887 314.243 219.339 314.449C218.807 314.654 218.19 314.757 217.487 314.757C216.836 314.757 216.227 314.646 215.661 314.423C215.096 314.183 214.641 313.814 214.298 313.317C213.973 312.803 213.801 312.134 213.784 311.311V298.556L215.841 297.991ZM220.521 301.642V303.417H211.212V301.642H220.521ZM239.853 306.194C239.853 305.234 239.596 304.497 239.082 303.982C238.568 303.451 237.839 303.185 236.896 303.185C236.005 303.185 235.25 303.382 234.633 303.777C234.016 304.154 233.562 304.771 233.27 305.628L231.599 304.6C231.942 303.64 232.576 302.868 233.502 302.285C234.428 301.685 235.576 301.385 236.948 301.385C237.873 301.385 238.713 301.548 239.468 301.874C240.222 302.182 240.814 302.662 241.242 303.314C241.688 303.948 241.911 304.771 241.911 305.782V312.006C241.911 312.623 242.236 312.931 242.888 312.931C243.214 312.931 243.531 312.888 243.839 312.803L243.737 314.423C243.394 314.594 242.948 314.68 242.399 314.68C241.902 314.68 241.456 314.586 241.062 314.397C240.668 314.209 240.359 313.926 240.136 313.549C239.913 313.154 239.802 312.666 239.802 312.083V311.826L240.316 311.903C240.111 312.571 239.759 313.12 239.262 313.549C238.765 313.96 238.208 314.269 237.591 314.474C236.973 314.663 236.365 314.757 235.765 314.757C235.01 314.757 234.308 314.629 233.656 314.371C233.005 314.114 232.482 313.729 232.087 313.214C231.71 312.683 231.522 312.031 231.522 311.26C231.522 310.3 231.839 309.511 232.473 308.894C233.125 308.26 234.025 307.831 235.173 307.608L240.265 306.605V308.303L236.125 309.151C235.285 309.323 234.659 309.563 234.247 309.871C233.836 310.18 233.63 310.608 233.63 311.157C233.63 311.688 233.836 312.126 234.247 312.468C234.676 312.794 235.276 312.957 236.048 312.957C236.545 312.957 237.016 312.897 237.462 312.777C237.925 312.64 238.336 312.443 238.696 312.186C239.056 311.911 239.339 311.577 239.545 311.183C239.751 310.771 239.853 310.291 239.853 309.743V306.194ZM246.91 314.5V301.642H248.71L248.89 304.522L248.556 304.24C248.83 303.554 249.199 303.005 249.662 302.594C250.124 302.165 250.656 301.857 251.256 301.668C251.873 301.479 252.507 301.385 253.159 301.385C254.085 301.385 254.925 301.565 255.679 301.925C256.433 302.268 257.033 302.799 257.479 303.519C257.942 304.24 258.173 305.157 258.173 306.271V314.5H256.116V306.991C256.116 305.568 255.808 304.582 255.19 304.034C254.59 303.468 253.845 303.185 252.953 303.185C252.336 303.185 251.719 303.331 251.102 303.622C250.484 303.914 249.97 304.385 249.559 305.037C249.164 305.688 248.967 306.562 248.967 307.66V314.5H246.91ZM267.846 314.757C266.783 314.757 265.806 314.491 264.914 313.96C264.023 313.429 263.311 312.666 262.78 311.671C262.249 310.66 261.983 309.46 261.983 308.071C261.983 306.648 262.266 305.44 262.831 304.445C263.397 303.451 264.143 302.697 265.069 302.182C265.994 301.651 266.989 301.385 268.052 301.385C269.115 301.385 270.032 301.659 270.803 302.208C271.592 302.757 272.115 303.485 272.372 304.394L272.115 304.574V295.728H274.172V314.5H272.372L272.192 311.388L272.475 311.234C272.355 311.988 272.063 312.631 271.6 313.163C271.155 313.677 270.598 314.071 269.929 314.346C269.277 314.62 268.583 314.757 267.846 314.757ZM268.052 312.957C268.875 312.957 269.586 312.751 270.186 312.34C270.803 311.928 271.275 311.346 271.6 310.591C271.943 309.82 272.115 308.92 272.115 307.891C272.115 306.914 271.943 306.074 271.6 305.371C271.275 304.668 270.812 304.128 270.212 303.751C269.629 303.374 268.943 303.185 268.155 303.185C266.852 303.185 265.84 303.631 265.12 304.522C264.4 305.414 264.04 306.597 264.04 308.071C264.04 309.545 264.392 310.728 265.094 311.62C265.797 312.511 266.783 312.957 268.052 312.957ZM287.718 314.5V301.642H289.518L289.647 303.648C290.11 302.859 290.71 302.285 291.447 301.925C292.201 301.565 292.973 301.385 293.761 301.385C294.67 301.385 295.527 301.591 296.333 302.002C297.139 302.414 297.756 303.048 298.184 303.905C298.459 303.322 298.844 302.851 299.342 302.491C299.839 302.114 300.379 301.839 300.962 301.668C301.562 301.479 302.127 301.385 302.659 301.385C303.482 301.385 304.262 301.557 304.999 301.899C305.753 302.242 306.37 302.774 306.85 303.494C307.33 304.214 307.571 305.14 307.571 306.271V314.5H305.513V306.477C305.513 305.311 305.222 304.471 304.639 303.957C304.056 303.442 303.336 303.185 302.479 303.185C301.81 303.185 301.184 303.348 300.602 303.674C300.019 304 299.547 304.48 299.187 305.114C298.844 305.748 298.673 306.528 298.673 307.454V314.5H296.616V306.477C296.616 305.311 296.324 304.471 295.741 303.957C295.159 303.442 294.438 303.185 293.581 303.185C293.016 303.185 292.433 303.339 291.833 303.648C291.25 303.94 290.761 304.411 290.367 305.062C289.973 305.714 289.775 306.571 289.775 307.634V314.5H287.718ZM319.737 306.194C319.737 305.234 319.48 304.497 318.966 303.982C318.451 303.451 317.723 303.185 316.78 303.185C315.888 303.185 315.134 303.382 314.517 303.777C313.9 304.154 313.445 304.771 313.154 305.628L311.482 304.6C311.825 303.64 312.46 302.868 313.385 302.285C314.311 301.685 315.46 301.385 316.831 301.385C317.757 301.385 318.597 301.548 319.351 301.874C320.106 302.182 320.697 302.662 321.126 303.314C321.571 303.948 321.794 304.771 321.794 305.782V312.006C321.794 312.623 322.12 312.931 322.772 312.931C323.097 312.931 323.414 312.888 323.723 312.803L323.62 314.423C323.277 314.594 322.832 314.68 322.283 314.68C321.786 314.68 321.34 314.586 320.946 314.397C320.551 314.209 320.243 313.926 320.02 313.549C319.797 313.154 319.686 312.666 319.686 312.083V311.826L320.2 311.903C319.994 312.571 319.643 313.12 319.146 313.549C318.649 313.96 318.091 314.269 317.474 314.474C316.857 314.663 316.248 314.757 315.648 314.757C314.894 314.757 314.191 314.629 313.54 314.371C312.888 314.114 312.365 313.729 311.971 313.214C311.594 312.683 311.405 312.031 311.405 311.26C311.405 310.3 311.722 309.511 312.357 308.894C313.008 308.26 313.908 307.831 315.057 307.608L320.149 306.605V308.303L316.008 309.151C315.168 309.323 314.543 309.563 314.131 309.871C313.72 310.18 313.514 310.608 313.514 311.157C313.514 311.688 313.72 312.126 314.131 312.468C314.56 312.794 315.16 312.957 315.931 312.957C316.428 312.957 316.9 312.897 317.346 312.777C317.808 312.64 318.22 312.443 318.58 312.186C318.94 311.911 319.223 311.577 319.429 311.183C319.634 310.771 319.737 310.291 319.737 309.743V306.194ZM326.794 314.5V301.642H328.594L328.774 304.522L328.439 304.24C328.714 303.554 329.082 303.005 329.545 302.594C330.008 302.165 330.539 301.857 331.14 301.668C331.757 301.479 332.391 301.385 333.042 301.385C333.968 301.385 334.808 301.565 335.563 301.925C336.317 302.268 336.917 302.799 337.363 303.519C337.826 304.24 338.057 305.157 338.057 306.271V314.5H336V306.991C336 305.568 335.691 304.582 335.074 304.034C334.474 303.468 333.728 303.185 332.837 303.185C332.22 303.185 331.602 303.331 330.985 303.622C330.368 303.914 329.854 304.385 329.442 305.037C329.048 305.688 328.851 306.562 328.851 307.66V314.5H326.794ZM350.224 306.194C350.224 305.234 349.967 304.497 349.453 303.982C348.938 303.451 348.21 303.185 347.267 303.185C346.375 303.185 345.621 303.382 345.004 303.777C344.387 304.154 343.932 304.771 343.641 305.628L341.969 304.6C342.312 303.64 342.947 302.868 343.872 302.285C344.798 301.685 345.947 301.385 347.318 301.385C348.244 301.385 349.084 301.548 349.838 301.874C350.593 302.182 351.184 302.662 351.613 303.314C352.058 303.948 352.281 304.771 352.281 305.782V312.006C352.281 312.623 352.607 312.931 353.258 312.931C353.584 312.931 353.901 312.888 354.21 312.803L354.107 314.423C353.764 314.594 353.318 314.68 352.77 314.68C352.273 314.68 351.827 314.586 351.433 314.397C351.038 314.209 350.73 313.926 350.507 313.549C350.284 313.154 350.173 312.666 350.173 312.083V311.826L350.687 311.903C350.481 312.571 350.13 313.12 349.633 313.549C349.135 313.96 348.578 314.269 347.961 314.474C347.344 314.663 346.735 314.757 346.135 314.757C345.381 314.757 344.678 314.629 344.027 314.371C343.375 314.114 342.852 313.729 342.458 313.214C342.081 312.683 341.892 312.031 341.892 311.26C341.892 310.3 342.209 309.511 342.844 308.894C343.495 308.26 344.395 307.831 345.544 307.608L350.635 306.605V308.303L346.495 309.151C345.655 309.323 345.029 309.563 344.618 309.871C344.207 310.18 344.001 310.608 344.001 311.157C344.001 311.688 344.207 312.126 344.618 312.468C345.047 312.794 345.647 312.957 346.418 312.957C346.915 312.957 347.387 312.897 347.832 312.777C348.295 312.64 348.707 312.443 349.067 312.186C349.427 311.911 349.71 311.577 349.915 311.183C350.121 310.771 350.224 310.291 350.224 309.743V306.194ZM368.107 299.276L368.57 301.102C368.552 301.102 368.527 301.102 368.492 301.102C368.458 301.102 368.424 301.102 368.39 301.102C367.55 301.102 366.898 301.274 366.435 301.617C365.989 301.942 365.767 302.474 365.767 303.211L364.507 302.568C364.507 301.899 364.661 301.317 364.969 300.819C365.278 300.322 365.698 299.945 366.229 299.688C366.761 299.414 367.344 299.276 367.978 299.276C367.995 299.276 368.012 299.276 368.03 299.276C368.064 299.276 368.09 299.276 368.107 299.276ZM364.198 312.854C365.415 312.854 366.367 313.137 367.052 313.703C367.738 314.251 368.081 314.989 368.081 315.914C368.081 316.754 367.798 317.483 367.232 318.1C366.684 318.717 365.938 319.189 364.995 319.515C364.069 319.857 363.024 320.029 361.858 320.029C359.835 320.029 358.318 319.686 357.306 319C356.312 318.314 355.815 317.492 355.815 316.532C355.815 315.846 356.038 315.229 356.483 314.68C356.946 314.149 357.718 313.849 358.798 313.78L358.618 314.166C358.035 314.011 357.538 313.754 357.126 313.394C356.732 313.017 356.535 312.477 356.535 311.774C356.535 311.071 356.792 310.471 357.306 309.974C357.838 309.46 358.618 309.143 359.646 309.023L361.009 309.717H360.752C359.912 309.803 359.312 310.017 358.952 310.36C358.609 310.686 358.438 311.046 358.438 311.44C358.438 311.92 358.609 312.28 358.952 312.52C359.312 312.743 359.809 312.854 360.443 312.854H364.198ZM361.832 318.306C362.826 318.306 363.641 318.203 364.275 317.997C364.927 317.792 365.407 317.526 365.715 317.2C366.024 316.874 366.178 316.523 366.178 316.146C366.178 315.683 365.989 315.314 365.612 315.04C365.252 314.766 364.592 314.629 363.632 314.629H359.672C359.123 314.629 358.661 314.766 358.283 315.04C357.906 315.331 357.718 315.726 357.718 316.223C357.718 316.857 358.078 317.363 358.798 317.74C359.535 318.117 360.546 318.306 361.832 318.306ZM361.652 301.385C362.681 301.385 363.589 301.574 364.378 301.951C365.184 302.311 365.809 302.817 366.255 303.468C366.701 304.12 366.924 304.874 366.924 305.731C366.924 306.571 366.701 307.325 366.255 307.994C365.809 308.645 365.184 309.16 364.378 309.537C363.589 309.897 362.681 310.077 361.652 310.077C359.955 310.077 358.652 309.674 357.743 308.868C356.835 308.045 356.38 307 356.38 305.731C356.38 304.874 356.603 304.12 357.049 303.468C357.512 302.817 358.138 302.311 358.926 301.951C359.715 301.574 360.623 301.385 361.652 301.385ZM361.652 303.057C360.761 303.057 360.015 303.305 359.415 303.802C358.815 304.282 358.515 304.925 358.515 305.731C358.515 306.52 358.815 307.163 359.415 307.66C360.015 308.157 360.761 308.405 361.652 308.405C362.544 308.405 363.289 308.157 363.889 307.66C364.489 307.163 364.789 306.52 364.789 305.731C364.789 304.925 364.489 304.282 363.889 303.802C363.289 303.305 362.544 303.057 361.652 303.057ZM376.341 314.757C375.124 314.757 374.036 314.491 373.076 313.96C372.133 313.429 371.396 312.666 370.864 311.671C370.333 310.66 370.067 309.46 370.067 308.071C370.067 306.683 370.333 305.491 370.864 304.497C371.396 303.485 372.124 302.714 373.05 302.182C373.976 301.651 375.03 301.385 376.213 301.385C377.413 301.385 378.433 301.642 379.273 302.157C380.13 302.671 380.782 303.374 381.227 304.265C381.673 305.14 381.896 306.125 381.896 307.223C381.896 307.514 381.887 307.78 381.87 308.02C381.853 308.26 381.827 308.474 381.793 308.663H371.404V306.837H380.893L379.839 307.043C379.839 305.808 379.496 304.857 378.81 304.188C378.142 303.519 377.259 303.185 376.161 303.185C375.321 303.185 374.593 303.382 373.976 303.777C373.376 304.154 372.904 304.711 372.561 305.448C372.236 306.168 372.073 307.043 372.073 308.071C372.073 309.083 372.244 309.957 372.587 310.694C372.93 311.431 373.41 311.997 374.027 312.391C374.661 312.768 375.416 312.957 376.29 312.957C377.233 312.957 377.996 312.777 378.579 312.417C379.179 312.057 379.659 311.568 380.019 310.951L381.639 311.903C381.313 312.486 380.893 312.991 380.379 313.42C379.882 313.849 379.29 314.183 378.604 314.423C377.936 314.646 377.182 314.757 376.341 314.757ZM397.105 297.991V310.951C397.105 311.586 397.285 312.057 397.645 312.366C398.005 312.674 398.468 312.828 399.034 312.828C399.531 312.828 399.96 312.743 400.32 312.571C400.68 312.4 401.005 312.168 401.297 311.877L402.017 313.6C401.622 313.96 401.151 314.243 400.602 314.449C400.071 314.654 399.454 314.757 398.751 314.757C398.099 314.757 397.491 314.646 396.925 314.423C396.359 314.183 395.905 313.814 395.562 313.317C395.236 312.803 395.065 312.134 395.048 311.311V298.556L397.105 297.991ZM401.785 301.642V303.417H392.476V301.642H401.785ZM404.844 314.5V295.728H406.901V303.571C407.347 302.799 407.938 302.242 408.676 301.899C409.413 301.557 410.219 301.385 411.093 301.385C412.019 301.385 412.859 301.565 413.613 301.925C414.367 302.268 414.967 302.799 415.413 303.519C415.876 304.24 416.107 305.157 416.107 306.271V314.5H414.05V306.991C414.05 305.568 413.742 304.582 413.124 304.034C412.524 303.468 411.779 303.185 410.887 303.185C410.27 303.185 409.653 303.331 409.036 303.622C408.419 303.914 407.904 304.394 407.493 305.062C407.098 305.714 406.901 306.588 406.901 307.685V314.5H404.844ZM426.14 314.757C424.923 314.757 423.834 314.491 422.874 313.96C421.931 313.429 421.194 312.666 420.663 311.671C420.131 310.66 419.865 309.46 419.865 308.071C419.865 306.683 420.131 305.491 420.663 304.497C421.194 303.485 421.923 302.714 422.848 302.182C423.774 301.651 424.829 301.385 426.011 301.385C427.212 301.385 428.232 301.642 429.072 302.157C429.929 302.671 430.58 303.374 431.026 304.265C431.472 305.14 431.695 306.125 431.695 307.223C431.695 307.514 431.686 307.78 431.669 308.02C431.652 308.26 431.626 308.474 431.592 308.663H421.203V306.837H430.692L429.637 307.043C429.637 305.808 429.294 304.857 428.609 304.188C427.94 303.519 427.057 303.185 425.96 303.185C425.12 303.185 424.391 303.382 423.774 303.777C423.174 304.154 422.703 304.711 422.36 305.448C422.034 306.168 421.871 307.043 421.871 308.071C421.871 309.083 422.043 309.957 422.386 310.694C422.728 311.431 423.208 311.997 423.826 312.391C424.46 312.768 425.214 312.957 426.089 312.957C427.032 312.957 427.794 312.777 428.377 312.417C428.977 312.057 429.457 311.568 429.817 310.951L431.437 311.903C431.112 312.486 430.692 312.991 430.177 313.42C429.68 313.849 429.089 314.183 428.403 314.423C427.734 314.646 426.98 314.757 426.14 314.757ZM436.636 299.174C436.173 299.174 435.796 299.036 435.504 298.762C435.23 298.471 435.093 298.094 435.093 297.631C435.093 297.168 435.23 296.799 435.504 296.525C435.796 296.233 436.173 296.088 436.636 296.088C437.099 296.088 437.467 296.233 437.742 296.525C438.033 296.799 438.179 297.168 438.179 297.631C438.179 298.094 438.033 298.471 437.742 298.762C437.467 299.036 437.099 299.174 436.636 299.174ZM437.664 301.642V314.5H435.607V301.642H437.664ZM442.438 314.5V301.642H444.109L444.392 303.751C444.752 302.962 445.275 302.371 445.961 301.977C446.664 301.582 447.512 301.385 448.507 301.385C448.73 301.385 448.97 301.402 449.227 301.437C449.501 301.471 449.732 301.539 449.921 301.642L449.561 303.519C449.372 303.451 449.167 303.399 448.944 303.365C448.721 303.331 448.404 303.314 447.992 303.314C447.461 303.314 446.921 303.468 446.372 303.777C445.841 304.085 445.395 304.557 445.035 305.191C444.675 305.808 444.495 306.597 444.495 307.557V314.5H442.438ZM461.097 314.5V301.642H462.897L463.025 303.648C463.488 302.859 464.088 302.285 464.825 301.925C465.58 301.565 466.351 301.385 467.14 301.385C468.048 301.385 468.906 301.591 469.711 302.002C470.517 302.414 471.134 303.048 471.563 303.905C471.837 303.322 472.223 302.851 472.72 302.491C473.217 302.114 473.757 301.839 474.34 301.668C474.94 301.479 475.506 301.385 476.037 301.385C476.86 301.385 477.64 301.557 478.377 301.899C479.132 302.242 479.749 302.774 480.229 303.494C480.709 304.214 480.949 305.14 480.949 306.271V314.5H478.892V306.477C478.892 305.311 478.6 304.471 478.017 303.957C477.435 303.442 476.714 303.185 475.857 303.185C475.189 303.185 474.563 303.348 473.98 303.674C473.397 304 472.926 304.48 472.566 305.114C472.223 305.748 472.051 306.528 472.051 307.454V314.5H469.994V306.477C469.994 305.311 469.703 304.471 469.12 303.957C468.537 303.442 467.817 303.185 466.96 303.185C466.394 303.185 465.811 303.339 465.211 303.648C464.628 303.94 464.14 304.411 463.745 305.062C463.351 305.714 463.154 306.571 463.154 307.634V314.5H461.097ZM490.93 301.385C492.147 301.385 493.218 301.651 494.144 302.182C495.087 302.714 495.824 303.485 496.356 304.497C496.887 305.491 497.153 306.683 497.153 308.071C497.153 309.46 496.887 310.66 496.356 311.671C495.824 312.666 495.087 313.429 494.144 313.96C493.218 314.491 492.147 314.757 490.93 314.757C489.73 314.757 488.658 314.491 487.715 313.96C486.772 313.429 486.035 312.666 485.504 311.671C484.972 310.66 484.707 309.46 484.707 308.071C484.707 306.683 484.972 305.491 485.504 304.497C486.035 303.485 486.772 302.714 487.715 302.182C488.658 301.651 489.73 301.385 490.93 301.385ZM490.93 303.159C490.055 303.159 489.31 303.357 488.693 303.751C488.075 304.145 487.595 304.711 487.252 305.448C486.927 306.168 486.764 307.043 486.764 308.071C486.764 309.083 486.927 309.957 487.252 310.694C487.595 311.431 488.075 311.997 488.693 312.391C489.31 312.786 490.055 312.983 490.93 312.983C491.804 312.983 492.55 312.786 493.167 312.391C493.784 311.997 494.256 311.431 494.581 310.694C494.924 309.957 495.096 309.083 495.096 308.071C495.096 307.043 494.924 306.168 494.581 305.448C494.256 304.711 493.784 304.145 493.167 303.751C492.55 303.357 491.804 303.159 490.93 303.159ZM501.026 314.5V301.642H502.826L503.006 304.522L502.672 304.24C502.946 303.554 503.315 303.005 503.777 302.594C504.24 302.165 504.772 301.857 505.372 301.668C505.989 301.479 506.623 301.385 507.275 301.385C508.2 301.385 509.041 301.565 509.795 301.925C510.549 302.268 511.149 302.799 511.595 303.519C512.058 304.24 512.289 305.157 512.289 306.271V314.5H510.232V306.991C510.232 305.568 509.923 304.582 509.306 304.034C508.706 303.468 507.96 303.185 507.069 303.185C506.452 303.185 505.835 303.331 505.217 303.622C504.6 303.914 504.086 304.385 503.675 305.037C503.28 305.688 503.083 306.562 503.083 307.66V314.5H501.026ZM519.806 297.991V310.951C519.806 311.586 519.986 312.057 520.346 312.366C520.706 312.674 521.169 312.828 521.735 312.828C522.232 312.828 522.66 312.743 523.02 312.571C523.38 312.4 523.706 312.168 523.998 311.877L524.718 313.6C524.323 313.96 523.852 314.243 523.303 314.449C522.772 314.654 522.155 314.757 521.452 314.757C520.8 314.757 520.192 314.646 519.626 314.423C519.06 314.183 518.606 313.814 518.263 313.317C517.937 312.803 517.766 312.134 517.749 311.311V298.556L519.806 297.991ZM524.486 301.642V303.417H515.177V301.642H524.486ZM527.545 314.5V295.728H529.602V303.571C530.048 302.799 530.639 302.242 531.377 301.899C532.114 301.557 532.919 301.385 533.794 301.385C534.72 301.385 535.56 301.565 536.314 301.925C537.068 302.268 537.668 302.799 538.114 303.519C538.577 304.24 538.808 305.157 538.808 306.271V314.5H536.751V306.991C536.751 305.568 536.442 304.582 535.825 304.034C535.225 303.468 534.48 303.185 533.588 303.185C532.971 303.185 532.354 303.331 531.737 303.622C531.119 303.914 530.605 304.394 530.194 305.062C529.799 305.714 529.602 306.588 529.602 307.685V314.5H527.545ZM545.421 295.728V311.234C545.421 311.886 545.541 312.34 545.781 312.597C546.021 312.837 546.407 312.957 546.938 312.957C547.281 312.957 547.564 312.931 547.787 312.88C548.009 312.828 548.31 312.734 548.687 312.597L548.352 314.397C548.078 314.517 547.778 314.603 547.452 314.654C547.127 314.723 546.792 314.757 546.449 314.757C545.404 314.757 544.624 314.474 544.109 313.909C543.612 313.343 543.364 312.477 543.364 311.311V295.728H545.421ZM561.243 301.642L555.2 316.66C554.874 317.5 554.514 318.16 554.12 318.64C553.743 319.137 553.314 319.489 552.834 319.695C552.371 319.917 551.831 320.029 551.214 320.029C550.631 320.029 550.091 319.943 549.594 319.772C549.114 319.617 548.685 319.403 548.308 319.129L548.874 317.329C549.217 317.637 549.577 317.86 549.954 317.997C550.348 318.152 550.734 318.229 551.111 318.229C551.557 318.229 551.977 318.092 552.371 317.817C552.765 317.543 553.125 316.986 553.451 316.146L554.12 314.474L552.834 311.414L548.745 301.642H551.085L554.3 310.026L555.097 312.314L556.023 309.768L559.031 301.642H561.243ZM578.345 314.757C577.625 314.757 576.956 314.629 576.339 314.371C575.722 314.114 575.191 313.754 574.745 313.291C574.299 312.828 573.965 312.306 573.742 311.723L574.025 311.363L573.845 314.5H572.045V295.728H574.102V304.548L573.845 304.162C574.188 303.357 574.762 302.697 575.568 302.182C576.391 301.651 577.325 301.385 578.371 301.385C579.434 301.385 580.411 301.651 581.302 302.182C582.194 302.714 582.905 303.477 583.437 304.471C583.968 305.465 584.234 306.665 584.234 308.071C584.234 309.46 583.96 310.66 583.411 311.671C582.88 312.666 582.168 313.429 581.277 313.96C580.385 314.491 579.408 314.757 578.345 314.757ZM578.139 312.957C579.408 312.957 580.394 312.511 581.097 311.62C581.817 310.728 582.177 309.545 582.177 308.071C582.177 306.597 581.825 305.414 581.122 304.522C580.419 303.631 579.434 303.185 578.165 303.185C577.359 303.185 576.648 303.391 576.031 303.802C575.431 304.214 574.959 304.788 574.616 305.525C574.273 306.262 574.102 307.128 574.102 308.123C574.102 309.1 574.265 309.957 574.591 310.694C574.933 311.414 575.405 311.971 576.005 312.366C576.622 312.76 577.334 312.957 578.139 312.957ZM592.822 314.757C591.999 314.757 591.219 314.603 590.482 314.294C589.761 313.986 589.17 313.489 588.707 312.803C588.261 312.1 588.039 311.191 588.039 310.077V301.642H590.096V309.537C590.096 310.84 590.379 311.74 590.944 312.237C591.51 312.717 592.307 312.957 593.336 312.957C593.816 312.957 594.287 312.88 594.75 312.726C595.213 312.554 595.625 312.297 595.985 311.954C596.362 311.594 596.653 311.14 596.859 310.591C597.082 310.043 597.193 309.391 597.193 308.637V301.642H599.25V314.5H597.45L597.322 312.546C596.876 313.317 596.267 313.883 595.496 314.243C594.742 314.586 593.85 314.757 592.822 314.757ZM609.053 314.757C607.99 314.757 607.013 314.491 606.121 313.96C605.23 313.429 604.518 312.666 603.987 311.671C603.456 310.66 603.19 309.46 603.19 308.071C603.19 306.648 603.473 305.44 604.038 304.445C604.604 303.451 605.35 302.697 606.276 302.182C607.201 301.651 608.196 301.385 609.259 301.385C610.322 301.385 611.239 301.659 612.01 302.208C612.799 302.757 613.322 303.485 613.579 304.394L613.322 304.574V295.728H615.379V314.5H613.579L613.399 311.388L613.682 311.234C613.562 311.988 613.27 312.631 612.807 313.163C612.362 313.677 611.804 314.071 611.136 314.346C610.484 314.62 609.79 314.757 609.053 314.757ZM609.259 312.957C610.082 312.957 610.793 312.751 611.393 312.34C612.01 311.928 612.482 311.346 612.807 310.591C613.15 309.82 613.322 308.92 613.322 307.891C613.322 306.914 613.15 306.074 612.807 305.371C612.482 304.668 612.019 304.128 611.419 303.751C610.836 303.374 610.15 303.185 609.361 303.185C608.059 303.185 607.047 303.631 606.327 304.522C605.607 305.414 605.247 306.597 605.247 308.071C605.247 309.545 605.598 310.728 606.301 311.62C607.004 312.511 607.99 312.957 609.259 312.957ZM630.987 299.276L631.45 301.102C631.433 301.102 631.407 301.102 631.373 301.102C631.338 301.102 631.304 301.102 631.27 301.102C630.43 301.102 629.778 301.274 629.315 301.617C628.87 301.942 628.647 302.474 628.647 303.211L627.387 302.568C627.387 301.899 627.541 301.317 627.85 300.819C628.158 300.322 628.578 299.945 629.11 299.688C629.641 299.414 630.224 299.276 630.858 299.276C630.876 299.276 630.893 299.276 630.91 299.276C630.944 299.276 630.97 299.276 630.987 299.276ZM627.078 312.854C628.295 312.854 629.247 313.137 629.933 313.703C630.618 314.251 630.961 314.989 630.961 315.914C630.961 316.754 630.678 317.483 630.113 318.1C629.564 318.717 628.818 319.189 627.875 319.515C626.95 319.857 625.904 320.029 624.738 320.029C622.715 320.029 621.198 319.686 620.186 319C619.192 318.314 618.695 317.492 618.695 316.532C618.695 315.846 618.918 315.229 619.364 314.68C619.826 314.149 620.598 313.849 621.678 313.78L621.498 314.166C620.915 314.011 620.418 313.754 620.006 313.394C619.612 313.017 619.415 312.477 619.415 311.774C619.415 311.071 619.672 310.471 620.186 309.974C620.718 309.46 621.498 309.143 622.527 309.023L623.89 309.717H623.632C622.792 309.803 622.192 310.017 621.832 310.36C621.489 310.686 621.318 311.046 621.318 311.44C621.318 311.92 621.489 312.28 621.832 312.52C622.192 312.743 622.689 312.854 623.324 312.854H627.078ZM624.712 318.306C625.707 318.306 626.521 318.203 627.155 317.997C627.807 317.792 628.287 317.526 628.595 317.2C628.904 316.874 629.058 316.523 629.058 316.146C629.058 315.683 628.87 315.314 628.493 315.04C628.133 314.766 627.473 314.629 626.512 314.629H622.552C622.004 314.629 621.541 314.766 621.164 315.04C620.787 315.331 620.598 315.726 620.598 316.223C620.598 316.857 620.958 317.363 621.678 317.74C622.415 318.117 623.427 318.306 624.712 318.306ZM624.532 301.385C625.561 301.385 626.47 301.574 627.258 301.951C628.064 302.311 628.69 302.817 629.135 303.468C629.581 304.12 629.804 304.874 629.804 305.731C629.804 306.571 629.581 307.325 629.135 307.994C628.69 308.645 628.064 309.16 627.258 309.537C626.47 309.897 625.561 310.077 624.532 310.077C622.835 310.077 621.532 309.674 620.624 308.868C619.715 308.045 619.261 307 619.261 305.731C619.261 304.874 619.484 304.12 619.929 303.468C620.392 302.817 621.018 302.311 621.807 301.951C622.595 301.574 623.504 301.385 624.532 301.385ZM624.532 303.057C623.641 303.057 622.895 303.305 622.295 303.802C621.695 304.282 621.395 304.925 621.395 305.731C621.395 306.52 621.695 307.163 622.295 307.66C622.895 308.157 623.641 308.405 624.532 308.405C625.424 308.405 626.17 308.157 626.77 307.66C627.37 307.163 627.67 306.52 627.67 305.731C627.67 304.925 627.37 304.282 626.77 303.802C626.17 303.305 625.424 303.057 624.532 303.057ZM639.222 314.757C638.005 314.757 636.916 314.491 635.956 313.96C635.013 313.429 634.276 312.666 633.744 311.671C633.213 310.66 632.947 309.46 632.947 308.071C632.947 306.683 633.213 305.491 633.744 304.497C634.276 303.485 635.004 302.714 635.93 302.182C636.856 301.651 637.91 301.385 639.093 301.385C640.293 301.385 641.313 301.642 642.153 302.157C643.011 302.671 643.662 303.374 644.108 304.265C644.553 305.14 644.776 306.125 644.776 307.223C644.776 307.514 644.768 307.78 644.751 308.02C644.733 308.26 644.708 308.474 644.673 308.663H634.284V306.837H643.773L642.719 307.043C642.719 305.808 642.376 304.857 641.69 304.188C641.022 303.519 640.139 303.185 639.042 303.185C638.202 303.185 637.473 303.382 636.856 303.777C636.256 304.154 635.784 304.711 635.442 305.448C635.116 306.168 634.953 307.043 634.953 308.071C634.953 309.083 635.124 309.957 635.467 310.694C635.81 311.431 636.29 311.997 636.907 312.391C637.542 312.768 638.296 312.957 639.17 312.957C640.113 312.957 640.876 312.777 641.459 312.417C642.059 312.057 642.539 311.568 642.899 310.951L644.519 311.903C644.193 312.486 643.773 312.991 643.259 313.42C642.762 313.849 642.17 314.183 641.485 314.423C640.816 314.646 640.062 314.757 639.222 314.757ZM651.347 297.991V310.951C651.347 311.586 651.527 312.057 651.887 312.366C652.247 312.674 652.71 312.828 653.275 312.828C653.772 312.828 654.201 312.743 654.561 312.571C654.921 312.4 655.247 312.168 655.538 311.877L656.258 313.6C655.864 313.96 655.393 314.243 654.844 314.449C654.312 314.654 653.695 314.757 652.992 314.757C652.341 314.757 651.732 314.646 651.167 314.423C650.601 314.183 650.147 313.814 649.804 313.317C649.478 312.803 649.307 312.134 649.289 311.311V298.556L651.347 297.991ZM656.027 301.642V303.417H646.718V301.642H656.027ZM663.714 314.757C662.463 314.757 661.306 314.491 660.243 313.96C659.197 313.429 658.391 312.674 657.826 311.697L659.574 310.437C659.951 311.226 660.5 311.843 661.22 312.288C661.957 312.734 662.84 312.957 663.869 312.957C664.777 312.957 665.489 312.786 666.003 312.443C666.517 312.083 666.774 311.62 666.774 311.054C666.774 310.694 666.654 310.368 666.414 310.077C666.192 309.768 665.754 309.545 665.103 309.408L662.017 308.765C660.766 308.508 659.866 308.08 659.317 307.48C658.786 306.88 658.52 306.134 658.52 305.242C658.52 304.54 658.717 303.897 659.111 303.314C659.523 302.731 660.097 302.268 660.834 301.925C661.589 301.565 662.471 301.385 663.483 301.385C664.752 301.385 665.823 301.634 666.697 302.131C667.572 302.628 668.223 303.331 668.652 304.24L666.929 305.371C666.637 304.617 666.166 304.068 665.514 303.725C664.863 303.365 664.186 303.185 663.483 303.185C662.866 303.185 662.334 303.271 661.889 303.442C661.46 303.614 661.126 303.854 660.886 304.162C660.663 304.454 660.551 304.788 660.551 305.165C660.551 305.542 660.68 305.894 660.937 306.22C661.194 306.528 661.674 306.751 662.377 306.888L665.592 307.557C666.792 307.797 667.632 308.191 668.112 308.74C668.592 309.288 668.832 309.957 668.832 310.746C668.832 311.551 668.617 312.263 668.189 312.88C667.76 313.48 667.16 313.943 666.389 314.269C665.617 314.594 664.726 314.757 663.714 314.757ZM673.675 311.414C674.172 311.414 674.575 311.568 674.884 311.877C675.192 312.186 675.347 312.588 675.347 313.086C675.347 313.583 675.192 313.986 674.884 314.294C674.575 314.603 674.172 314.757 673.675 314.757C673.178 314.757 672.775 314.603 672.466 314.294C672.158 313.986 672.004 313.583 672.004 313.086C672.004 312.588 672.158 312.186 672.466 311.877C672.775 311.568 673.178 311.414 673.675 311.414Z" fill="#434343"/>
<g opacity="0.3">
<rect x="7" y="372" width="717" height="103" rx="51.5" fill="white"/>
<rect x="7" y="372" width="717" height="103" rx="51.5" stroke="#694794" stroke-width="1.60722"/>
<path d="M50.4077 430.571H60.1282V432.5H48.3505V415.528H50.4077V430.571ZM68.3316 432.757C67.1144 432.757 66.0258 432.491 65.0658 431.96C64.1229 431.429 63.3857 430.666 62.8542 429.671C62.3228 428.66 62.0571 427.46 62.0571 426.071C62.0571 424.683 62.3228 423.491 62.8542 422.497C63.3857 421.485 64.1143 420.714 65.04 420.182C65.9658 419.651 67.0201 419.385 68.203 419.385C69.4031 419.385 70.4231 419.642 71.2632 420.157C72.1204 420.671 72.7718 421.374 73.2176 422.265C73.6633 423.14 73.8862 424.125 73.8862 425.223C73.8862 425.514 73.8776 425.78 73.8604 426.02C73.8433 426.26 73.8176 426.474 73.7833 426.663H63.3943V424.837H72.8833L71.8289 425.043C71.8289 423.808 71.4861 422.857 70.8003 422.188C70.1317 421.519 69.2488 421.185 68.1516 421.185C67.3116 421.185 66.583 421.382 65.9658 421.777C65.3658 422.154 64.8943 422.711 64.5515 423.448C64.2257 424.168 64.0629 425.043 64.0629 426.071C64.0629 427.083 64.2343 427.957 64.5772 428.694C64.92 429.431 65.4001 429.997 66.0172 430.391C66.6515 430.768 67.4059 430.957 68.2802 430.957C69.2231 430.957 69.986 430.777 70.5689 430.417C71.1689 430.057 71.6489 429.568 72.0089 428.951L73.629 429.903C73.3033 430.486 72.8833 430.991 72.369 431.42C71.8718 431.849 71.2803 432.183 70.5946 432.423C69.926 432.646 69.1717 432.757 68.3316 432.757ZM80.4565 415.991V428.951C80.4565 429.586 80.6365 430.057 80.9965 430.366C81.3565 430.674 81.8194 430.828 82.3851 430.828C82.8823 430.828 83.3109 430.743 83.6709 430.571C84.0309 430.4 84.3566 430.168 84.6481 429.877L85.3681 431.6C84.9738 431.96 84.5024 432.243 83.9538 432.449C83.4223 432.654 82.8051 432.757 82.1022 432.757C81.4508 432.757 80.8422 432.646 80.2765 432.423C79.7107 432.183 79.2564 431.814 78.9135 431.317C78.5878 430.803 78.4164 430.134 78.3992 429.311V416.556L80.4565 415.991ZM85.1367 419.642V421.417H75.8277V419.642H85.1367ZM101.614 432.757C100.791 432.757 100.011 432.603 99.2742 432.294C98.5541 431.986 97.9627 431.489 97.4998 430.803C97.054 430.1 96.8312 429.191 96.8312 428.077V419.642H98.8884V427.537C98.8884 428.84 99.1713 429.74 99.737 430.237C100.303 430.717 101.1 430.957 102.129 430.957C102.609 430.957 103.08 430.88 103.543 430.726C104.006 430.554 104.417 430.297 104.777 429.954C105.154 429.594 105.446 429.14 105.652 428.591C105.874 428.043 105.986 427.391 105.986 426.637V419.642H108.043V432.5H106.243L106.114 430.546C105.669 431.317 105.06 431.883 104.289 432.243C103.534 432.586 102.643 432.757 101.614 432.757ZM117.46 432.757C116.208 432.757 115.051 432.491 113.988 431.96C112.942 431.429 112.137 430.674 111.571 429.697L113.32 428.437C113.697 429.226 114.245 429.843 114.965 430.288C115.703 430.734 116.585 430.957 117.614 430.957C118.523 430.957 119.234 430.786 119.748 430.443C120.263 430.083 120.52 429.62 120.52 429.054C120.52 428.694 120.4 428.368 120.16 428.077C119.937 427.768 119.5 427.545 118.848 427.408L115.763 426.765C114.511 426.508 113.611 426.08 113.062 425.48C112.531 424.88 112.265 424.134 112.265 423.242C112.265 422.54 112.462 421.897 112.857 421.314C113.268 420.731 113.842 420.268 114.58 419.925C115.334 419.565 116.217 419.385 117.228 419.385C118.497 419.385 119.568 419.634 120.443 420.131C121.317 420.628 121.969 421.331 122.397 422.24L120.674 423.371C120.383 422.617 119.911 422.068 119.26 421.725C118.608 421.365 117.931 421.185 117.228 421.185C116.611 421.185 116.08 421.271 115.634 421.442C115.205 421.614 114.871 421.854 114.631 422.162C114.408 422.454 114.297 422.788 114.297 423.165C114.297 423.542 114.425 423.894 114.683 424.22C114.94 424.528 115.42 424.751 116.123 424.888L119.337 425.557C120.537 425.797 121.377 426.191 121.857 426.74C122.337 427.288 122.577 427.957 122.577 428.746C122.577 429.551 122.363 430.263 121.934 430.88C121.506 431.48 120.906 431.943 120.134 432.269C119.363 432.594 118.471 432.757 117.46 432.757ZM131.766 432.757C130.549 432.757 129.461 432.491 128.501 431.96C127.558 431.429 126.82 430.666 126.289 429.671C125.758 428.66 125.492 427.46 125.492 426.071C125.492 424.683 125.758 423.491 126.289 422.497C126.82 421.485 127.549 420.714 128.475 420.182C129.401 419.651 130.455 419.385 131.638 419.385C132.838 419.385 133.858 419.642 134.698 420.157C135.555 420.671 136.207 421.374 136.652 422.265C137.098 423.14 137.321 424.125 137.321 425.223C137.321 425.514 137.312 425.78 137.295 426.02C137.278 426.26 137.252 426.474 137.218 426.663H126.829V424.837H136.318L135.264 425.043C135.264 423.808 134.921 422.857 134.235 422.188C133.567 421.519 132.684 421.185 131.586 421.185C130.746 421.185 130.018 421.382 129.401 421.777C128.801 422.154 128.329 422.711 127.986 423.448C127.661 424.168 127.498 425.043 127.498 426.071C127.498 427.083 127.669 427.957 128.012 428.694C128.355 429.431 128.835 429.997 129.452 430.391C130.086 430.768 130.841 430.957 131.715 430.957C132.658 430.957 133.421 430.777 134.004 430.417C134.604 430.057 135.084 429.568 135.444 428.951L137.064 429.903C136.738 430.486 136.318 430.991 135.804 431.42C135.307 431.849 134.715 432.183 134.029 432.423C133.361 432.646 132.606 432.757 131.766 432.757ZM141.234 432.5V419.642H142.905L143.188 421.751C143.548 420.962 144.071 420.371 144.757 419.977C145.459 419.582 146.308 419.385 147.302 419.385C147.525 419.385 147.765 419.402 148.022 419.437C148.297 419.471 148.528 419.539 148.717 419.642L148.357 421.519C148.168 421.451 147.962 421.399 147.74 421.365C147.517 421.331 147.2 421.314 146.788 421.314C146.257 421.314 145.717 421.468 145.168 421.777C144.637 422.085 144.191 422.557 143.831 423.191C143.471 423.808 143.291 424.597 143.291 425.557V432.5H141.234ZM155.807 432.757C154.555 432.757 153.398 432.491 152.335 431.96C151.29 431.429 150.484 430.674 149.918 429.697L151.667 428.437C152.044 429.226 152.593 429.843 153.313 430.288C154.05 430.734 154.933 430.957 155.961 430.957C156.87 430.957 157.581 430.786 158.096 430.443C158.61 430.083 158.867 429.62 158.867 429.054C158.867 428.694 158.747 428.368 158.507 428.077C158.284 427.768 157.847 427.545 157.196 427.408L154.11 426.765C152.858 426.508 151.958 426.08 151.41 425.48C150.878 424.88 150.612 424.134 150.612 423.242C150.612 422.54 150.81 421.897 151.204 421.314C151.615 420.731 152.19 420.268 152.927 419.925C153.681 419.565 154.564 419.385 155.576 419.385C156.844 419.385 157.916 419.634 158.79 420.131C159.664 420.628 160.316 421.331 160.744 422.24L159.021 423.371C158.73 422.617 158.259 422.068 157.607 421.725C156.956 421.365 156.278 421.185 155.576 421.185C154.958 421.185 154.427 421.271 153.981 421.442C153.553 421.614 153.218 421.854 152.978 422.162C152.755 422.454 152.644 422.788 152.644 423.165C152.644 423.542 152.773 423.894 153.03 424.22C153.287 424.528 153.767 424.751 154.47 424.888L157.684 425.557C158.884 425.797 159.724 426.191 160.204 426.74C160.684 427.288 160.924 427.957 160.924 428.746C160.924 429.551 160.71 430.263 160.281 430.88C159.853 431.48 159.253 431.943 158.481 432.269C157.71 432.594 156.818 432.757 155.807 432.757ZM178.827 419.385C179.718 419.385 180.498 419.522 181.167 419.797C181.852 420.071 182.444 420.465 182.941 420.979C183.438 421.494 183.841 422.102 184.15 422.805L182.195 423.731C181.921 422.908 181.501 422.282 180.935 421.854C180.387 421.408 179.667 421.185 178.775 421.185C177.918 421.185 177.181 421.382 176.564 421.777C175.946 422.154 175.475 422.711 175.149 423.448C174.823 424.168 174.661 425.043 174.661 426.071C174.661 427.083 174.823 427.957 175.149 428.694C175.475 429.431 175.946 429.997 176.564 430.391C177.181 430.768 177.918 430.957 178.775 430.957C179.444 430.957 180.018 430.854 180.498 430.648C180.995 430.443 181.398 430.143 181.707 429.748C182.032 429.354 182.255 428.874 182.375 428.308L184.278 428.977C183.987 429.766 183.584 430.443 183.07 431.009C182.572 431.574 181.964 432.011 181.244 432.32C180.541 432.611 179.735 432.757 178.827 432.757C177.626 432.757 176.555 432.491 175.612 431.96C174.669 431.429 173.932 430.666 173.401 429.671C172.869 428.66 172.603 427.46 172.603 426.071C172.603 424.683 172.869 423.491 173.401 422.497C173.932 421.485 174.669 420.714 175.612 420.182C176.555 419.651 177.626 419.385 178.827 419.385ZM195.402 424.194C195.402 423.234 195.145 422.497 194.63 421.982C194.116 421.451 193.388 421.185 192.445 421.185C191.553 421.185 190.799 421.382 190.182 421.777C189.565 422.154 189.11 422.771 188.819 423.628L187.147 422.6C187.49 421.64 188.124 420.868 189.05 420.285C189.976 419.685 191.125 419.385 192.496 419.385C193.422 419.385 194.262 419.548 195.016 419.874C195.771 420.182 196.362 420.662 196.791 421.314C197.236 421.948 197.459 422.771 197.459 423.782V430.006C197.459 430.623 197.785 430.931 198.436 430.931C198.762 430.931 199.079 430.888 199.388 430.803L199.285 432.423C198.942 432.594 198.496 432.68 197.948 432.68C197.451 432.68 197.005 432.586 196.611 432.397C196.216 432.209 195.908 431.926 195.685 431.549C195.462 431.154 195.351 430.666 195.351 430.083V429.826L195.865 429.903C195.659 430.571 195.308 431.12 194.81 431.549C194.313 431.96 193.756 432.269 193.139 432.474C192.522 432.663 191.913 432.757 191.313 432.757C190.559 432.757 189.856 432.629 189.205 432.371C188.553 432.114 188.03 431.729 187.636 431.214C187.259 430.683 187.07 430.031 187.07 429.26C187.07 428.3 187.387 427.511 188.022 426.894C188.673 426.26 189.573 425.831 190.722 425.608L195.813 424.605V426.303L191.673 427.151C190.833 427.323 190.207 427.563 189.796 427.871C189.385 428.18 189.179 428.608 189.179 429.157C189.179 429.688 189.385 430.126 189.796 430.468C190.225 430.794 190.825 430.957 191.596 430.957C192.093 430.957 192.565 430.897 193.01 430.777C193.473 430.64 193.885 430.443 194.245 430.186C194.605 429.911 194.888 429.577 195.093 429.183C195.299 428.771 195.402 428.291 195.402 427.743V424.194ZM204.991 415.991V428.951C204.991 429.586 205.171 430.057 205.531 430.366C205.891 430.674 206.354 430.828 206.919 430.828C207.416 430.828 207.845 430.743 208.205 430.571C208.565 430.4 208.891 430.168 209.182 429.877L209.902 431.6C209.508 431.96 209.036 432.243 208.488 432.449C207.956 432.654 207.339 432.757 206.636 432.757C205.985 432.757 205.376 432.646 204.811 432.423C204.245 432.183 203.791 431.814 203.448 431.317C203.122 430.803 202.951 430.134 202.933 429.311V416.556L204.991 415.991ZM209.671 419.642V421.417H200.362V419.642H209.671ZM218.104 432.757C216.887 432.757 215.798 432.491 214.838 431.96C213.895 431.429 213.158 430.666 212.627 429.671C212.095 428.66 211.83 427.46 211.83 426.071C211.83 424.683 212.095 423.491 212.627 422.497C213.158 421.485 213.887 420.714 214.813 420.182C215.738 419.651 216.793 419.385 217.976 419.385C219.176 419.385 220.196 419.642 221.036 420.157C221.893 420.671 222.544 421.374 222.99 422.265C223.436 423.14 223.659 424.125 223.659 425.223C223.659 425.514 223.65 425.78 223.633 426.02C223.616 426.26 223.59 426.474 223.556 426.663H213.167V424.837H222.656L221.601 425.043C221.601 423.808 221.259 422.857 220.573 422.188C219.904 421.519 219.021 421.185 217.924 421.185C217.084 421.185 216.355 421.382 215.738 421.777C215.138 422.154 214.667 422.711 214.324 423.448C213.998 424.168 213.835 425.043 213.835 426.071C213.835 427.083 214.007 427.957 214.35 428.694C214.692 429.431 215.173 429.997 215.79 430.391C216.424 430.768 217.178 430.957 218.053 430.957C218.996 430.957 219.758 430.777 220.341 430.417C220.941 430.057 221.421 429.568 221.781 428.951L223.401 429.903C223.076 430.486 222.656 430.991 222.141 431.42C221.644 431.849 221.053 432.183 220.367 432.423C219.698 432.646 218.944 432.757 218.104 432.757ZM238.397 417.276L238.86 419.102C238.843 419.102 238.817 419.102 238.783 419.102C238.749 419.102 238.715 419.102 238.68 419.102C237.84 419.102 237.189 419.274 236.726 419.617C236.28 419.942 236.057 420.474 236.057 421.211L234.797 420.568C234.797 419.899 234.952 419.317 235.26 418.819C235.569 418.322 235.989 417.945 236.52 417.688C237.052 417.414 237.634 417.276 238.269 417.276C238.286 417.276 238.303 417.276 238.32 417.276C238.355 417.276 238.38 417.276 238.397 417.276ZM234.489 430.854C235.706 430.854 236.657 431.137 237.343 431.703C238.029 432.251 238.372 432.989 238.372 433.914C238.372 434.754 238.089 435.483 237.523 436.1C236.974 436.717 236.229 437.189 235.286 437.515C234.36 437.857 233.314 438.029 232.149 438.029C230.126 438.029 228.608 437.686 227.597 437C226.603 436.314 226.105 435.492 226.105 434.532C226.105 433.846 226.328 433.229 226.774 432.68C227.237 432.149 228.008 431.849 229.088 431.78L228.908 432.166C228.325 432.011 227.828 431.754 227.417 431.394C227.023 431.017 226.825 430.477 226.825 429.774C226.825 429.071 227.083 428.471 227.597 427.974C228.128 427.46 228.908 427.143 229.937 427.023L231.3 427.717H231.043C230.203 427.803 229.603 428.017 229.243 428.36C228.9 428.686 228.728 429.046 228.728 429.44C228.728 429.92 228.9 430.28 229.243 430.52C229.603 430.743 230.1 430.854 230.734 430.854H234.489ZM232.123 436.306C233.117 436.306 233.931 436.203 234.566 435.997C235.217 435.792 235.697 435.526 236.006 435.2C236.314 434.874 236.469 434.523 236.469 434.146C236.469 433.683 236.28 433.314 235.903 433.04C235.543 432.766 234.883 432.629 233.923 432.629H229.963C229.414 432.629 228.951 432.766 228.574 433.04C228.197 433.331 228.008 433.726 228.008 434.223C228.008 434.857 228.368 435.363 229.088 435.74C229.826 436.117 230.837 436.306 232.123 436.306ZM231.943 419.385C232.971 419.385 233.88 419.574 234.669 419.951C235.474 420.311 236.1 420.817 236.546 421.468C236.992 422.12 237.214 422.874 237.214 423.731C237.214 424.571 236.992 425.325 236.546 425.994C236.1 426.645 235.474 427.16 234.669 427.537C233.88 427.897 232.971 428.077 231.943 428.077C230.246 428.077 228.943 427.674 228.034 426.868C227.125 426.045 226.671 425 226.671 423.731C226.671 422.874 226.894 422.12 227.34 421.468C227.803 420.817 228.428 420.311 229.217 419.951C230.006 419.574 230.914 419.385 231.943 419.385ZM231.943 421.057C231.051 421.057 230.306 421.305 229.706 421.802C229.106 422.282 228.806 422.925 228.806 423.731C228.806 424.52 229.106 425.163 229.706 425.66C230.306 426.157 231.051 426.405 231.943 426.405C232.834 426.405 233.58 426.157 234.18 425.66C234.78 425.163 235.08 424.52 235.08 423.731C235.08 422.925 234.78 422.282 234.18 421.802C233.58 421.305 232.834 421.057 231.943 421.057ZM246.581 419.385C247.798 419.385 248.869 419.651 249.795 420.182C250.738 420.714 251.475 421.485 252.007 422.497C252.538 423.491 252.804 424.683 252.804 426.071C252.804 427.46 252.538 428.66 252.007 429.671C251.475 430.666 250.738 431.429 249.795 431.96C248.869 432.491 247.798 432.757 246.581 432.757C245.381 432.757 244.309 432.491 243.366 431.96C242.423 431.429 241.686 430.666 241.155 429.671C240.623 428.66 240.358 427.46 240.358 426.071C240.358 424.683 240.623 423.491 241.155 422.497C241.686 421.485 242.423 420.714 243.366 420.182C244.309 419.651 245.381 419.385 246.581 419.385ZM246.581 421.159C245.706 421.159 244.961 421.357 244.343 421.751C243.726 422.145 243.246 422.711 242.903 423.448C242.578 424.168 242.415 425.043 242.415 426.071C242.415 427.083 242.578 427.957 242.903 428.694C243.246 429.431 243.726 429.997 244.343 430.391C244.961 430.786 245.706 430.983 246.581 430.983C247.455 430.983 248.201 430.786 248.818 430.391C249.435 429.997 249.907 429.431 250.232 428.694C250.575 427.957 250.747 427.083 250.747 426.071C250.747 425.043 250.575 424.168 250.232 423.448C249.907 422.711 249.435 422.145 248.818 421.751C248.201 421.357 247.455 421.159 246.581 421.159ZM256.677 432.5V419.642H258.348L258.631 421.751C258.991 420.962 259.514 420.371 260.2 419.977C260.903 419.582 261.751 419.385 262.746 419.385C262.969 419.385 263.209 419.402 263.466 419.437C263.74 419.471 263.971 419.539 264.16 419.642L263.8 421.519C263.611 421.451 263.406 421.399 263.183 421.365C262.96 421.331 262.643 421.314 262.231 421.314C261.7 421.314 261.16 421.468 260.611 421.777C260.08 422.085 259.634 422.557 259.274 423.191C258.914 423.808 258.734 424.597 258.734 425.557V432.5H256.677ZM268.203 417.174C267.74 417.174 267.363 417.036 267.071 416.762C266.797 416.471 266.66 416.094 266.66 415.631C266.66 415.168 266.797 414.799 267.071 414.525C267.363 414.233 267.74 414.088 268.203 414.088C268.665 414.088 269.034 414.233 269.308 414.525C269.6 414.799 269.746 415.168 269.746 415.631C269.746 416.094 269.6 416.471 269.308 416.762C269.034 417.036 268.665 417.174 268.203 417.174ZM269.231 419.642V432.5H267.174V419.642H269.231ZM273.079 432.5V430.931L279.816 423.037L281.436 421.365L279.148 421.417H273.156V419.642H283.725V421.211L276.988 429.106L275.393 430.777L277.888 430.726H283.931V432.5H273.079ZM292.915 432.757C291.698 432.757 290.609 432.491 289.649 431.96C288.706 431.429 287.969 430.666 287.438 429.671C286.906 428.66 286.64 427.46 286.64 426.071C286.64 424.683 286.906 423.491 287.438 422.497C287.969 421.485 288.698 420.714 289.623 420.182C290.549 419.651 291.603 419.385 292.786 419.385C293.986 419.385 295.006 419.642 295.847 420.157C296.704 420.671 297.355 421.374 297.801 422.265C298.247 423.14 298.47 424.125 298.47 425.223C298.47 425.514 298.461 425.78 298.444 426.02C298.427 426.26 298.401 426.474 298.367 426.663H287.978V424.837H297.467L296.412 425.043C296.412 423.808 296.069 422.857 295.384 422.188C294.715 421.519 293.832 421.185 292.735 421.185C291.895 421.185 291.166 421.382 290.549 421.777C289.949 422.154 289.478 422.711 289.135 423.448C288.809 424.168 288.646 425.043 288.646 426.071C288.646 427.083 288.818 427.957 289.161 428.694C289.503 429.431 289.983 429.997 290.601 430.391C291.235 430.768 291.989 430.957 292.864 430.957C293.806 430.957 294.569 430.777 295.152 430.417C295.752 430.057 296.232 429.568 296.592 428.951L298.212 429.903C297.887 430.486 297.467 430.991 296.952 431.42C296.455 431.849 295.864 432.183 295.178 432.423C294.509 432.646 293.755 432.757 292.915 432.757ZM318.655 424.194C318.655 423.234 318.398 422.497 317.884 421.982C317.37 421.451 316.641 421.185 315.698 421.185C314.807 421.185 314.052 421.382 313.435 421.777C312.818 422.154 312.364 422.771 312.072 423.628L310.401 422.6C310.744 421.64 311.378 420.868 312.304 420.285C313.229 419.685 314.378 419.385 315.749 419.385C316.675 419.385 317.515 419.548 318.27 419.874C319.024 420.182 319.615 420.662 320.044 421.314C320.49 421.948 320.713 422.771 320.713 423.782V430.006C320.713 430.623 321.038 430.931 321.69 430.931C322.015 430.931 322.333 430.888 322.641 430.803L322.538 432.423C322.195 432.594 321.75 432.68 321.201 432.68C320.704 432.68 320.258 432.586 319.864 432.397C319.47 432.209 319.161 431.926 318.938 431.549C318.715 431.154 318.604 430.666 318.604 430.083V429.826L319.118 429.903C318.912 430.571 318.561 431.12 318.064 431.549C317.567 431.96 317.01 432.269 316.392 432.474C315.775 432.663 315.167 432.757 314.567 432.757C313.812 432.757 313.109 432.629 312.458 432.371C311.806 432.114 311.284 431.729 310.889 431.214C310.512 430.683 310.324 430.031 310.324 429.26C310.324 428.3 310.641 427.511 311.275 426.894C311.926 426.26 312.826 425.831 313.975 425.608L319.067 424.605V426.303L314.927 427.151C314.087 427.323 313.461 427.563 313.049 427.871C312.638 428.18 312.432 428.608 312.432 429.157C312.432 429.688 312.638 430.126 313.049 430.468C313.478 430.794 314.078 430.957 314.849 430.957C315.347 430.957 315.818 430.897 316.264 430.777C316.727 430.64 317.138 430.443 317.498 430.186C317.858 429.911 318.141 429.577 318.347 429.183C318.552 428.771 318.655 428.291 318.655 427.743V424.194ZM325.712 432.5V419.642H327.512L327.692 422.522L327.358 422.24C327.632 421.554 328 421.005 328.463 420.594C328.926 420.165 329.458 419.857 330.058 419.668C330.675 419.479 331.309 419.385 331.961 419.385C332.886 419.385 333.726 419.565 334.481 419.925C335.235 420.268 335.835 420.799 336.281 421.519C336.744 422.24 336.975 423.157 336.975 424.271V432.5H334.918V424.991C334.918 423.568 334.609 422.582 333.992 422.034C333.392 421.468 332.646 421.185 331.755 421.185C331.138 421.185 330.521 421.331 329.903 421.622C329.286 421.914 328.772 422.385 328.361 423.037C327.966 423.688 327.769 424.562 327.769 425.66V432.5H325.712ZM346.648 432.757C345.585 432.757 344.608 432.491 343.716 431.96C342.825 431.429 342.113 430.666 341.582 429.671C341.05 428.66 340.785 427.46 340.785 426.071C340.785 424.648 341.068 423.44 341.633 422.445C342.199 421.451 342.945 420.697 343.871 420.182C344.796 419.651 345.791 419.385 346.854 419.385C347.916 419.385 348.834 419.659 349.605 420.208C350.394 420.757 350.917 421.485 351.174 422.394L350.917 422.574V413.728H352.974V432.5H351.174L350.994 429.388L351.277 429.234C351.157 429.988 350.865 430.631 350.402 431.163C349.957 431.677 349.399 432.071 348.731 432.346C348.079 432.62 347.385 432.757 346.648 432.757ZM346.854 430.957C347.676 430.957 348.388 430.751 348.988 430.34C349.605 429.928 350.077 429.346 350.402 428.591C350.745 427.82 350.917 426.92 350.917 425.891C350.917 424.914 350.745 424.074 350.402 423.371C350.077 422.668 349.614 422.128 349.014 421.751C348.431 421.374 347.745 421.185 346.956 421.185C345.653 421.185 344.642 421.631 343.922 422.522C343.202 423.414 342.842 424.597 342.842 426.071C342.842 427.545 343.193 428.728 343.896 429.62C344.599 430.511 345.585 430.957 346.854 430.957ZM366.52 432.5V419.642H368.32L368.449 421.648C368.912 420.859 369.512 420.285 370.249 419.925C371.003 419.565 371.775 419.385 372.563 419.385C373.472 419.385 374.329 419.591 375.135 420.002C375.94 420.414 376.558 421.048 376.986 421.905C377.261 421.322 377.646 420.851 378.143 420.491C378.641 420.114 379.181 419.839 379.764 419.668C380.364 419.479 380.929 419.385 381.461 419.385C382.284 419.385 383.064 419.557 383.801 419.899C384.555 420.242 385.172 420.774 385.652 421.494C386.132 422.214 386.372 423.14 386.372 424.271V432.5H384.315V424.477C384.315 423.311 384.024 422.471 383.441 421.957C382.858 421.442 382.138 421.185 381.281 421.185C380.612 421.185 379.986 421.348 379.403 421.674C378.821 422 378.349 422.48 377.989 423.114C377.646 423.748 377.475 424.528 377.475 425.454V432.5H375.418V424.477C375.418 423.311 375.126 422.471 374.543 421.957C373.96 421.442 373.24 421.185 372.383 421.185C371.817 421.185 371.235 421.339 370.635 421.648C370.052 421.94 369.563 422.411 369.169 423.062C368.774 423.714 368.577 424.571 368.577 425.634V432.5H366.52ZM396.353 419.385C397.57 419.385 398.642 419.651 399.568 420.182C400.511 420.714 401.248 421.485 401.779 422.497C402.311 423.491 402.576 424.683 402.576 426.071C402.576 427.46 402.311 428.66 401.779 429.671C401.248 430.666 400.511 431.429 399.568 431.96C398.642 432.491 397.57 432.757 396.353 432.757C395.153 432.757 394.082 432.491 393.139 431.96C392.196 431.429 391.459 430.666 390.927 429.671C390.396 428.66 390.13 427.46 390.13 426.071C390.13 424.683 390.396 423.491 390.927 422.497C391.459 421.485 392.196 420.714 393.139 420.182C394.082 419.651 395.153 419.385 396.353 419.385ZM396.353 421.159C395.479 421.159 394.733 421.357 394.116 421.751C393.499 422.145 393.019 422.711 392.676 423.448C392.35 424.168 392.187 425.043 392.187 426.071C392.187 427.083 392.35 427.957 392.676 428.694C393.019 429.431 393.499 429.997 394.116 430.391C394.733 430.786 395.479 430.983 396.353 430.983C397.228 430.983 397.973 430.786 398.59 430.391C399.208 429.997 399.679 429.431 400.005 428.694C400.348 427.957 400.519 427.083 400.519 426.071C400.519 425.043 400.348 424.168 400.005 423.448C399.679 422.711 399.208 422.145 398.59 421.751C397.973 421.357 397.228 421.159 396.353 421.159ZM406.449 432.5V419.642H408.249L408.429 422.522L408.095 422.24C408.369 421.554 408.738 421.005 409.201 420.594C409.664 420.165 410.195 419.857 410.795 419.668C411.412 419.479 412.047 419.385 412.698 419.385C413.624 419.385 414.464 419.565 415.218 419.925C415.973 420.268 416.573 420.799 417.018 421.519C417.481 422.24 417.713 423.157 417.713 424.271V432.5H415.655V424.991C415.655 423.568 415.347 422.582 414.73 422.034C414.13 421.468 413.384 421.185 412.492 421.185C411.875 421.185 411.258 421.331 410.641 421.622C410.024 421.914 409.509 422.385 409.098 423.037C408.704 423.688 408.507 424.562 408.507 425.66V432.5H406.449ZM423.399 417.174C422.937 417.174 422.559 417.036 422.268 416.762C421.994 416.471 421.856 416.094 421.856 415.631C421.856 415.168 421.994 414.799 422.268 414.525C422.559 414.233 422.937 414.088 423.399 414.088C423.862 414.088 424.231 414.233 424.505 414.525C424.797 414.799 424.942 415.168 424.942 415.631C424.942 416.094 424.797 416.471 424.505 416.762C424.231 417.036 423.862 417.174 423.399 417.174ZM424.428 419.642V432.5H422.371V419.642H424.428ZM432.236 415.991V428.951C432.236 429.586 432.416 430.057 432.776 430.366C433.136 430.674 433.599 430.828 434.165 430.828C434.662 430.828 435.09 430.743 435.45 430.571C435.81 430.4 436.136 430.168 436.428 429.877L437.148 431.6C436.753 431.96 436.282 432.243 435.733 432.449C435.202 432.654 434.585 432.757 433.882 432.757C433.23 432.757 432.622 432.646 432.056 432.423C431.49 432.183 431.036 431.814 430.693 431.317C430.367 430.803 430.196 430.134 430.179 429.311V416.556L432.236 415.991ZM436.916 419.642V421.417H427.607V419.642H436.916ZM445.298 419.385C446.515 419.385 447.587 419.651 448.512 420.182C449.455 420.714 450.192 421.485 450.724 422.497C451.255 423.491 451.521 424.683 451.521 426.071C451.521 427.46 451.255 428.66 450.724 429.671C450.192 430.666 449.455 431.429 448.512 431.96C447.587 432.491 446.515 432.757 445.298 432.757C444.098 432.757 443.026 432.491 442.084 431.96C441.141 431.429 440.403 430.666 439.872 429.671C439.341 428.66 439.075 427.46 439.075 426.071C439.075 424.683 439.341 423.491 439.872 422.497C440.403 421.485 441.141 420.714 442.084 420.182C443.026 419.651 444.098 419.385 445.298 419.385ZM445.298 421.159C444.424 421.159 443.678 421.357 443.061 421.751C442.444 422.145 441.964 422.711 441.621 423.448C441.295 424.168 441.132 425.043 441.132 426.071C441.132 427.083 441.295 427.957 441.621 428.694C441.964 429.431 442.444 429.997 443.061 430.391C443.678 430.786 444.424 430.983 445.298 430.983C446.172 430.983 446.918 430.786 447.535 430.391C448.152 429.997 448.624 429.431 448.95 428.694C449.292 427.957 449.464 427.083 449.464 426.071C449.464 425.043 449.292 424.168 448.95 423.448C448.624 422.711 448.152 422.145 447.535 421.751C446.918 421.357 446.172 421.159 445.298 421.159ZM455.394 432.5V419.642H457.066L457.348 421.751C457.708 420.962 458.231 420.371 458.917 419.977C459.62 419.582 460.469 419.385 461.463 419.385C461.686 419.385 461.926 419.402 462.183 419.437C462.457 419.471 462.689 419.539 462.877 419.642L462.517 421.519C462.329 421.451 462.123 421.399 461.9 421.365C461.677 421.331 461.36 421.314 460.949 421.314C460.417 421.314 459.877 421.468 459.329 421.777C458.797 422.085 458.351 422.557 457.991 423.191C457.631 423.808 457.451 424.597 457.451 425.557V432.5H455.394ZM476.585 415.991V428.951C476.585 429.586 476.765 430.057 477.125 430.366C477.485 430.674 477.948 430.828 478.514 430.828C479.011 430.828 479.439 430.743 479.799 430.571C480.159 430.4 480.485 430.168 480.777 429.877L481.497 431.6C481.102 431.96 480.631 432.243 480.082 432.449C479.551 432.654 478.934 432.757 478.231 432.757C477.579 432.757 476.971 432.646 476.405 432.423C475.839 432.183 475.385 431.814 475.042 431.317C474.716 430.803 474.545 430.134 474.528 429.311V416.556L476.585 415.991ZM481.265 419.642V421.417H471.956V419.642H481.265ZM484.324 432.5V413.728H486.381V421.571C486.827 420.799 487.418 420.242 488.156 419.899C488.893 419.557 489.699 419.385 490.573 419.385C491.499 419.385 492.339 419.565 493.093 419.925C493.847 420.268 494.447 420.799 494.893 421.519C495.356 422.24 495.587 423.157 495.587 424.271V432.5H493.53V424.991C493.53 423.568 493.222 422.582 492.604 422.034C492.004 421.468 491.259 421.185 490.367 421.185C489.75 421.185 489.133 421.331 488.516 421.622C487.898 421.914 487.384 422.394 486.973 423.062C486.578 423.714 486.381 424.588 486.381 425.685V432.5H484.324ZM505.62 432.757C504.403 432.757 503.314 432.491 502.354 431.96C501.411 431.429 500.674 430.666 500.143 429.671C499.611 428.66 499.345 427.46 499.345 426.071C499.345 424.683 499.611 423.491 500.143 422.497C500.674 421.485 501.403 420.714 502.328 420.182C503.254 419.651 504.308 419.385 505.491 419.385C506.691 419.385 507.712 419.642 508.552 420.157C509.409 420.671 510.06 421.374 510.506 422.265C510.952 423.14 511.175 424.125 511.175 425.223C511.175 425.514 511.166 425.78 511.149 426.02C511.132 426.26 511.106 426.474 511.072 426.663H500.683V424.837H510.172L509.117 425.043C509.117 423.808 508.774 422.857 508.089 422.188C507.42 421.519 506.537 421.185 505.44 421.185C504.6 421.185 503.871 421.382 503.254 421.777C502.654 422.154 502.183 422.711 501.84 423.448C501.514 424.168 501.351 425.043 501.351 426.071C501.351 427.083 501.523 427.957 501.866 428.694C502.208 429.431 502.688 429.997 503.306 430.391C503.94 430.768 504.694 430.957 505.569 430.957C506.511 430.957 507.274 430.777 507.857 430.417C508.457 430.057 508.937 429.568 509.297 428.951L510.917 429.903C510.592 430.486 510.172 430.991 509.657 431.42C509.16 431.849 508.569 432.183 507.883 432.423C507.214 432.646 506.46 432.757 505.62 432.757ZM516.116 417.174C515.653 417.174 515.276 417.036 514.984 416.762C514.71 416.471 514.573 416.094 514.573 415.631C514.573 415.168 514.71 414.799 514.984 414.525C515.276 414.233 515.653 414.088 516.116 414.088C516.579 414.088 516.947 414.233 517.221 414.525C517.513 414.799 517.659 415.168 517.659 415.631C517.659 416.094 517.513 416.471 517.221 416.762C516.947 417.036 516.579 417.174 516.116 417.174ZM517.144 419.642V432.5H515.087V419.642H517.144ZM521.918 432.5V419.642H523.589L523.872 421.751C524.232 420.962 524.755 420.371 525.441 419.977C526.144 419.582 526.992 419.385 527.987 419.385C528.209 419.385 528.449 419.402 528.707 419.437C528.981 419.471 529.212 419.539 529.401 419.642L529.041 421.519C528.852 421.451 528.647 421.399 528.424 421.365C528.201 421.331 527.884 421.314 527.472 421.314C526.941 421.314 526.401 421.468 525.852 421.777C525.321 422.085 524.875 422.557 524.515 423.191C524.155 423.808 523.975 424.597 523.975 425.557V432.5H521.918ZM545.951 432.757C544.734 432.757 543.645 432.491 542.685 431.96C541.742 431.429 541.005 430.666 540.474 429.671C539.942 428.66 539.676 427.46 539.676 426.071C539.676 424.683 539.942 423.491 540.474 422.497C541.005 421.485 541.734 420.714 542.659 420.182C543.585 419.651 544.64 419.385 545.822 419.385C547.023 419.385 548.043 419.642 548.883 420.157C549.74 420.671 550.391 421.374 550.837 422.265C551.283 423.14 551.506 424.125 551.506 425.223C551.506 425.514 551.497 425.78 551.48 426.02C551.463 426.26 551.437 426.474 551.403 426.663H541.014V424.837H550.503L549.448 425.043C549.448 423.808 549.105 422.857 548.42 422.188C547.751 421.519 546.868 421.185 545.771 421.185C544.931 421.185 544.202 421.382 543.585 421.777C542.985 422.154 542.514 422.711 542.171 423.448C541.845 424.168 541.682 425.043 541.682 426.071C541.682 427.083 541.854 427.957 542.197 428.694C542.539 429.431 543.02 429.997 543.637 430.391C544.271 430.768 545.025 430.957 545.9 430.957C546.843 430.957 547.605 430.777 548.188 430.417C548.788 430.057 549.268 429.568 549.628 428.951L551.248 429.903C550.923 430.486 550.503 430.991 549.988 431.42C549.491 431.849 548.9 432.183 548.214 432.423C547.545 432.646 546.791 432.757 545.951 432.757ZM556.175 419.642L560.007 425.017L560.136 425.197L565.407 432.5H562.887L558.901 426.92L558.67 426.637L553.604 419.642H556.175ZM565.33 419.642L560.238 426.508H560.11L555.687 432.5H553.295L558.901 425.12H559.055L562.913 419.642H565.33ZM568.653 437.9V419.642H570.453L570.633 422.78L570.35 422.42C570.573 421.82 570.907 421.297 571.353 420.851C571.798 420.388 572.338 420.028 572.973 419.771C573.607 419.514 574.293 419.385 575.03 419.385C576.076 419.385 577.036 419.651 577.91 420.182C578.802 420.714 579.513 421.477 580.045 422.471C580.576 423.465 580.842 424.665 580.842 426.071C580.842 427.46 580.567 428.66 580.019 429.671C579.487 430.666 578.776 431.429 577.884 431.96C576.993 432.491 576.016 432.757 574.953 432.757C573.89 432.757 572.956 432.5 572.15 431.986C571.361 431.454 570.796 430.786 570.453 429.98L570.71 429.594V437.9H568.653ZM574.747 430.957C576.016 430.957 577.002 430.511 577.704 429.62C578.424 428.728 578.784 427.545 578.784 426.071C578.784 424.597 578.433 423.414 577.73 422.522C577.044 421.631 576.076 421.185 574.824 421.185C574.001 421.185 573.281 421.391 572.664 421.802C572.047 422.197 571.567 422.762 571.224 423.5C570.881 424.22 570.71 425.077 570.71 426.071C570.71 427.048 570.873 427.906 571.198 428.643C571.541 429.38 572.013 429.954 572.613 430.366C573.23 430.76 573.941 430.957 574.747 430.957ZM590.149 432.757C588.932 432.757 587.844 432.491 586.884 431.96C585.941 431.429 585.204 430.666 584.672 429.671C584.141 428.66 583.875 427.46 583.875 426.071C583.875 424.683 584.141 423.491 584.672 422.497C585.204 421.485 585.932 420.714 586.858 420.182C587.784 419.651 588.838 419.385 590.021 419.385C591.221 419.385 592.241 419.642 593.081 420.157C593.938 420.671 594.59 421.374 595.035 422.265C595.481 423.14 595.704 424.125 595.704 425.223C595.704 425.514 595.695 425.78 595.678 426.02C595.661 426.26 595.635 426.474 595.601 426.663H585.212V424.837H594.701L593.647 425.043C593.647 423.808 593.304 422.857 592.618 422.188C591.95 421.519 591.067 421.185 589.969 421.185C589.129 421.185 588.401 421.382 587.784 421.777C587.184 422.154 586.712 422.711 586.369 423.448C586.044 424.168 585.881 425.043 585.881 426.071C585.881 427.083 586.052 427.957 586.395 428.694C586.738 429.431 587.218 429.997 587.835 430.391C588.469 430.768 589.224 430.957 590.098 430.957C591.041 430.957 591.804 430.777 592.387 430.417C592.987 430.057 593.467 429.568 593.827 428.951L595.447 429.903C595.121 430.486 594.701 430.991 594.187 431.42C593.69 431.849 593.098 432.183 592.412 432.423C591.744 432.646 590.99 432.757 590.149 432.757ZM599.617 432.5V419.642H601.417L601.597 422.522L601.262 422.24C601.537 421.554 601.905 421.005 602.368 420.594C602.831 420.165 603.362 419.857 603.962 419.668C604.58 419.479 605.214 419.385 605.865 419.385C606.791 419.385 607.631 419.565 608.386 419.925C609.14 420.268 609.74 420.799 610.186 421.519C610.649 422.24 610.88 423.157 610.88 424.271V432.5H608.823V424.991C608.823 423.568 608.514 422.582 607.897 422.034C607.297 421.468 606.551 421.185 605.66 421.185C605.043 421.185 604.425 421.331 603.808 421.622C603.191 421.914 602.677 422.385 602.265 423.037C601.871 423.688 601.674 424.562 601.674 425.66V432.5H599.617ZM620.167 432.757C618.915 432.757 617.758 432.491 616.695 431.96C615.65 431.429 614.844 430.674 614.278 429.697L616.027 428.437C616.404 429.226 616.952 429.843 617.672 430.288C618.41 430.734 619.293 430.957 620.321 430.957C621.23 430.957 621.941 430.786 622.456 430.443C622.97 430.083 623.227 429.62 623.227 429.054C623.227 428.694 623.107 428.368 622.867 428.077C622.644 427.768 622.207 427.545 621.556 427.408L618.47 426.765C617.218 426.508 616.318 426.08 615.77 425.48C615.238 424.88 614.972 424.134 614.972 423.242C614.972 422.54 615.169 421.897 615.564 421.314C615.975 420.731 616.55 420.268 617.287 419.925C618.041 419.565 618.924 419.385 619.935 419.385C621.204 419.385 622.276 419.634 623.15 420.131C624.024 420.628 624.676 421.331 625.104 422.24L623.381 423.371C623.09 422.617 622.618 422.068 621.967 421.725C621.315 421.365 620.638 421.185 619.935 421.185C619.318 421.185 618.787 421.271 618.341 421.442C617.912 421.614 617.578 421.854 617.338 422.162C617.115 422.454 617.004 422.788 617.004 423.165C617.004 423.542 617.132 423.894 617.39 424.22C617.647 424.528 618.127 424.751 618.83 424.888L622.044 425.557C623.244 425.797 624.084 426.191 624.564 426.74C625.044 427.288 625.284 427.957 625.284 428.746C625.284 429.551 625.07 430.263 624.641 430.88C624.213 431.48 623.613 431.943 622.841 432.269C622.07 432.594 621.178 432.757 620.167 432.757ZM634.474 432.757C633.256 432.757 632.168 432.491 631.208 431.96C630.265 431.429 629.528 430.666 628.996 429.671C628.465 428.66 628.199 427.46 628.199 426.071C628.199 424.683 628.465 423.491 628.996 422.497C629.528 421.485 630.256 420.714 631.182 420.182C632.108 419.651 633.162 419.385 634.345 419.385C635.545 419.385 636.565 419.642 637.405 420.157C638.262 420.671 638.914 421.374 639.359 422.265C639.805 423.14 640.028 424.125 640.028 425.223C640.028 425.514 640.019 425.78 640.002 426.02C639.985 426.26 639.959 426.474 639.925 426.663H629.536V424.837H639.025L637.971 425.043C637.971 423.808 637.628 422.857 636.942 422.188C636.274 421.519 635.391 421.185 634.294 421.185C633.453 421.185 632.725 421.382 632.108 421.777C631.508 422.154 631.036 422.711 630.693 423.448C630.368 424.168 630.205 425.043 630.205 426.071C630.205 427.083 630.376 427.957 630.719 428.694C631.062 429.431 631.542 429.997 632.159 430.391C632.793 430.768 633.548 430.957 634.422 430.957C635.365 430.957 636.128 430.777 636.711 430.417C637.311 430.057 637.791 429.568 638.151 428.951L639.771 429.903C639.445 430.486 639.025 430.991 638.511 431.42C638.014 431.849 637.422 432.183 636.736 432.423C636.068 432.646 635.314 432.757 634.474 432.757ZM648.569 432.757C647.318 432.757 646.161 432.491 645.098 431.96C644.052 431.429 643.246 430.674 642.681 429.697L644.429 428.437C644.806 429.226 645.355 429.843 646.075 430.288C646.812 430.734 647.695 430.957 648.724 430.957C649.632 430.957 650.344 430.786 650.858 430.443C651.372 430.083 651.63 429.62 651.63 429.054C651.63 428.694 651.51 428.368 651.27 428.077C651.047 427.768 650.609 427.545 649.958 427.408L646.872 426.765C645.621 426.508 644.721 426.08 644.172 425.48C643.641 424.88 643.375 424.134 643.375 423.242C643.375 422.54 643.572 421.897 643.966 421.314C644.378 420.731 644.952 420.268 645.689 419.925C646.444 419.565 647.326 419.385 648.338 419.385C649.607 419.385 650.678 419.634 651.552 420.131C652.427 420.628 653.078 421.331 653.507 422.24L651.784 423.371C651.492 422.617 651.021 422.068 650.369 421.725C649.718 421.365 649.041 421.185 648.338 421.185C647.721 421.185 647.189 421.271 646.744 421.442C646.315 421.614 645.981 421.854 645.741 422.162C645.518 422.454 645.406 422.788 645.406 423.165C645.406 423.542 645.535 423.894 645.792 424.22C646.049 424.528 646.529 424.751 647.232 424.888L650.447 425.557C651.647 425.797 652.487 426.191 652.967 426.74C653.447 427.288 653.687 427.957 653.687 428.746C653.687 429.551 653.472 430.263 653.044 430.88C652.615 431.48 652.015 431.943 651.244 432.269C650.472 432.594 649.581 432.757 648.569 432.757ZM658.53 429.414C659.027 429.414 659.43 429.568 659.739 429.877C660.047 430.186 660.202 430.588 660.202 431.086C660.202 431.583 660.047 431.986 659.739 432.294C659.43 432.603 659.027 432.757 658.53 432.757C658.033 432.757 657.63 432.603 657.322 432.294C657.013 431.986 656.859 431.583 656.859 431.086C656.859 430.588 657.013 430.186 657.322 429.877C657.63 429.568 658.033 429.414 658.53 429.414Z" fill="#434343"/>
</g>
</svg>
