<svg width="584" height="382" viewBox="0 0 584 382" fill="none" xmlns="http://www.w3.org/2000/svg">
<rect x="228.101" y="8.5" width="338.519" height="348.147" rx="20.5" fill="white" stroke="black"/>
<path d="M228.601 29C228.601 17.9543 237.555 9 248.601 9H546.399C557.444 9 566.399 17.9543 566.399 29V39.3466H228.601V29Z" fill="#F7F7F2"/>
<path d="M228.601 39.3477H566.399" stroke="black"/>
<rect x="0.5" y="64.5" width="495" height="93" rx="46.5" fill="white" stroke="black"/>
<path d="M40.324 102.275H49.018V104H38.484V88.82H40.324V102.275ZM56.3552 104.23C55.2665 104.23 54.2928 103.992 53.4342 103.517C52.5908 103.042 51.9315 102.359 51.4562 101.47C50.9808 100.565 50.7432 99.492 50.7432 98.25C50.7432 97.008 50.9808 95.9423 51.4562 95.053C51.9315 94.1483 52.5832 93.4583 53.4112 92.983C54.2392 92.5077 55.1822 92.27 56.2402 92.27C57.3135 92.27 58.2258 92.5 58.9772 92.96C59.7438 93.42 60.3265 94.0487 60.7252 94.846C61.1238 95.628 61.3232 96.5097 61.3232 97.491C61.3232 97.7517 61.3155 97.9893 61.3002 98.204C61.2848 98.4187 61.2618 98.6103 61.2312 98.779H51.9392V97.146H60.4262L59.4832 97.33C59.4832 96.226 59.1765 95.375 58.5632 94.777C57.9652 94.179 57.1755 93.88 56.1942 93.88C55.4428 93.88 54.7912 94.0563 54.2392 94.409C53.7025 94.7463 53.2808 95.2447 52.9742 95.904C52.6828 96.548 52.5372 97.33 52.5372 98.25C52.5372 99.1547 52.6905 99.9367 52.9972 100.596C53.3038 101.255 53.7332 101.761 54.2852 102.114C54.8525 102.451 55.5272 102.62 56.3092 102.62C57.1525 102.62 57.8348 102.459 58.3562 102.137C58.8928 101.815 59.3222 101.378 59.6442 100.826L61.0932 101.677C60.8018 102.198 60.4262 102.651 59.9662 103.034C59.5215 103.417 58.9925 103.716 58.3792 103.931C57.7812 104.13 57.1065 104.23 56.3552 104.23ZM67.1997 89.234V100.826C67.1997 101.393 67.3607 101.815 67.6827 102.091C68.0047 102.367 68.4187 102.505 68.9247 102.505C69.3693 102.505 69.7527 102.428 70.0747 102.275C70.3967 102.122 70.688 101.915 70.9487 101.654L71.5927 103.195C71.24 103.517 70.8183 103.77 70.3277 103.954C69.8523 104.138 69.3003 104.23 68.6717 104.23C68.089 104.23 67.5447 104.13 67.0387 103.931C66.5327 103.716 66.1263 103.387 65.8197 102.942C65.5283 102.482 65.375 101.884 65.3597 101.148V89.74L67.1997 89.234ZM71.3857 92.5V94.087H63.0597V92.5H71.3857ZM74.9954 87.9C75.3634 87.9 75.6701 87.9997 75.9154 88.199C76.1761 88.383 76.3754 88.6437 76.5134 88.981C76.6514 89.303 76.7204 89.6863 76.7204 90.131C76.7204 90.637 76.6284 91.1353 76.4444 91.626C76.2758 92.1167 76.0074 92.569 75.6394 92.983C75.2714 93.397 74.7961 93.742 74.2134 94.018L73.2474 93.121C73.6614 92.983 74.0218 92.7913 74.3284 92.546C74.6504 92.3007 74.9111 92.0247 75.1104 91.718C75.3098 91.4113 75.4401 91.097 75.5014 90.775L75.4094 90.729C75.3481 90.775 75.2714 90.8133 75.1794 90.844C75.0874 90.8747 74.9494 90.89 74.7654 90.89C74.5814 90.89 74.3898 90.8363 74.1904 90.729C74.0064 90.6217 73.8454 90.4683 73.7074 90.269C73.5694 90.0543 73.5004 89.7783 73.5004 89.441C73.5004 89.165 73.5694 88.912 73.7074 88.682C73.8454 88.4367 74.0218 88.245 74.2364 88.107C74.4664 87.969 74.7194 87.9 74.9954 87.9ZM83.0456 104.23C81.9263 104.23 80.8913 103.992 79.9406 103.517C79.0053 103.042 78.2846 102.367 77.7786 101.493L79.3426 100.366C79.6799 101.071 80.1706 101.623 80.8146 102.022C81.4739 102.421 82.2636 102.62 83.1836 102.62C83.9963 102.62 84.6326 102.467 85.0926 102.16C85.5526 101.838 85.7826 101.424 85.7826 100.918C85.7826 100.596 85.6753 100.305 85.4606 100.044C85.2613 99.768 84.8703 99.5687 84.2876 99.446L81.5276 98.871C80.4083 98.641 79.6033 98.2577 79.1126 97.721C78.6373 97.1843 78.3996 96.5173 78.3996 95.72C78.3996 95.0913 78.5759 94.5163 78.9286 93.995C79.2966 93.4737 79.8103 93.0597 80.4696 92.753C81.1443 92.431 81.9339 92.27 82.8386 92.27C83.9733 92.27 84.9316 92.4923 85.7136 92.937C86.4956 93.3817 87.0783 94.0103 87.4616 94.823L85.9206 95.835C85.6599 95.1603 85.2383 94.6697 84.6556 94.363C84.0729 94.041 83.4673 93.88 82.8386 93.88C82.2866 93.88 81.8113 93.9567 81.4126 94.11C81.0293 94.2633 80.7303 94.478 80.5156 94.754C80.3163 95.0147 80.2166 95.3137 80.2166 95.651C80.2166 95.9883 80.3316 96.3027 80.5616 96.594C80.7916 96.87 81.2209 97.0693 81.8496 97.192L84.7246 97.79C85.7979 98.0047 86.5493 98.3573 86.9786 98.848C87.4079 99.3387 87.6226 99.9367 87.6226 100.642C87.6226 101.363 87.4309 101.999 87.0476 102.551C86.6643 103.088 86.1276 103.502 85.4376 103.793C84.7476 104.084 83.9503 104.23 83.0456 104.23ZM98.8734 104V92.5H100.483L100.598 94.294C101.012 93.5887 101.549 93.075 102.208 92.753C102.883 92.431 103.573 92.27 104.278 92.27C105.091 92.27 105.858 92.454 106.578 92.822C107.299 93.19 107.851 93.7573 108.234 94.524C108.48 94.0027 108.825 93.581 109.269 93.259C109.714 92.9217 110.197 92.6763 110.718 92.523C111.255 92.3543 111.761 92.27 112.236 92.27C112.972 92.27 113.67 92.4233 114.329 92.73C115.004 93.0367 115.556 93.512 115.985 94.156C116.415 94.8 116.629 95.628 116.629 96.64V104H114.789V96.824C114.789 95.7813 114.529 95.03 114.007 94.57C113.486 94.11 112.842 93.88 112.075 93.88C111.477 93.88 110.918 94.0257 110.396 94.317C109.875 94.6083 109.453 95.0377 109.131 95.605C108.825 96.1723 108.671 96.87 108.671 97.698V104H106.831V96.824C106.831 95.7813 106.571 95.03 106.049 94.57C105.528 94.11 104.884 93.88 104.117 93.88C103.611 93.88 103.09 94.018 102.553 94.294C102.032 94.5547 101.595 94.9763 101.242 95.559C100.89 96.1417 100.713 96.9083 100.713 97.859V104H98.8734ZM127.511 96.571C127.511 95.7123 127.281 95.053 126.821 94.593C126.361 94.1177 125.71 93.88 124.866 93.88C124.069 93.88 123.394 94.0563 122.842 94.409C122.29 94.7463 121.884 95.2983 121.623 96.065L120.128 95.145C120.435 94.2863 121.002 93.5963 121.83 93.075C122.658 92.5383 123.686 92.27 124.912 92.27C125.74 92.27 126.492 92.4157 127.166 92.707C127.841 92.983 128.37 93.4123 128.753 93.995C129.152 94.5623 129.351 95.2983 129.351 96.203V101.769C129.351 102.321 129.643 102.597 130.225 102.597C130.517 102.597 130.8 102.559 131.076 102.482L130.984 103.931C130.678 104.084 130.279 104.161 129.788 104.161C129.344 104.161 128.945 104.077 128.592 103.908C128.24 103.739 127.964 103.486 127.764 103.149C127.565 102.796 127.465 102.359 127.465 101.838V101.608L127.925 101.677C127.741 102.275 127.427 102.766 126.982 103.149C126.538 103.517 126.039 103.793 125.487 103.977C124.935 104.146 124.391 104.23 123.854 104.23C123.18 104.23 122.551 104.115 121.968 103.885C121.386 103.655 120.918 103.31 120.565 102.85C120.228 102.375 120.059 101.792 120.059 101.102C120.059 100.243 120.343 99.538 120.91 98.986C121.493 98.4187 122.298 98.0353 123.325 97.836L127.879 96.939V98.457L124.176 99.216C123.425 99.3693 122.865 99.584 122.497 99.86C122.129 100.136 121.945 100.519 121.945 101.01C121.945 101.485 122.129 101.876 122.497 102.183C122.881 102.474 123.417 102.62 124.107 102.62C124.552 102.62 124.974 102.566 125.372 102.459C125.786 102.336 126.154 102.16 126.476 101.93C126.798 101.685 127.051 101.386 127.235 101.033C127.419 100.665 127.511 100.236 127.511 99.745V96.571ZM143.92 92.5L138.952 97.468L138.515 97.905L134.743 101.677V99.377L141.597 92.5H143.92ZM135.663 87.21V104H133.823V87.21H135.663ZM139.113 96.525L144.196 104H141.965L137.572 97.56L139.113 96.525ZM151.275 104.23C150.186 104.23 149.213 103.992 148.354 103.517C147.511 103.042 146.851 102.359 146.376 101.47C145.901 100.565 145.663 99.492 145.663 98.25C145.663 97.008 145.901 95.9423 146.376 95.053C146.851 94.1483 147.503 93.4583 148.331 92.983C149.159 92.5077 150.102 92.27 151.16 92.27C152.233 92.27 153.146 92.5 153.897 92.96C154.664 93.42 155.246 94.0487 155.645 94.846C156.044 95.628 156.243 96.5097 156.243 97.491C156.243 97.7517 156.235 97.9893 156.22 98.204C156.205 98.4187 156.182 98.6103 156.151 98.779H146.859V97.146H155.346L154.403 97.33C154.403 96.226 154.096 95.375 153.483 94.777C152.885 94.179 152.095 93.88 151.114 93.88C150.363 93.88 149.711 94.0563 149.159 94.409C148.622 94.7463 148.201 95.2447 147.894 95.904C147.603 96.548 147.457 97.33 147.457 98.25C147.457 99.1547 147.61 99.9367 147.917 100.596C148.224 101.255 148.653 101.761 149.205 102.114C149.772 102.451 150.447 102.62 151.229 102.62C152.072 102.62 152.755 102.459 153.276 102.137C153.813 101.815 154.242 101.378 154.564 100.826L156.013 101.677C155.722 102.198 155.346 102.651 154.886 103.034C154.441 103.417 153.912 103.716 153.299 103.931C152.701 104.13 152.026 104.23 151.275 104.23ZM168.501 90.292C168.087 90.292 167.75 90.1693 167.489 89.924C167.244 89.6633 167.121 89.326 167.121 88.912C167.121 88.498 167.244 88.1683 167.489 87.923C167.75 87.6623 168.087 87.532 168.501 87.532C168.915 87.532 169.245 87.6623 169.49 87.923C169.751 88.1683 169.881 88.498 169.881 88.912C169.881 89.326 169.751 89.6633 169.49 89.924C169.245 90.1693 168.915 90.292 168.501 90.292ZM169.421 92.5V104H167.581V92.5H169.421ZM176.405 89.234V100.826C176.405 101.393 176.566 101.815 176.888 102.091C177.21 102.367 177.624 102.505 178.13 102.505C178.574 102.505 178.958 102.428 179.28 102.275C179.602 102.122 179.893 101.915 180.154 101.654L180.798 103.195C180.445 103.517 180.023 103.77 179.533 103.954C179.057 104.138 178.505 104.23 177.877 104.23C177.294 104.23 176.75 104.13 176.244 103.931C175.738 103.716 175.331 103.387 175.025 102.942C174.733 102.482 174.58 101.884 174.565 101.148V89.74L176.405 89.234ZM180.591 92.5V94.087H172.265V92.5H180.591ZM197.881 96.571C197.881 95.7123 197.651 95.053 197.191 94.593C196.731 94.1177 196.08 93.88 195.236 93.88C194.439 93.88 193.764 94.0563 193.212 94.409C192.66 94.7463 192.254 95.2983 191.993 96.065L190.498 95.145C190.805 94.2863 191.372 93.5963 192.2 93.075C193.028 92.5383 194.056 92.27 195.282 92.27C196.11 92.27 196.862 92.4157 197.536 92.707C198.211 92.983 198.74 93.4123 199.123 93.995C199.522 94.5623 199.721 95.2983 199.721 96.203V101.769C199.721 102.321 200.013 102.597 200.595 102.597C200.887 102.597 201.17 102.559 201.446 102.482L201.354 103.931C201.048 104.084 200.649 104.161 200.158 104.161C199.714 104.161 199.315 104.077 198.962 103.908C198.61 103.739 198.334 103.486 198.134 103.149C197.935 102.796 197.835 102.359 197.835 101.838V101.608L198.295 101.677C198.111 102.275 197.797 102.766 197.352 103.149C196.908 103.517 196.409 103.793 195.857 103.977C195.305 104.146 194.761 104.23 194.224 104.23C193.55 104.23 192.921 104.115 192.338 103.885C191.756 103.655 191.288 103.31 190.935 102.85C190.598 102.375 190.429 101.792 190.429 101.102C190.429 100.243 190.713 99.538 191.28 98.986C191.863 98.4187 192.668 98.0353 193.695 97.836L198.249 96.939V98.457L194.546 99.216C193.795 99.3693 193.235 99.584 192.867 99.86C192.499 100.136 192.315 100.519 192.315 101.01C192.315 101.485 192.499 101.876 192.867 102.183C193.251 102.474 193.787 102.62 194.477 102.62C194.922 102.62 195.344 102.566 195.742 102.459C196.156 102.336 196.524 102.16 196.846 101.93C197.168 101.685 197.421 101.386 197.605 101.033C197.789 100.665 197.881 100.236 197.881 99.745V96.571ZM215.633 104.23C214.513 104.23 213.478 103.992 212.528 103.517C211.592 103.042 210.872 102.367 210.366 101.493L211.93 100.366C212.267 101.071 212.758 101.623 213.402 102.022C214.061 102.421 214.851 102.62 215.771 102.62C216.583 102.62 217.22 102.467 217.68 102.16C218.14 101.838 218.37 101.424 218.37 100.918C218.37 100.596 218.262 100.305 218.048 100.044C217.848 99.768 217.457 99.5687 216.875 99.446L214.115 98.871C212.995 98.641 212.19 98.2577 211.7 97.721C211.224 97.1843 210.987 96.5173 210.987 95.72C210.987 95.0913 211.163 94.5163 211.516 93.995C211.884 93.4737 212.397 93.0597 213.057 92.753C213.731 92.431 214.521 92.27 215.426 92.27C216.56 92.27 217.519 92.4923 218.301 92.937C219.083 93.3817 219.665 94.0103 220.049 94.823L218.508 95.835C218.247 95.1603 217.825 94.6697 217.243 94.363C216.66 94.041 216.054 93.88 215.426 93.88C214.874 93.88 214.398 93.9567 214 94.11C213.616 94.2633 213.317 94.478 213.103 94.754C212.903 95.0147 212.804 95.3137 212.804 95.651C212.804 95.9883 212.919 96.3027 213.149 96.594C213.379 96.87 213.808 97.0693 214.437 97.192L217.312 97.79C218.385 98.0047 219.136 98.3573 219.566 98.848C219.995 99.3387 220.21 99.9367 220.21 100.642C220.21 101.363 220.018 101.999 219.635 102.551C219.251 103.088 218.715 103.502 218.025 103.793C217.335 104.084 216.537 104.23 215.633 104.23ZM225.369 87.21V101.079C225.369 101.662 225.477 102.068 225.691 102.298C225.906 102.513 226.251 102.62 226.726 102.62C227.033 102.62 227.286 102.597 227.485 102.551C227.685 102.505 227.953 102.421 228.29 102.298L227.991 103.908C227.746 104.015 227.478 104.092 227.186 104.138C226.895 104.199 226.596 104.23 226.289 104.23C225.354 104.23 224.656 103.977 224.196 103.471C223.752 102.965 223.529 102.191 223.529 101.148V87.21H225.369ZM231.572 90.292C231.158 90.292 230.82 90.1693 230.56 89.924C230.314 89.6633 230.192 89.326 230.192 88.912C230.192 88.498 230.314 88.1683 230.56 87.923C230.82 87.6623 231.158 87.532 231.572 87.532C231.986 87.532 232.315 87.6623 232.561 87.923C232.821 88.1683 232.952 88.498 232.952 88.912C232.952 89.326 232.821 89.6633 232.561 89.924C232.315 90.1693 231.986 90.292 231.572 90.292ZM232.492 92.5V104H230.652V92.5H232.492ZM241.246 104.23C240.295 104.23 239.421 103.992 238.624 103.517C237.827 103.042 237.19 102.359 236.715 101.47C236.24 100.565 236.002 99.492 236.002 98.25C236.002 96.9773 236.255 95.8963 236.761 95.007C237.267 94.1177 237.934 93.443 238.762 92.983C239.59 92.5077 240.479 92.27 241.43 92.27C242.381 92.27 243.201 92.5153 243.891 93.006C244.596 93.4967 245.064 94.1483 245.294 94.961L245.064 95.122V87.21H246.904V104H245.294L245.133 101.217L245.386 101.079C245.279 101.754 245.018 102.329 244.604 102.804C244.205 103.264 243.707 103.617 243.109 103.862C242.526 104.107 241.905 104.23 241.246 104.23ZM241.43 102.62C242.166 102.62 242.802 102.436 243.339 102.068C243.891 101.7 244.313 101.179 244.604 100.504C244.911 99.814 245.064 99.009 245.064 98.089C245.064 97.215 244.911 96.4637 244.604 95.835C244.313 95.2063 243.899 94.7233 243.362 94.386C242.841 94.0487 242.227 93.88 241.522 93.88C240.357 93.88 239.452 94.2787 238.808 95.076C238.164 95.8733 237.842 96.9313 237.842 98.25C237.842 99.5687 238.156 100.627 238.785 101.424C239.414 102.221 240.295 102.62 241.43 102.62ZM255.988 104.23C254.899 104.23 253.926 103.992 253.067 103.517C252.224 103.042 251.564 102.359 251.089 101.47C250.614 100.565 250.376 99.492 250.376 98.25C250.376 97.008 250.614 95.9423 251.089 95.053C251.564 94.1483 252.216 93.4583 253.044 92.983C253.872 92.5077 254.815 92.27 255.873 92.27C256.946 92.27 257.859 92.5 258.61 92.96C259.377 93.42 259.959 94.0487 260.358 94.846C260.757 95.628 260.956 96.5097 260.956 97.491C260.956 97.7517 260.948 97.9893 260.933 98.204C260.918 98.4187 260.895 98.6103 260.864 98.779H251.572V97.146H260.059L259.116 97.33C259.116 96.226 258.809 95.375 258.196 94.777C257.598 94.179 256.808 93.88 255.827 93.88C255.076 93.88 254.424 94.0563 253.872 94.409C253.335 94.7463 252.914 95.2447 252.607 95.904C252.316 96.548 252.17 97.33 252.17 98.25C252.17 99.1547 252.323 99.9367 252.63 100.596C252.937 101.255 253.366 101.761 253.918 102.114C254.485 102.451 255.16 102.62 255.942 102.62C256.785 102.62 257.468 102.459 257.989 102.137C258.526 101.815 258.955 101.378 259.277 100.826L260.726 101.677C260.435 102.198 260.059 102.651 259.599 103.034C259.154 103.417 258.625 103.716 258.012 103.931C257.414 104.13 256.739 104.23 255.988 104.23ZM264.455 104V92.5H265.95L266.203 94.386C266.525 93.6807 266.993 93.1517 267.606 92.799C268.235 92.4463 268.994 92.27 269.883 92.27C270.083 92.27 270.297 92.2853 270.527 92.316C270.773 92.3467 270.98 92.408 271.148 92.5L270.826 94.179C270.658 94.1177 270.474 94.0717 270.274 94.041C270.075 94.0103 269.791 93.995 269.423 93.995C268.948 93.995 268.465 94.133 267.974 94.409C267.499 94.685 267.1 95.1067 266.778 95.674C266.456 96.226 266.295 96.9313 266.295 97.79V104H264.455ZM272.922 101.24C273.29 101.24 273.597 101.34 273.842 101.539C274.103 101.723 274.302 101.984 274.44 102.321C274.578 102.643 274.647 103.026 274.647 103.471C274.647 103.977 274.555 104.475 274.371 104.966C274.203 105.457 273.934 105.909 273.566 106.323C273.198 106.737 272.723 107.082 272.14 107.358L271.174 106.461C271.588 106.323 271.949 106.131 272.255 105.886C272.577 105.641 272.838 105.365 273.037 105.058C273.237 104.751 273.367 104.437 273.428 104.115L273.336 104.069C273.275 104.115 273.198 104.153 273.106 104.184C273.014 104.215 272.876 104.23 272.692 104.23C272.508 104.23 272.317 104.176 272.117 104.069C271.933 103.962 271.772 103.808 271.634 103.609C271.496 103.394 271.427 103.118 271.427 102.781C271.427 102.505 271.496 102.252 271.634 102.022C271.772 101.777 271.949 101.585 272.163 101.447C272.393 101.309 272.646 101.24 272.922 101.24ZM292.667 96.571C292.667 95.7123 292.437 95.053 291.977 94.593C291.517 94.1177 290.865 93.88 290.022 93.88C289.224 93.88 288.55 94.0563 287.998 94.409C287.446 94.7463 287.039 95.2983 286.779 96.065L285.284 95.145C285.59 94.2863 286.158 93.5963 286.986 93.075C287.814 92.5383 288.841 92.27 290.068 92.27C290.896 92.27 291.647 92.4157 292.322 92.707C292.996 92.983 293.525 93.4123 293.909 93.995C294.307 94.5623 294.507 95.2983 294.507 96.203V101.769C294.507 102.321 294.798 102.597 295.381 102.597C295.672 102.597 295.956 102.559 296.232 102.482L296.14 103.931C295.833 104.084 295.434 104.161 294.944 104.161C294.499 104.161 294.1 104.077 293.748 103.908C293.395 103.739 293.119 103.486 292.92 103.149C292.72 102.796 292.621 102.359 292.621 101.838V101.608L293.081 101.677C292.897 102.275 292.582 102.766 292.138 103.149C291.693 103.517 291.195 103.793 290.643 103.977C290.091 104.146 289.546 104.23 289.01 104.23C288.335 104.23 287.706 104.115 287.124 103.885C286.541 103.655 286.073 103.31 285.721 102.85C285.383 102.375 285.215 101.792 285.215 101.102C285.215 100.243 285.498 99.538 286.066 98.986C286.648 98.4187 287.453 98.0353 288.481 97.836L293.035 96.939V98.457L289.332 99.216C288.58 99.3693 288.021 99.584 287.653 99.86C287.285 100.136 287.101 100.519 287.101 101.01C287.101 101.485 287.285 101.876 287.653 102.183C288.036 102.474 288.573 102.62 289.263 102.62C289.707 102.62 290.129 102.566 290.528 102.459C290.942 102.336 291.31 102.16 291.632 101.93C291.954 101.685 292.207 101.386 292.391 101.033C292.575 100.665 292.667 100.236 292.667 99.745V96.571ZM298.978 104V92.5H300.588L300.749 95.076L300.45 94.823C300.695 94.2097 301.025 93.719 301.439 93.351C301.853 92.9677 302.328 92.6917 302.865 92.523C303.417 92.3543 303.984 92.27 304.567 92.27C305.395 92.27 306.146 92.431 306.821 92.753C307.496 93.0597 308.032 93.535 308.431 94.179C308.845 94.823 309.052 95.6433 309.052 96.64V104H307.212V97.284C307.212 96.0113 306.936 95.1297 306.384 94.639C305.847 94.133 305.18 93.88 304.383 93.88C303.831 93.88 303.279 94.0103 302.727 94.271C302.175 94.5317 301.715 94.9533 301.347 95.536C300.994 96.1187 300.818 96.9007 300.818 97.882V104H298.978ZM317.703 104.23C316.752 104.23 315.878 103.992 315.081 103.517C314.284 103.042 313.647 102.359 313.172 101.47C312.697 100.565 312.459 99.492 312.459 98.25C312.459 96.9773 312.712 95.8963 313.218 95.007C313.724 94.1177 314.391 93.443 315.219 92.983C316.047 92.5077 316.936 92.27 317.887 92.27C318.838 92.27 319.658 92.5153 320.348 93.006C321.053 93.4967 321.521 94.1483 321.751 94.961L321.521 95.122V87.21H323.361V104H321.751L321.59 101.217L321.843 101.079C321.736 101.754 321.475 102.329 321.061 102.804C320.662 103.264 320.164 103.617 319.566 103.862C318.983 104.107 318.362 104.23 317.703 104.23ZM317.887 102.62C318.623 102.62 319.259 102.436 319.796 102.068C320.348 101.7 320.77 101.179 321.061 100.504C321.368 99.814 321.521 99.009 321.521 98.089C321.521 97.215 321.368 96.4637 321.061 95.835C320.77 95.2063 320.356 94.7233 319.819 94.386C319.298 94.0487 318.684 93.88 317.979 93.88C316.814 93.88 315.909 94.2787 315.265 95.076C314.621 95.8733 314.299 96.9313 314.299 98.25C314.299 99.5687 314.613 100.627 315.242 101.424C315.871 102.221 316.752 102.62 317.887 102.62ZM342.193 96.571C342.193 95.7123 341.963 95.053 341.503 94.593C341.043 94.1177 340.391 93.88 339.548 93.88C338.751 93.88 338.076 94.0563 337.524 94.409C336.972 94.7463 336.566 95.2983 336.305 96.065L334.81 95.145C335.117 94.2863 335.684 93.5963 336.512 93.075C337.34 92.5383 338.367 92.27 339.594 92.27C340.422 92.27 341.173 92.4157 341.848 92.707C342.523 92.983 343.052 93.4123 343.435 93.995C343.834 94.5623 344.033 95.2983 344.033 96.203V101.769C344.033 102.321 344.324 102.597 344.907 102.597C345.198 102.597 345.482 102.559 345.758 102.482L345.666 103.931C345.359 104.084 344.961 104.161 344.47 104.161C344.025 104.161 343.627 104.077 343.274 103.908C342.921 103.739 342.645 103.486 342.446 103.149C342.247 102.796 342.147 102.359 342.147 101.838V101.608L342.607 101.677C342.423 102.275 342.109 102.766 341.664 103.149C341.219 103.517 340.721 103.793 340.169 103.977C339.617 104.146 339.073 104.23 338.536 104.23C337.861 104.23 337.233 104.115 336.65 103.885C336.067 103.655 335.6 103.31 335.247 102.85C334.91 102.375 334.741 101.792 334.741 101.102C334.741 100.243 335.025 99.538 335.592 98.986C336.175 98.4187 336.98 98.0353 338.007 97.836L342.561 96.939V98.457L338.858 99.216C338.107 99.3693 337.547 99.584 337.179 99.86C336.811 100.136 336.627 100.519 336.627 101.01C336.627 101.485 336.811 101.876 337.179 102.183C337.562 102.474 338.099 102.62 338.789 102.62C339.234 102.62 339.655 102.566 340.054 102.459C340.468 102.336 340.836 102.16 341.158 101.93C341.48 101.685 341.733 101.386 341.917 101.033C342.101 100.665 342.193 100.236 342.193 99.745V96.571ZM352.989 104.23C352.039 104.23 351.165 103.992 350.367 103.517C349.57 103.042 348.934 102.359 348.458 101.47C347.983 100.565 347.745 99.492 347.745 98.25C347.745 96.9773 347.998 95.8963 348.504 95.007C349.01 94.1177 349.677 93.443 350.505 92.983C351.333 92.5077 352.223 92.27 353.173 92.27C354.124 92.27 354.944 92.5153 355.634 93.006C356.34 93.4967 356.807 94.1483 357.037 94.961L356.807 95.122V87.21H358.647V104H357.037L356.876 101.217L357.129 101.079C357.022 101.754 356.761 102.329 356.347 102.804C355.949 103.264 355.45 103.617 354.852 103.862C354.27 104.107 353.649 104.23 352.989 104.23ZM353.173 102.62C353.909 102.62 354.546 102.436 355.082 102.068C355.634 101.7 356.056 101.179 356.347 100.504C356.654 99.814 356.807 99.009 356.807 98.089C356.807 97.215 356.654 96.4637 356.347 95.835C356.056 95.2063 355.642 94.7233 355.105 94.386C354.584 94.0487 353.971 93.88 353.265 93.88C352.1 93.88 351.195 94.2787 350.551 95.076C349.907 95.8733 349.585 96.9313 349.585 98.25C349.585 99.5687 349.9 100.627 350.528 101.424C351.157 102.221 352.039 102.62 353.173 102.62ZM363.844 90.292C363.43 90.292 363.093 90.1693 362.832 89.924C362.587 89.6633 362.464 89.326 362.464 88.912C362.464 88.498 362.587 88.1683 362.832 87.923C363.093 87.6623 363.43 87.532 363.844 87.532C364.258 87.532 364.588 87.6623 364.833 87.923C365.094 88.1683 365.224 88.498 365.224 88.912C365.224 89.326 365.094 89.6633 364.833 89.924C364.588 90.1693 364.258 90.292 363.844 90.292ZM364.764 92.5V105.173C364.764 106.124 364.58 106.875 364.212 107.427C363.844 107.979 363.392 108.37 362.855 108.6C362.318 108.83 361.789 108.945 361.268 108.945C360.793 108.945 360.356 108.868 359.957 108.715C359.558 108.577 359.229 108.401 358.968 108.186L359.359 106.438C359.574 106.637 359.842 106.806 360.164 106.944C360.486 107.082 360.846 107.151 361.245 107.151C361.736 107.151 362.134 106.99 362.441 106.668C362.763 106.346 362.924 105.786 362.924 104.989V92.5H364.764ZM373.197 104.23C372.461 104.23 371.763 104.092 371.104 103.816C370.46 103.54 369.931 103.095 369.517 102.482C369.118 101.853 368.919 101.041 368.919 100.044V92.5H370.759V99.561C370.759 100.726 371.012 101.531 371.518 101.976C372.024 102.405 372.737 102.62 373.657 102.62C374.086 102.62 374.508 102.551 374.922 102.413C375.336 102.26 375.704 102.03 376.026 101.723C376.363 101.401 376.624 100.995 376.808 100.504C377.007 100.013 377.107 99.4307 377.107 98.756V92.5H378.947V104H377.337L377.222 102.252C376.823 102.942 376.279 103.448 375.589 103.77C374.914 104.077 374.117 104.23 373.197 104.23ZM387.369 104.23C386.25 104.23 385.215 103.992 384.264 103.517C383.329 103.042 382.608 102.367 382.102 101.493L383.666 100.366C384.003 101.071 384.494 101.623 385.138 102.022C385.797 102.421 386.587 102.62 387.507 102.62C388.32 102.62 388.956 102.467 389.416 102.16C389.876 101.838 390.106 101.424 390.106 100.918C390.106 100.596 389.999 100.305 389.784 100.044C389.585 99.768 389.194 99.5687 388.611 99.446L385.851 98.871C384.732 98.641 383.927 98.2577 383.436 97.721C382.961 97.1843 382.723 96.5173 382.723 95.72C382.723 95.0913 382.899 94.5163 383.252 93.995C383.62 93.4737 384.134 93.0597 384.793 92.753C385.468 92.431 386.257 92.27 387.162 92.27C388.297 92.27 389.255 92.4923 390.037 92.937C390.819 93.3817 391.402 94.0103 391.785 94.823L390.244 95.835C389.983 95.1603 389.562 94.6697 388.979 94.363C388.396 94.041 387.791 93.88 387.162 93.88C386.61 93.88 386.135 93.9567 385.736 94.11C385.353 94.2633 385.054 94.478 384.839 94.754C384.64 95.0147 384.54 95.3137 384.54 95.651C384.54 95.9883 384.655 96.3027 384.885 96.594C385.115 96.87 385.544 97.0693 386.173 97.192L389.048 97.79C390.121 98.0047 390.873 98.3573 391.302 98.848C391.731 99.3387 391.946 99.9367 391.946 100.642C391.946 101.363 391.754 101.999 391.371 102.551C390.988 103.088 390.451 103.502 389.761 103.793C389.071 104.084 388.274 104.23 387.369 104.23ZM398.072 89.234V100.826C398.072 101.393 398.233 101.815 398.555 102.091C398.877 102.367 399.291 102.505 399.797 102.505C400.241 102.505 400.625 102.428 400.947 102.275C401.269 102.122 401.56 101.915 401.821 101.654L402.465 103.195C402.112 103.517 401.69 103.77 401.2 103.954C400.724 104.138 400.172 104.23 399.544 104.23C398.961 104.23 398.417 104.13 397.911 103.931C397.405 103.716 396.998 103.387 396.692 102.942C396.4 102.482 396.247 101.884 396.232 101.148V89.74L398.072 89.234ZM402.258 92.5V94.087H393.932V92.5H402.258ZM415.097 89.234V100.826C415.097 101.393 415.258 101.815 415.58 102.091C415.902 102.367 416.316 102.505 416.822 102.505C417.267 102.505 417.65 102.428 417.972 102.275C418.294 102.122 418.585 101.915 418.846 101.654L419.49 103.195C419.137 103.517 418.716 103.77 418.225 103.954C417.75 104.138 417.198 104.23 416.569 104.23C415.986 104.23 415.442 104.13 414.936 103.931C414.43 103.716 414.024 103.387 413.717 102.942C413.426 102.482 413.272 101.884 413.257 101.148V89.74L415.097 89.234ZM419.283 92.5V94.087H410.957V92.5H419.283ZM422.019 104V87.21H423.859V94.225C424.258 93.535 424.787 93.0367 425.446 92.73C426.105 92.4233 426.826 92.27 427.608 92.27C428.436 92.27 429.187 92.431 429.862 92.753C430.537 93.0597 431.073 93.535 431.472 94.179C431.886 94.823 432.093 95.6433 432.093 96.64V104H430.253V97.284C430.253 96.0113 429.977 95.1297 429.425 94.639C428.888 94.133 428.221 93.88 427.424 93.88C426.872 93.88 426.32 94.0103 425.768 94.271C425.216 94.5317 424.756 94.961 424.388 95.559C424.035 96.1417 423.859 96.9237 423.859 97.905V104H422.019ZM441.066 104.23C439.977 104.23 439.004 103.992 438.145 103.517C437.302 103.042 436.642 102.359 436.167 101.47C435.692 100.565 435.454 99.492 435.454 98.25C435.454 97.008 435.692 95.9423 436.167 95.053C436.642 94.1483 437.294 93.4583 438.122 92.983C438.95 92.5077 439.893 92.27 440.951 92.27C442.024 92.27 442.937 92.5 443.688 92.96C444.455 93.42 445.037 94.0487 445.436 94.846C445.835 95.628 446.034 96.5097 446.034 97.491C446.034 97.7517 446.026 97.9893 446.011 98.204C445.996 98.4187 445.973 98.6103 445.942 98.779H436.65V97.146H445.137L444.194 97.33C444.194 96.226 443.887 95.375 443.274 94.777C442.676 94.179 441.886 93.88 440.905 93.88C440.154 93.88 439.502 94.0563 438.95 94.409C438.413 94.7463 437.992 95.2447 437.685 95.904C437.394 96.548 437.248 97.33 437.248 98.25C437.248 99.1547 437.401 99.9367 437.708 100.596C438.015 101.255 438.444 101.761 438.996 102.114C439.563 102.451 440.238 102.62 441.02 102.62C441.863 102.62 442.546 102.459 443.067 102.137C443.604 101.815 444.033 101.378 444.355 100.826L445.804 101.677C445.513 102.198 445.137 102.651 444.677 103.034C444.232 103.417 443.703 103.716 443.09 103.931C442.492 104.13 441.817 104.23 441.066 104.23ZM42.279 131.23C41.1597 131.23 40.1247 130.992 39.174 130.517C38.2387 130.042 37.518 129.367 37.012 128.493L38.576 127.366C38.9133 128.071 39.404 128.623 40.048 129.022C40.7073 129.421 41.497 129.62 42.417 129.62C43.2297 129.62 43.866 129.467 44.326 129.16C44.786 128.838 45.016 128.424 45.016 127.918C45.016 127.596 44.9087 127.305 44.694 127.044C44.4947 126.768 44.1037 126.569 43.521 126.446L40.761 125.871C39.6417 125.641 38.8367 125.258 38.346 124.721C37.8707 124.184 37.633 123.517 37.633 122.72C37.633 122.091 37.8093 121.516 38.162 120.995C38.53 120.474 39.0437 120.06 39.703 119.753C40.3777 119.431 41.1673 119.27 42.072 119.27C43.2067 119.27 44.165 119.492 44.947 119.937C45.729 120.382 46.3117 121.01 46.695 121.823L45.154 122.835C44.8933 122.16 44.4717 121.67 43.889 121.363C43.3063 121.041 42.7007 120.88 42.072 120.88C41.52 120.88 41.0447 120.957 40.646 121.11C40.2627 121.263 39.9637 121.478 39.749 121.754C39.5497 122.015 39.45 122.314 39.45 122.651C39.45 122.988 39.565 123.303 39.795 123.594C40.025 123.87 40.4543 124.069 41.083 124.192L43.958 124.79C45.0313 125.005 45.7827 125.357 46.212 125.848C46.6413 126.339 46.856 126.937 46.856 127.642C46.856 128.363 46.6643 128.999 46.281 129.551C45.8977 130.088 45.361 130.502 44.671 130.793C43.981 131.084 43.1837 131.23 42.279 131.23ZM59.0246 119.5L53.6196 132.932C53.3283 133.683 53.0063 134.274 52.6536 134.703C52.3163 135.148 51.933 135.462 51.5036 135.646C51.0896 135.845 50.6066 135.945 50.0546 135.945C49.5333 135.945 49.0503 135.868 48.6056 135.715C48.1763 135.577 47.793 135.385 47.4556 135.14L47.9616 133.53C48.2683 133.806 48.5903 134.005 48.9276 134.128C49.2803 134.266 49.6253 134.335 49.9626 134.335C50.3613 134.335 50.737 134.212 51.0896 133.967C51.4423 133.722 51.7643 133.223 52.0556 132.472L52.6536 130.977L51.5036 128.24L47.8466 119.5H49.9396L52.8146 126.998L53.5276 129.045L54.3556 126.768L57.0466 119.5H59.0246ZM61.431 131V119.5H63.041L63.156 121.294C63.57 120.589 64.1067 120.075 64.766 119.753C65.4407 119.431 66.1307 119.27 66.836 119.27C67.6487 119.27 68.4153 119.454 69.136 119.822C69.8567 120.19 70.4087 120.757 70.792 121.524C71.0373 121.003 71.3823 120.581 71.827 120.259C72.2717 119.922 72.7547 119.676 73.276 119.523C73.8127 119.354 74.3187 119.27 74.794 119.27C75.53 119.27 76.2277 119.423 76.887 119.73C77.5617 120.037 78.1137 120.512 78.543 121.156C78.9723 121.8 79.187 122.628 79.187 123.64V131H77.347V123.824C77.347 122.781 77.0863 122.03 76.565 121.57C76.0437 121.11 75.3997 120.88 74.633 120.88C74.035 120.88 73.4753 121.026 72.954 121.317C72.4327 121.608 72.011 122.038 71.689 122.605C71.3823 123.172 71.229 123.87 71.229 124.698V131H69.389V123.824C69.389 122.781 69.1283 122.03 68.607 121.57C68.0857 121.11 67.4417 120.88 66.675 120.88C66.169 120.88 65.6477 121.018 65.111 121.294C64.5897 121.555 64.1527 121.976 63.8 122.559C63.4473 123.142 63.271 123.908 63.271 124.859V131H61.431ZM88.9879 131.23C88.3439 131.23 87.7459 131.115 87.1939 130.885C86.6419 130.655 86.1665 130.333 85.7679 129.919C85.3692 129.505 85.0702 129.037 84.8709 128.516L85.1239 128.194L84.9629 131H83.3529V114.21H85.1929V122.099L84.9629 121.754C85.2695 121.033 85.7832 120.443 86.5039 119.983C87.2399 119.508 88.0755 119.27 89.0109 119.27C89.9615 119.27 90.8355 119.508 91.6329 119.983C92.4302 120.458 93.0665 121.141 93.5419 122.03C94.0172 122.919 94.2549 123.993 94.2549 125.25C94.2549 126.492 94.0095 127.565 93.5189 128.47C93.0435 129.359 92.4072 130.042 91.6099 130.517C90.8125 130.992 89.9385 131.23 88.9879 131.23ZM88.8039 129.62C89.9385 129.62 90.8202 129.221 91.4489 128.424C92.0929 127.627 92.4149 126.569 92.4149 125.25C92.4149 123.931 92.1005 122.873 91.4719 122.076C90.8432 121.279 89.9615 120.88 88.8269 120.88C88.1062 120.88 87.4699 121.064 86.9179 121.432C86.3812 121.8 85.9595 122.314 85.6529 122.973C85.3462 123.632 85.1929 124.407 85.1929 125.296C85.1929 126.17 85.3385 126.937 85.6299 127.596C85.9365 128.24 86.3582 128.738 86.8949 129.091C87.4469 129.444 88.0832 129.62 88.8039 129.62ZM102.534 119.27C103.622 119.27 104.581 119.508 105.409 119.983C106.252 120.458 106.911 121.148 107.387 122.053C107.862 122.942 108.1 124.008 108.1 125.25C108.1 126.492 107.862 127.565 107.387 128.47C106.911 129.359 106.252 130.042 105.409 130.517C104.581 130.992 103.622 131.23 102.534 131.23C101.46 131.23 100.502 130.992 99.6588 130.517C98.8155 130.042 98.1561 129.359 97.6808 128.47C97.2055 127.565 96.9678 126.492 96.9678 125.25C96.9678 124.008 97.2055 122.942 97.6808 122.053C98.1561 121.148 98.8155 120.458 99.6588 119.983C100.502 119.508 101.46 119.27 102.534 119.27ZM102.534 120.857C101.752 120.857 101.085 121.033 100.533 121.386C99.9808 121.739 99.5515 122.245 99.2448 122.904C98.9535 123.548 98.8078 124.33 98.8078 125.25C98.8078 126.155 98.9535 126.937 99.2448 127.596C99.5515 128.255 99.9808 128.761 100.533 129.114C101.085 129.467 101.752 129.643 102.534 129.643C103.316 129.643 103.983 129.467 104.535 129.114C105.087 128.761 105.508 128.255 105.8 127.596C106.106 126.937 106.26 126.155 106.26 125.25C106.26 124.33 106.106 123.548 105.8 122.904C105.508 122.245 105.087 121.739 104.535 121.386C103.983 121.033 103.316 120.857 102.534 120.857ZM113.312 114.21V128.079C113.312 128.662 113.419 129.068 113.634 129.298C113.848 129.513 114.193 129.62 114.669 129.62C114.975 129.62 115.228 129.597 115.428 129.551C115.627 129.505 115.895 129.421 116.233 129.298L115.934 130.908C115.688 131.015 115.42 131.092 115.129 131.138C114.837 131.199 114.538 131.23 114.232 131.23C113.296 131.23 112.599 130.977 112.139 130.471C111.694 129.965 111.472 129.191 111.472 128.148V114.21H113.312ZM127.889 116.234V127.826C127.889 128.393 128.05 128.815 128.372 129.091C128.694 129.367 129.108 129.505 129.614 129.505C130.059 129.505 130.442 129.428 130.764 129.275C131.086 129.122 131.377 128.915 131.638 128.654L132.282 130.195C131.929 130.517 131.508 130.77 131.017 130.954C130.542 131.138 129.99 131.23 129.361 131.23C128.778 131.23 128.234 131.13 127.728 130.931C127.222 130.716 126.816 130.387 126.509 129.942C126.218 129.482 126.064 128.884 126.049 128.148V116.74L127.889 116.234ZM132.075 119.5V121.087H123.749V119.5H132.075ZM139.572 119.27C140.661 119.27 141.619 119.508 142.447 119.983C143.29 120.458 143.95 121.148 144.425 122.053C144.9 122.942 145.138 124.008 145.138 125.25C145.138 126.492 144.9 127.565 144.425 128.47C143.95 129.359 143.29 130.042 142.447 130.517C141.619 130.992 140.661 131.23 139.572 131.23C138.499 131.23 137.54 130.992 136.697 130.517C135.854 130.042 135.194 129.359 134.719 128.47C134.244 127.565 134.006 126.492 134.006 125.25C134.006 124.008 134.244 122.942 134.719 122.053C135.194 121.148 135.854 120.458 136.697 119.983C137.54 119.508 138.499 119.27 139.572 119.27ZM139.572 120.857C138.79 120.857 138.123 121.033 137.571 121.386C137.019 121.739 136.59 122.245 136.283 122.904C135.992 123.548 135.846 124.33 135.846 125.25C135.846 126.155 135.992 126.937 136.283 127.596C136.59 128.255 137.019 128.761 137.571 129.114C138.123 129.467 138.79 129.643 139.572 129.643C140.354 129.643 141.021 129.467 141.573 129.114C142.125 128.761 142.547 128.255 142.838 127.596C143.145 126.937 143.298 126.155 143.298 125.25C143.298 124.33 143.145 123.548 142.838 122.904C142.547 122.245 142.125 121.739 141.573 121.386C141.021 121.033 140.354 120.857 139.572 120.857ZM160.683 114.095C161.082 114.095 161.457 114.141 161.81 114.233C162.163 114.325 162.439 114.455 162.638 114.624L162.155 116.119C161.971 115.996 161.772 115.912 161.557 115.866C161.342 115.805 161.105 115.774 160.844 115.774C160.185 115.774 159.671 115.935 159.303 116.257C158.935 116.564 158.751 117.062 158.751 117.752V119.5V120.098V131H156.911V117.568C156.911 117.062 156.988 116.594 157.141 116.165C157.294 115.736 157.524 115.368 157.831 115.061C158.153 114.754 158.552 114.517 159.027 114.348C159.502 114.179 160.054 114.095 160.683 114.095ZM162.592 119.5V121.087H154.611V119.5H162.592ZM165.973 117.292C165.559 117.292 165.222 117.169 164.961 116.924C164.716 116.663 164.593 116.326 164.593 115.912C164.593 115.498 164.716 115.168 164.961 114.923C165.222 114.662 165.559 114.532 165.973 114.532C166.387 114.532 166.717 114.662 166.962 114.923C167.223 115.168 167.353 115.498 167.353 115.912C167.353 116.326 167.223 116.663 166.962 116.924C166.717 117.169 166.387 117.292 165.973 117.292ZM166.893 119.5V131H165.053V119.5H166.893ZM173.889 116.234V127.826C173.889 128.393 174.05 128.815 174.372 129.091C174.694 129.367 175.108 129.505 175.614 129.505C176.059 129.505 176.442 129.428 176.764 129.275C177.086 129.122 177.377 128.915 177.638 128.654L178.282 130.195C177.929 130.517 177.508 130.77 177.017 130.954C176.542 131.138 175.99 131.23 175.361 131.23C174.778 131.23 174.234 131.13 173.728 130.931C173.222 130.716 172.816 130.387 172.509 129.942C172.218 129.482 172.064 128.884 172.049 128.148V116.74L173.889 116.234ZM178.075 119.5V121.087H169.749V119.5H178.075ZM193.411 119.27C194.499 119.27 195.458 119.508 196.286 119.983C197.129 120.458 197.788 121.148 198.264 122.053C198.739 122.942 198.977 124.008 198.977 125.25C198.977 126.492 198.739 127.565 198.264 128.47C197.788 129.359 197.129 130.042 196.286 130.517C195.458 130.992 194.499 131.23 193.411 131.23C192.337 131.23 191.379 130.992 190.536 130.517C189.692 130.042 189.033 129.359 188.558 128.47C188.082 127.565 187.845 126.492 187.845 125.25C187.845 124.008 188.082 122.942 188.558 122.053C189.033 121.148 189.692 120.458 190.536 119.983C191.379 119.508 192.337 119.27 193.411 119.27ZM193.411 120.857C192.629 120.857 191.962 121.033 191.41 121.386C190.858 121.739 190.428 122.245 190.122 122.904C189.83 123.548 189.685 124.33 189.685 125.25C189.685 126.155 189.83 126.937 190.122 127.596C190.428 128.255 190.858 128.761 191.41 129.114C191.962 129.467 192.629 129.643 193.411 129.643C194.193 129.643 194.86 129.467 195.412 129.114C195.964 128.761 196.385 128.255 196.677 127.596C196.983 126.937 197.137 126.155 197.137 125.25C197.137 124.33 196.983 123.548 196.677 122.904C196.385 122.245 195.964 121.739 195.412 121.386C194.86 121.033 194.193 120.857 193.411 120.857ZM206.604 131.23C205.868 131.23 205.17 131.092 204.511 130.816C203.867 130.54 203.338 130.095 202.924 129.482C202.525 128.853 202.326 128.041 202.326 127.044V119.5H204.166V126.561C204.166 127.726 204.419 128.531 204.925 128.976C205.431 129.405 206.144 129.62 207.064 129.62C207.493 129.62 207.915 129.551 208.329 129.413C208.743 129.26 209.111 129.03 209.433 128.723C209.77 128.401 210.031 127.995 210.215 127.504C210.414 127.013 210.514 126.431 210.514 125.756V119.5H212.354V131H210.744L210.629 129.252C210.23 129.942 209.686 130.448 208.996 130.77C208.321 131.077 207.524 131.23 206.604 131.23ZM216.636 131V119.5H218.131L218.384 121.386C218.706 120.681 219.174 120.152 219.787 119.799C220.416 119.446 221.175 119.27 222.064 119.27C222.263 119.27 222.478 119.285 222.708 119.316C222.953 119.347 223.16 119.408 223.329 119.5L223.007 121.179C222.838 121.118 222.654 121.072 222.455 121.041C222.256 121.01 221.972 120.995 221.604 120.995C221.129 120.995 220.646 121.133 220.155 121.409C219.68 121.685 219.281 122.107 218.959 122.674C218.637 123.226 218.476 123.931 218.476 124.79V131H216.636ZM233.67 131V115.82H244.319V117.545H235.51V122.444H242.364V124.169H235.51V129.275H244.664V131H233.67ZM251.818 131.23C251.082 131.23 250.384 131.092 249.725 130.816C249.081 130.54 248.552 130.095 248.138 129.482C247.739 128.853 247.54 128.041 247.54 127.044V119.5H249.38V126.561C249.38 127.726 249.633 128.531 250.139 128.976C250.645 129.405 251.358 129.62 252.278 129.62C252.707 129.62 253.129 129.551 253.543 129.413C253.957 129.26 254.325 129.03 254.647 128.723C254.984 128.401 255.245 127.995 255.429 127.504C255.628 127.013 255.728 126.431 255.728 125.756V119.5H257.568V131H255.958L255.843 129.252C255.444 129.942 254.9 130.448 254.21 130.77C253.535 131.077 252.738 131.23 251.818 131.23ZM261.85 131V119.5H263.345L263.598 121.386C263.92 120.681 264.388 120.152 265.001 119.799C265.63 119.446 266.389 119.27 267.278 119.27C267.477 119.27 267.692 119.285 267.922 119.316C268.167 119.347 268.374 119.408 268.543 119.5L268.221 121.179C268.052 121.118 267.868 121.072 267.669 121.041C267.47 121.01 267.186 120.995 266.818 120.995C266.343 120.995 265.86 121.133 265.369 121.409C264.894 121.685 264.495 122.107 264.173 122.674C263.851 123.226 263.69 123.931 263.69 124.79V131H261.85ZM275.64 119.27C276.729 119.27 277.687 119.508 278.515 119.983C279.359 120.458 280.018 121.148 280.493 122.053C280.969 122.942 281.206 124.008 281.206 125.25C281.206 126.492 280.969 127.565 280.493 128.47C280.018 129.359 279.359 130.042 278.515 130.517C277.687 130.992 276.729 131.23 275.64 131.23C274.567 131.23 273.609 130.992 272.765 130.517C271.922 130.042 271.263 129.359 270.787 128.47C270.312 127.565 270.074 126.492 270.074 125.25C270.074 124.008 270.312 122.942 270.787 122.053C271.263 121.148 271.922 120.458 272.765 119.983C273.609 119.508 274.567 119.27 275.64 119.27ZM275.64 120.857C274.858 120.857 274.191 121.033 273.639 121.386C273.087 121.739 272.658 122.245 272.351 122.904C272.06 123.548 271.914 124.33 271.914 125.25C271.914 126.155 272.06 126.937 272.351 127.596C272.658 128.255 273.087 128.761 273.639 129.114C274.191 129.467 274.858 129.643 275.64 129.643C276.422 129.643 277.089 129.467 277.641 129.114C278.193 128.761 278.615 128.255 278.906 127.596C279.213 126.937 279.366 126.155 279.366 125.25C279.366 124.33 279.213 123.548 278.906 122.904C278.615 122.245 278.193 121.739 277.641 121.386C277.089 121.033 276.422 120.857 275.64 120.857ZM284.67 135.83V119.5H286.28L286.441 122.306L286.188 121.984C286.388 121.447 286.687 120.98 287.085 120.581C287.484 120.167 287.967 119.845 288.534 119.615C289.102 119.385 289.715 119.27 290.374 119.27C291.31 119.27 292.168 119.508 292.95 119.983C293.748 120.458 294.384 121.141 294.859 122.03C295.335 122.919 295.572 123.993 295.572 125.25C295.572 126.492 295.327 127.565 294.836 128.47C294.361 129.359 293.725 130.042 292.927 130.517C292.13 130.992 291.256 131.23 290.305 131.23C289.355 131.23 288.519 131 287.798 130.54C287.093 130.065 286.587 129.467 286.28 128.746L286.51 128.401V135.83H284.67ZM290.121 129.62C291.256 129.62 292.138 129.221 292.766 128.424C293.41 127.627 293.732 126.569 293.732 125.25C293.732 123.931 293.418 122.873 292.789 122.076C292.176 121.279 291.31 120.88 290.19 120.88C289.454 120.88 288.81 121.064 288.258 121.432C287.706 121.785 287.277 122.291 286.97 122.95C286.664 123.594 286.51 124.361 286.51 125.25C286.51 126.124 286.656 126.891 286.947 127.55C287.254 128.209 287.676 128.723 288.212 129.091C288.764 129.444 289.401 129.62 290.121 129.62ZM303.897 131.23C302.809 131.23 301.835 130.992 300.976 130.517C300.133 130.042 299.474 129.359 298.998 128.47C298.523 127.565 298.285 126.492 298.285 125.25C298.285 124.008 298.523 122.942 298.998 122.053C299.474 121.148 300.125 120.458 300.953 119.983C301.781 119.508 302.724 119.27 303.782 119.27C304.856 119.27 305.768 119.5 306.519 119.96C307.286 120.42 307.869 121.049 308.267 121.846C308.666 122.628 308.865 123.51 308.865 124.491C308.865 124.752 308.858 124.989 308.842 125.204C308.827 125.419 308.804 125.61 308.773 125.779H299.481V124.146H307.968L307.025 124.33C307.025 123.226 306.719 122.375 306.105 121.777C305.507 121.179 304.718 120.88 303.736 120.88C302.985 120.88 302.333 121.056 301.781 121.409C301.245 121.746 300.823 122.245 300.516 122.904C300.225 123.548 300.079 124.33 300.079 125.25C300.079 126.155 300.233 126.937 300.539 127.596C300.846 128.255 301.275 128.761 301.827 129.114C302.395 129.451 303.069 129.62 303.851 129.62C304.695 129.62 305.377 129.459 305.898 129.137C306.435 128.815 306.864 128.378 307.186 127.826L308.635 128.677C308.344 129.198 307.968 129.651 307.508 130.034C307.064 130.417 306.535 130.716 305.921 130.931C305.323 131.13 304.649 131.23 303.897 131.23ZM319.081 123.571C319.081 122.712 318.851 122.053 318.391 121.593C317.931 121.118 317.279 120.88 316.436 120.88C315.638 120.88 314.964 121.056 314.412 121.409C313.86 121.746 313.453 122.298 313.193 123.065L311.698 122.145C312.004 121.286 312.572 120.596 313.4 120.075C314.228 119.538 315.255 119.27 316.482 119.27C317.31 119.27 318.061 119.416 318.736 119.707C319.41 119.983 319.939 120.412 320.323 120.995C320.721 121.562 320.921 122.298 320.921 123.203V128.769C320.921 129.321 321.212 129.597 321.795 129.597C322.086 129.597 322.37 129.559 322.646 129.482L322.554 130.931C322.247 131.084 321.848 131.161 321.358 131.161C320.913 131.161 320.514 131.077 320.162 130.908C319.809 130.739 319.533 130.486 319.334 130.149C319.134 129.796 319.035 129.359 319.035 128.838V128.608L319.495 128.677C319.311 129.275 318.996 129.766 318.552 130.149C318.107 130.517 317.609 130.793 317.057 130.977C316.505 131.146 315.96 131.23 315.424 131.23C314.749 131.23 314.12 131.115 313.538 130.885C312.955 130.655 312.487 130.31 312.135 129.85C311.797 129.375 311.629 128.792 311.629 128.102C311.629 127.243 311.912 126.538 312.48 125.986C313.062 125.419 313.867 125.035 314.895 124.836L319.449 123.939V125.457L315.746 126.216C314.994 126.369 314.435 126.584 314.067 126.86C313.699 127.136 313.515 127.519 313.515 128.01C313.515 128.485 313.699 128.876 314.067 129.183C314.45 129.474 314.987 129.62 315.677 129.62C316.121 129.62 316.543 129.566 316.942 129.459C317.356 129.336 317.724 129.16 318.046 128.93C318.368 128.685 318.621 128.386 318.805 128.033C318.989 127.665 319.081 127.236 319.081 126.745V123.571ZM325.392 131V119.5H327.002L327.163 122.076L326.864 121.823C327.109 121.21 327.439 120.719 327.853 120.351C328.267 119.968 328.742 119.692 329.279 119.523C329.831 119.354 330.398 119.27 330.981 119.27C331.809 119.27 332.56 119.431 333.235 119.753C333.91 120.06 334.446 120.535 334.845 121.179C335.259 121.823 335.466 122.643 335.466 123.64V131H333.626V124.284C333.626 123.011 333.35 122.13 332.798 121.639C332.261 121.133 331.594 120.88 330.797 120.88C330.245 120.88 329.693 121.01 329.141 121.271C328.589 121.532 328.129 121.953 327.761 122.536C327.408 123.119 327.232 123.901 327.232 124.882V131H325.392ZM352.232 119.27C353.029 119.27 353.727 119.393 354.325 119.638C354.938 119.883 355.467 120.236 355.912 120.696C356.357 121.156 356.717 121.7 356.993 122.329L355.245 123.157C355 122.421 354.624 121.861 354.118 121.478C353.627 121.079 352.983 120.88 352.186 120.88C351.419 120.88 350.76 121.056 350.208 121.409C349.656 121.746 349.234 122.245 348.943 122.904C348.652 123.548 348.506 124.33 348.506 125.25C348.506 126.155 348.652 126.937 348.943 127.596C349.234 128.255 349.656 128.761 350.208 129.114C350.76 129.451 351.419 129.62 352.186 129.62C352.784 129.62 353.298 129.528 353.727 129.344C354.172 129.16 354.532 128.892 354.808 128.539C355.099 128.186 355.299 127.757 355.406 127.251L357.108 127.849C356.847 128.554 356.487 129.16 356.027 129.666C355.582 130.172 355.038 130.563 354.394 130.839C353.765 131.1 353.045 131.23 352.232 131.23C351.159 131.23 350.2 130.992 349.357 130.517C348.514 130.042 347.854 129.359 347.379 128.47C346.904 127.565 346.666 126.492 346.666 125.25C346.666 124.008 346.904 122.942 347.379 122.053C347.854 121.148 348.514 120.458 349.357 119.983C350.2 119.508 351.159 119.27 352.232 119.27ZM364.504 131.23C363.768 131.23 363.07 131.092 362.411 130.816C361.767 130.54 361.238 130.095 360.824 129.482C360.425 128.853 360.226 128.041 360.226 127.044V119.5H362.066V126.561C362.066 127.726 362.319 128.531 362.825 128.976C363.331 129.405 364.044 129.62 364.964 129.62C365.393 129.62 365.815 129.551 366.229 129.413C366.643 129.26 367.011 129.03 367.333 128.723C367.67 128.401 367.931 127.995 368.115 127.504C368.314 127.013 368.414 126.431 368.414 125.756V119.5H370.254V131H368.644L368.529 129.252C368.13 129.942 367.586 130.448 366.896 130.77C366.221 131.077 365.424 131.23 364.504 131.23ZM378.676 131.23C377.557 131.23 376.522 130.992 375.571 130.517C374.636 130.042 373.915 129.367 373.409 128.493L374.973 127.366C375.311 128.071 375.801 128.623 376.445 129.022C377.105 129.421 377.894 129.62 378.814 129.62C379.627 129.62 380.263 129.467 380.723 129.16C381.183 128.838 381.413 128.424 381.413 127.918C381.413 127.596 381.306 127.305 381.091 127.044C380.892 126.768 380.501 126.569 379.918 126.446L377.158 125.871C376.039 125.641 375.234 125.258 374.743 124.721C374.268 124.184 374.03 123.517 374.03 122.72C374.03 122.091 374.207 121.516 374.559 120.995C374.927 120.474 375.441 120.06 376.1 119.753C376.775 119.431 377.565 119.27 378.469 119.27C379.604 119.27 380.562 119.492 381.344 119.937C382.126 120.382 382.709 121.01 383.092 121.823L381.551 122.835C381.291 122.16 380.869 121.67 380.286 121.363C379.704 121.041 379.098 120.88 378.469 120.88C377.917 120.88 377.442 120.957 377.043 121.11C376.66 121.263 376.361 121.478 376.146 121.754C375.947 122.015 375.847 122.314 375.847 122.651C375.847 122.988 375.962 123.303 376.192 123.594C376.422 123.87 376.852 124.069 377.48 124.192L380.355 124.79C381.429 125.005 382.18 125.357 382.609 125.848C383.039 126.339 383.253 126.937 383.253 127.642C383.253 128.363 383.062 128.999 382.678 129.551C382.295 130.088 381.758 130.502 381.068 130.793C380.378 131.084 379.581 131.23 378.676 131.23ZM389.379 116.234V127.826C389.379 128.393 389.54 128.815 389.862 129.091C390.184 129.367 390.598 129.505 391.104 129.505C391.549 129.505 391.932 129.428 392.254 129.275C392.576 129.122 392.868 128.915 393.128 128.654L393.772 130.195C393.42 130.517 392.998 130.77 392.507 130.954C392.032 131.138 391.48 131.23 390.851 131.23C390.269 131.23 389.724 131.13 389.218 130.931C388.712 130.716 388.306 130.387 387.999 129.942C387.708 129.482 387.555 128.884 387.539 128.148V116.74L389.379 116.234ZM393.565 119.5V121.087H385.239V119.5H393.565ZM401.062 119.27C402.151 119.27 403.109 119.508 403.937 119.983C404.78 120.458 405.44 121.148 405.915 122.053C406.39 122.942 406.628 124.008 406.628 125.25C406.628 126.492 406.39 127.565 405.915 128.47C405.44 129.359 404.78 130.042 403.937 130.517C403.109 130.992 402.151 131.23 401.062 131.23C399.989 131.23 399.03 130.992 398.187 130.517C397.344 130.042 396.684 129.359 396.209 128.47C395.734 127.565 395.496 126.492 395.496 125.25C395.496 124.008 395.734 122.942 396.209 122.053C396.684 121.148 397.344 120.458 398.187 119.983C399.03 119.508 399.989 119.27 401.062 119.27ZM401.062 120.857C400.28 120.857 399.613 121.033 399.061 121.386C398.509 121.739 398.08 122.245 397.773 122.904C397.482 123.548 397.336 124.33 397.336 125.25C397.336 126.155 397.482 126.937 397.773 127.596C398.08 128.255 398.509 128.761 399.061 129.114C399.613 129.467 400.28 129.643 401.062 129.643C401.844 129.643 402.511 129.467 403.063 129.114C403.615 128.761 404.037 128.255 404.328 127.596C404.635 126.937 404.788 126.155 404.788 125.25C404.788 124.33 404.635 123.548 404.328 122.904C404.037 122.245 403.615 121.739 403.063 121.386C402.511 121.033 401.844 120.857 401.062 120.857ZM410.092 131V119.5H411.702L411.817 121.294C412.231 120.589 412.768 120.075 413.427 119.753C414.102 119.431 414.792 119.27 415.497 119.27C416.31 119.27 417.076 119.454 417.797 119.822C418.518 120.19 419.07 120.757 419.453 121.524C419.698 121.003 420.043 120.581 420.488 120.259C420.933 119.922 421.416 119.676 421.937 119.523C422.474 119.354 422.98 119.27 423.455 119.27C424.191 119.27 424.889 119.423 425.548 119.73C426.223 120.037 426.775 120.512 427.204 121.156C427.633 121.8 427.848 122.628 427.848 123.64V131H426.008V123.824C426.008 122.781 425.747 122.03 425.226 121.57C424.705 121.11 424.061 120.88 423.294 120.88C422.696 120.88 422.136 121.026 421.615 121.317C421.094 121.608 420.672 122.038 420.35 122.605C420.043 123.172 419.89 123.87 419.89 124.698V131H418.05V123.824C418.05 122.781 417.789 122.03 417.268 121.57C416.747 121.11 416.103 120.88 415.336 120.88C414.83 120.88 414.309 121.018 413.772 121.294C413.251 121.555 412.814 121.976 412.461 122.559C412.108 123.142 411.932 123.908 411.932 124.859V131H410.092ZM436.821 131.23C435.732 131.23 434.759 130.992 433.9 130.517C433.057 130.042 432.397 129.359 431.922 128.47C431.447 127.565 431.209 126.492 431.209 125.25C431.209 124.008 431.447 122.942 431.922 122.053C432.397 121.148 433.049 120.458 433.877 119.983C434.705 119.508 435.648 119.27 436.706 119.27C437.779 119.27 438.692 119.5 439.443 119.96C440.21 120.42 440.792 121.049 441.191 121.846C441.59 122.628 441.789 123.51 441.789 124.491C441.789 124.752 441.781 124.989 441.766 125.204C441.751 125.419 441.728 125.61 441.697 125.779H432.405V124.146H440.892L439.949 124.33C439.949 123.226 439.642 122.375 439.029 121.777C438.431 121.179 437.641 120.88 436.66 120.88C435.909 120.88 435.257 121.056 434.705 121.409C434.168 121.746 433.747 122.245 433.44 122.904C433.149 123.548 433.003 124.33 433.003 125.25C433.003 126.155 433.156 126.937 433.463 127.596C433.77 128.255 434.199 128.761 434.751 129.114C435.318 129.451 435.993 129.62 436.775 129.62C437.618 129.62 438.301 129.459 438.822 129.137C439.359 128.815 439.788 128.378 440.11 127.826L441.559 128.677C441.268 129.198 440.892 129.651 440.432 130.034C439.987 130.417 439.458 130.716 438.845 130.931C438.247 131.13 437.572 131.23 436.821 131.23ZM445.288 131V119.5H446.783L447.036 121.386C447.358 120.681 447.826 120.152 448.439 119.799C449.068 119.446 449.827 119.27 450.716 119.27C450.916 119.27 451.13 119.285 451.36 119.316C451.606 119.347 451.813 119.408 451.981 119.5L451.659 121.179C451.491 121.118 451.307 121.072 451.107 121.041C450.908 121.01 450.624 120.995 450.256 120.995C449.781 120.995 449.298 121.133 448.807 121.409C448.332 121.685 447.933 122.107 447.611 122.674C447.289 123.226 447.128 123.931 447.128 124.79V131H445.288ZM458.323 131.23C457.204 131.23 456.169 130.992 455.218 130.517C454.283 130.042 453.562 129.367 453.056 128.493L454.62 127.366C454.957 128.071 455.448 128.623 456.092 129.022C456.751 129.421 457.541 129.62 458.461 129.62C459.274 129.62 459.91 129.467 460.37 129.16C460.83 128.838 461.06 128.424 461.06 127.918C461.06 127.596 460.953 127.305 460.738 127.044C460.539 126.768 460.148 126.569 459.565 126.446L456.805 125.871C455.686 125.641 454.881 125.258 454.39 124.721C453.915 124.184 453.677 123.517 453.677 122.72C453.677 122.091 453.853 121.516 454.206 120.995C454.574 120.474 455.088 120.06 455.747 119.753C456.422 119.431 457.211 119.27 458.116 119.27C459.251 119.27 460.209 119.492 460.991 119.937C461.773 120.382 462.356 121.01 462.739 121.823L461.198 122.835C460.937 122.16 460.516 121.67 459.933 121.363C459.35 121.041 458.745 120.88 458.116 120.88C457.564 120.88 457.089 120.957 456.69 121.11C456.307 121.263 456.008 121.478 455.793 121.754C455.594 122.015 455.494 122.314 455.494 122.651C455.494 122.988 455.609 123.303 455.839 123.594C456.069 123.87 456.498 124.069 457.127 124.192L460.002 124.79C461.075 125.005 461.827 125.357 462.256 125.848C462.685 126.339 462.9 126.937 462.9 127.642C462.9 128.363 462.708 128.999 462.325 129.551C461.942 130.088 461.405 130.502 460.715 130.793C460.025 131.084 459.228 131.23 458.323 131.23Z" fill="#434343"/>
<circle cx="529.5" cy="196.5" r="20.5" fill="#474644"/>
<path d="M530.904 194.003H520.514C519.125 194.003 518 195.123 518 196.506C518 197.888 519.125 199.009 520.514 199.009H530.904M523.313 194.006C524.339 191.124 527.074 189 530.287 189L535.556 189C536.906 189 538 190.235 538 191.577C538 192.918 536.906 194.006 535.556 194.006L523.313 194.006ZM523.313 194.006C523.033 194.793 522.881 195.637 522.881 196.509C522.881 197.382 523.034 198.226 523.314 199.012M523.314 199.012C524.341 201.888 527.075 204 530.287 204L535.556 204C536.906 204 538 202.783 538 201.442C538 200.1 536.906 199.012 535.556 199.012H523.314Z" stroke="#F7F7F3" stroke-width="1.13208" stroke-linejoin="round"/>
<g opacity="0.24">
<rect x="315.5" y="177.5" width="180" height="39" rx="19.5" fill="white" stroke="black"/>
</g>
<path d="M343.608 200H342.588L341.748 197.804H338.16L337.32 200H336.312L339.396 192.08H340.536L343.608 200ZM338.508 196.904H341.4L339.948 193.004L338.508 196.904ZM347.272 200.12C346.776 200.12 346.32 199.996 345.904 199.748C345.488 199.5 345.156 199.144 344.908 198.68C344.66 198.208 344.536 197.648 344.536 197C344.536 196.336 344.668 195.772 344.932 195.308C345.196 194.844 345.544 194.492 345.976 194.252C346.408 194.004 346.872 193.88 347.368 193.88C347.864 193.88 348.292 194.008 348.652 194.264C349.02 194.52 349.264 194.86 349.384 195.284L349.264 195.368V191.24H350.224V200H349.384L349.3 198.548L349.432 198.476C349.376 198.828 349.24 199.128 349.024 199.376C348.816 199.616 348.556 199.8 348.244 199.928C347.94 200.056 347.616 200.12 347.272 200.12ZM347.368 199.28C347.752 199.28 348.084 199.184 348.364 198.992C348.652 198.8 348.872 198.528 349.024 198.176C349.184 197.816 349.264 197.396 349.264 196.916C349.264 196.46 349.184 196.068 349.024 195.74C348.872 195.412 348.656 195.16 348.376 194.984C348.104 194.808 347.784 194.72 347.416 194.72C346.808 194.72 346.336 194.928 346 195.344C345.664 195.76 345.496 196.312 345.496 197C345.496 197.688 345.66 198.24 345.988 198.656C346.316 199.072 346.776 199.28 347.368 199.28ZM352.936 192.848C352.72 192.848 352.544 192.784 352.408 192.656C352.28 192.52 352.216 192.344 352.216 192.128C352.216 191.912 352.28 191.74 352.408 191.612C352.544 191.476 352.72 191.408 352.936 191.408C353.152 191.408 353.324 191.476 353.452 191.612C353.588 191.74 353.656 191.912 353.656 192.128C353.656 192.344 353.588 192.52 353.452 192.656C353.324 192.784 353.152 192.848 352.936 192.848ZM353.416 194V200.612C353.416 201.108 353.32 201.5 353.128 201.788C352.936 202.076 352.7 202.28 352.42 202.4C352.14 202.52 351.864 202.58 351.592 202.58C351.344 202.58 351.116 202.54 350.908 202.46C350.7 202.388 350.528 202.296 350.392 202.184L350.596 201.272C350.708 201.376 350.848 201.464 351.016 201.536C351.184 201.608 351.372 201.644 351.58 201.644C351.836 201.644 352.044 201.56 352.204 201.392C352.372 201.224 352.456 200.932 352.456 200.516V194H353.416ZM357.815 200.12C357.431 200.12 357.067 200.048 356.723 199.904C356.387 199.76 356.111 199.528 355.895 199.208C355.687 198.88 355.583 198.456 355.583 197.936V194H356.543V197.684C356.543 198.292 356.675 198.712 356.939 198.944C357.203 199.168 357.575 199.28 358.055 199.28C358.279 199.28 358.499 199.244 358.715 199.172C358.931 199.092 359.123 198.972 359.291 198.812C359.467 198.644 359.603 198.432 359.699 198.176C359.803 197.92 359.855 197.616 359.855 197.264V194H360.815V200H359.975L359.915 199.088C359.707 199.448 359.423 199.712 359.063 199.88C358.711 200.04 358.295 200.12 357.815 200.12ZM365.21 200.12C364.626 200.12 364.086 199.996 363.59 199.748C363.102 199.5 362.726 199.148 362.462 198.692L363.278 198.104C363.454 198.472 363.71 198.76 364.046 198.968C364.39 199.176 364.802 199.28 365.282 199.28C365.706 199.28 366.038 199.2 366.278 199.04C366.518 198.872 366.638 198.656 366.638 198.392C366.638 198.224 366.582 198.072 366.47 197.936C366.366 197.792 366.162 197.688 365.858 197.624L364.418 197.324C363.834 197.204 363.414 197.004 363.158 196.724C362.91 196.444 362.786 196.096 362.786 195.68C362.786 195.352 362.878 195.052 363.062 194.78C363.254 194.508 363.522 194.292 363.866 194.132C364.218 193.964 364.63 193.88 365.102 193.88C365.694 193.88 366.194 193.996 366.602 194.228C367.01 194.46 367.314 194.788 367.514 195.212L366.71 195.74C366.574 195.388 366.354 195.132 366.05 194.972C365.746 194.804 365.43 194.72 365.102 194.72C364.814 194.72 364.566 194.76 364.358 194.84C364.158 194.92 364.002 195.032 363.89 195.176C363.786 195.312 363.734 195.468 363.734 195.644C363.734 195.82 363.794 195.984 363.914 196.136C364.034 196.28 364.258 196.384 364.586 196.448L366.086 196.76C366.646 196.872 367.038 197.056 367.262 197.312C367.486 197.568 367.598 197.88 367.598 198.248C367.598 198.624 367.498 198.956 367.298 199.244C367.098 199.524 366.818 199.74 366.458 199.892C366.098 200.044 365.682 200.12 365.21 200.12ZM370.794 192.296V198.344C370.794 198.64 370.878 198.86 371.046 199.004C371.214 199.148 371.43 199.22 371.694 199.22C371.926 199.22 372.126 199.18 372.294 199.1C372.462 199.02 372.614 198.912 372.75 198.776L373.086 199.58C372.902 199.748 372.682 199.88 372.426 199.976C372.178 200.072 371.89 200.12 371.562 200.12C371.258 200.12 370.974 200.068 370.71 199.964C370.446 199.852 370.234 199.68 370.074 199.448C369.922 199.208 369.842 198.896 369.834 198.512V192.56L370.794 192.296ZM372.978 194V194.828H368.634V194H372.978ZM374.885 192.848C374.669 192.848 374.493 192.784 374.357 192.656C374.229 192.52 374.165 192.344 374.165 192.128C374.165 191.912 374.229 191.74 374.357 191.612C374.493 191.476 374.669 191.408 374.885 191.408C375.101 191.408 375.273 191.476 375.401 191.612C375.537 191.74 375.605 191.912 375.605 192.128C375.605 192.344 375.537 192.52 375.401 192.656C375.273 192.784 375.101 192.848 374.885 192.848ZM375.365 194V200H374.405V194H375.365ZM377.593 200V194H378.433L378.517 195.344L378.361 195.212C378.489 194.892 378.661 194.636 378.877 194.444C379.093 194.244 379.341 194.1 379.621 194.012C379.909 193.924 380.205 193.88 380.509 193.88C380.941 193.88 381.333 193.964 381.685 194.132C382.037 194.292 382.317 194.54 382.525 194.876C382.741 195.212 382.849 195.64 382.849 196.16V200H381.889V196.496C381.889 195.832 381.745 195.372 381.457 195.116C381.177 194.852 380.829 194.72 380.413 194.72C380.125 194.72 379.837 194.788 379.549 194.924C379.261 195.06 379.021 195.28 378.829 195.584C378.645 195.888 378.553 196.296 378.553 196.808V200H377.593ZM390.074 192.896L390.29 193.748C390.282 193.748 390.27 193.748 390.254 193.748C390.238 193.748 390.222 193.748 390.206 193.748C389.814 193.748 389.51 193.828 389.294 193.988C389.086 194.14 388.982 194.388 388.982 194.732L388.394 194.432C388.394 194.12 388.466 193.848 388.61 193.616C388.754 193.384 388.95 193.208 389.198 193.088C389.446 192.96 389.718 192.896 390.014 192.896C390.022 192.896 390.03 192.896 390.038 192.896C390.054 192.896 390.066 192.896 390.074 192.896ZM388.25 199.232C388.818 199.232 389.262 199.364 389.582 199.628C389.902 199.884 390.062 200.228 390.062 200.66C390.062 201.052 389.93 201.392 389.666 201.68C389.41 201.968 389.062 202.188 388.622 202.34C388.19 202.5 387.702 202.58 387.158 202.58C386.214 202.58 385.506 202.42 385.034 202.1C384.57 201.78 384.338 201.396 384.338 200.948C384.338 200.628 384.442 200.34 384.65 200.084C384.866 199.836 385.226 199.696 385.73 199.664L385.646 199.844C385.374 199.772 385.142 199.652 384.95 199.484C384.766 199.308 384.674 199.056 384.674 198.728C384.674 198.4 384.794 198.12 385.034 197.888C385.282 197.648 385.646 197.5 386.126 197.444L386.762 197.768H386.642C386.25 197.808 385.97 197.908 385.802 198.068C385.642 198.22 385.562 198.388 385.562 198.572C385.562 198.796 385.642 198.964 385.802 199.076C385.97 199.18 386.202 199.232 386.498 199.232H388.25ZM387.146 201.776C387.61 201.776 387.99 201.728 388.286 201.632C388.59 201.536 388.814 201.412 388.958 201.26C389.102 201.108 389.174 200.944 389.174 200.768C389.174 200.552 389.086 200.38 388.91 200.252C388.742 200.124 388.434 200.06 387.986 200.06H386.138C385.882 200.06 385.666 200.124 385.49 200.252C385.314 200.388 385.226 200.572 385.226 200.804C385.226 201.1 385.394 201.336 385.73 201.512C386.074 201.688 386.546 201.776 387.146 201.776ZM387.062 193.88C387.542 193.88 387.966 193.968 388.334 194.144C388.71 194.312 389.002 194.548 389.21 194.852C389.418 195.156 389.522 195.508 389.522 195.908C389.522 196.3 389.418 196.652 389.21 196.964C389.002 197.268 388.71 197.508 388.334 197.684C387.966 197.852 387.542 197.936 387.062 197.936C386.27 197.936 385.662 197.748 385.238 197.372C384.814 196.988 384.602 196.5 384.602 195.908C384.602 195.508 384.706 195.156 384.914 194.852C385.13 194.548 385.422 194.312 385.79 194.144C386.158 193.968 386.582 193.88 387.062 193.88ZM387.062 194.66C386.646 194.66 386.298 194.776 386.018 195.008C385.738 195.232 385.598 195.532 385.598 195.908C385.598 196.276 385.738 196.576 386.018 196.808C386.298 197.04 386.646 197.156 387.062 197.156C387.478 197.156 387.826 197.04 388.106 196.808C388.386 196.576 388.526 196.276 388.526 195.908C388.526 195.532 388.386 195.232 388.106 195.008C387.826 194.776 387.478 194.66 387.062 194.66ZM391.889 198.56C392.121 198.56 392.309 198.632 392.453 198.776C392.597 198.92 392.669 199.108 392.669 199.34C392.669 199.572 392.597 199.76 392.453 199.904C392.309 200.048 392.121 200.12 391.889 200.12C391.657 200.12 391.469 200.048 391.325 199.904C391.181 199.76 391.109 199.572 391.109 199.34C391.109 199.108 391.181 198.92 391.325 198.776C391.469 198.632 391.657 198.56 391.889 198.56ZM395.076 198.56C395.308 198.56 395.496 198.632 395.64 198.776C395.784 198.92 395.856 199.108 395.856 199.34C395.856 199.572 395.784 199.76 395.64 199.904C395.496 200.048 395.308 200.12 395.076 200.12C394.844 200.12 394.656 200.048 394.512 199.904C394.368 199.76 394.296 199.572 394.296 199.34C394.296 199.108 394.368 198.92 394.512 198.776C394.656 198.632 394.844 198.56 395.076 198.56ZM398.264 198.56C398.496 198.56 398.684 198.632 398.828 198.776C398.972 198.92 399.044 199.108 399.044 199.34C399.044 199.572 398.972 199.76 398.828 199.904C398.684 200.048 398.496 200.12 398.264 200.12C398.032 200.12 397.844 200.048 397.7 199.904C397.556 199.76 397.484 199.572 397.484 199.34C397.484 199.108 397.556 198.92 397.7 198.776C397.844 198.632 398.032 198.56 398.264 198.56Z" fill="#434343"/>
<rect x="54.5" y="251.5" width="381" height="114" rx="9.5" fill="#F7F7F2" stroke="black"/>
<path d="M90.264 304.832V300.672H117.592L116.312 304.832H90.264ZM90.264 314.048V309.888H115.032L113.752 314.048H90.264ZM113.368 285.12C116.056 285.12 118.424 285.504 120.472 286.272C122.52 287.04 124.248 288.171 125.656 289.664C127.107 291.115 128.216 292.907 128.984 295.04L123.288 297.664C122.691 295.317 121.56 293.547 119.896 292.352C118.275 291.157 116.248 290.56 113.816 290.56C111.341 290.56 109.187 291.221 107.352 292.544C105.56 293.824 104.173 295.68 103.192 298.112C102.211 300.544 101.72 303.467 101.72 306.88C101.72 311.957 102.723 315.947 104.728 318.848C106.733 321.749 109.763 323.2 113.816 323.2C116.333 323.2 118.445 322.517 120.152 321.152C121.901 319.787 123.117 317.781 123.8 315.136L129.56 317.056C128.835 319.531 127.725 321.643 126.232 323.392C124.739 325.099 122.904 326.4 120.728 327.296C118.595 328.192 116.205 328.64 113.56 328.64C109.677 328.64 106.349 327.765 103.576 326.016C100.845 324.267 98.7547 321.771 97.304 318.528C95.8533 315.285 95.128 311.403 95.128 306.88C95.128 302.357 95.896 298.475 97.432 295.232C98.968 291.989 101.101 289.493 103.832 287.744C106.563 285.995 109.741 285.12 113.368 285.12Z" fill="black"/>
<rect x="170" y="303" width="247" height="9" rx="4.5" fill="black"/>
<g filter="url(#filter0_dd_1178_13723)">
<rect x="225" y="295" width="26" height="26" rx="13" fill="white"/>
<rect x="223.5" y="293.5" width="29" height="29" rx="14.5" stroke="black" stroke-width="3"/>
</g>
<defs>
<filter id="filter0_dd_1178_13723" x="206" y="284" width="64" height="64" filterUnits="userSpaceOnUse" color-interpolation-filters="sRGB">
<feFlood flood-opacity="0" result="BackgroundImageFix"/>
<feColorMatrix in="SourceAlpha" type="matrix" values="0 0 0 0 0 0 0 0 0 0 0 0 0 0 0 0 0 0 127 0" result="hardAlpha"/>
<feOffset dy="8"/>
<feGaussianBlur stdDeviation="8"/>
<feColorMatrix type="matrix" values="0 0 0 0 0 0 0 0 0 0 0 0 0 0 0 0 0 0 0.08 0"/>
<feBlend mode="normal" in2="BackgroundImageFix" result="effect1_dropShadow_1178_13723"/>
<feColorMatrix in="SourceAlpha" type="matrix" values="0 0 0 0 0 0 0 0 0 0 0 0 0 0 0 0 0 0 127 0" result="hardAlpha"/>
<feOffset/>
<feGaussianBlur stdDeviation="2"/>
<feColorMatrix type="matrix" values="0 0 0 0 0 0 0 0 0 0 0 0 0 0 0 0 0 0 0.04 0"/>
<feBlend mode="normal" in2="effect1_dropShadow_1178_13723" result="effect2_dropShadow_1178_13723"/>
<feBlend mode="normal" in="SourceGraphic" in2="effect2_dropShadow_1178_13723" result="shape"/>
</filter>
</defs>
</svg>
