<svg width="129" height="33" viewBox="0 0 129 33" fill="none" xmlns="http://www.w3.org/2000/svg">
<path d="M122.267 8.80585V25.021C122.267 26.0231 122.501 26.7907 122.97 27.3238C123.461 27.8355 124.164 28.0913 125.081 28.0913C125.678 28.0913 126.2 27.9954 126.648 27.8035C127.117 27.5903 127.533 27.2918 127.895 26.908L128.503 28.2193C128.098 28.6244 127.586 28.9549 126.968 29.2107C126.35 29.4453 125.657 29.5625 124.889 29.5625C124.058 29.5625 123.322 29.4133 122.682 29.1148C122.043 28.795 121.542 28.3152 121.179 27.6756C120.838 27.0359 120.667 26.2257 120.667 25.2449V9.25361L122.267 8.80585ZM128.247 13.2514V14.6267H117.469V13.2514H128.247Z" fill="white"/>
<path d="M112.815 10.1491C112.409 10.1491 112.079 10.0319 111.823 9.79731C111.589 9.54145 111.471 9.21097 111.471 8.80585C111.471 8.40074 111.589 8.08092 111.823 7.84638C112.079 7.59052 112.409 7.46259 112.815 7.46259C113.22 7.46259 113.54 7.59052 113.774 7.84638C114.03 8.08092 114.158 8.40074 114.158 8.80585C114.158 9.21097 114.03 9.54145 113.774 9.79731C113.54 10.0319 113.22 10.1491 112.815 10.1491ZM113.614 13.2514V29.2427H112.015V13.2514H113.614Z" fill="white"/>
<path d="M107.942 8.13422L99.1147 17.1853L98.8589 17.4411L93.4218 22.9741V20.7993L105.831 8.13422H107.942ZM94.2534 8.13422V29.2427H92.6543V8.13422H94.2534ZM99.2427 16.1299L108.166 29.2427H106.215L97.9634 17.0893L99.2427 16.1299Z" fill="white"/>
<path d="M76.499 8.13422C79.8678 8.13422 82.4584 9.02973 84.2708 10.8208C86.1044 12.5905 87.0213 15.1597 87.0213 18.5286C87.0213 22.004 86.1044 24.6585 84.2708 26.4922C82.4584 28.3259 79.8678 29.2427 76.499 29.2427H69.8466V8.13422H76.499ZM76.6269 27.7715C79.4414 27.7715 81.5949 26.972 83.0874 25.3728C84.6013 23.7737 85.3582 21.4923 85.3582 18.5286C85.3582 15.6714 84.6013 13.4753 83.0874 11.9401C81.5949 10.3837 79.4414 9.60541 76.6269 9.60541H71.4458V27.7715H76.6269Z" fill="white"/>
<path d="M56.9049 8.13422C59.0157 8.13422 60.6895 8.66726 61.9261 9.73335C63.1841 10.7994 63.8131 12.26 63.8131 14.115C63.8131 15.9699 63.1841 17.4198 61.9261 18.4646C60.6682 19.488 58.9837 19.9998 56.8729 19.9998L56.713 20.0957H50.6683V29.2427H49.0692V8.13422H56.9049ZM56.8729 18.5925C58.5786 18.5925 59.8793 18.2087 60.7748 17.4411C61.6916 16.6736 62.15 15.5648 62.15 14.115C62.15 12.6651 61.6916 11.5564 60.7748 10.7888C59.8793 9.99987 58.5786 9.60541 56.8729 9.60541H50.6683V18.5925H56.8729ZM58.1202 18.8804L64.9325 29.2427H63.0455L56.777 19.7759L58.1202 18.8804Z" fill="white"/>
<path d="M36.9826 8.13422C38.4538 8.13422 39.7224 8.39008 40.7885 8.9018C41.8546 9.3922 42.6755 10.0958 43.2512 11.0126C43.8482 11.9295 44.1467 13.0276 44.1467 14.3069C44.1467 15.6075 43.8482 16.7162 43.2512 17.633C42.6755 18.5499 41.8546 19.2642 40.7885 19.7759C39.7224 20.2663 38.4538 20.5115 36.9826 20.5115H31.5775V29.2427H29.9784V8.13422H36.9826ZM36.7907 19.0083C38.6457 19.0083 40.0529 18.6032 41.0124 17.793C41.9719 16.9614 42.4516 15.7994 42.4516 14.3069C42.4516 12.8143 41.9719 11.663 41.0124 10.8527C40.0529 10.0212 38.6457 9.60541 36.7907 9.60541H31.5775V19.0083H36.7907Z" fill="white"/>
<g clip-path="url(#clip0_42_209)">
<path d="M11.0109 0H3.73807C1.65063 0 0 1.8801 0 3.92326C0 5.96641 1.67277 7.66736 3.73807 7.66736H20.3752C20.6952 8.6517 20.8704 9.70045 20.8704 10.7834C20.8704 11.8664 20.6972 12.9131 20.3772 13.8995H3.73807C1.71907 13.8995 0.0764925 15.5038 0.00603888 17.5087H0V28.429C0 30.5467 1.72309 32.2637 3.84677 32.2637C5.97044 32.2637 7.69353 30.5487 7.69353 28.429V21.589H11.0129C16.8706 21.589 21.6011 16.627 21.6011 10.7814C21.6011 4.93578 16.8666 0 11.0109 0ZM3.73807 6.93666C2.07536 6.93666 0.728691 5.58797 0.728691 3.92326C0.728691 2.25854 2.09952 0.730704 3.73807 0.730704H6.92861V6.93666H3.73807ZM7.7358 6.93666V0.730704H11.0109C15.0992 0.730704 18.6138 3.32742 20.1054 6.93666H7.73379H7.7358ZM3.73807 14.6282H6.96081V20.8603H3.73807C2.10958 20.8603 0.738756 19.3445 0.728691 17.6597V17.6235C0.738756 15.9668 2.0814 14.6282 3.73807 14.6282ZM6.96283 28.431C6.96283 30.1461 5.56785 31.537 3.84677 31.537C2.12569 31.537 0.730704 30.1461 0.730704 28.431V19.9303C1.40706 20.9106 2.49204 21.591 3.74008 21.591H6.96283V28.431ZM11.0109 20.8603H7.69152V14.6282H20.1075C18.6158 18.2475 15.0992 20.8603 11.0109 20.8603Z" fill="white"/>
</g>
<defs>
<clipPath id="clip0_42_209">
<rect width="21.5991" height="32.2637" fill="white"/>
</clipPath>
</defs>
</svg>
