<svg width="22" height="33" viewBox="0 0 22 33" fill="none" xmlns="http://www.w3.org/2000/svg">
<g clip-path="url(#clip0_42_217)">
<path d="M11.0109 0H3.73807C1.65063 0 0 1.8801 0 3.92326C0 5.96641 1.67277 7.66736 3.73807 7.66736H20.3752C20.6952 8.6517 20.8704 9.70045 20.8704 10.7834C20.8704 11.8664 20.6972 12.9131 20.3772 13.8995H3.73807C1.71907 13.8995 0.0764925 15.5038 0.00603888 17.5087H0V28.429C0 30.5467 1.72309 32.2637 3.84677 32.2637C5.97044 32.2637 7.69353 30.5487 7.69353 28.429V21.589H11.0129C16.8706 21.589 21.6011 16.627 21.6011 10.7814C21.6011 4.93578 16.8666 0 11.0109 0ZM3.73807 6.93666C2.07536 6.93666 0.728691 5.58797 0.728691 3.92326C0.728691 2.25854 2.09952 0.730704 3.73807 0.730704H6.92861V6.93666H3.73807ZM7.7358 6.93666V0.730704H11.0109C15.0992 0.730704 18.6138 3.32742 20.1054 6.93666H7.73379H7.7358ZM3.73807 14.6282H6.96081V20.8603H3.73807C2.10958 20.8603 0.738756 19.3445 0.728691 17.6597V17.6235C0.738756 15.9668 2.0814 14.6282 3.73807 14.6282ZM6.96283 28.431C6.96283 30.1461 5.56785 31.537 3.84677 31.537C2.12569 31.537 0.730704 30.1461 0.730704 28.431V19.9303C1.40706 20.9106 2.49204 21.591 3.74008 21.591H6.96283V28.431ZM11.0109 20.8603H7.69152V14.6282H20.1075C18.6158 18.2475 15.0992 20.8603 11.0109 20.8603Z" fill="white"/>
</g>
<defs>
<clipPath id="clip0_42_217">
<rect width="21.5991" height="32.2637" fill="white"/>
</clipPath>
</defs>
</svg>
