<?xml version="1.0" encoding="UTF-8"?>
<svg xmlns="http://www.w3.org/2000/svg" version="1.1" viewBox="0 0 22 32.3">

    <path style="fill: #464545;"
        d="M11.2.4h-6.9C2.1.4.2,2.3.2,4.6s1.8,4.1,4,4.1h15.4c.2.8.3,1.6.3,2.5s-.1,1.7-.3,2.5H4.3c-2,0-3.7,1.5-4,3.4h0v10.9c0,2.3,1.9,4.1,4.2,4.1s4.2-1.9,4.2-4.1v-6h2.6c5.8,0,10.5-4.8,10.5-10.8S17,.4,11.2.4ZM6.8,7h-2.5c-1.3,0-2.4-1.1-2.4-2.4s1.1-2.5,2.4-2.5h2.5v4.9ZM8.6,7V2.1h2.6c3.3,0,6.3,1.9,7.9,4.9h-10.5ZM4.3,15.3h2.6v4.9h-2.6c-1.2,0-2.3-1.2-2.4-2.6,0-1.3,1.1-2.3,2.4-2.3ZM6.8,27.8c0,1.4-1.1,2.5-2.5,2.5s-2.5-1.1-2.5-2.5v-6.8c.7.5,1.5.8,2.4.8h2.5v6ZM11.2,20.2h-2.6v-4.9h10.5c-1.5,3-4.5,4.9-7.9,4.9Z" />

</svg>