<svg width="909" height="559" viewBox="0 0 909 559" fill="none" xmlns="http://www.w3.org/2000/svg">
<g clip-path="url(#clip0_1213_10343)">
<rect x="0.5" y="33.5" width="534" height="343.137" rx="20.5" fill="#F8F8F8" stroke="black"/>
<g opacity="0.3">
<path d="M1 54C1 42.9543 9.95431 34 21 34H514C525.046 34 534 42.9543 534 54V63.9086H1V54Z" fill="#F7F7F2"/>
<path d="M1 63.9082H534" stroke="black"/>
</g>
<rect x="32.5" y="90.5" width="118" height="263" rx="10.5" fill="#F6F6F6" stroke="#ACACAC"/>
<rect x="176.5" y="90.5" width="334" height="263" rx="10.5" fill="#F6F6F6" stroke="#ACACAC"/>
<rect x="82.5" y="117.5" width="534" height="343.137" rx="20.5" fill="white" stroke="black"/>
<g opacity="0.3">
<path d="M83 138C83 126.954 91.9543 118 103 118H596C607.046 118 616 126.954 616 138V147.909H83V138Z" fill="#F7F7F2"/>
<path d="M83 147.908H616" stroke="black"/>
</g>
<rect x="114.5" y="174.5" width="118" height="263" rx="10.5" fill="#F7F7F7" stroke="#ACACAC"/>
<rect x="258.5" y="174.5" width="334" height="263" rx="10.5" fill="#F7F7F7" stroke="#ACACAC"/>
<rect x="176.5" y="214.5" width="534" height="343.137" rx="20.5" fill="white" stroke="black"/>
<rect x="245" y="386" width="663" height="103" rx="51.5" fill="white"/>
<rect x="245" y="386" width="663" height="103" rx="51.5" stroke="black"/>
<path d="M285.835 429.528V446.5H283.777V429.528H285.835ZM290.875 446.5V433.642H292.675L292.804 435.648C293.267 434.859 293.867 434.285 294.604 433.925C295.358 433.565 296.13 433.385 296.918 433.385C297.827 433.385 298.684 433.591 299.49 434.002C300.296 434.414 300.913 435.048 301.341 435.905C301.616 435.322 302.001 434.851 302.499 434.491C302.996 434.114 303.536 433.839 304.119 433.668C304.719 433.479 305.284 433.385 305.816 433.385C306.639 433.385 307.419 433.557 308.156 433.899C308.91 434.242 309.527 434.774 310.007 435.494C310.487 436.214 310.727 437.14 310.727 438.271V446.5H308.67V438.477C308.67 437.311 308.379 436.471 307.796 435.957C307.213 435.442 306.493 435.185 305.636 435.185C304.967 435.185 304.341 435.348 303.759 435.674C303.176 436 302.704 436.48 302.344 437.114C302.001 437.748 301.83 438.528 301.83 439.454V446.5H299.773V438.477C299.773 437.311 299.481 436.471 298.898 435.957C298.315 435.442 297.595 435.185 296.738 435.185C296.173 435.185 295.59 435.339 294.99 435.648C294.407 435.94 293.918 436.411 293.524 437.062C293.13 437.714 292.932 438.571 292.932 439.634V446.5H290.875ZM315.385 451.9V433.642H317.185L317.365 436.78L317.082 436.42C317.305 435.82 317.64 435.297 318.085 434.851C318.531 434.388 319.071 434.028 319.705 433.771C320.34 433.514 321.025 433.385 321.763 433.385C322.808 433.385 323.768 433.651 324.643 434.182C325.534 434.714 326.246 435.477 326.777 436.471C327.309 437.465 327.574 438.665 327.574 440.071C327.574 441.46 327.3 442.66 326.751 443.671C326.22 444.666 325.509 445.429 324.617 445.96C323.726 446.491 322.748 446.757 321.685 446.757C320.623 446.757 319.688 446.5 318.882 445.986C318.094 445.454 317.528 444.786 317.185 443.98L317.442 443.594V451.9H315.385ZM321.48 444.957C322.748 444.957 323.734 444.511 324.437 443.62C325.157 442.728 325.517 441.545 325.517 440.071C325.517 438.597 325.166 437.414 324.463 436.522C323.777 435.631 322.808 435.185 321.557 435.185C320.734 435.185 320.014 435.391 319.397 435.802C318.78 436.197 318.3 436.762 317.957 437.5C317.614 438.22 317.442 439.077 317.442 440.071C317.442 441.048 317.605 441.906 317.931 442.643C318.274 443.38 318.745 443.954 319.345 444.366C319.963 444.76 320.674 444.957 321.48 444.957ZM331.508 446.5V433.642H333.179L333.462 435.751C333.822 434.962 334.345 434.371 335.031 433.977C335.733 433.582 336.582 433.385 337.576 433.385C337.799 433.385 338.039 433.402 338.296 433.437C338.571 433.471 338.802 433.539 338.991 433.642L338.631 435.519C338.442 435.451 338.236 435.399 338.014 435.365C337.791 435.331 337.474 435.314 337.062 435.314C336.531 435.314 335.991 435.468 335.442 435.777C334.911 436.085 334.465 436.557 334.105 437.191C333.745 437.808 333.565 438.597 333.565 439.557V446.5H331.508ZM346.926 433.385C348.143 433.385 349.215 433.651 350.14 434.182C351.083 434.714 351.821 435.485 352.352 436.497C352.883 437.491 353.149 438.683 353.149 440.071C353.149 441.46 352.883 442.66 352.352 443.671C351.821 444.666 351.083 445.429 350.14 445.96C349.215 446.491 348.143 446.757 346.926 446.757C345.726 446.757 344.654 446.491 343.712 445.96C342.769 445.429 342.031 444.666 341.5 443.671C340.969 442.66 340.703 441.46 340.703 440.071C340.703 438.683 340.969 437.491 341.5 436.497C342.031 435.485 342.769 434.714 343.712 434.182C344.654 433.651 345.726 433.385 346.926 433.385ZM346.926 435.159C346.052 435.159 345.306 435.357 344.689 435.751C344.072 436.145 343.592 436.711 343.249 437.448C342.923 438.168 342.76 439.043 342.76 440.071C342.76 441.083 342.923 441.957 343.249 442.694C343.592 443.431 344.072 443.997 344.689 444.391C345.306 444.786 346.052 444.983 346.926 444.983C347.8 444.983 348.546 444.786 349.163 444.391C349.78 443.997 350.252 443.431 350.578 442.694C350.92 441.957 351.092 441.083 351.092 440.071C351.092 439.043 350.92 438.168 350.578 437.448C350.252 436.711 349.78 436.145 349.163 435.751C348.546 435.357 347.8 435.159 346.926 435.159ZM365.534 433.642H367.694L362.345 446.5H360.288L354.939 433.642H357.279L361.342 444.417L365.534 433.642ZM375.757 446.757C374.539 446.757 373.451 446.491 372.491 445.96C371.548 445.429 370.811 444.666 370.279 443.671C369.748 442.66 369.482 441.46 369.482 440.071C369.482 438.683 369.748 437.491 370.279 436.497C370.811 435.485 371.539 434.714 372.465 434.182C373.391 433.651 374.445 433.385 375.628 433.385C376.828 433.385 377.848 433.642 378.688 434.157C379.545 434.671 380.197 435.374 380.643 436.265C381.088 437.14 381.311 438.125 381.311 439.223C381.311 439.514 381.303 439.78 381.285 440.02C381.268 440.26 381.243 440.474 381.208 440.663H370.819V438.837H380.308L379.254 439.043C379.254 437.808 378.911 436.857 378.225 436.188C377.557 435.519 376.674 435.185 375.577 435.185C374.737 435.185 374.008 435.382 373.391 435.777C372.791 436.154 372.319 436.711 371.976 437.448C371.651 438.168 371.488 439.043 371.488 440.071C371.488 441.083 371.659 441.957 372.002 442.694C372.345 443.431 372.825 443.997 373.442 444.391C374.077 444.768 374.831 444.957 375.705 444.957C376.648 444.957 377.411 444.777 377.994 444.417C378.594 444.057 379.074 443.568 379.434 442.951L381.054 443.903C380.728 444.486 380.308 444.991 379.794 445.42C379.297 445.849 378.705 446.183 378.02 446.423C377.351 446.646 376.597 446.757 375.757 446.757ZM396.52 429.991V442.951C396.52 443.586 396.7 444.057 397.06 444.366C397.42 444.674 397.883 444.828 398.449 444.828C398.946 444.828 399.375 444.743 399.735 444.571C400.095 444.4 400.42 444.168 400.712 443.877L401.432 445.6C401.038 445.96 400.566 446.243 400.018 446.449C399.486 446.654 398.869 446.757 398.166 446.757C397.515 446.757 396.906 446.646 396.34 446.423C395.775 446.183 395.32 445.814 394.977 445.317C394.652 444.803 394.48 444.134 394.463 443.311V430.556L396.52 429.991ZM401.2 433.642V435.417H391.891V433.642H401.2ZM404.259 446.5V427.728H406.316V435.571C406.762 434.799 407.354 434.242 408.091 433.899C408.828 433.557 409.634 433.385 410.508 433.385C411.434 433.385 412.274 433.565 413.028 433.925C413.783 434.268 414.383 434.799 414.828 435.519C415.291 436.24 415.523 437.157 415.523 438.271V446.5H413.465V438.991C413.465 437.568 413.157 436.582 412.54 436.034C411.94 435.468 411.194 435.185 410.302 435.185C409.685 435.185 409.068 435.331 408.451 435.622C407.834 435.914 407.319 436.394 406.908 437.062C406.514 437.714 406.316 438.588 406.316 439.685V446.5H404.259ZM425.555 446.757C424.338 446.757 423.249 446.491 422.289 445.96C421.346 445.429 420.609 444.666 420.078 443.671C419.546 442.66 419.281 441.46 419.281 440.071C419.281 438.683 419.546 437.491 420.078 436.497C420.609 435.485 421.338 434.714 422.264 434.182C423.189 433.651 424.244 433.385 425.427 433.385C426.627 433.385 427.647 433.642 428.487 434.157C429.344 434.671 429.995 435.374 430.441 436.265C430.887 437.14 431.11 438.125 431.11 439.223C431.11 439.514 431.101 439.78 431.084 440.02C431.067 440.26 431.041 440.474 431.007 440.663H420.618V438.837H430.107L429.053 439.043C429.053 437.808 428.71 436.857 428.024 436.188C427.355 435.519 426.472 435.185 425.375 435.185C424.535 435.185 423.807 435.382 423.189 435.777C422.589 436.154 422.118 436.711 421.775 437.448C421.449 438.168 421.286 439.043 421.286 440.071C421.286 441.083 421.458 441.957 421.801 442.694C422.144 443.431 422.624 443.997 423.241 444.391C423.875 444.768 424.629 444.957 425.504 444.957C426.447 444.957 427.21 444.777 427.792 444.417C428.392 444.057 428.873 443.568 429.233 442.951L430.853 443.903C430.527 444.486 430.107 444.991 429.593 445.42C429.095 445.849 428.504 446.183 427.818 446.423C427.15 446.646 426.395 446.757 425.555 446.757ZM444.687 435.339C444.292 435.339 443.95 435.237 443.658 435.031C443.367 434.808 443.144 434.508 442.99 434.131C442.835 433.754 442.758 433.325 442.758 432.845C442.758 432.262 442.852 431.705 443.041 431.174C443.247 430.625 443.555 430.119 443.967 429.656C444.378 429.193 444.91 428.808 445.561 428.499L446.641 429.502C446.178 429.656 445.767 429.871 445.407 430.145C445.064 430.419 444.781 430.728 444.558 431.071C444.352 431.414 444.207 431.765 444.121 432.125L444.224 432.176C444.292 432.125 444.378 432.082 444.481 432.048C444.584 432.014 444.738 431.996 444.944 431.996C445.15 431.996 445.364 432.056 445.587 432.176C445.81 432.296 445.99 432.477 446.127 432.717C446.281 432.939 446.358 433.239 446.358 433.617C446.358 433.925 446.281 434.208 446.127 434.465C445.99 434.722 445.792 434.937 445.535 435.108C445.278 435.262 444.995 435.339 444.687 435.339ZM449.521 435.339C449.127 435.339 448.784 435.237 448.493 435.031C448.201 434.808 447.978 434.508 447.824 434.131C447.67 433.754 447.593 433.325 447.593 432.845C447.593 432.262 447.687 431.705 447.875 431.174C448.081 430.625 448.39 430.119 448.801 429.656C449.213 429.193 449.744 428.808 450.396 428.499L451.476 429.502C451.013 429.656 450.601 429.871 450.241 430.145C449.898 430.419 449.616 430.728 449.393 431.071C449.187 431.414 449.041 431.765 448.955 432.125L449.058 432.176C449.127 432.125 449.213 432.082 449.316 432.048C449.418 432.014 449.573 431.996 449.778 431.996C449.984 431.996 450.198 432.056 450.421 432.176C450.644 432.296 450.824 432.477 450.961 432.717C451.116 432.939 451.193 433.239 451.193 433.617C451.193 433.925 451.116 434.208 450.961 434.465C450.824 434.722 450.627 434.937 450.37 435.108C450.113 435.262 449.83 435.339 449.521 435.339ZM468.56 429.528V440.174C468.56 442.351 467.986 443.997 466.837 445.111C465.688 446.209 464.043 446.757 461.9 446.757C459.774 446.757 458.128 446.209 456.962 445.111C455.814 443.997 455.239 442.351 455.239 440.174V429.528H457.297V439.66C457.297 441.425 457.665 442.728 458.402 443.568C459.157 444.408 460.322 444.828 461.9 444.828C463.477 444.828 464.634 444.408 465.371 443.568C466.126 442.728 466.503 441.425 466.503 439.66V429.528H468.56ZM473.269 451.9V433.642H475.069L475.249 436.78L474.966 436.42C475.189 435.82 475.523 435.297 475.969 434.851C476.415 434.388 476.955 434.028 477.589 433.771C478.224 433.514 478.909 433.385 479.646 433.385C480.692 433.385 481.652 433.651 482.527 434.182C483.418 434.714 484.13 435.477 484.661 436.471C485.192 437.465 485.458 438.665 485.458 440.071C485.458 441.46 485.184 442.66 484.635 443.671C484.104 444.666 483.392 445.429 482.501 445.96C481.609 446.491 480.632 446.757 479.569 446.757C478.506 446.757 477.572 446.5 476.766 445.986C475.978 445.454 475.412 444.786 475.069 443.98L475.326 443.594V451.9H473.269ZM479.364 444.957C480.632 444.957 481.618 444.511 482.321 443.62C483.041 442.728 483.401 441.545 483.401 440.071C483.401 438.597 483.05 437.414 482.347 436.522C481.661 435.631 480.692 435.185 479.441 435.185C478.618 435.185 477.898 435.391 477.281 435.802C476.663 436.197 476.183 436.762 475.841 437.5C475.498 438.22 475.326 439.077 475.326 440.071C475.326 441.048 475.489 441.906 475.815 442.643C476.158 443.38 476.629 443.954 477.229 444.366C477.846 444.76 478.558 444.957 479.364 444.957ZM500.218 431.276L500.681 433.102C500.663 433.102 500.638 433.102 500.603 433.102C500.569 433.102 500.535 433.102 500.501 433.102C499.66 433.102 499.009 433.274 498.546 433.617C498.1 433.942 497.878 434.474 497.878 435.211L496.617 434.568C496.617 433.899 496.772 433.317 497.08 432.819C497.389 432.322 497.809 431.945 498.34 431.688C498.872 431.414 499.455 431.276 500.089 431.276C500.106 431.276 500.123 431.276 500.141 431.276C500.175 431.276 500.201 431.276 500.218 431.276ZM496.309 444.854C497.526 444.854 498.478 445.137 499.163 445.703C499.849 446.251 500.192 446.989 500.192 447.914C500.192 448.754 499.909 449.483 499.343 450.1C498.795 450.717 498.049 451.189 497.106 451.515C496.18 451.857 495.135 452.029 493.969 452.029C491.946 452.029 490.429 451.686 489.417 451C488.423 450.314 487.926 449.492 487.926 448.532C487.926 447.846 488.149 447.229 488.594 446.68C489.057 446.149 489.829 445.849 490.909 445.78L490.729 446.166C490.146 446.011 489.649 445.754 489.237 445.394C488.843 445.017 488.646 444.477 488.646 443.774C488.646 443.071 488.903 442.471 489.417 441.974C489.949 441.46 490.729 441.143 491.757 441.023L493.12 441.717H492.863C492.023 441.803 491.423 442.017 491.063 442.36C490.72 442.686 490.549 443.046 490.549 443.44C490.549 443.92 490.72 444.28 491.063 444.52C491.423 444.743 491.92 444.854 492.554 444.854H496.309ZM493.943 450.306C494.937 450.306 495.752 450.203 496.386 449.997C497.038 449.792 497.518 449.526 497.826 449.2C498.135 448.874 498.289 448.523 498.289 448.146C498.289 447.683 498.1 447.314 497.723 447.04C497.363 446.766 496.703 446.629 495.743 446.629H491.783C491.234 446.629 490.772 446.766 490.394 447.04C490.017 447.331 489.829 447.726 489.829 448.223C489.829 448.857 490.189 449.363 490.909 449.74C491.646 450.117 492.657 450.306 493.943 450.306ZM493.763 433.385C494.792 433.385 495.7 433.574 496.489 433.951C497.295 434.311 497.92 434.817 498.366 435.468C498.812 436.12 499.035 436.874 499.035 437.731C499.035 438.571 498.812 439.325 498.366 439.994C497.92 440.645 497.295 441.16 496.489 441.537C495.7 441.897 494.792 442.077 493.763 442.077C492.066 442.077 490.763 441.674 489.854 440.868C488.946 440.045 488.491 439 488.491 437.731C488.491 436.874 488.714 436.12 489.16 435.468C489.623 434.817 490.249 434.311 491.037 433.951C491.826 433.574 492.734 433.385 493.763 433.385ZM493.763 435.057C492.872 435.057 492.126 435.305 491.526 435.802C490.926 436.282 490.626 436.925 490.626 437.731C490.626 438.52 490.926 439.163 491.526 439.66C492.126 440.157 492.872 440.405 493.763 440.405C494.655 440.405 495.4 440.157 496 439.66C496.6 439.163 496.9 438.52 496.9 437.731C496.9 436.925 496.6 436.282 496 435.802C495.4 435.305 494.655 435.057 493.763 435.057ZM503.078 446.5V433.642H504.749L505.032 435.751C505.392 434.962 505.915 434.371 506.601 433.977C507.304 433.582 508.152 433.385 509.147 433.385C509.37 433.385 509.61 433.402 509.867 433.437C510.141 433.471 510.373 433.539 510.561 433.642L510.201 435.519C510.012 435.451 509.807 435.399 509.584 435.365C509.361 435.331 509.044 435.314 508.632 435.314C508.101 435.314 507.561 435.468 507.012 435.777C506.481 436.085 506.035 436.557 505.675 437.191C505.315 437.808 505.135 438.597 505.135 439.557V446.5H503.078ZM520.732 438.194C520.732 437.234 520.475 436.497 519.961 435.982C519.447 435.451 518.718 435.185 517.775 435.185C516.884 435.185 516.129 435.382 515.512 435.777C514.895 436.154 514.441 436.771 514.149 437.628L512.478 436.6C512.821 435.64 513.455 434.868 514.381 434.285C515.306 433.685 516.455 433.385 517.827 433.385C518.752 433.385 519.592 433.548 520.347 433.874C521.101 434.182 521.692 434.662 522.121 435.314C522.567 435.948 522.79 436.771 522.79 437.782V444.006C522.79 444.623 523.115 444.931 523.767 444.931C524.093 444.931 524.41 444.888 524.718 444.803L524.615 446.423C524.273 446.594 523.827 446.68 523.278 446.68C522.781 446.68 522.335 446.586 521.941 446.397C521.547 446.209 521.238 445.926 521.015 445.549C520.792 445.154 520.681 444.666 520.681 444.083V443.826L521.195 443.903C520.99 444.571 520.638 445.12 520.141 445.549C519.644 445.96 519.087 446.269 518.469 446.474C517.852 446.663 517.244 446.757 516.644 446.757C515.889 446.757 515.186 446.629 514.535 446.371C513.883 446.114 513.361 445.729 512.966 445.214C512.589 444.683 512.401 444.031 512.401 443.26C512.401 442.3 512.718 441.511 513.352 440.894C514.003 440.26 514.904 439.831 516.052 439.608L521.144 438.605V440.303L517.004 441.151C516.164 441.323 515.538 441.563 515.126 441.871C514.715 442.18 514.509 442.608 514.509 443.157C514.509 443.688 514.715 444.126 515.126 444.468C515.555 444.794 516.155 444.957 516.926 444.957C517.424 444.957 517.895 444.897 518.341 444.777C518.804 444.64 519.215 444.443 519.575 444.186C519.935 443.911 520.218 443.577 520.424 443.183C520.629 442.771 520.732 442.291 520.732 441.743V438.194ZM532.803 446.757C531.74 446.757 530.763 446.491 529.872 445.96C528.98 445.429 528.269 444.666 527.737 443.671C527.206 442.66 526.94 441.46 526.94 440.071C526.94 438.648 527.223 437.44 527.789 436.445C528.355 435.451 529.1 434.697 530.026 434.182C530.952 433.651 531.946 433.385 533.009 433.385C534.072 433.385 534.989 433.659 535.761 434.208C536.549 434.757 537.072 435.485 537.329 436.394L537.072 436.574V427.728H539.129V446.5H537.329L537.149 443.388L537.432 443.234C537.312 443.988 537.021 444.631 536.558 445.163C536.112 445.677 535.555 446.071 534.886 446.346C534.235 446.62 533.541 446.757 532.803 446.757ZM533.009 444.957C533.832 444.957 534.543 444.751 535.143 444.34C535.761 443.928 536.232 443.346 536.558 442.591C536.901 441.82 537.072 440.92 537.072 439.891C537.072 438.914 536.901 438.074 536.558 437.371C536.232 436.668 535.769 436.128 535.169 435.751C534.586 435.374 533.901 435.185 533.112 435.185C531.809 435.185 530.798 435.631 530.078 436.522C529.357 437.414 528.997 438.597 528.997 440.071C528.997 441.545 529.349 442.728 530.052 443.62C530.755 444.511 531.74 444.957 533.009 444.957ZM549.286 446.757C548.069 446.757 546.98 446.491 546.02 445.96C545.077 445.429 544.34 444.666 543.808 443.671C543.277 442.66 543.011 441.46 543.011 440.071C543.011 438.683 543.277 437.491 543.808 436.497C544.34 435.485 545.068 434.714 545.994 434.182C546.92 433.651 547.974 433.385 549.157 433.385C550.357 433.385 551.377 433.642 552.217 434.157C553.074 434.671 553.726 435.374 554.172 436.265C554.617 437.14 554.84 438.125 554.84 439.223C554.84 439.514 554.832 439.78 554.815 440.02C554.797 440.26 554.772 440.474 554.737 440.663H544.348V438.837H553.837L552.783 439.043C552.783 437.808 552.44 436.857 551.754 436.188C551.086 435.519 550.203 435.185 549.106 435.185C548.266 435.185 547.537 435.382 546.92 435.777C546.32 436.154 545.848 436.711 545.506 437.448C545.18 438.168 545.017 439.043 545.017 440.071C545.017 441.083 545.188 441.957 545.531 442.694C545.874 443.431 546.354 443.997 546.971 444.391C547.606 444.768 548.36 444.957 549.234 444.957C550.177 444.957 550.94 444.777 551.523 444.417C552.123 444.057 552.603 443.568 552.963 442.951L554.583 443.903C554.257 444.486 553.837 444.991 553.323 445.42C552.826 445.849 552.234 446.183 551.549 446.423C550.88 446.646 550.126 446.757 549.286 446.757ZM573.895 429.528C575.043 429.528 576.038 429.742 576.878 430.171C577.735 430.582 578.403 431.174 578.883 431.945C579.363 432.717 579.603 433.634 579.603 434.697C579.603 435.76 579.363 436.677 578.883 437.448C578.403 438.22 577.735 438.82 576.878 439.248C576.038 439.66 575.043 439.865 573.895 439.865H569.96V446.5H567.903V429.528H573.895ZM573.586 437.937C574.923 437.937 575.9 437.662 576.518 437.114C577.135 436.548 577.443 435.742 577.443 434.697C577.443 433.634 577.135 432.828 576.518 432.279C575.9 431.731 574.923 431.456 573.586 431.456H569.96V437.937H573.586ZM585.167 427.728V443.234C585.167 443.886 585.287 444.34 585.527 444.597C585.767 444.837 586.153 444.957 586.684 444.957C587.027 444.957 587.31 444.931 587.533 444.88C587.756 444.828 588.056 444.734 588.433 444.597L588.099 446.397C587.824 446.517 587.524 446.603 587.199 446.654C586.873 446.723 586.539 446.757 586.196 446.757C585.15 446.757 584.37 446.474 583.856 445.909C583.358 445.343 583.11 444.477 583.11 443.311V427.728H585.167ZM598.582 438.194C598.582 437.234 598.325 436.497 597.81 435.982C597.296 435.451 596.568 435.185 595.625 435.185C594.733 435.185 593.979 435.382 593.362 435.777C592.744 436.154 592.29 436.771 591.999 437.628L590.327 436.6C590.67 435.64 591.304 434.868 592.23 434.285C593.156 433.685 594.305 433.385 595.676 433.385C596.602 433.385 597.442 433.548 598.196 433.874C598.95 434.182 599.542 434.662 599.971 435.314C600.416 435.948 600.639 436.771 600.639 437.782V444.006C600.639 444.623 600.965 444.931 601.616 444.931C601.942 444.931 602.259 444.888 602.568 444.803L602.465 446.423C602.122 446.594 601.676 446.68 601.128 446.68C600.631 446.68 600.185 446.586 599.791 446.397C599.396 446.209 599.088 445.926 598.865 445.549C598.642 445.154 598.53 444.666 598.53 444.083V443.826L599.045 443.903C598.839 444.571 598.488 445.12 597.99 445.549C597.493 445.96 596.936 446.269 596.319 446.474C595.702 446.663 595.093 446.757 594.493 446.757C593.739 446.757 593.036 446.629 592.384 446.371C591.733 446.114 591.21 445.729 590.816 445.214C590.439 444.683 590.25 444.031 590.25 443.26C590.25 442.3 590.567 441.511 591.202 440.894C591.853 440.26 592.753 439.831 593.902 439.608L598.993 438.605V440.303L594.853 441.151C594.013 441.323 593.387 441.563 592.976 441.871C592.564 442.18 592.359 442.608 592.359 443.157C592.359 443.688 592.564 444.126 592.976 444.468C593.404 444.794 594.005 444.957 594.776 444.957C595.273 444.957 595.745 444.897 596.19 444.777C596.653 444.64 597.065 444.443 597.425 444.186C597.785 443.911 598.068 443.577 598.273 443.183C598.479 442.771 598.582 442.291 598.582 441.743V438.194ZM605.638 446.5V433.642H607.438L607.618 436.522L607.284 436.24C607.558 435.554 607.927 435.005 608.39 434.594C608.853 434.165 609.384 433.857 609.984 433.668C610.601 433.479 611.236 433.385 611.887 433.385C612.813 433.385 613.653 433.565 614.407 433.925C615.162 434.268 615.762 434.799 616.207 435.519C616.67 436.24 616.902 437.157 616.902 438.271V446.5H614.844V438.991C614.844 437.568 614.536 436.582 613.919 436.034C613.319 435.468 612.573 435.185 611.681 435.185C611.064 435.185 610.447 435.331 609.83 435.622C609.213 435.914 608.699 436.385 608.287 437.037C607.893 437.688 607.696 438.562 607.696 439.66V446.5H605.638ZM621.256 428.499C621.668 428.499 622.011 428.611 622.285 428.833C622.576 429.039 622.799 429.331 622.954 429.708C623.108 430.068 623.185 430.496 623.185 430.994C623.185 431.559 623.082 432.116 622.876 432.665C622.688 433.214 622.388 433.719 621.976 434.182C621.565 434.645 621.033 435.031 620.382 435.339L619.302 434.337C619.765 434.182 620.168 433.968 620.511 433.694C620.871 433.419 621.162 433.111 621.385 432.768C621.608 432.425 621.753 432.074 621.822 431.714L621.719 431.662C621.651 431.714 621.565 431.756 621.462 431.791C621.359 431.825 621.205 431.842 620.999 431.842C620.793 431.842 620.579 431.782 620.356 431.662C620.151 431.542 619.971 431.371 619.816 431.148C619.662 430.908 619.585 430.599 619.585 430.222C619.585 429.914 619.662 429.631 619.816 429.374C619.971 429.099 620.168 428.885 620.408 428.731C620.665 428.576 620.948 428.499 621.256 428.499ZM626.091 428.499C626.502 428.499 626.845 428.611 627.119 428.833C627.411 429.039 627.634 429.331 627.788 429.708C627.942 430.068 628.019 430.496 628.019 430.994C628.019 431.559 627.917 432.116 627.711 432.665C627.522 433.214 627.222 433.719 626.811 434.182C626.399 434.645 625.868 435.031 625.216 435.339L624.136 434.337C624.599 434.182 625.002 433.968 625.345 433.694C625.705 433.419 625.997 433.111 626.219 432.768C626.442 432.425 626.588 432.074 626.657 431.714L626.554 431.662C626.485 431.714 626.399 431.756 626.297 431.791C626.194 431.825 626.039 431.842 625.834 431.842C625.628 431.842 625.414 431.782 625.191 431.662C624.985 431.542 624.805 431.371 624.651 431.148C624.496 430.908 624.419 430.599 624.419 430.222C624.419 429.914 624.496 429.631 624.651 429.374C624.805 429.099 625.002 428.885 625.242 428.731C625.499 428.576 625.782 428.499 626.091 428.499ZM645.819 446.757C644.602 446.757 643.513 446.491 642.553 445.96C641.61 445.429 640.873 444.666 640.342 443.671C639.81 442.66 639.545 441.46 639.545 440.071C639.545 438.683 639.81 437.491 640.342 436.497C640.873 435.485 641.602 434.714 642.528 434.182C643.453 433.651 644.508 433.385 645.691 433.385C646.891 433.385 647.911 433.642 648.751 434.157C649.608 434.671 650.259 435.374 650.705 436.265C651.151 437.14 651.374 438.125 651.374 439.223C651.374 439.514 651.365 439.78 651.348 440.02C651.331 440.26 651.305 440.474 651.271 440.663H640.882V438.837H650.371L649.316 439.043C649.316 437.808 648.974 436.857 648.288 436.188C647.619 435.519 646.736 435.185 645.639 435.185C644.799 435.185 644.071 435.382 643.453 435.777C642.853 436.154 642.382 436.711 642.039 437.448C641.713 438.168 641.55 439.043 641.55 440.071C641.55 441.083 641.722 441.957 642.065 442.694C642.408 443.431 642.888 443.997 643.505 444.391C644.139 444.768 644.893 444.957 645.768 444.957C646.711 444.957 647.474 444.777 648.056 444.417C648.656 444.057 649.136 443.568 649.496 442.951L651.117 443.903C650.791 444.486 650.371 444.991 649.856 445.42C649.359 445.849 648.768 446.183 648.082 446.423C647.414 446.646 646.659 446.757 645.819 446.757ZM656.043 433.642L659.875 439.017L660.004 439.197L665.275 446.5H662.755L658.769 440.92L658.538 440.637L653.472 433.642H656.043ZM665.198 433.642L660.107 440.508H659.978L655.555 446.5H653.163L658.769 439.12H658.924L662.781 433.642H665.198ZM668.521 451.9V433.642H670.321L670.501 436.78L670.218 436.42C670.441 435.82 670.775 435.297 671.221 434.851C671.667 434.388 672.207 434.028 672.841 433.771C673.475 433.514 674.161 433.385 674.898 433.385C675.944 433.385 676.904 433.651 677.778 434.182C678.67 434.714 679.381 435.477 679.913 436.471C680.444 437.465 680.71 438.665 680.71 440.071C680.71 441.46 680.436 442.66 679.887 443.671C679.355 444.666 678.644 445.429 677.753 445.96C676.861 446.491 675.884 446.757 674.821 446.757C673.758 446.757 672.824 446.5 672.018 445.986C671.229 445.454 670.664 444.786 670.321 443.98L670.578 443.594V451.9H668.521ZM674.615 444.957C675.884 444.957 676.87 444.511 677.573 443.62C678.293 442.728 678.653 441.545 678.653 440.071C678.653 438.597 678.301 437.414 677.598 436.522C676.912 435.631 675.944 435.185 674.692 435.185C673.87 435.185 673.149 435.391 672.532 435.802C671.915 436.197 671.435 436.762 671.092 437.5C670.749 438.22 670.578 439.077 670.578 440.071C670.578 441.048 670.741 441.906 671.067 442.643C671.409 443.38 671.881 443.954 672.481 444.366C673.098 444.76 673.81 444.957 674.615 444.957ZM690.018 446.757C688.8 446.757 687.712 446.491 686.752 445.96C685.809 445.429 685.072 444.666 684.54 443.671C684.009 442.66 683.743 441.46 683.743 440.071C683.743 438.683 684.009 437.491 684.54 436.497C685.072 435.485 685.8 434.714 686.726 434.182C687.652 433.651 688.706 433.385 689.889 433.385C691.089 433.385 692.109 433.642 692.949 434.157C693.806 434.671 694.458 435.374 694.904 436.265C695.349 437.14 695.572 438.125 695.572 439.223C695.572 439.514 695.564 439.78 695.546 440.02C695.529 440.26 695.504 440.474 695.469 440.663H685.08V438.837H694.569L693.515 439.043C693.515 437.808 693.172 436.857 692.486 436.188C691.818 435.519 690.935 435.185 689.838 435.185C688.998 435.185 688.269 435.382 687.652 435.777C687.052 436.154 686.58 436.711 686.237 437.448C685.912 438.168 685.749 439.043 685.749 440.071C685.749 441.083 685.92 441.957 686.263 442.694C686.606 443.431 687.086 443.997 687.703 444.391C688.338 444.768 689.092 444.957 689.966 444.957C690.909 444.957 691.672 444.777 692.255 444.417C692.855 444.057 693.335 443.568 693.695 442.951L695.315 443.903C694.989 444.486 694.569 444.991 694.055 445.42C693.558 445.849 692.966 446.183 692.281 446.423C691.612 446.646 690.858 446.757 690.018 446.757ZM699.485 446.5V433.642H701.156L701.439 435.751C701.799 434.962 702.322 434.371 703.008 433.977C703.711 433.582 704.559 433.385 705.554 433.385C705.776 433.385 706.016 433.402 706.274 433.437C706.548 433.471 706.779 433.539 706.968 433.642L706.608 435.519C706.419 435.451 706.214 435.399 705.991 435.365C705.768 435.331 705.451 435.314 705.039 435.314C704.508 435.314 703.968 435.468 703.419 435.777C702.888 436.085 702.442 436.557 702.082 437.191C701.722 437.808 701.542 438.597 701.542 439.557V446.5H699.485ZM711.01 431.174C710.548 431.174 710.17 431.036 709.879 430.762C709.605 430.471 709.468 430.094 709.468 429.631C709.468 429.168 709.605 428.799 709.879 428.525C710.17 428.233 710.548 428.088 711.01 428.088C711.473 428.088 711.842 428.233 712.116 428.525C712.408 428.799 712.553 429.168 712.553 429.631C712.553 430.094 712.408 430.471 712.116 430.762C711.842 431.036 711.473 431.174 711.01 431.174ZM712.039 433.642V446.5H709.982V433.642H712.039ZM722.187 446.757C720.97 446.757 719.881 446.491 718.921 445.96C717.978 445.429 717.241 444.666 716.71 443.671C716.178 442.66 715.912 441.46 715.912 440.071C715.912 438.683 716.178 437.491 716.71 436.497C717.241 435.485 717.97 434.714 718.895 434.182C719.821 433.651 720.876 433.385 722.058 433.385C723.259 433.385 724.279 433.642 725.119 434.157C725.976 434.671 726.627 435.374 727.073 436.265C727.519 437.14 727.742 438.125 727.742 439.223C727.742 439.514 727.733 439.78 727.716 440.02C727.699 440.26 727.673 440.474 727.639 440.663H717.25V438.837H726.739L725.684 439.043C725.684 437.808 725.341 436.857 724.656 436.188C723.987 435.519 723.104 435.185 722.007 435.185C721.167 435.185 720.438 435.382 719.821 435.777C719.221 436.154 718.75 436.711 718.407 437.448C718.081 438.168 717.918 439.043 717.918 440.071C717.918 441.083 718.09 441.957 718.433 442.694C718.775 443.431 719.255 443.997 719.873 444.391C720.507 444.768 721.261 444.957 722.136 444.957C723.079 444.957 723.841 444.777 724.424 444.417C725.024 444.057 725.504 443.568 725.864 442.951L727.484 443.903C727.159 444.486 726.739 444.991 726.224 445.42C725.727 445.849 725.136 446.183 724.45 446.423C723.781 446.646 723.027 446.757 722.187 446.757ZM731.654 446.5V433.642H733.454L733.634 436.522L733.3 436.24C733.574 435.554 733.943 435.005 734.406 434.594C734.869 434.165 735.4 433.857 736 433.668C736.617 433.479 737.252 433.385 737.903 433.385C738.829 433.385 739.669 433.565 740.423 433.925C741.177 434.268 741.777 434.799 742.223 435.519C742.686 436.24 742.918 437.157 742.918 438.271V446.5H740.86V438.991C740.86 437.568 740.552 436.582 739.935 436.034C739.335 435.468 738.589 435.185 737.697 435.185C737.08 435.185 736.463 435.331 735.846 435.622C735.229 435.914 734.714 436.385 734.303 437.037C733.909 437.688 733.711 438.562 733.711 439.66V446.5H731.654ZM752.899 433.385C753.79 433.385 754.57 433.522 755.239 433.797C755.925 434.071 756.516 434.465 757.013 434.979C757.51 435.494 757.913 436.102 758.222 436.805L756.267 437.731C755.993 436.908 755.573 436.282 755.007 435.854C754.459 435.408 753.739 435.185 752.847 435.185C751.99 435.185 751.253 435.382 750.636 435.777C750.019 436.154 749.547 436.711 749.221 437.448C748.896 438.168 748.733 439.043 748.733 440.071C748.733 441.083 748.896 441.957 749.221 442.694C749.547 443.431 750.019 443.997 750.636 444.391C751.253 444.768 751.99 444.957 752.847 444.957C753.516 444.957 754.09 444.854 754.57 444.648C755.067 444.443 755.47 444.143 755.779 443.748C756.105 443.354 756.327 442.874 756.447 442.308L758.35 442.977C758.059 443.766 757.656 444.443 757.142 445.009C756.645 445.574 756.036 446.011 755.316 446.32C754.613 446.611 753.807 446.757 752.899 446.757C751.699 446.757 750.627 446.491 749.684 445.96C748.741 445.429 748.004 444.666 747.473 443.671C746.941 442.66 746.676 441.46 746.676 440.071C746.676 438.683 746.941 437.491 747.473 436.497C748.004 435.485 748.741 434.714 749.684 434.182C750.627 433.651 751.699 433.385 752.899 433.385ZM767.34 446.757C766.123 446.757 765.034 446.491 764.074 445.96C763.131 445.429 762.394 444.666 761.862 443.671C761.331 442.66 761.065 441.46 761.065 440.071C761.065 438.683 761.331 437.491 761.862 436.497C762.394 435.485 763.122 434.714 764.048 434.182C764.974 433.651 766.028 433.385 767.211 433.385C768.411 433.385 769.431 433.642 770.271 434.157C771.129 434.671 771.78 435.374 772.226 436.265C772.671 437.14 772.894 438.125 772.894 439.223C772.894 439.514 772.886 439.78 772.869 440.02C772.851 440.26 772.826 440.474 772.791 440.663H762.402V438.837H771.891L770.837 439.043C770.837 437.808 770.494 436.857 769.808 436.188C769.14 435.519 768.257 435.185 767.16 435.185C766.32 435.185 765.591 435.382 764.974 435.777C764.374 436.154 763.902 436.711 763.56 437.448C763.234 438.168 763.071 439.043 763.071 440.071C763.071 441.083 763.242 441.957 763.585 442.694C763.928 443.431 764.408 443.997 765.025 444.391C765.66 444.768 766.414 444.957 767.288 444.957C768.231 444.957 768.994 444.777 769.577 444.417C770.177 444.057 770.657 443.568 771.017 442.951L772.637 443.903C772.311 444.486 771.891 444.991 771.377 445.42C770.88 445.849 770.289 446.183 769.603 446.423C768.934 446.646 768.18 446.757 767.34 446.757Z" fill="#434343"/>
<ellipse cx="850.5" cy="437.5" rx="32.5" ry="33" fill="#C7E9F0"/>
<path d="M837.958 437.501L850.5 424.959L863.041 437.501" stroke="#434343" stroke-width="2" stroke-linecap="round" stroke-linejoin="round"/>
<path d="M850.5 450.042V424.959" stroke="#434343" stroke-width="2" stroke-linecap="round" stroke-linejoin="round"/>
<path d="M177 235C177 223.954 185.954 215 197 215H690C701.046 215 710 223.954 710 235V244.909H177V235Z" fill="#F7F7F2"/>
<path d="M177 244.908H710" stroke="black"/>
<rect x="318.5" y="295.5" width="267.85" height="58" rx="29" fill="white" stroke="black"/>
<path d="M361.52 317.673V330.873H359.92V317.673H361.52ZM352.76 317.673V330.873H351.16V317.673H352.76ZM360.66 323.433V324.933H352V323.433H360.66ZM369.531 320.673C370.478 320.673 371.311 320.88 372.031 321.293C372.765 321.706 373.338 322.306 373.751 323.093C374.165 323.866 374.371 324.793 374.371 325.873C374.371 326.953 374.165 327.886 373.751 328.673C373.338 329.446 372.765 330.04 372.031 330.453C371.311 330.866 370.478 331.073 369.531 331.073C368.598 331.073 367.765 330.866 367.031 330.453C366.298 330.04 365.725 329.446 365.311 328.673C364.898 327.886 364.691 326.953 364.691 325.873C364.691 324.793 364.898 323.866 365.311 323.093C365.725 322.306 366.298 321.706 367.031 321.293C367.765 320.88 368.598 320.673 369.531 320.673ZM369.531 322.053C368.851 322.053 368.271 322.206 367.791 322.513C367.311 322.82 366.938 323.26 366.671 323.833C366.418 324.393 366.291 325.073 366.291 325.873C366.291 326.66 366.418 327.34 366.671 327.913C366.938 328.486 367.311 328.926 367.791 329.233C368.271 329.54 368.851 329.693 369.531 329.693C370.211 329.693 370.791 329.54 371.271 329.233C371.751 328.926 372.118 328.486 372.371 327.913C372.638 327.34 372.771 326.66 372.771 325.873C372.771 325.073 372.638 324.393 372.371 323.833C372.118 323.26 371.751 322.82 371.271 322.513C370.791 322.206 370.211 322.053 369.531 322.053ZM389.611 320.873H391.391L387.911 330.873H386.311L383.491 322.913L380.831 330.873H379.231L375.751 320.873H377.531L380.051 329.013L382.771 320.873H384.371L387.091 329.013L389.611 320.873ZM404.297 320.673C404.99 320.673 405.597 320.78 406.117 320.993C406.65 321.206 407.11 321.513 407.497 321.913C407.884 322.313 408.197 322.786 408.437 323.333L406.917 324.053C406.704 323.413 406.377 322.926 405.937 322.593C405.51 322.246 404.95 322.073 404.257 322.073C403.59 322.073 403.017 322.226 402.537 322.533C402.057 322.826 401.69 323.26 401.437 323.833C401.184 324.393 401.057 325.073 401.057 325.873C401.057 326.66 401.184 327.34 401.437 327.913C401.69 328.486 402.057 328.926 402.537 329.233C403.017 329.526 403.59 329.673 404.257 329.673C404.777 329.673 405.224 329.593 405.597 329.433C405.984 329.273 406.297 329.04 406.537 328.733C406.79 328.426 406.964 328.053 407.057 327.613L408.537 328.133C408.31 328.746 407.997 329.273 407.597 329.713C407.21 330.153 406.737 330.493 406.177 330.733C405.63 330.96 405.004 331.073 404.297 331.073C403.364 331.073 402.53 330.866 401.797 330.453C401.064 330.04 400.49 329.446 400.077 328.673C399.664 327.886 399.457 326.953 399.457 325.873C399.457 324.793 399.664 323.866 400.077 323.093C400.49 322.306 401.064 321.706 401.797 321.293C402.53 320.88 403.364 320.673 404.297 320.673ZM417.188 324.413C417.188 323.666 416.988 323.093 416.588 322.693C416.188 322.28 415.622 322.073 414.888 322.073C414.195 322.073 413.608 322.226 413.128 322.533C412.648 322.826 412.295 323.306 412.068 323.973L410.768 323.173C411.035 322.426 411.528 321.826 412.248 321.373C412.968 320.906 413.862 320.673 414.928 320.673C415.648 320.673 416.302 320.8 416.888 321.053C417.475 321.293 417.935 321.666 418.268 322.173C418.615 322.666 418.788 323.306 418.788 324.093V328.933C418.788 329.413 419.042 329.653 419.548 329.653C419.802 329.653 420.048 329.62 420.288 329.553L420.208 330.813C419.942 330.946 419.595 331.013 419.168 331.013C418.782 331.013 418.435 330.94 418.128 330.793C417.822 330.646 417.582 330.426 417.408 330.133C417.235 329.826 417.148 329.446 417.148 328.993V328.793L417.548 328.853C417.388 329.373 417.115 329.8 416.728 330.133C416.342 330.453 415.908 330.693 415.428 330.853C414.948 331 414.475 331.073 414.008 331.073C413.422 331.073 412.875 330.973 412.368 330.773C411.862 330.573 411.455 330.273 411.148 329.873C410.855 329.46 410.708 328.953 410.708 328.353C410.708 327.606 410.955 326.993 411.448 326.513C411.955 326.02 412.655 325.686 413.548 325.513L417.508 324.733V326.053L414.288 326.713C413.635 326.846 413.148 327.033 412.828 327.273C412.508 327.513 412.348 327.846 412.348 328.273C412.348 328.686 412.508 329.026 412.828 329.293C413.162 329.546 413.628 329.673 414.228 329.673C414.615 329.673 414.982 329.626 415.328 329.533C415.688 329.426 416.008 329.273 416.288 329.073C416.568 328.86 416.788 328.6 416.948 328.293C417.108 327.973 417.188 327.6 417.188 327.173V324.413ZM422.676 330.873V320.873H424.076L424.216 323.113L423.956 322.893C424.17 322.36 424.456 321.933 424.816 321.613C425.176 321.28 425.59 321.04 426.056 320.893C426.536 320.746 427.03 320.673 427.536 320.673C428.256 320.673 428.91 320.813 429.496 321.093C430.083 321.36 430.55 321.773 430.896 322.333C431.256 322.893 431.436 323.606 431.436 324.473V330.873H429.836V325.033C429.836 323.926 429.596 323.16 429.116 322.733C428.65 322.293 428.07 322.073 427.376 322.073C426.896 322.073 426.416 322.186 425.936 322.413C425.456 322.64 425.056 323.006 424.736 323.513C424.43 324.02 424.276 324.7 424.276 325.553V330.873H422.676ZM443.776 317.673V330.873H442.176V317.673H443.776ZM454.61 330.873V316.273H456.21V322.373C456.557 321.773 457.017 321.34 457.59 321.073C458.163 320.806 458.79 320.673 459.47 320.673C460.19 320.673 460.843 320.813 461.43 321.093C462.017 321.36 462.483 321.773 462.83 322.333C463.19 322.893 463.37 323.606 463.37 324.473V330.873H461.77V325.033C461.77 323.926 461.53 323.16 461.05 322.733C460.583 322.293 460.003 322.073 459.31 322.073C458.83 322.073 458.35 322.186 457.87 322.413C457.39 322.64 456.99 323.013 456.67 323.533C456.363 324.04 456.21 324.72 456.21 325.573V330.873H454.61ZM471.173 331.073C470.226 331.073 469.379 330.866 468.633 330.453C467.899 330.04 467.326 329.446 466.913 328.673C466.499 327.886 466.293 326.953 466.293 325.873C466.293 324.793 466.499 323.866 466.913 323.093C467.326 322.306 467.893 321.706 468.613 321.293C469.333 320.88 470.153 320.673 471.073 320.673C472.006 320.673 472.799 320.873 473.453 321.273C474.119 321.673 474.626 322.22 474.973 322.913C475.319 323.593 475.493 324.36 475.493 325.213C475.493 325.44 475.486 325.646 475.473 325.833C475.459 326.02 475.439 326.186 475.413 326.333H467.333V324.913H474.713L473.893 325.073C473.893 324.113 473.626 323.373 473.093 322.853C472.573 322.333 471.886 322.073 471.033 322.073C470.379 322.073 469.813 322.226 469.333 322.533C468.866 322.826 468.499 323.26 468.233 323.833C467.979 324.393 467.853 325.073 467.853 325.873C467.853 326.66 467.986 327.34 468.253 327.913C468.519 328.486 468.893 328.926 469.373 329.233C469.866 329.526 470.453 329.673 471.133 329.673C471.866 329.673 472.459 329.533 472.913 329.253C473.379 328.973 473.753 328.593 474.033 328.113L475.293 328.853C475.039 329.306 474.713 329.7 474.313 330.033C473.926 330.366 473.466 330.626 472.933 330.813C472.413 330.986 471.826 331.073 471.173 331.073ZM480.056 316.273V328.333C480.056 328.84 480.149 329.193 480.336 329.393C480.522 329.58 480.822 329.673 481.236 329.673C481.502 329.673 481.722 329.653 481.896 329.613C482.069 329.573 482.302 329.5 482.596 329.393L482.336 330.793C482.122 330.886 481.889 330.953 481.636 330.993C481.382 331.046 481.122 331.073 480.856 331.073C480.042 331.073 479.436 330.853 479.036 330.413C478.649 329.973 478.456 329.3 478.456 328.393V316.273H480.056ZM484.649 335.073V320.873H486.049L486.189 323.313L485.969 323.033C486.142 322.566 486.402 322.16 486.749 321.813C487.096 321.453 487.516 321.173 488.009 320.973C488.502 320.773 489.036 320.673 489.609 320.673C490.422 320.673 491.169 320.88 491.849 321.293C492.542 321.706 493.096 322.3 493.509 323.073C493.922 323.846 494.129 324.78 494.129 325.873C494.129 326.953 493.916 327.886 493.489 328.673C493.076 329.446 492.522 330.04 491.829 330.453C491.136 330.866 490.376 331.073 489.549 331.073C488.722 331.073 487.996 330.873 487.369 330.473C486.756 330.06 486.316 329.54 486.049 328.913L486.249 328.613V335.073H484.649ZM489.389 329.673C490.376 329.673 491.142 329.326 491.689 328.633C492.249 327.94 492.529 327.02 492.529 325.873C492.529 324.726 492.256 323.806 491.709 323.113C491.176 322.42 490.422 322.073 489.449 322.073C488.809 322.073 488.249 322.233 487.769 322.553C487.289 322.86 486.916 323.3 486.649 323.873C486.382 324.433 486.249 325.1 486.249 325.873C486.249 326.633 486.376 327.3 486.629 327.873C486.896 328.446 487.262 328.893 487.729 329.213C488.209 329.52 488.762 329.673 489.389 329.673ZM500.28 317.473C501.16 317.473 501.927 317.613 502.58 317.893C503.234 318.173 503.74 318.573 504.1 319.093C504.474 319.613 504.66 320.233 504.66 320.953C504.66 321.726 504.487 322.373 504.14 322.893C503.807 323.4 503.354 323.786 502.78 324.053C502.22 324.32 501.594 324.493 500.9 324.573V326.713H499.24V323.713C500.214 323.566 500.967 323.386 501.5 323.173C502.047 322.96 502.427 322.693 502.64 322.373C502.867 322.053 502.98 321.66 502.98 321.193C502.98 320.726 502.874 320.326 502.66 319.993C502.46 319.66 502.154 319.406 501.74 319.233C501.327 319.06 500.8 318.973 500.16 318.973C499.28 318.973 498.56 319.22 498 319.713C497.454 320.193 497.127 320.853 497.02 321.693L495.6 320.873C495.747 320.193 496.027 319.6 496.44 319.093C496.867 318.573 497.4 318.173 498.04 317.893C498.694 317.613 499.44 317.473 500.28 317.473ZM500.04 328.473C500.427 328.473 500.74 328.593 500.98 328.833C501.22 329.073 501.34 329.386 501.34 329.773C501.34 330.16 501.22 330.473 500.98 330.713C500.74 330.953 500.427 331.073 500.04 331.073C499.654 331.073 499.34 330.953 499.1 330.713C498.86 330.473 498.74 330.16 498.74 329.773C498.74 329.386 498.86 329.073 499.1 328.833C499.34 328.593 499.654 328.473 500.04 328.473Z" fill="#434343"/>
<rect x="245" y="295" width="59" height="59" rx="29.5" fill="#474644"/>
<path d="M277.856 320.671H262.27C260.188 320.671 258.5 322.389 258.5 324.509C258.5 326.629 260.188 328.347 262.27 328.347H277.856M266.47 320.676C268.009 316.257 272.112 313 276.931 313L284.834 313C286.859 313 288.5 314.894 288.5 316.951C288.5 319.008 286.859 320.676 284.834 320.676L266.47 320.676ZM266.47 320.676C266.05 321.883 265.821 323.177 265.821 324.514C265.821 325.853 266.05 327.146 266.471 328.352M266.471 328.352C268.011 332.762 272.113 336 276.931 336L284.834 336C286.859 336 288.5 334.135 288.5 332.077C288.5 330.02 286.859 328.352 284.834 328.352H266.471Z" stroke="#F7F7F3" stroke-width="1.13208" stroke-linejoin="round"/>
</g>
<defs>
<clipPath id="clip0_1213_10343">
<rect width="909" height="559" fill="white"/>
</clipPath>
</defs>
</svg>
