<svg width="531" height="398" viewBox="0 0 531 398" fill="none" xmlns="http://www.w3.org/2000/svg">
<rect x="114.101" y="8.5" width="338.519" height="348.147" rx="20.5" fill="white" stroke="black"/>
<path d="M114.601 29C114.601 17.9543 123.555 9 134.601 9H432.399C443.444 9 452.399 17.9543 452.399 29V39.3466H114.601V29Z" fill="#F7F7F2"/>
<path d="M114.601 39.3477H452.399" stroke="black"/>
<rect x="0.5" y="226.5" width="339" height="171" rx="9.5" fill="#F7F7F2" stroke="black"/>
<path d="M22 140.5H511C521.77 140.5 530.5 149.23 530.5 160V193C530.5 203.77 521.77 212.5 511 212.5H2.5V160C2.5 149.23 11.2304 140.5 22 140.5Z" fill="white" stroke="black"/>
<path d="M52.216 184H50.176L48.496 179.608H41.32L39.64 184H37.624L43.792 168.16H46.072L52.216 184ZM42.016 177.808H47.8L44.896 170.008L42.016 177.808ZM59.2786 184.24C58.1106 184.24 57.0306 183.992 56.0386 183.496C55.0626 183 54.3106 182.296 53.7826 181.384L55.4146 180.208C55.7666 180.944 56.2786 181.52 56.9506 181.936C57.6386 182.352 58.4626 182.56 59.4226 182.56C60.2706 182.56 60.9346 182.4 61.4146 182.08C61.8946 181.744 62.1346 181.312 62.1346 180.784C62.1346 180.448 62.0226 180.144 61.7986 179.872C61.5906 179.584 61.1826 179.376 60.5746 179.248L57.6946 178.648C56.5266 178.408 55.6866 178.008 55.1746 177.448C54.6786 176.888 54.4306 176.192 54.4306 175.36C54.4306 174.704 54.6146 174.104 54.9826 173.56C55.3666 173.016 55.9026 172.584 56.5906 172.264C57.2946 171.928 58.1186 171.76 59.0626 171.76C60.2466 171.76 61.2466 171.992 62.0626 172.456C62.8786 172.92 63.4866 173.576 63.8866 174.424L62.2786 175.48C62.0066 174.776 61.5666 174.264 60.9586 173.944C60.3506 173.608 59.7186 173.44 59.0626 173.44C58.4866 173.44 57.9906 173.52 57.5746 173.68C57.1746 173.84 56.8626 174.064 56.6386 174.352C56.4306 174.624 56.3266 174.936 56.3266 175.288C56.3266 175.64 56.4466 175.968 56.6866 176.272C56.9266 176.56 57.3746 176.768 58.0306 176.896L61.0306 177.52C62.1506 177.744 62.9346 178.112 63.3826 178.624C63.8306 179.136 64.0546 179.76 64.0546 180.496C64.0546 181.248 63.8546 181.912 63.4546 182.488C63.0546 183.048 62.4946 183.48 61.7746 183.784C61.0546 184.088 60.2226 184.24 59.2786 184.24ZM82.8025 176.248C82.8025 175.352 82.5625 174.664 82.0825 174.184C81.6025 173.688 80.9225 173.44 80.0425 173.44C79.2105 173.44 78.5065 173.624 77.9305 173.992C77.3545 174.344 76.9305 174.92 76.6585 175.72L75.0985 174.76C75.4185 173.864 76.0105 173.144 76.8745 172.6C77.7385 172.04 78.8105 171.76 80.0905 171.76C80.9545 171.76 81.7385 171.912 82.4425 172.216C83.1465 172.504 83.6985 172.952 84.0985 173.56C84.5145 174.152 84.7225 174.92 84.7225 175.864V181.672C84.7225 182.248 85.0265 182.536 85.6345 182.536C85.9385 182.536 86.2345 182.496 86.5225 182.416L86.4265 183.928C86.1065 184.088 85.6905 184.168 85.1785 184.168C84.7145 184.168 84.2985 184.08 83.9305 183.904C83.5625 183.728 83.2745 183.464 83.0665 183.112C82.8585 182.744 82.7545 182.288 82.7545 181.744V181.504L83.2345 181.576C83.0425 182.2 82.7145 182.712 82.2505 183.112C81.7865 183.496 81.2665 183.784 80.6905 183.976C80.1145 184.152 79.5465 184.24 78.9865 184.24C78.2825 184.24 77.6265 184.12 77.0185 183.88C76.4105 183.64 75.9225 183.28 75.5545 182.8C75.2025 182.304 75.0265 181.696 75.0265 180.976C75.0265 180.08 75.3225 179.344 75.9145 178.768C76.5225 178.176 77.3625 177.776 78.4345 177.568L83.1865 176.632V178.216L79.3225 179.008C78.5385 179.168 77.9545 179.392 77.5705 179.68C77.1865 179.968 76.9945 180.368 76.9945 180.88C76.9945 181.376 77.1865 181.784 77.5705 182.104C77.9705 182.408 78.5305 182.56 79.2505 182.56C79.7145 182.56 80.1545 182.504 80.5705 182.392C81.0025 182.264 81.3865 182.08 81.7225 181.84C82.0585 181.584 82.3225 181.272 82.5145 180.904C82.7065 180.52 82.8025 180.072 82.8025 179.56V176.248ZM101.349 184.24C100.581 184.24 99.8534 184.096 99.1654 183.808C98.4934 183.52 97.9414 183.056 97.5094 182.416C97.0934 181.76 96.8854 180.912 96.8854 179.872V172H98.8054V179.368C98.8054 180.584 99.0694 181.424 99.5974 181.888C100.125 182.336 100.869 182.56 101.829 182.56C102.277 182.56 102.717 182.488 103.149 182.344C103.581 182.184 103.965 181.944 104.301 181.624C104.653 181.288 104.925 180.864 105.117 180.352C105.325 179.84 105.429 179.232 105.429 178.528V172H107.349V184H105.669L105.549 182.176C105.133 182.896 104.565 183.424 103.845 183.76C103.141 184.08 102.309 184.24 101.349 184.24ZM116.138 184.24C114.97 184.24 113.89 183.992 112.898 183.496C111.922 183 111.17 182.296 110.642 181.384L112.274 180.208C112.626 180.944 113.138 181.52 113.81 181.936C114.498 182.352 115.322 182.56 116.282 182.56C117.13 182.56 117.794 182.4 118.274 182.08C118.754 181.744 118.994 181.312 118.994 180.784C118.994 180.448 118.882 180.144 118.658 179.872C118.45 179.584 118.042 179.376 117.434 179.248L114.554 178.648C113.386 178.408 112.546 178.008 112.034 177.448C111.538 176.888 111.29 176.192 111.29 175.36C111.29 174.704 111.474 174.104 111.842 173.56C112.226 173.016 112.762 172.584 113.45 172.264C114.154 171.928 114.978 171.76 115.922 171.76C117.106 171.76 118.106 171.992 118.922 172.456C119.738 172.92 120.346 173.576 120.746 174.424L119.138 175.48C118.866 174.776 118.426 174.264 117.818 173.944C117.21 173.608 116.578 173.44 115.922 173.44C115.346 173.44 114.85 173.52 114.434 173.68C114.034 173.84 113.722 174.064 113.498 174.352C113.29 174.624 113.186 174.936 113.186 175.288C113.186 175.64 113.306 175.968 113.546 176.272C113.786 176.56 114.234 176.768 114.89 176.896L117.89 177.52C119.01 177.744 119.794 178.112 120.242 178.624C120.69 179.136 120.914 179.76 120.914 180.496C120.914 181.248 120.714 181.912 120.314 182.488C119.914 183.048 119.354 183.48 118.634 183.784C117.914 184.088 117.082 184.24 116.138 184.24ZM129.49 184.24C128.354 184.24 127.338 183.992 126.442 183.496C125.562 183 124.874 182.288 124.378 181.36C123.882 180.416 123.634 179.296 123.634 178C123.634 176.704 123.882 175.592 124.378 174.664C124.874 173.72 125.554 173 126.418 172.504C127.282 172.008 128.266 171.76 129.37 171.76C130.49 171.76 131.442 172 132.226 172.48C133.026 172.96 133.634 173.616 134.05 174.448C134.466 175.264 134.674 176.184 134.674 177.208C134.674 177.48 134.666 177.728 134.65 177.952C134.634 178.176 134.61 178.376 134.578 178.552H124.882V176.848H133.738L132.754 177.04C132.754 175.888 132.434 175 131.794 174.376C131.17 173.752 130.346 173.44 129.322 173.44C128.538 173.44 127.858 173.624 127.282 173.992C126.722 174.344 126.282 174.864 125.962 175.552C125.658 176.224 125.506 177.04 125.506 178C125.506 178.944 125.666 179.76 125.986 180.448C126.306 181.136 126.754 181.664 127.33 182.032C127.922 182.384 128.626 182.56 129.442 182.56C130.322 182.56 131.034 182.392 131.578 182.056C132.138 181.72 132.586 181.264 132.922 180.688L134.434 181.576C134.13 182.12 133.738 182.592 133.258 182.992C132.794 183.392 132.242 183.704 131.602 183.928C130.978 184.136 130.274 184.24 129.49 184.24ZM138.326 184V172H139.886L140.15 173.968C140.486 173.232 140.974 172.68 141.614 172.312C142.27 171.944 143.062 171.76 143.99 171.76C144.198 171.76 144.422 171.776 144.662 171.808C144.918 171.84 145.134 171.904 145.31 172L144.974 173.752C144.798 173.688 144.606 173.64 144.398 173.608C144.19 173.576 143.894 173.56 143.51 173.56C143.014 173.56 142.51 173.704 141.998 173.992C141.502 174.28 141.086 174.72 140.75 175.312C140.414 175.888 140.246 176.624 140.246 177.52V184H138.326ZM158.02 168.16V184H156.1V168.16H158.02ZM185.53 172H187.666L183.49 184H181.57L178.186 174.448L174.994 184H173.074L168.898 172H171.034L174.058 181.768L177.322 172H179.242L182.506 181.768L185.53 172ZM197.295 176.248C197.295 175.352 197.055 174.664 196.575 174.184C196.095 173.688 195.415 173.44 194.535 173.44C193.703 173.44 192.999 173.624 192.423 173.992C191.847 174.344 191.423 174.92 191.151 175.72L189.591 174.76C189.911 173.864 190.503 173.144 191.367 172.6C192.231 172.04 193.303 171.76 194.583 171.76C195.447 171.76 196.231 171.912 196.935 172.216C197.639 172.504 198.191 172.952 198.591 173.56C199.007 174.152 199.215 174.92 199.215 175.864V181.672C199.215 182.248 199.519 182.536 200.127 182.536C200.431 182.536 200.727 182.496 201.015 182.416L200.919 183.928C200.599 184.088 200.183 184.168 199.671 184.168C199.207 184.168 198.791 184.08 198.423 183.904C198.055 183.728 197.767 183.464 197.559 183.112C197.351 182.744 197.247 182.288 197.247 181.744V181.504L197.727 181.576C197.535 182.2 197.207 182.712 196.743 183.112C196.279 183.496 195.759 183.784 195.183 183.976C194.607 184.152 194.039 184.24 193.479 184.24C192.775 184.24 192.119 184.12 191.511 183.88C190.903 183.64 190.415 183.28 190.047 182.8C189.695 182.304 189.519 181.696 189.519 180.976C189.519 180.08 189.815 179.344 190.407 178.768C191.015 178.176 191.855 177.776 192.927 177.568L197.679 176.632V178.216L193.815 179.008C193.031 179.168 192.447 179.392 192.063 179.68C191.679 179.968 191.487 180.368 191.487 180.88C191.487 181.376 191.679 181.784 192.063 182.104C192.463 182.408 193.023 182.56 193.743 182.56C194.207 182.56 194.647 182.504 195.063 182.392C195.495 182.264 195.879 182.08 196.215 181.84C196.551 181.584 196.815 181.272 197.007 180.904C197.199 180.52 197.295 180.072 197.295 179.56V176.248ZM203.88 184V172H205.56L205.728 174.688L205.416 174.424C205.672 173.784 206.016 173.272 206.448 172.888C206.88 172.488 207.376 172.2 207.936 172.024C208.512 171.848 209.104 171.76 209.712 171.76C210.576 171.76 211.36 171.928 212.064 172.264C212.768 172.584 213.328 173.08 213.744 173.752C214.176 174.424 214.392 175.28 214.392 176.32V184H212.472V176.992C212.472 175.664 212.184 174.744 211.608 174.232C211.048 173.704 210.352 173.44 209.52 173.44C208.944 173.44 208.368 173.576 207.792 173.848C207.216 174.12 206.736 174.56 206.352 175.168C205.984 175.776 205.8 176.592 205.8 177.616V184H203.88ZM221.408 168.592V180.688C221.408 181.28 221.576 181.72 221.912 182.008C222.248 182.296 222.68 182.44 223.208 182.44C223.672 182.44 224.072 182.36 224.408 182.2C224.744 182.04 225.048 181.824 225.32 181.552L225.992 183.16C225.624 183.496 225.184 183.76 224.672 183.952C224.176 184.144 223.6 184.24 222.944 184.24C222.336 184.24 221.768 184.136 221.24 183.928C220.712 183.704 220.288 183.36 219.968 182.896C219.664 182.416 219.504 181.792 219.488 181.024V169.12L221.408 168.592ZM225.776 172V173.656H217.088V172H225.776ZM239.173 168.592V180.688C239.173 181.28 239.341 181.72 239.677 182.008C240.013 182.296 240.445 182.44 240.973 182.44C241.437 182.44 241.837 182.36 242.173 182.2C242.509 182.04 242.813 181.824 243.085 181.552L243.757 183.16C243.389 183.496 242.949 183.76 242.437 183.952C241.941 184.144 241.365 184.24 240.709 184.24C240.101 184.24 239.533 184.136 239.005 183.928C238.477 183.704 238.053 183.36 237.733 182.896C237.429 182.416 237.269 181.792 237.253 181.024V169.12L239.173 168.592ZM243.541 172V173.656H234.853V172H243.541ZM251.364 171.76C252.5 171.76 253.5 172.008 254.364 172.504C255.244 173 255.932 173.72 256.428 174.664C256.924 175.592 257.172 176.704 257.172 178C257.172 179.296 256.924 180.416 256.428 181.36C255.932 182.288 255.244 183 254.364 183.496C253.5 183.992 252.5 184.24 251.364 184.24C250.244 184.24 249.244 183.992 248.364 183.496C247.484 183 246.796 182.288 246.3 181.36C245.804 180.416 245.556 179.296 245.556 178C245.556 176.704 245.804 175.592 246.3 174.664C246.796 173.72 247.484 173 248.364 172.504C249.244 172.008 250.244 171.76 251.364 171.76ZM251.364 173.416C250.548 173.416 249.852 173.6 249.276 173.968C248.7 174.336 248.252 174.864 247.932 175.552C247.628 176.224 247.476 177.04 247.476 178C247.476 178.944 247.628 179.76 247.932 180.448C248.252 181.136 248.7 181.664 249.276 182.032C249.852 182.4 250.548 182.584 251.364 182.584C252.18 182.584 252.876 182.4 253.452 182.032C254.028 181.664 254.468 181.136 254.772 180.448C255.092 179.76 255.252 178.944 255.252 178C255.252 177.04 255.092 176.224 254.772 175.552C254.468 174.864 254.028 174.336 253.452 173.968C252.876 173.6 252.18 173.416 251.364 173.416ZM275.974 176.248C275.974 175.352 275.734 174.664 275.254 174.184C274.774 173.688 274.094 173.44 273.214 173.44C272.382 173.44 271.678 173.624 271.102 173.992C270.526 174.344 270.102 174.92 269.83 175.72L268.27 174.76C268.59 173.864 269.182 173.144 270.046 172.6C270.91 172.04 271.982 171.76 273.262 171.76C274.126 171.76 274.91 171.912 275.614 172.216C276.318 172.504 276.87 172.952 277.27 173.56C277.686 174.152 277.894 174.92 277.894 175.864V181.672C277.894 182.248 278.198 182.536 278.806 182.536C279.11 182.536 279.406 182.496 279.694 182.416L279.598 183.928C279.278 184.088 278.862 184.168 278.35 184.168C277.886 184.168 277.47 184.08 277.102 183.904C276.734 183.728 276.446 183.464 276.238 183.112C276.03 182.744 275.926 182.288 275.926 181.744V181.504L276.406 181.576C276.214 182.2 275.886 182.712 275.422 183.112C274.958 183.496 274.438 183.784 273.862 183.976C273.286 184.152 272.718 184.24 272.158 184.24C271.454 184.24 270.798 184.12 270.19 183.88C269.582 183.64 269.094 183.28 268.726 182.8C268.374 182.304 268.198 181.696 268.198 180.976C268.198 180.08 268.494 179.344 269.086 178.768C269.694 178.176 270.534 177.776 271.606 177.568L276.358 176.632V178.216L272.494 179.008C271.71 179.168 271.126 179.392 270.742 179.68C270.358 179.968 270.166 180.368 270.166 180.88C270.166 181.376 270.358 181.784 270.742 182.104C271.142 182.408 271.702 182.56 272.422 182.56C272.886 182.56 273.326 182.504 273.742 182.392C274.174 182.264 274.558 182.08 274.894 181.84C275.23 181.584 275.494 181.272 275.686 180.904C275.878 180.52 275.974 180.072 275.974 179.56V176.248ZM287.24 184.24C286.248 184.24 285.336 183.992 284.504 183.496C283.672 183 283.008 182.288 282.512 181.36C282.016 180.416 281.768 179.296 281.768 178C281.768 176.672 282.032 175.544 282.56 174.616C283.088 173.688 283.784 172.984 284.648 172.504C285.512 172.008 286.44 171.76 287.432 171.76C288.424 171.76 289.28 172.016 290 172.528C290.736 173.04 291.224 173.72 291.464 174.568L291.224 174.736V166.48H293.144V184H291.464L291.296 181.096L291.56 180.952C291.448 181.656 291.176 182.256 290.744 182.752C290.328 183.232 289.808 183.6 289.184 183.856C288.576 184.112 287.928 184.24 287.24 184.24ZM287.432 182.56C288.2 182.56 288.864 182.368 289.424 181.984C290 181.6 290.44 181.056 290.744 180.352C291.064 179.632 291.224 178.792 291.224 177.832C291.224 176.92 291.064 176.136 290.744 175.48C290.44 174.824 290.008 174.32 289.448 173.968C288.904 173.616 288.264 173.44 287.528 173.44C286.312 173.44 285.368 173.856 284.696 174.688C284.024 175.52 283.688 176.624 283.688 178C283.688 179.376 284.016 180.48 284.672 181.312C285.328 182.144 286.248 182.56 287.432 182.56ZM298.567 169.696C298.135 169.696 297.783 169.568 297.511 169.312C297.255 169.04 297.127 168.688 297.127 168.256C297.127 167.824 297.255 167.48 297.511 167.224C297.783 166.952 298.135 166.816 298.567 166.816C298.999 166.816 299.343 166.952 299.599 167.224C299.871 167.48 300.007 167.824 300.007 168.256C300.007 168.688 299.871 169.04 299.599 169.312C299.343 169.568 298.999 169.696 298.567 169.696ZM299.527 172V185.224C299.527 186.216 299.335 187 298.951 187.576C298.567 188.152 298.095 188.56 297.535 188.8C296.975 189.04 296.423 189.16 295.879 189.16C295.383 189.16 294.927 189.08 294.511 188.92C294.095 188.776 293.751 188.592 293.479 188.368L293.887 186.544C294.111 186.752 294.391 186.928 294.727 187.072C295.063 187.216 295.439 187.288 295.855 187.288C296.367 187.288 296.783 187.12 297.103 186.784C297.439 186.448 297.607 185.864 297.607 185.032V172H299.527ZM308.326 184.24C307.558 184.24 306.83 184.096 306.142 183.808C305.47 183.52 304.918 183.056 304.486 182.416C304.07 181.76 303.862 180.912 303.862 179.872V172H305.782V179.368C305.782 180.584 306.046 181.424 306.574 181.888C307.102 182.336 307.846 182.56 308.806 182.56C309.254 182.56 309.694 182.488 310.126 182.344C310.558 182.184 310.942 181.944 311.278 181.624C311.63 181.288 311.902 180.864 312.094 180.352C312.302 179.84 312.406 179.232 312.406 178.528V172H314.326V184H312.646L312.526 182.176C312.11 182.896 311.542 183.424 310.822 183.76C310.118 184.08 309.286 184.24 308.326 184.24ZM323.115 184.24C321.947 184.24 320.867 183.992 319.875 183.496C318.899 183 318.147 182.296 317.619 181.384L319.251 180.208C319.603 180.944 320.115 181.52 320.787 181.936C321.475 182.352 322.299 182.56 323.259 182.56C324.107 182.56 324.771 182.4 325.251 182.08C325.731 181.744 325.971 181.312 325.971 180.784C325.971 180.448 325.859 180.144 325.635 179.872C325.427 179.584 325.019 179.376 324.411 179.248L321.531 178.648C320.363 178.408 319.523 178.008 319.011 177.448C318.515 176.888 318.267 176.192 318.267 175.36C318.267 174.704 318.451 174.104 318.819 173.56C319.203 173.016 319.739 172.584 320.427 172.264C321.131 171.928 321.955 171.76 322.898 171.76C324.083 171.76 325.083 171.992 325.899 172.456C326.715 172.92 327.323 173.576 327.723 174.424L326.115 175.48C325.843 174.776 325.403 174.264 324.795 173.944C324.187 173.608 323.555 173.44 322.898 173.44C322.323 173.44 321.827 173.52 321.411 173.68C321.011 173.84 320.699 174.064 320.475 174.352C320.267 174.624 320.163 174.936 320.163 175.288C320.163 175.64 320.283 175.968 320.523 176.272C320.763 176.56 321.211 176.768 321.867 176.896L324.867 177.52C325.987 177.744 326.771 178.112 327.219 178.624C327.667 179.136 327.891 179.76 327.891 180.496C327.891 181.248 327.691 181.912 327.291 182.488C326.891 183.048 326.331 183.48 325.611 183.784C324.891 184.088 324.059 184.24 323.115 184.24ZM334.283 168.592V180.688C334.283 181.28 334.451 181.72 334.787 182.008C335.123 182.296 335.555 182.44 336.083 182.44C336.547 182.44 336.947 182.36 337.283 182.2C337.619 182.04 337.923 181.824 338.195 181.552L338.867 183.16C338.499 183.496 338.059 183.76 337.547 183.952C337.051 184.144 336.475 184.24 335.819 184.24C335.211 184.24 334.643 184.136 334.115 183.928C333.587 183.704 333.163 183.36 332.843 182.896C332.539 182.416 332.379 181.792 332.363 181.024V169.12L334.283 168.592ZM338.651 172V173.656H329.963V172H338.651ZM349.685 184V172H351.365L351.485 173.872C351.917 173.136 352.477 172.6 353.165 172.264C353.869 171.928 354.589 171.76 355.325 171.76C356.173 171.76 356.973 171.952 357.725 172.336C358.477 172.72 359.053 173.312 359.453 174.112C359.709 173.568 360.069 173.128 360.533 172.792C360.997 172.44 361.501 172.184 362.045 172.024C362.605 171.848 363.133 171.76 363.629 171.76C364.397 171.76 365.125 171.92 365.813 172.24C366.517 172.56 367.093 173.056 367.541 173.728C367.989 174.4 368.213 175.264 368.213 176.32V184H366.293V176.512C366.293 175.424 366.021 174.64 365.477 174.16C364.933 173.68 364.261 173.44 363.461 173.44C362.837 173.44 362.253 173.592 361.709 173.896C361.165 174.2 360.725 174.648 360.389 175.24C360.069 175.832 359.909 176.56 359.909 177.424V184H357.989V176.512C357.989 175.424 357.717 174.64 357.173 174.16C356.629 173.68 355.957 173.44 355.157 173.44C354.629 173.44 354.085 173.584 353.525 173.872C352.981 174.144 352.525 174.584 352.157 175.192C351.789 175.8 351.605 176.6 351.605 177.592V184H349.685ZM382.096 172L376.456 186.016C376.152 186.8 375.816 187.416 375.448 187.864C375.096 188.328 374.696 188.656 374.248 188.848C373.816 189.056 373.312 189.16 372.736 189.16C372.192 189.16 371.688 189.08 371.224 188.92C370.776 188.776 370.376 188.576 370.024 188.32L370.552 186.64C370.872 186.928 371.208 187.136 371.56 187.264C371.928 187.408 372.288 187.48 372.64 187.48C373.056 187.48 373.448 187.352 373.816 187.096C374.184 186.84 374.52 186.32 374.824 185.536L375.448 183.976L374.248 181.12L370.432 172H372.616L375.616 179.824L376.36 181.96L377.224 179.584L380.032 172H382.096ZM396.497 184.24C395.329 184.24 394.249 183.992 393.257 183.496C392.281 183 391.529 182.296 391.001 181.384L392.633 180.208C392.985 180.944 393.497 181.52 394.169 181.936C394.857 182.352 395.681 182.56 396.641 182.56C397.489 182.56 398.153 182.4 398.633 182.08C399.113 181.744 399.353 181.312 399.353 180.784C399.353 180.448 399.241 180.144 399.017 179.872C398.809 179.584 398.401 179.376 397.793 179.248L394.913 178.648C393.745 178.408 392.905 178.008 392.393 177.448C391.897 176.888 391.649 176.192 391.649 175.36C391.649 174.704 391.833 174.104 392.201 173.56C392.585 173.016 393.121 172.584 393.809 172.264C394.513 171.928 395.337 171.76 396.281 171.76C397.465 171.76 398.465 171.992 399.281 172.456C400.097 172.92 400.705 173.576 401.105 174.424L399.497 175.48C399.225 174.776 398.785 174.264 398.177 173.944C397.569 173.608 396.937 173.44 396.281 173.44C395.705 173.44 395.209 173.52 394.793 173.68C394.393 173.84 394.081 174.064 393.857 174.352C393.649 174.624 393.545 174.936 393.545 175.288C393.545 175.64 393.665 175.968 393.905 176.272C394.145 176.56 394.593 176.768 395.249 176.896L398.249 177.52C399.369 177.744 400.153 178.112 400.601 178.624C401.049 179.136 401.273 179.76 401.273 180.496C401.273 181.248 401.073 181.912 400.673 182.488C400.273 183.048 399.713 183.48 398.993 183.784C398.273 184.088 397.441 184.24 396.497 184.24ZM404.834 189.04V172H406.514L406.682 174.928L406.418 174.592C406.626 174.032 406.938 173.544 407.354 173.128C407.77 172.696 408.274 172.36 408.866 172.12C409.458 171.88 410.098 171.76 410.786 171.76C411.762 171.76 412.658 172.008 413.474 172.504C414.306 173 414.97 173.712 415.466 174.64C415.962 175.568 416.21 176.688 416.21 178C416.21 179.296 415.954 180.416 415.442 181.36C414.946 182.288 414.282 183 413.45 183.496C412.618 183.992 411.706 184.24 410.714 184.24C409.722 184.24 408.85 184 408.098 183.52C407.362 183.024 406.834 182.4 406.514 181.648L406.754 181.288V189.04H404.834ZM410.522 182.56C411.706 182.56 412.626 182.144 413.282 181.312C413.954 180.48 414.29 179.376 414.29 178C414.29 176.624 413.962 175.52 413.306 174.688C412.666 173.856 411.762 173.44 410.594 173.44C409.826 173.44 409.154 173.632 408.578 174.016C408.002 174.384 407.554 174.912 407.234 175.6C406.914 176.272 406.754 177.072 406.754 178C406.754 178.912 406.906 179.712 407.21 180.4C407.53 181.088 407.97 181.624 408.53 182.008C409.106 182.376 409.77 182.56 410.522 182.56ZM424.896 184.24C423.76 184.24 422.744 183.992 421.848 183.496C420.968 183 420.28 182.288 419.784 181.36C419.288 180.416 419.04 179.296 419.04 178C419.04 176.704 419.288 175.592 419.784 174.664C420.28 173.72 420.96 173 421.824 172.504C422.688 172.008 423.672 171.76 424.776 171.76C425.896 171.76 426.848 172 427.632 172.48C428.432 172.96 429.04 173.616 429.456 174.448C429.872 175.264 430.08 176.184 430.08 177.208C430.08 177.48 430.072 177.728 430.056 177.952C430.04 178.176 430.016 178.376 429.984 178.552H420.288V176.848H429.144L428.16 177.04C428.16 175.888 427.84 175 427.2 174.376C426.576 173.752 425.752 173.44 424.728 173.44C423.944 173.44 423.264 173.624 422.688 173.992C422.128 174.344 421.688 174.864 421.368 175.552C421.064 176.224 420.912 177.04 420.912 178C420.912 178.944 421.072 179.76 421.392 180.448C421.712 181.136 422.16 181.664 422.736 182.032C423.328 182.384 424.032 182.56 424.848 182.56C425.728 182.56 426.44 182.392 426.984 182.056C427.544 181.72 427.992 181.264 428.328 180.688L429.84 181.576C429.536 182.12 429.144 182.592 428.664 182.992C428.2 183.392 427.648 183.704 427.008 183.928C426.384 184.136 425.68 184.24 424.896 184.24ZM433.732 184V172H435.412L435.58 174.688L435.268 174.424C435.524 173.784 435.868 173.272 436.3 172.888C436.732 172.488 437.228 172.2 437.788 172.024C438.364 171.848 438.956 171.76 439.564 171.76C440.428 171.76 441.212 171.928 441.916 172.264C442.62 172.584 443.18 173.08 443.596 173.752C444.028 174.424 444.244 175.28 444.244 176.32V184H442.324V176.992C442.324 175.664 442.036 174.744 441.46 174.232C440.9 173.704 440.204 173.44 439.372 173.44C438.796 173.44 438.22 173.576 437.644 173.848C437.068 174.12 436.588 174.56 436.204 175.168C435.836 175.776 435.652 176.592 435.652 177.616V184H433.732ZM453.271 184.24C452.279 184.24 451.367 183.992 450.535 183.496C449.703 183 449.039 182.288 448.543 181.36C448.047 180.416 447.799 179.296 447.799 178C447.799 176.672 448.063 175.544 448.591 174.616C449.119 173.688 449.815 172.984 450.679 172.504C451.543 172.008 452.471 171.76 453.463 171.76C454.455 171.76 455.311 172.016 456.031 172.528C456.767 173.04 457.255 173.72 457.495 174.568L457.255 174.736V166.48H459.175V184H457.495L457.327 181.096L457.591 180.952C457.479 181.656 457.207 182.256 456.775 182.752C456.359 183.232 455.839 183.6 455.215 183.856C454.607 184.112 453.959 184.24 453.271 184.24ZM453.463 182.56C454.231 182.56 454.895 182.368 455.455 181.984C456.031 181.6 456.471 181.056 456.775 180.352C457.095 179.632 457.255 178.792 457.255 177.832C457.255 176.92 457.095 176.136 456.775 175.48C456.471 174.824 456.039 174.32 455.479 173.968C454.935 173.616 454.295 173.44 453.559 173.44C452.343 173.44 451.399 173.856 450.727 174.688C450.055 175.52 449.719 176.624 449.719 178C449.719 179.376 450.047 180.48 450.703 181.312C451.359 182.144 452.279 182.56 453.463 182.56ZM464.598 169.696C464.166 169.696 463.814 169.568 463.542 169.312C463.286 169.04 463.158 168.688 463.158 168.256C463.158 167.824 463.286 167.48 463.542 167.224C463.814 166.952 464.166 166.816 464.598 166.816C465.03 166.816 465.374 166.952 465.63 167.224C465.902 167.48 466.038 167.824 466.038 168.256C466.038 168.688 465.902 169.04 465.63 169.312C465.374 169.568 465.03 169.696 464.598 169.696ZM465.558 172V184H463.638V172H465.558ZM470.013 184V172H471.693L471.861 174.688L471.549 174.424C471.805 173.784 472.149 173.272 472.581 172.888C473.013 172.488 473.509 172.2 474.069 172.024C474.645 171.848 475.237 171.76 475.845 171.76C476.709 171.76 477.493 171.928 478.197 172.264C478.901 172.584 479.461 173.08 479.877 173.752C480.309 174.424 480.525 175.28 480.525 176.32V184H478.605V176.992C478.605 175.664 478.317 174.744 477.741 174.232C477.181 173.704 476.485 173.44 475.653 173.44C475.077 173.44 474.501 173.576 473.925 173.848C473.349 174.12 472.869 174.56 472.485 175.168C472.117 175.776 471.933 176.592 471.933 177.616V184H470.013ZM494.977 169.792L495.409 171.496C495.393 171.496 495.369 171.496 495.337 171.496C495.305 171.496 495.273 171.496 495.241 171.496C494.457 171.496 493.849 171.656 493.417 171.976C493.001 172.28 492.793 172.776 492.793 173.464L491.617 172.864C491.617 172.24 491.761 171.696 492.049 171.232C492.337 170.768 492.729 170.416 493.225 170.176C493.721 169.92 494.265 169.792 494.857 169.792C494.873 169.792 494.889 169.792 494.905 169.792C494.937 169.792 494.961 169.792 494.977 169.792ZM491.329 182.464C492.465 182.464 493.353 182.728 493.993 183.256C494.633 183.768 494.953 184.456 494.953 185.32C494.953 186.104 494.689 186.784 494.161 187.36C493.649 187.936 492.953 188.376 492.073 188.68C491.209 189 490.233 189.16 489.145 189.16C487.257 189.16 485.841 188.84 484.897 188.2C483.969 187.56 483.505 186.792 483.505 185.896C483.505 185.256 483.713 184.68 484.129 184.168C484.561 183.672 485.281 183.392 486.289 183.328L486.121 183.688C485.577 183.544 485.113 183.304 484.729 182.968C484.361 182.616 484.177 182.112 484.177 181.456C484.177 180.8 484.417 180.24 484.897 179.776C485.393 179.296 486.121 179 487.081 178.888L488.353 179.536H488.113C487.329 179.616 486.769 179.816 486.433 180.136C486.113 180.44 485.953 180.776 485.953 181.144C485.953 181.592 486.113 181.928 486.433 182.152C486.769 182.36 487.233 182.464 487.825 182.464H491.329ZM489.121 187.552C490.049 187.552 490.809 187.456 491.401 187.264C492.009 187.072 492.457 186.824 492.745 186.52C493.033 186.216 493.177 185.888 493.177 185.536C493.177 185.104 493.001 184.76 492.649 184.504C492.313 184.248 491.697 184.12 490.801 184.12H487.105C486.593 184.12 486.161 184.248 485.809 184.504C485.457 184.776 485.281 185.144 485.281 185.608C485.281 186.2 485.617 186.672 486.289 187.024C486.977 187.376 487.921 187.552 489.121 187.552ZM488.953 171.76C489.913 171.76 490.761 171.936 491.497 172.288C492.249 172.624 492.833 173.096 493.249 173.704C493.665 174.312 493.873 175.016 493.873 175.816C493.873 176.6 493.665 177.304 493.249 177.928C492.833 178.536 492.249 179.016 491.497 179.368C490.761 179.704 489.913 179.872 488.953 179.872C487.369 179.872 486.153 179.496 485.305 178.744C484.457 177.976 484.033 177 484.033 175.816C484.033 175.016 484.241 174.312 484.657 173.704C485.089 173.096 485.673 172.624 486.409 172.288C487.145 171.936 487.993 171.76 488.953 171.76ZM488.953 173.32C488.121 173.32 487.425 173.552 486.865 174.016C486.305 174.464 486.025 175.064 486.025 175.816C486.025 176.552 486.305 177.152 486.865 177.616C487.425 178.08 488.121 178.312 488.953 178.312C489.785 178.312 490.481 178.08 491.041 177.616C491.601 177.152 491.881 176.552 491.881 175.816C491.881 175.064 491.601 174.464 491.041 174.016C490.481 173.552 489.785 173.32 488.953 173.32Z" fill="black"/>
<path d="M96.48 329.936C93.5787 329.936 90.9547 329.573 88.608 328.848C86.304 328.08 84.2773 327.056 82.528 325.776C80.8213 324.496 79.4133 323.024 78.304 321.36L82.848 316.752C83.744 318.245 84.8747 319.568 86.24 320.72C87.6053 321.829 89.184 322.704 90.976 323.344C92.768 323.984 94.7307 324.304 96.864 324.304C99.7653 324.304 102.048 323.813 103.712 322.832C105.419 321.808 106.272 320.293 106.272 318.288C106.272 317.136 105.845 316.112 104.992 315.216C104.139 314.277 102.603 313.552 100.384 313.04L91.04 310.864C88.5653 310.309 86.5173 309.541 84.896 308.56C83.3173 307.579 82.144 306.384 81.376 304.976C80.608 303.525 80.224 301.947 80.224 300.24C80.224 297.893 80.8427 295.781 82.08 293.904C83.36 292.027 85.1947 290.533 87.584 289.424C89.9733 288.272 92.8533 287.696 96.224 287.696C99.8507 287.696 103.029 288.379 105.76 289.744C108.491 291.109 110.752 293.157 112.544 295.888L108.192 300.112C106.613 297.68 104.821 295.931 102.816 294.864C100.811 293.797 98.4213 293.264 95.648 293.264C93.6 293.264 91.9147 293.541 90.592 294.096C89.312 294.608 88.352 295.333 87.712 296.272C87.072 297.168 86.752 298.171 86.752 299.28C86.752 300.176 86.9227 300.987 87.264 301.712C87.648 302.437 88.3307 303.077 89.312 303.632C90.2933 304.187 91.68 304.656 93.472 305.04L101.792 306.896C105.76 307.792 108.576 309.115 110.24 310.864C111.904 312.613 112.736 314.853 112.736 317.584C112.736 320.101 112.053 322.299 110.688 324.176C109.323 326.011 107.424 327.44 104.992 328.464C102.56 329.445 99.7227 329.936 96.48 329.936ZM93.792 336.144V281.616H98.912V336.144H93.792Z" fill="black"/>
<rect x="136.5" y="280.5" width="60" height="60" rx="12.5" fill="white"/>
<rect x="136.5" y="280.5" width="60" height="60" rx="12.5" stroke="black"/>
<path d="M168.752 299.044V323.332H164.288V299.044H168.752ZM178.304 309.028V313.3H154.688V309.028H178.304Z" fill="black"/>
<rect x="212.5" y="280.5" width="60" height="60" rx="12.5" fill="white"/>
<rect x="212.5" y="280.5" width="60" height="60" rx="12.5" stroke="black"/>
<path d="M250.544 308.976V313.728H234.176V308.976H250.544Z" fill="black"/>
<rect x="37.5" y="259.5" width="270" height="102" rx="15.5" fill="#BDEEC9" fill-opacity="0.54" stroke="#9ECAB4"/>
</svg>
