<svg width="20" height="20" viewBox="0 0 20 20" fill="none" xmlns="http://www.w3.org/2000/svg">
    <path
        d="M9.91061 18.0107L6.01746 18.346L6.35486 14.4772L14.4526 6.48175C14.5735 6.35893 14.7179 6.26133 14.8772 6.1947C15.0364 6.12807 15.2076 6.09375 15.3805 6.09375C15.5533 6.09375 15.7245 6.12807 15.8839 6.1947C16.0432 6.26133 16.1875 6.35893 16.3083 6.48175L17.9564 8.13243C18.078 8.25233 18.1746 8.39495 18.2405 8.5521C18.3064 8.70925 18.3403 8.8778 18.3403 9.04804C18.3403 9.21828 18.3064 9.38685 18.2405 9.544C18.1746 9.70115 18.078 9.84378 17.9564 9.96366L9.91061 18.0107Z"
        stroke="#474644" stroke-width="0.833333" stroke-linecap="round" stroke-linejoin="round" />
    <path
        d="M2.01514 6.1081C1.55973 6.02935 1.55973 5.37969 2.01514 5.30097C3.66501 5.01572 4.97724 3.76693 5.33535 2.14126L5.3628 2.01665C5.46132 1.56937 6.1022 1.56659 6.20466 2.01299L6.23798 2.15821C6.60935 3.77621 7.92194 5.01446 9.56723 5.2989C10.025 5.37803 10.025 6.03102 9.56723 6.11015C7.92194 6.39459 6.60935 7.63284 6.23798 9.25084L6.20466 9.39606C6.1022 9.84247 5.46132 9.83968 5.3628 9.3924L5.33535 9.2678C4.97724 7.64212 3.66501 6.39333 2.01514 6.1081Z"
        stroke="#474644" stroke-width="0.833333" stroke-linecap="round" stroke-linejoin="round" />
</svg>